<?xml version="1.0" encoding="UTF-8"?>
<svg xmlns="http://www.w3.org/2000/svg" viewBox="0 0 158.58 117.98">
  <defs>
    <style>
      .cls-1 {
        fill: #d1a37e;
      }

      .cls-2, .cls-3 {
        fill: #c43027;
      }

      .cls-2, .cls-4, .cls-5, .cls-6 {
        mix-blend-mode: multiply;
      }

      .cls-7, .cls-6 {
        fill: #f5d9b3;
      }

      .cls-8 {
        fill: #d81f26;
      }

      .cls-4 {
        fill: #ad2e24;
      }

      .cls-9 {
        isolation: isolate;
      }

      .cls-10, .cls-11 {
        mix-blend-mode: screen;
      }

      .cls-10, .cls-12 {
        fill: #76533f;
      }

      .cls-13 {
        fill: #e84365;
        mix-blend-mode: color-dodge;
        opacity: .7;
      }

      .cls-11 {
        fill: #e11f26;
      }

      .cls-14 {
        fill: #951b1e;
      }

      .cls-15 {
        fill: #523929;
      }
    </style>
  </defs>
  <g class="cls-9">
    <g id="Layer_2" data-name="Layer 2">
      <g id="Layer_1-2" data-name="Layer 1">
        <g>
          <g>
            <g>
              <g>
                <path class="cls-14" d="M113.41,84.26c8.59,3.27,21.02,5.06,27.69-2.68,9.48-10.99,5.79-24.97,2.59-37.51-.98-3.83-1.42-5.13-1.43-5.14-1.06-3.09-.56-6.96-1.41-10.2-4.95-18.82-25.16-29.21-41.22-16.23-5.13,4.15-8.53,9.88-13.85,13.85-6.29,4.68-21.14,10.81-19.54,20.73.76,4.71,3.19,7.06,4.09,11.55.83,4.1.36,8.68,1.85,12.8,1.71,4.73,6.43,5.45,10.81,6.04,6.68.9,13.59,1.17,20.09,3.04,3.45.99,6.87,2.44,10.31,3.75Z"/>
                <path class="cls-4" d="M139.93,68.87c-2.96-2.99-4.49-7.22-7.36-10.35-1.46-1.59-3.45-3.59-5.77-3.66-.82-.03-.24.88,0,1.56.3.85.65,1.69,1,2.52.86,2.06,3.1,6.2.87,8.15-2.05,1.78-6.31,1.45-8.8,1.47-1.6,0-3.21-.07-4.81.01-2.83.15-5.68.96-8.47,1.4-4.44.7-9.96,1.57-14.31-.04-2.34-.87-3.85-2.59-5.98-3.76-2.99-1.63-5.66-.62-8.31,1.15-.24.16-.6-.05-.58-.34.06-1.47.36-2.89.59-4.34-1.28.63-2.33,1.55-3.35,2.55-.22.22-.7.08-.66-.28.28-2.8-1.66-8.19,1.22-10.18,2.89-1.99,6.67-2.36,9.63-4.26,2.16-1.39,3.25-3.32,4.35-5.58,1.11-2.29,2.31-4.81,2.32-7.42.04-4.77-2.14-8.18-5.05-11.65-.22.17-.43.34-.66.51-6.29,4.68-21.14,10.81-19.54,20.73.76,4.71,3.19,7.06,4.09,11.55.83,4.1.36,8.68,1.85,12.8,1.71,4.73,6.43,5.45,10.81,6.04,6.68.9,13.59,1.17,20.09,3.04,3.45.99,6.87,2.44,10.31,3.75,8.59,3.27,21.02,5.06,27.69-2.68,3.59-4.17,5.29-8.76,5.84-13.54-1.92,1.98-4.71,3.16-7.01.83Z"/>
                <path class="cls-4" d="M141.1,81.58c9.48-10.99,5.79-24.97,2.59-37.51-.98-3.83-1.42-5.13-1.43-5.14-1.06-3.09-.56-6.96-1.41-10.2-4.95-18.82-25.16-29.21-41.22-16.23-5.13,4.15-8.53,9.88-13.85,13.85-6.29,4.68-21.14,10.81-19.54,20.73.76,4.71,3.19,7.06,4.09,11.55.83,4.1.36,8.68,1.85,12.8,1.71,4.73,6.43,5.45,10.81,6.04,6.68.9,13.59,1.17,20.09,3.04,3.45.99,6.87,2.44,10.31,3.75,8.59,3.27,21.02,5.06,27.69-2.68ZM123.6,68.32c-2.88.47-5.8,1.36-8.68,1.63-2.61.24-3.86-1.55-5.86-2.76-3-1.82-4.85,1.9-7.32,3-1.92.86-3.89-1.03-5.65-1.45-2.4-.57-4.88-.57-7.11-1.73-.14-.07-.22-.3-.15-.45.88-2.02.02-4.91,1.46-6.7.27-.33,1.03-.85,1.65-1.41-.79-.45-1.38-1.19-1.56-2.38-.24-1.57-1.51-1.13-2.16.02-.33.57-.66,1.4-1.22,1.79-.81.57-1.91.5-2.86.45-2.32-.13-6.36-.27-8.04-2.16-2.05-2.3-2.62-6.03-2.14-9,.57-3.56,3-5.3,5.49-7.52-2.58.05-5.15.02-7.64-.7-.3-.09-.33-.46-.14-.66,2.81-3.01,7.13-3.81,10.16-6.58,1.39-1.28,2.85-2.93,4.6-3.73.8-.36,1.55-.51,2.43-.61,1.55-.17,2.64-.85,3.49-2.16,3.63-5.67,8.26-11.7,15.31-12.16-.76-.29-1.55-.49-2.35-.73-.31-.1-.36-.58-.05-.71,5.42-2.41,11.57-4.91,17.3-2.13,5.18,2.51,9.07,7.31,12.95,11.4.13.14.12.31.05.44.62.68,1.16,1.44,1.55,2.3.93,2.05,1.47,4.32,1.76,6.55.22,1.73.33,3.35-.92,4.71-.82.9-3.4-.43-4.21-.69-1.01-.33-2.78-1.2-3.84-.64-1.09.58-1.4,1.77-1.93,2.79-1.04,2.03-2.33,4.07-2.95,6.29-.78,2.77,1.4,5.14,3.04,7.14,1.37,1.66,2.88,3.3,3.78,5.27.08.18.03.44-.17.53-2.73,1.16-4.85-1.03-7.18-2.17.06.26.1.52.14.78.09.74.2,1.52.12,2.27-.05.47,1.67,1,1.98,1.12,1.84.71,3.81,1.46,5.79,1.65,2.16.21,4.08-.84,6.02-1.65.31-.13.65.13.55.47-1.05,3.58-5.58,6.28-8.62,7.99-2.17,1.21-4.39,1.91-6.84,2.31Z"/>
                <path class="cls-2" d="M137.91,52.27c1.01-3.14,1.16-6.94.27-10.09-.5-1.77-1.45-3.4-2.69-4.76-1.57-1.71-3.17-.9-4.12.59-.39,1.62-.27,3.38.04,5.01.43,2.26,1.46,4.13,2.74,5.87,1.1,1.34,2.38,2.54,3.77,3.39Z"/>
              </g>
              <path class="cls-2" d="M135.47,49.18c-1.69-2.22-2.38-4.71-2.3-7.49.07-2.58,1.55-4.64,4.48-3.28.08.04.09-.06.04-.09-.9-.6-2.18-1.98-3.39-1.88-1.13.1-1.93.8-2.25,1.79-1.17,3.56.56,8.47,3.19,11.09.11.11.37.04.24-.13Z"/>
              <g>
                <path class="cls-2" d="M118.39,15.52c.44.18.97.27,1.37-.04.36-.27.4-.74.23-1.13-.39-.9-1.6-1.4-2.52-1.15-.2.05-.39.23-.5.4-.26.38-.08.84.14,1.17.27.43.74.68,1.23.73.02,0,.03.01.05.02-.01,0-.02,0-.04,0,.01,0,.02,0,.04,0Z"/>
                <path class="cls-2" d="M110.75,17.72c.05-.19-.27-.36-.42-.25-.08.07-.21.12-.24.23,0,0-.01.02-.01.03,0,0,0,.01,0,.02h0c0,.08.07.17.12.22.27.19.47.03.54-.23Z"/>
                <path class="cls-2" d="M100.36,31.36c.38-.39.06-.85-.31-1.1-.53-.37-1.47-.53-1.86.11-.1.17-.08.37,0,.54.04.22.2.42.39.51.32.17.63.24.99.21.25-.02.6-.09.78-.28Z"/>
                <path class="cls-2" d="M110.76,38.93c-.11-.5-1.2-.78-1.06-.15.1.5,1.19.78,1.06.15Z"/>
                <path class="cls-2" d="M100.79,35.2c.25-.07.08-.37-.06-.45-.15-.09-.46-.09-.43.16,0,.06.01.11.02.17.01.13.18.22.3.18.06-.02.11-.04.17-.06Z"/>
                <path class="cls-2" d="M101.86,37.14h0s0,0,0-.01c.02-.04.04-.08.04-.12.02-.08.03-.16.01-.24.22-.36-.33-.74-.67-.73-.1,0-.18.02-.27.06-.14.01-.28.06-.34.19-.1.2-.11.35,0,.55.13.27.39.46.69.51.2.03.42-.04.52-.2Z"/>
                <path class="cls-2" d="M76.13,44.26c.16-.25-.35-.61-.54-.4-.07.08-.14.12-.24.15-.09.03-.14.12-.13.22.03.17.2.3.37.33.23.03.43-.11.54-.29Z"/>
                <path class="cls-2" d="M74.69,50.8c0-.06-.01-.12-.02-.17-.05-.41-.85-.53-.7-.02.01.06.03.12.05.17.08.28.72.42.68.02Z"/>
                <path class="cls-2" d="M79.31,65.4c.14-.11.18-.25.17-.38,0,0,0,0,0,0,.48-.11-.06-.8-.42-.74-.07.01-.15.03-.22.04-.15-.06-.31-.08-.44-.04-.16-.03-.34,0-.42.14.01-.01.03-.03.05-.04-.13.13-.18.31-.09.47.04.08.09.15.14.22.18.29.52.46.87.46.13,0,.26-.04.36-.12Z"/>
                <path class="cls-2" d="M75.35,68.93c.14-.13.15-.24.14-.43-.04-.54-1.12-.66-.9-.03.06.16.14.28.27.39.12.09.35.2.49.07Z"/>
                <path class="cls-2" d="M76.84,69.64c-.08-.37-.88-.58-.79-.11.08.37.88.58.79.11Z"/>
                <path class="cls-2" d="M134.92,76.71c.51-.49.48-1.1.29-1.73-.34-1.08-2.03-1.93-2.99-1.15-.28.22-.44.57-.46.92-.26.55.17,1.19.6,1.53.31.24.59.43.96.56.45.17,1.21.24,1.6-.14Z"/>
                <path class="cls-2" d="M137.27,78.94c-.16-.76-1.8-1.18-1.6-.23.16.76,1.8,1.18,1.6.23Z"/>
                <path class="cls-2" d="M132.96,81.31c.13-.46-.48-.86-.85-.92-.38-.05-.63.15-.65.46,0,.04,0,.07-.02.11-.05.21.09.47.25.6.44.35,1.07.36,1.26-.25Z"/>
              </g>
              <g>
                <path class="cls-12" d="M137.86,41.46c-1.3.25-2.69.05-3.97.36-.26.07-.47.16-.64.28-.03.64-.03,1.28,0,1.92.15.13.32.26.52.35.88.4,2.21.09,3.14.23,1.45.23,3.07.06,4.5-.2,3.44-.61,6.34-2.95,9.38-4.53,1-.52,2.11-1.36,3.35-.86.39.16.82.34,1.25.33.82-.02,2.31-.31,2.78-1.09.67-1.11.54-3.67-.34-5.04.04,0,.08-.04.04-.09-1.28-1.84-3.34-.66-4.59.46-2.92,2.62-5.09,4.96-8.92,6.3-2.15.75-4.27,1.15-6.5,1.57Z"/>
                <path class="cls-15" d="M157.86,33.14c-.33-.47-.71-.75-1.12-.87-.37.15-.35,1.07-.51,1.7-.38,1.48-1.19,2.3.09,3.7.37.41.73.81,1.08,1.23.32-.16.59-.36.75-.62.67-1.11.54-3.67-.34-5.04.04,0,.08-.04.04-.09Z"/>
                <g>
                  <path class="cls-10" d="M147.2,40.01c1.56-.9,3.03-1.91,4.43-3.04,1.41-1.14,2.45-2.64,3.91-3.75.04-.03-.03-.08-.07-.07-3.02,1.1-4.96,3.51-7.62,5.26-3.53,2.34-7.55,2.77-11.49,4.06-.12.04.02.2.11.19,3.78-.53,7.37-.7,10.72-2.65Z"/>
                  <path class="cls-12" d="M157.09,35.53c.04-.18.07-.37.12-.56.12-.45.04-.94.18-1.38-.38.42-.66.89-.74,1.49-.04.31-.07.61-.1.92.19-.14.37-.3.54-.47Z"/>
                </g>
              </g>
            </g>
            <path class="cls-13" d="M102.24,25.99c-1.28-1.94-2.52-3.91-3.77-5.86-1.81,2.28-3.69,4.79-3.92,5.14-.16.24-1.06.9-2.11,1.61,1.09.98,2.14,2,3.17,3.05,2.22-1.29,4.42-2.64,6.64-3.94Z"/>
            <path class="cls-13" d="M105.58,24.12c4.39-2.33,8.76-2.92,13.7-2.89,3.73.02,7.41-.36,10.53,2.14,2.96,2.37,5.28,5.48,7.86,8.28l-2.64-8.9s-7.62-9.62-12-10.45c-4.38-.84-15.5,1.31-15.5,1.31,0,0-4.31,1.57-5.77,2.72,1.11,2.66,2.57,5.21,3.78,7.82.01,0,.03-.01.04-.02Z"/>
            <g>
              <path class="cls-2" d="M109.46,58.39c.69-.24,1.09-.87.79-1.58-.14-.32-.39-.6-.68-.81,0-.04-.01-.07-.02-.12-.26-.9-1.57-1-2.34-1.06-.92-.08-2.2-.1-2.84.69-.96,1.2.7,2.53,1.72,2.84,1.11.34,2.28.42,3.38.04Z"/>
              <path class="cls-2" d="M115.34,61.27c-.13-.3-.67-.58-.9-.23-.02.03-.04.07-.06.1-.13.2.12.44.29.5.05.02.1.04.15.05.29.1.67-.06.52-.42Z"/>
              <path class="cls-2" d="M115.65,46.71c.36-.33.36-.81.08-1.2-.53-.74-1.66-1.07-2.45-.55-.37.24-.48.63-.42.99,0,.02-.02.04-.02.06-.1.45.44.81.78.95.38.16.84.2,1.24.19.26,0,.6-.26.78-.43Z"/>
              <path class="cls-2" d="M97.68,62.74c.39-.22.32-.64.11-.96.03-.19-.28-.46-.48-.44-.02,0-.04,0-.07,0-.33-.12-.74-.14-.94.17-.31.09-.6.23-.79.47-.17.21.1.55.27.64.6.31,1.29.44,1.9.1Z"/>
              <g class="cls-5">
                <path class="cls-3" d="M105.12,75.42s.01,0,.03-.01h0s-.02,0-.03.01Z"/>
                <path class="cls-3" d="M104.99,75.49s.09-.05.13-.08c-.15.07-.14.06.03-.03h0s.07-.03.12-.06c.04-.03.08-.06.11-.09.03,0,.05,0,.08,0h.08s.07,0,.11,0h0c.09,0,.18,0,.27,0,.42,0,.74-.37.68-.77-.07-.5-.5-.8-.93-1.01-.44-.2-.9-.39-1.39-.41-.61-.02-1.44.1-1.46.9-.01.83.66,1.5,1.48,1.6.21.03.49.03.69-.06Z"/>
              </g>
              <g class="cls-5">
                <path class="cls-3" d="M113.78,78.49s.05.01.09.03c.26.12.31-.2.12-.33-.12-.08-.24-.12-.37-.15,0,0-.01,0-.02-.01-.03-.04-.05-.07-.06-.08,0,0-.01-.02-.03-.04-.04-.04-.08-.09-.12-.13-.15-.16-.5-.24-.64-.03-.33.49.27.99.74.96.13,0,.27-.09.3-.22Z"/>
                <path class="cls-3" d="M113.53,77.94s0,0,0,0t0,0Z"/>
              </g>
              <path class="cls-2" d="M85.93,71.62c.12-.2,0-.42-.18-.56.11-.06.21-.13.27-.23.09-.15-.2-.36-.32-.24-.12.12-.34.17-.53.22-.07-.01-.15-.02-.23-.02-.19.01-.34.11-.45.26-.01.02-.02.03-.04.05,0,0,0,.01-.02.02-.03.03-.06.06-.09.1-.14.24.13.55.35.6.25.07.48.15.74.15.24,0,.36-.18.47-.36Z"/>
              <path class="cls-2" d="M93.39,50.82c-.08,0-.18-.04-.24-.08-.18-.14-.35.07-.15.17.15.07.3.12.47.09.14-.03.02-.18-.08-.18Z"/>
              <path class="cls-2" d="M95.07,51.76c.1-.06.19-.11.26-.2.1-.11-.08-.29-.18-.31-.14-.04-.27-.05-.42-.06-.21-.01-.39.12-.3.34.1.23.41.37.63.23Z"/>
              <path class="cls-2" d="M105.01,47.65c-.09-.21-.34-.32-.56-.27.08-.01-.02-.04-.05-.08-.09-.1-.33-.13-.37.03-.09.37.36.64.67.66.2,0,.39-.11.3-.34Z"/>
              <path class="cls-2" d="M99.92,41.57c-.11-.09-.05-.21-.09-.34-.03-.13-.17-.23-.31-.19-.2.05-.25.2-.25.39.01.2.21.35.35.45.26.18.56-.11.29-.32Z"/>
              <path class="cls-2" d="M94.13,43.09s.1-.04.18-.05c.55-.05.07-.83-.39-.67-.28.1-.5.28-.33.59.08.14.42.37.54.14Z"/>
            </g>
          </g>
          <g>
            <g>
              <path class="cls-8" d="M77.88,20.95c-14.03-8.88-25.38-4.8-29.33-4.63-3.94.17-5.32.34-5.32.34,0,0-22.64-4.29-31.9,8.92C2.08,38.78-1.69,48.56.7,55.59c2.4,7.03,21.78,31.73,25.56,33.79,3.78,2.06,10.46,4.12,13.89,3.26,3.43-.86,6.35-3.94,10.12-2.92,3.77,1.03,9.77,3.77,12.69,1.89,2.92-1.89,10.46-11.83,10.81-15.44.02-.28.04-.55.06-.83-.04.04-.06.06-.06.06l-1.67.9s-1.93-.64-2.32-.64-2.57,2.19-2.57,2.19l-1.29,3.47-2.83,1.16s-5.66-.64-6.05-.77c-.39-.13-5.92-1.16-5.92-1.16l-9.52-2.83-2.06-7.59-3.21-7.98,1.41-6.94,5.53-4.76,9.52-4.63,2.19-.51,1.03-2.06-.65-1.8,2.45-1.54s2.57.77,2.96.9c.39.13,6.82,1.42,7.21,1.67.39.26,1.54.77,1.54.77l2.06-.77,3.73-1.54,7.46-1.29.26-.9h1.16s1.8.9,1.93,1.29c.13.39,0,.9-.39,1.41-.39.52-.77,2.83-.77,2.83l.81,1.54c1.37-1.2,1.71-4.46,1.71-4.46,0,0,9.09-8.58-9.6-20.41Z"/>
              <path class="cls-2" d="M77.88,20.95c-14.03-8.88-25.38-4.8-29.33-4.63-3.94.17-5.32.34-5.32.34,0,0-22.64-4.29-31.9,8.92C2.08,38.78-1.69,48.56.7,55.59c2.4,7.03,21.78,31.73,25.56,33.79,3.78,2.06,10.46,4.12,13.89,3.26,3.43-.86,6.35-3.94,10.12-2.92,3.77,1.03,9.77,3.77,12.69,1.89,2.92-1.89,10.46-11.83,10.81-15.44.02-.28.04-.55.06-.83-.04.04-.06.06-.06.06l-1.67.9s-1.93-.64-2.32-.64-2.57,2.19-2.57,2.19l-1.29,3.47-2.83,1.16s-5.66-.64-6.05-.77c-.39-.13-5.92-1.16-5.92-1.16l-9.52-2.83-2.06-7.59-3.21-7.98,1.41-6.94,5.53-4.76,9.52-4.63,2.19-.51,1.03-2.06-.65-1.8,2.45-1.54s2.57.77,2.96.9c.39.13,6.82,1.42,7.21,1.67.39.26,1.54.77,1.54.77l2.06-.77,3.73-1.54,7.46-1.29.26-.9h1.16s1.8.9,1.93,1.29c.13.39,0,.9-.39,1.41-.39.52-.77,2.83-.77,2.83l.81,1.54c1.37-1.2,1.71-4.46,1.71-4.46,0,0,9.09-8.58-9.6-20.41ZM65.36,26.88c-.94,1.13-2.67,1.57-3.98,2.09-2.86,1.14-5.69,2.02-8.73,2.49-.85.13-1.73.02-2.58.03-1.74.02-2.49,1.01-2.89,2.62-.69,2.77-1.83,5.64-1.95,8.51-.06,1.61.57,3.98-.93,5.15-1.71,1.33-3.12-1.37-4.74.11-1.77,1.61-.51,4.12-4.89,7.46-2.01,1.54-.64,6.76.2,9.19.88,2.54,2.21,4.94,2.95,7.52.59,2.05.88,6.04,2.8,7.31,1.26.83,2.7,1.3,4.06,1.95,1.5.72,3.97,2.75,1.27,3.99-1.95.9-4.22.87-5.96,2.21-1.31,1-2.78,2.14-4.51,2.05-3.95-.19-8.38-2.01-11.48-4.45-3.87-3.03-6.4-7.7-9.02-11.77-1.73-2.7-3.45-5.42-5.27-8.07-1.57-2.29-3.36-4.46-4.63-6.94-2.15-4.19-3.27-8.66-2.19-13.32,1.09-4.66,3.22-9.06,5.65-13.15,2.21-3.72,4.69-6.97,8.6-9.03,1.06-.56,2.14-1.04,3.25-1.47,3.23-1.67,6.6-3.02,10.28-3.47,3.45-.43,8.25-.21,11.26,1.73.26.17.23.5,0,.67-1.66,1.23-5.56,4.58-2.56,6.46,1.65,1.03,3.71,1.34,5.63,1.37,5.35.1,9.38-3.44,14.04-5.54,2.09-.94,5.99-4.26,6.73,0,.22,1.26.48,3.2-.42,4.28Z"/>
              <path class="cls-2" d="M55.4,23.66c-2.87-1.63-6.55-2.55-9.82-2.32-1.83.12-3.62.72-5.21,1.66-1.99,1.18-1.53,2.92-.27,4.16,1.51.72,3.26.95,4.9.98,2.3.04,4.35-.59,6.31-1.48,1.53-.8,2.97-1.81,4.09-2.99Z"/>
              <path class="cls-7" d="M85.73,41.44c.39-.51.52-1.03.39-1.41-.13-.39-1.93-1.29-1.93-1.29h-1.16l-.26.9-7.46,1.29-3.73,1.54-2.06.77s-1.16-.52-1.54-.77c-.39-.26-6.82-1.54-7.21-1.67-.39-.13-2.96-.9-2.96-.9l-2.45,1.54.65,1.8-1.03,2.06-2.19.51-9.52,4.63-5.53,4.76-1.41,6.94,3.21,7.98,2.06,7.59,9.52,2.83s5.53,1.03,5.92,1.16c.39.13,6.05.77,6.05.77l2.83-1.16,1.29-3.47s2.19-2.19,2.57-2.19,2.32.64,2.32.64l1.67-.9s.02-.02.06-.06c.2-3.31-.29-6.38-.92-6.54-.68-.17-3.77,0-5.66-.86-1.89-.86-2.4-4.63-2.4-4.63,0,0,.69-2.92,1.54-3.26.86-.34,1.55-3.43,1.72-3.94.17-.52,2.91-2.57,4.63-2.92,1.72-.34,2.4-.51,2.57-1.2.17-.68.17-3.6,2.06-3.26,1.89.34,1.37.17,3.43-.69,2.06-.86,3.6-1.03,4.97-2.23l-.81-1.54s.39-2.32.77-2.83Z"/>
            </g>
            <path class="cls-2" d="M51.88,25.41c-2.52,1.2-5.1,1.36-7.8.71-2.51-.6-4.22-2.46-2.29-5.05.05-.07-.04-.1-.09-.06-.77.76-2.38,1.73-2.54,2.93-.14,1.13.39,2.05,1.29,2.57,3.24,1.87,8.4,1.19,11.51-.85.13-.09.11-.36-.08-.26Z"/>
            <g>
              <path class="cls-1" d="M53.17,52.99c-1.22.49-2.07,1.27-2.99,2.19-2.12,2.12-4.19-.54-6.08-1.31,0,0-.02,0-.01.01,1.32,1.35,2.27,3.18,4.37,3.13.72-.01,1.27-.39,1.79-.85,1.09-.95,1.77-2.09,2.99-2.97.1-.07.09-.27-.06-.2Z"/>
              <path class="cls-1" d="M68.12,49.56c-1.52.29-1.52-1.25-2.06-2.19-.3-.53-1.05-.63-1.59-.62-1.94.02-3.08,1.81-4.39,2.92-.09.08-.1.27.06.2,1.62-.62,3.57-2.55,5.2-.87.36.36.55,1.01,1.14,1.08.63.08,1.09.01,1.63-.3.08-.04.16-.25,0-.21Z"/>
              <path class="cls-1" d="M72.75,49.35c-.13-.04-.35.17-.22.28.15.12.21.26.27.44.07.2.17.39.38.41.13,0,.25-.12.27-.24.06-.38-.37-.78-.7-.88Z"/>
              <path class="cls-1" d="M62.86,54.72c.02-.08-.1-.06-.12,0-.7,1.31-1.41,2.65-1.38,4.17.05,2.29.49,4.58.9,6.83.05.26.38,0,.38-.17-.03-3.57-.58-7.33.23-10.82Z"/>
              <path class="cls-1" d="M56.25,55.84c.02-.09-.11-.05-.13,0-.94,2.85-.19,6.37.56,9.18.07.26.38.01.37-.17-.1-2.95-1.3-6.08-.81-9.02Z"/>
              <path class="cls-1" d="M49.46,59.77c0-.06-.1,0-.1.04-.26,2.87-.24,6,1.13,8.6.18.33.63-.09.6-.35-.33-2.8-1.29-5.48-1.63-8.29Z"/>
              <path class="cls-1" d="M41.68,63.39c-.34-1.79-.18-3.64-.56-5.41,0-.04-.05,0-.05.02.13,1.63-.2,3.24-.11,4.87.11,2.17.58,4.3,1.15,6.39.1.36.58.03.55-.25-.2-1.9-.62-3.75-.98-5.63Z"/>
              <path class="cls-1" d="M49.63,73.01c-.95.58-1.85,1.27-2.92,1.59-1.38.41-2.78-.67-3.63-1.62-.01-.01-.04.01-.03.03.62,1.07,1.6,2.56,3.01,2.61,1.65.07,2.92-.93,3.89-2.19.23-.3.05-.65-.32-.43Z"/>
              <path class="cls-1" d="M58.53,71.31c-.58.31-1.04.78-1.62,1.09-.83.44-1.97.38-2.83.11-.06-.02-.14.07-.09.13,1.44,1.68,4.38,1.47,5.01-.89.08-.31-.13-.61-.47-.43Z"/>
              <path class="cls-1" d="M65.76,68.75c-.55-.04-.94.38-1.35.69-.61.45-1.29.6-2.03.7-.11.01-.21.22-.06.25.68.1,1.38.24,2.05.05.64-.18,1.41-.59,1.61-1.27.05-.18.01-.4-.21-.41Z"/>
              <path class="cls-1" d="M64.88,77.94c-.58.36-1.19.73-1.8,1.04-.36.19-.7.4-1.07.57-.25.11-.45.15-.62.37-.11.14-.05.28.05.3h0c.29,0,.58.18.89.18.46,0,.92-.13,1.35-.28.81-.28,1.45-1.09,1.7-1.88.11-.36-.21-.48-.49-.31Z"/>
            </g>
            <g>
              <path class="cls-1" d="M43.94,56.65c-.02-.06-.04-.09-.07-.11,0-.01-.02-.03-.02-.05-.06-.16-.26-.03-.33.07-.07.03-.15.09-.17.17.01,0,.03-.02.04-.03-.03.03-.06.05-.09.08-.06.06-.09.13-.12.21-.11.38.44.28.47-.03.05-.01.09-.03.14-.07.1-.03.19-.14.15-.25Z"/>
              <path class="cls-1" d="M40.04,57.86c-.52.14-.89.47-1.09.97-.22.52.1,1.2.74,1.07.43-.09.87-.44.93-.9v-.08c.03-.06.06-.12.08-.19.18-.45-.11-1.01-.65-.87Z"/>
              <path class="cls-1" d="M61.86,74.43c-.07.02-.07.02.01.01-.11,0-.2.02-.31.07-.24.1-.44.35-.47.61-.04.28.19.51.47.44.33-.09.55-.32.66-.64.08-.25-.05-.58-.37-.49Z"/>
              <path class="cls-1" d="M69.51,72.12c-.34,0-.66.66-.24.66.34,0,.66-.66.24-.66Z"/>
            </g>
            <g>
              <path class="cls-2" d="M15.43,35.23c.27-.4.47-.89.24-1.35-.19-.4-.64-.54-1.06-.46-.95.2-1.7,1.28-1.64,2.23.01.21.15.43.28.58.31.33.81.24,1.18.1.47-.18.81-.59.96-1.06.01-.01.02-.03.03-.04,0,.01,0,.02,0,.04,0-.01,0-.02,0-.04Z"/>
              <path class="cls-2" d="M16.01,43.16c-.18-.09-.41.19-.33.36.05.09.08.23.17.28,0,0,.01,0,.03.01,0,0,0,0,.02,0h0c.08,0,.18-.03.24-.08.24-.22.12-.46-.12-.58Z"/>
              <path class="cls-2" d="M27.24,56.13c-.3-.45-.82-.23-1.13.07-.47.44-.82,1.33-.28,1.84.15.14.34.15.53.11.22,0,.45-.11.58-.28.23-.28.36-.56.41-.93.04-.25.04-.6-.11-.82Z"/>
              <path class="cls-2" d="M36.78,47.5c-.51,0-1.01,1.01-.36,1.01.51,0,1.01-1.01.36-1.01Z"/>
              <path class="cls-2" d="M31.08,56.49c-.02-.26-.34-.15-.46-.03-.12.13-.18.43.07.45.06,0,.11,0,.17.01.13.01.25-.13.24-.26,0-.06-.01-.12-.02-.18Z"/>
              <path class="cls-2" d="M33.2,55.85h0s-.01,0-.02-.01c-.03-.03-.07-.05-.12-.07-.07-.04-.15-.06-.23-.07-.3-.28-.79.17-.85.5-.02.09-.02.18,0,.27-.01.14,0,.28.12.38.17.14.32.17.54.12.29-.07.53-.29.64-.57.07-.19.04-.42-.09-.55Z"/>
              <path class="cls-2" d="M34.9,82.48c-.21-.21-.66.22-.5.45.06.09.09.16.1.26.01.1.09.17.19.17.17.01.34-.13.39-.29.08-.22-.02-.44-.18-.59Z"/>
              <path class="cls-2" d="M41.01,85.23c-.06,0-.12,0-.18-.01-.41-.04-.69.72-.17.69.06,0,.12-.01.18-.01.29-.02.56-.63.16-.66Z"/>
              <path class="cls-2" d="M56.25,83.7c-.08-.15-.2-.23-.34-.24h0c-.01-.5-.79-.11-.81.26,0,.07,0,.15-.01.22-.09.14-.14.28-.13.42-.06.15-.07.33.05.44,0-.02-.02-.04-.03-.06.1.15.27.24.45.19.09-.02.16-.06.24-.09.32-.12.55-.42.62-.75.02-.13.01-.26-.04-.38Z"/>
              <path class="cls-2" d="M58.88,88.31c-.1-.17-.2-.2-.39-.23-.53-.07-.87.96-.21.88.17-.02.3-.07.43-.19.12-.09.27-.3.17-.46Z"/>
              <path class="cls-2" d="M59.88,86.99c-.38,0-.74.74-.27.74.38,0,.74-.74.27-.74Z"/>
              <path class="cls-2" d="M78.71,31.59c-.37-.6-.98-.7-1.63-.63-1.13.11-2.31,1.59-1.74,2.69.16.31.47.54.81.63.48.37,1.2.09,1.62-.27.3-.25.54-.49.75-.83.26-.41.47-1.13.19-1.59Z"/>
              <path class="cls-2" d="M81.38,29.75c-.77,0-1.52,1.52-.56,1.52.78,0,1.52-1.52.56-1.52Z"/>
              <path class="cls-2" d="M82.81,34.46c-.42-.23-.94.29-1.07.64-.13.36.02.65.32.73.04,0,.07.02.11.04.2.09.48,0,.63-.13.43-.36.57-.98.01-1.28Z"/>
            </g>
            <g>
              <path class="cls-12" d="M44.81,21.49c-.02,1.32-.5,2.65-.46,3.97,0,.27.06.49.15.68.62.16,1.24.29,1.87.38.16-.11.31-.25.45-.43.58-.78.54-2.15.87-3.02.52-1.38.69-2.99.73-4.44.11-3.49-1.59-6.81-2.5-10.1-.3-1.09-.9-2.35-.15-3.45.23-.35.5-.74.58-1.15.15-.8.17-2.32-.5-2.94-.95-.88-3.49-1.28-5.01-.71,0-.04-.03-.08-.08-.06-2.07.87-1.33,3.13-.49,4.58,1.97,3.4,3.81,5.99,4.34,10.02.3,2.26.25,4.41.21,6.68Z"/>
              <path class="cls-15" d="M40.76.21c-.53.23-.88.55-1.09.92.07.39.98.56,1.56.85,1.37.67,2.01,1.63,3.65.67.47-.28.94-.55,1.42-.81-.09-.35-.23-.66-.46-.87-.95-.88-3.49-1.28-5.01-.71,0-.04-.03-.08-.08-.06Z"/>
              <g>
                <path class="cls-10" d="M45.31,12.05c-.57-1.71-1.25-3.35-2.07-4.95-.82-1.62-2.08-2.94-2.87-4.59-.02-.05-.09.01-.08.05.46,3.18,2.41,5.58,3.59,8.53,1.57,3.94,1.17,7.95,1.62,12.08.01.13.2.02.2-.07.26-3.81.83-7.36-.39-11.04Z"/>
                <path class="cls-12" d="M42.94,1.45c-.17-.08-.35-.15-.52-.23-.42-.2-.92-.23-1.32-.46.33.46.74.83,1.3,1.03.29.1.59.2.88.28-.1-.22-.21-.42-.35-.63Z"/>
              </g>
            </g>
            <path class="cls-6" d="M85.73,41.44c.39-.51.52-1.03.39-1.41-.13-.39-1.93-1.29-1.93-1.29h-1.16l-.26.9-7.46,1.29-3.73,1.54-2.06.77s-1.16-.52-1.54-.77c-.39-.26-6.82-1.54-7.21-1.67-.39-.13-2.96-.9-2.96-.9l-2.45,1.54.65,1.8-1.03,2.06-2.19.51-9.52,4.63-5.53,4.76-1.41,6.94,3.21,7.98,2.06,7.59,9.52,2.83s5.53,1.03,5.92,1.16c.39.13,6.05.77,6.05.77l2.83-1.16,1.29-3.47s2.19-2.19,2.57-2.19,2.32.64,2.32.64l1.67-.9s.02-.02.06-.06c.2-3.31-.29-6.38-.92-6.54-.68-.17-3.77,0-5.66-.86-1.89-.86-2.4-4.63-2.4-4.63,0,0,.69-2.92,1.54-3.26.86-.34,1.55-3.43,1.72-3.94.17-.52,2.91-2.57,4.63-2.92,1.72-.34,2.4-.51,2.57-1.2.17-.68.17-3.6,2.06-3.26,1.89.34,1.37.17,3.43-.69,2.06-.86,3.6-1.03,4.97-2.23l-.81-1.54s.39-2.32.77-2.83ZM59.57,45.54c.28-.95.76-1.76,1.81-1.98,1.25-.26,2.52.73,3.4,1.47.21.17.11.48-.08.61-1.37,1.01-2.88,1.79-4.29,2.75-.08.05-.15.06-.22.06-.31.09-.6.02-.77-.39-.32-.74-.07-1.78.15-2.52ZM62.09,52.66c.3-.25.75-.02.65.38-.04.18-.09.36-.13.54.06.08.08.19.05.31-1.52,5.15-.32,10.16.36,15.33.04.29-.36.49-.59.34-5.36-3.67-5.11-12.87-.34-16.91ZM55.55,54.56c.05,2.86-.18,5.72.33,8.56.03.15-.03.26-.11.34.39,2.37,1.11,4.63,1.73,6.94.07.24-.12.5-.37.5-3.32-.09-4.18-3.96-4.31-6.65-.15-3.09.03-7.32,2-9.89.22-.29.72-.22.73.2ZM47.39,52.64c1.61-1.25,4.37-2.86,6.49-2.31.24.06.37.36.23.57-.88,1.33-2.04,2.59-3.28,3.58-.86.69-1.99,1.56-3.13,1.31-.57-.02-1.1-.2-1.31-.79-.32-.92.28-1.82.99-2.37ZM46.79,73.65c-1.38-1.16.26-4.95.52-6.29.6-3.14-.97-6.33.83-9.3.21-.36.69-.17.72.2.02.16.03.32.04.48.21.03.42.21.37.48-.13.83-.13,1.64-.06,2.44.02.12.04.23.06.35.01.07.01.12,0,.18.23,1.73.76,3.42,1.09,5.17.25,1.29.4,2.3-.1,3.55-.47,1.15-1.82,4.14-3.48,2.75ZM67.13,74.01c.18-.98-.15-2.29.48-3.14.4-.53,1.06-.79,1.7-1.03.27-.14.55-.25.84-.32.02,0,.05-.02.07-.03.08-.04.15-.04.22-.03.33-.05.66-.06,1.02,0,.32.04.33.46.17.65-.56.69-1.43,1-1.99,1.68-.66.8-1.2,1.69-1.81,2.53-.26.36-.79.14-.71-.3ZM66.37,72.15c.24-.17.6.06.59.33-.07,1.15.5,2.51-.18,3.56-.53.82-1.5,1.48-2.29,2.04-.69.49-1.53,1.14-2.44.93-1.96-.45-3.98.44-5.94.63-.17.02-.33-.13-.38-.28-.19-.59-.34-1.18-.55-1.76-2.18.69-4.12.26-6.3-.45-.29-.1-.43-.56-.09-.71,1.23-.56,2.27-1.45,3.59-1.81,1.33-.36,2.51.82,3.79.65.36-.05,1.52-1.51,2.1-1.29,1.35.52,1.71,1.6,3.39,1.48,1.56-1.12,3.16-2.2,4.71-3.33ZM64.5,61.62c-.16.24-.52.26-.67,0-1.12-1.86-.62-4.25.34-6.25.39-1.65,1.46-3.56,3.26-3.51.22,0,.38.17.39.39.15,3.53-1.38,6.52-3.31,9.37ZM79.71,46.45c-1.12.39-2.15,1.32-3.34,1.5-.51.08-.97.02-1.42-.12-.11.1-.27.13-.43.04-.48-.28-1.9-.98-1.49-1.79.37-.74,1.52-.76,2.21-.9,1.4-.28,4.04-.95,4.74.79.08.21-.09.42-.27.48Z"/>
            <path class="cls-13" d="M13.09,57.86c-1.98.42-3.97.81-5.96,1.2,1.87,3.19,4.02,6.28,5.41,8.23.46.65.92,1.33,1.37,2.03.45-.51.92-1.01,1.38-1.51-1.42-2.95-1.86-6.59-2.2-9.96Z"/>
            <path class="cls-13" d="M15.59,36.44c1.63-4.94,4.37-8.62,8.61-11.65,2.17-1.56,4.47-2.89,6.8-4.19l-4.58-.12s-11.32,3.21-15.05,9.13c-3.73,5.92-8.23,15.7-7.98,20.32.05.89.31,1.92.72,3.04,2.84,0,5.69-.36,8.53-.62-.06-5.4,1.25-10.76,2.94-15.91Z"/>
          </g>
          <g>
            <path class="cls-7" d="M79.32,71.96l.18-2.58s4.29-2.22,5.49-1.8c1.21.42,6.13,3.75,10.17,4.68,4.04.92,14.72-3.48,16.18-4.48,1.46-.99,6.33-10.28,6.33-10.28l1.27-1.88s10.82,4.85,13.79,10.27c2.97,5.43,5.53,17.07,5.39,17.53-.15.47-6.92,9.54-6.92,9.54,0,0-6.85-2.49-9.32-1.89-2.47.6-8.08,3.54-8.08,3.54,0,0-3.25,3.3-3.55,4.23-.3.93-5.31,8.08-5.93,8.39-.61.32-12.37,9.23-12.37,9.23l-3.15-6.31-9.47-38.19Z"/>
            <path class="cls-1" d="M105.54,79.35c-1.75.15-3.46-.22-5.18-.47-1.92-.27-3.57-1.33-5.49-1.55-.04,0-.03-.08,0-.08,3.26-.24,6.59.51,9.85.61,4.2.13,8.2-.61,12.12-2.09.08-.03.08.13.02.16-3.45,1.57-7.53,3.1-11.32,3.42Z"/>
            <path class="cls-1" d="M110.86,70.75s-.03-.08,0-.09c1.62-.17,3.33-.36,4.74-1.22,1.66-1.01,2.82-2.7,3.87-4.28.09-.13.21.02.17.13-.77,1.87-1.51,3.63-3.18,4.9-1.67,1.26-3.67.94-5.6.56Z"/>
            <path class="cls-1" d="M123.24,72.6c.78-1.29,1.45-2.56,2.38-3.78.82-1.06,1.31-2.3,2.43-3.1.25-.18.34.31.24.46-1.56,2.25-3.12,4.51-4.97,6.54-.07.07-.11-.06-.08-.12Z"/>
            <path class="cls-1" d="M103.83,97.56c-.05.04-.08-.05-.04-.08,1.58-1.59,2.77-3.49,4.16-5.25,1.66-2.09,3.53-4.03,5.37-5.97,2.58-2.71,5.69-4.93,9.26-6.13.13-.04.13.21.04.26-3.63,1.85-6.66,4.71-9.44,7.64-2.99,3.15-5.98,6.77-9.34,9.52Z"/>
            <path class="cls-1" d="M128.33,85.74c-1.32.44-2.6.97-3.92,1.4-.12.04-.12-.2-.04-.24,2.25-1.11,4.83-2.92,7.39-3.12.34-.02.3.48.1.62-1.06.73-2.32.94-3.53,1.33Z"/>
            <path class="cls-1" d="M100.81,88.13c1.9-1.79,3.37-3.83,5.49-5.4.24-.17.33.32.17.46-1.87,1.68-3.63,3.56-5.6,5.12-.09.07-.12-.12-.07-.18Z"/>
            <path class="cls-6" d="M131.2,92.96s6.77-9.07,6.92-9.54c.15-.47-2.42-12.1-5.39-17.53-2.97-5.43-13.79-10.27-13.79-10.27l-1.27,1.88s-2.93,5.59-4.93,8.56c1.01-.32,2.01-.66,2.99-1.06,1.81-.74,2.9-2.19,4.48-3.24.19-.12.43-.12.58.06,1.68,2.11.69,3.8-.56,5.9-1.9,3.2-4.09,5.68-7.54,7.18-4.12,1.78-9.79,2.9-14.37,1.5-.12-.01-.24-.02-.36-.04-5.2-.7-7.99-4.9-12.5-6.98-.42-.19-.29-.84.19-.79.5.05.99.07,1.48.11-.99-.55-1.76-.98-2.14-1.12-1.2-.42-5.49,1.8-5.49,1.8l-.18,2.58,9.47,38.19,3.15,6.31s11.76-8.91,12.37-9.23c.61-.32,5.63-7.46,5.93-8.39.3-.93,3.55-4.23,3.55-4.23,0,0,5.62-2.94,8.08-3.54,2.47-.6,9.32,1.89,9.32,1.89ZM100.91,87.42c-.33.3-.74-.11-.64-.47.75-2.72.53-4.36-.85-6.81-.15-.26.14-.62.42-.57,2.21.38,4.39.21,6.54-.2.05-.05.12-.09.22-.11.37-.04.73-.1,1.09-.16.72-.17,1.45-.35,2.16-.54.1-.03.18-.01.24.02.28-.07.55-.13.83-.19.39-.09.66.51.32.73-3.76,2.37-7.07,5.31-10.34,8.29ZM122.52,74.76c-.36.05-.59-.36-.39-.65,1.39-2.01,2.81-4.1,4.65-5.72.5-.62,1.03-1.22,1.63-1.77.16-.15.44-.1.58.07,3.44,4.32-2.79,7.56-6.46,8.07ZM114.42,84.52c-1.55,1.44-2.94,3.04-4.31,4.65.08.12.09.28-.04.43-2.18,2.58-3.99,5.53-6.76,7.53-.21.15-.53.1-.63-.16-2.12-5.17,1.75-9.69,5.39-12.96,5.14-4.6,11.29-7.73,18.31-7.67.46,0,.43.61.12.79-4.13,2.4-8.52,4.11-12.08,7.4ZM129.33,83.94c-1.31,1.01-2.86,1.36-4.4,1.89-1.57.53-2.98,1.36-4.6,1.78-.34.09-.61-.38-.39-.64.71-.85,1.44-1.59,2.24-2.19-.01-.12.03-.24.15-.33,2.03-1.43,4.64-2.49,6.98-1.16.23.13.21.5.01.65Z"/>
            <g>
              <path class="cls-3" d="M117.22,56.3l-2.71-4.24s11.81.24,13.82,2.1c2.01,1.86,4.55,5.89,4.91,6.12.36.23,1,6.65,3.56,9.63,2.56,2.98,4.66,6.67,4.91,6.99.26.32-.01,5.39-.01,5.39l-4.55,8.16s-1.45,3.59-1.11,4.01c.34.42-4.12,2.43-4.12,2.43l-2.54-4.9,1.52-2.43,3.86-7.08-1.26-12.17-2.94-5.62s-11.06-6.22-13.33-8.39Z"/>
              <path class="cls-8" d="M117.22,56.3l-2.71-4.24s11.81.24,13.82,2.1c2.01,1.86,4.55,5.89,4.91,6.12.36.23,1,6.65,3.56,9.63,2.56,2.98,4.66,6.67,4.91,6.99.26.32-.01,5.39-.01,5.39l-4.55,8.16s-1.45,3.59-1.11,4.01c.34.42-4.12,2.43-4.12,2.43l-2.54-4.9,1.52-2.43,3.86-7.08-1.26-12.17-2.94-5.62s-11.06-6.22-13.33-8.39Z"/>
              <path class="cls-2" d="M131.92,96.89l-2.54-4.9,1.52-2.43,3.86-7.08-1.26-12.17-2.94-5.62s-11.06-6.22-13.33-8.39l-2.54-3.98c2.22,1.76,4.01,3.99,6.27,5.72,1.36,1.03,2.81,1.94,4.34,2.7,1.6.79,3.49,1.41,4.95,2.43,4.68,3.29,4.98,10.92,6.11,16.02.08.35.5.47.74.18,1.62-2.01,2.9-3.63,2.08-6.24-.04-.11-.08-.21-.11-.32,1.46,2.06,2.49,3.86,2.66,4.08.26.32-.01,5.39-.01,5.39l-4.55,8.16s-1.45,3.59-1.11,4.01c.34.42-4.12,2.43-4.12,2.43Z"/>
              <g class="cls-5">
                <path class="cls-3" d="M124.78,57.95c-.35-.44.17-1.55.6-1,.35.44-.17,1.54-.6,1Z"/>
                <path class="cls-3" d="M127.7,58.19l-.05-.02c-.19-.07-.24-.39-.2-.55,0-.02.01-.05.02-.07.04-.2.16-.52.42-.55.02,0,.05,0,.08,0,.49-.04.49.58.34.89-.01.03-.03.06-.05.09-.11.21-.33.29-.54.21Z"/>
                <path class="cls-3" d="M136.6,82.37c-.93-1.17.45-4.13,1.62-2.67.94,1.17-.45,4.13-1.62,2.67Z"/>
                <path class="cls-3" d="M140.05,80.28c-.01-.05-.03-.1-.04-.15-.05-.16.05-.47.27-.44.23.03.2.36.12.5-.02.04-.05.09-.07.13-.08.14-.23.1-.28-.04Z"/>
              </g>
            </g>
            <g>
              <path class="cls-8" d="M73.56,97.21s-6.38-11.19-5.14-17.21c1.24-6.02,6.83-14.84,7.8-14.06.98.78.22,6.76,1.15,5.32.93-1.44,2.17-2.26,2.87-1.61.7.66,8.95,7.91,11.23,9.03,2.28,1.12,5.56,1.96,5.47,2.72-.08.76-2,.74-.61,1.19,1.39.44,2.65,2.22,2.65,2.22,0,0-1.95.17-1.52.7.43.53,2.97,6.29,3.1,10.35.13,4.05-1.74,9.72-1.85,10.67-.1.95.28,1.86-.42,2.07-.7.21-6.21-.39-5.95,1.66.26,2.05-.56,7.73-.56,7.73,0,0-2.16-3.12-2.41-3.44-.25-.32-1.79,3.17-3.36,1.65-1.57-1.52-4.1-4.69-5.65-5.53-1.54-.84-2.9-5.13-2.9-5.13,0,0-2.92-4.94-3.9-8.32Z"/>
              <path class="cls-2" d="M92.34,110.25c.26,2.05-.56,7.73-.56,7.73,0,0-2.16-3.12-2.41-3.44-.25-.32-1.79,3.17-3.36,1.65-1.57-1.52-4.1-4.69-5.65-5.53-1.54-.84-2.9-5.13-2.9-5.13,0,0-.39-.67-.94-1.68.82.59,1.71.96,2.67.93.29-.01.39-.34.32-.57-1.2-3.73-7.25-10.35-3.78-14.21,4.06-4.52,8.27,3.67,9.75,6.71.12.24.41.33.63.16,5.13-3.92,6.17-10,2.75-15.51-1.92-3.09-4.54-6.43-7.74-8.29-2.54-1.48-3.51-.12-5.46,1.2-.42-1.65-.44-5.26-2.01-5.8,1.19-1.76,2.21-2.82,2.57-2.53.98.78.22,6.76,1.15,5.32.93-1.44,2.17-2.26,2.87-1.61.7.66,8.95,7.91,11.23,9.03,2.28,1.12,5.56,1.96,5.47,2.72-.08.76-2,.74-.61,1.19,1.39.44,2.65,2.22,2.65,2.22,0,0-1.95.17-1.52.7.43.53,2.97,6.29,3.1,10.35.13,4.05-1.74,9.72-1.85,10.67-.1.95.28,1.86-.42,2.07-.7.21-6.21-.39-5.95,1.66Z"/>
              <path class="cls-2" d="M84.18,101.45c-.21.9-.88.05-1.14-.18-2.27-2.1-4.16-5.24-5.1-8.19-.25-.79-.79-3.26-.34-4.32.24-.07.49-.09.73-.08,2.28,1.26,4.22,2.96,5.16,5.6.61,1.71,1.22,3.54,1,5.4-.07.6-.17,1.19-.31,1.78Z"/>
              <g class="cls-5">
                <path class="cls-3" d="M93.11,98.6c-.75.17-1.17-.65-1.2-1.28-.03-.68.3-1.61,1.06-1.77.06-.01.11-.01.16-.01.28-.15.64-.14.88.15.4.49.32,1.1.11,1.65-.11.55-.43,1.14-1.01,1.27Z"/>
                <path class="cls-3" d="M92.34,103.06s-.15-.07-.09-.06c-.38-.04-.38-.64-.22-.87.11-.16.23-.23.38-.34.35-.27.65.23.66.52.01.38-.28.97-.74.75Z"/>
                <path class="cls-3" d="M94.42,104.98c-.05-.07.03-.23.09-.15.05.07-.03.23-.09.15Z"/>
                <path class="cls-3" d="M79.64,82.61c-.2.05-.32-.03-.47-.15-.34-.29-.16-.97.17-1.18.01,0,.03-.02.04-.03.12-.07.29-.09.41-.01.34.21.39.58.29.94-.06.2-.25.38-.45.43Z"/>
                <path class="cls-3" d="M82.14,85.56c-.12-.02-.2-.11-.32-.07-.24.09-.25-.38-.12-.48.21-.17.55-.24.67.07.06.16.02.51-.23.48Z"/>
                <path class="cls-3" d="M73.1,83.35s-.01-.03-.02-.05c-.09-.21-.09-.45.04-.66.09-.15.3-.29.47-.18.01,0,.02.01.04.02.28.17.27.59.12.85-.15.24-.51.33-.64.02Z"/>
                <path class="cls-3" d="M78.88,77.03c-.23.13-.49.07-.65-.1-.14-.1-.23-.24-.31-.39-.23-.41-.16-.99.08-1.38.25-.41.79-.66,1.17-.24.52.58.43,1.69-.28,2.11Z"/>
              </g>
              <path class="cls-2" d="M81.98,93.8c-.93-1.14-2.5-3.08-4.15-3.15-.13,0-.25,0-.37.01-.82-.24-1.6-.04-2.18.96-.12.09-.23.18-.34.27,1.02-4.26,5.32-2.46,7.22-.17,2.53,3.05,3.74,7.84,1.7,11.38.36-3.29.28-6.63-1.88-9.29Z"/>
            </g>
            <path class="cls-11" d="M72.93,81.21c-.27,1.33-.46,2.65-.43,4.05.04,2.33.45,4.61.88,6.89,0,.85.09,1.65.36,2.32l.36,2.6s-2.57-4.64-2.5-5.28c0,0-3.17-6.43-2.56-11.04,1.29.18,2.61.21,3.9.45Z"/>
            <path class="cls-11" d="M74.78,75.54c-.38,1.28-1.09,2.56-1.4,3.76-1.22-.3-2.45-.58-3.69-.8,1.64-4.24,3.8-8.11,3.8-8.11,0,0,.96,2.35,1.26,4.89,0,.08.02.17.03.26Z"/>
          </g>
        </g>
      </g>
    </g>
  </g>
</svg>