<?xml version="1.0" encoding="UTF-8"?>
<svg id="Layer_2" data-name="Layer 2" xmlns="http://www.w3.org/2000/svg" viewBox="0 0 96.19 45.13">
  <defs>
    <style>
      .cls-1 {
        fill: #b2b3b3;
      }

      .cls-1, .cls-2, .cls-3, .cls-4, .cls-5, .cls-6, .cls-7, .cls-8 {
        fill-rule: evenodd;
      }

      .cls-2 {
        fill: #f0f0f0;
      }

      .cls-3 {
        fill: #fff;
      }

      .cls-4 {
        fill: #e5340d;
      }

      .cls-5 {
        fill: #ccccce;
      }

      .cls-6, .cls-9 {
        fill: #1a1a18;
      }

      .cls-7 {
        fill: #dd300d;
      }

      .cls-8 {
        fill: #e6e6e5;
      }
    </style>
  </defs>
  <g id="Layer_1-2" data-name="Layer 1">
    <g>
      <path class="cls-5" d="M85.27,6.65s5.42-2.34,7.53-2.17c2.11.17,4.11,4.85,3.14,8.1-.97,3.25-8.38,2.97-8.38,2.97l-2.28-8.9Z"/>
      <path class="cls-8" d="M5.72,18.48S80.77,0,84.42,0s7.41,3.88,8.67,9.92c1.25,6.05-.8,13.23-6.5,15.51-5.7,2.28-73.91,19.85-78.01,19.5C4.46,44.6.36,38.32.01,29.77c-.34-8.55,5.7-11.29,5.7-11.29Z"/>
      <path class="cls-2" d="M90.2,3.35c1.3,1.67,2.33,3.91,2.89,6.57.31,1.47.42,3.01.32,4.53C71.06,25.64,10.41,39.06,8.35,39.47l-2.27-16.65S55.96,10.7,71.13,7.51c8.91-1.88,14.75-3.51,19.07-4.16Z"/>
      <path class="cls-7" d="M5.72,18.48s14.36-3.54,30.83-7.51c9.44,4.62,12.39,14.97,8.24,25.76-17.51,4.42-34.25,8.38-36.22,8.21C4.46,44.6.36,38.32.01,29.77c-.34-8.55,5.7-11.29,5.7-11.29Z"/>
      <path class="cls-4" d="M41.38,14.35c4.08,3.98,5.81,9.62,5.07,15.81-19.53,5.24-37.01,9.1-38.1,9.31l-2.27-16.65s17.76-4.31,35.31-8.47Z"/>
      <path class="cls-8" d="M12.73,29.43C17.58,51.14.8,49.46.01,29.77c-.43-10.64,8.92-17.32,12.72-.34Z"/>
      <path class="cls-1" d="M11.03,30.19c3.46,15.49-8.51,14.29-9.07.25-.3-7.59,6.36-12.35,9.07-.25Z"/>
      <path class="cls-5" d="M10.18,30.58c2.76,12.37-6.79,11.41-7.24.2-.24-6.06,5.08-9.87,7.24-.2Z"/>
      <polygon class="cls-6" points="84.71 14.92 83.8 11.64 80.53 12.54 80.15 11.17 83.42 10.26 82.51 6.99 83.9 6.61 84.81 9.88 88.08 8.97 88.46 10.34 85.19 11.25 86.1 14.54 84.71 14.92"/>
      <rect class="cls-9" x="18.06" y="26.96" width="6.25" height="2.02" transform="translate(-5.2 4.84) rotate(-11.62)"/>
      <path class="cls-3" d="M21.88,23.33s53.72-14.14,57.03-11.75c3.31,2.4-68.11,17.67-57.03,11.75Z"/>
    </g>
  </g>
</svg>