<?xml version="1.0" encoding="UTF-8"?>
<svg xmlns="http://www.w3.org/2000/svg" viewBox="0 0 184.6 96.8">
  <defs>
    <style>
      .cls-1, .cls-2, .cls-3 {
        fill: #fff;
      }

      .cls-1, .cls-3, .cls-4 {
        opacity: .8;
      }

      .cls-1, .cls-5, .cls-4 {
        mix-blend-mode: screen;
      }

      .cls-2 {
        opacity: .5;
      }

      .cls-6 {
        fill: #80c6dd;
      }

      .cls-6, .cls-7 {
        opacity: .4;
      }

      .cls-6, .cls-7, .cls-8, .cls-9 {
        mix-blend-mode: multiply;
      }

      .cls-10 {
        isolation: isolate;
      }

      .cls-5, .cls-11 {
        opacity: .7;
      }

      .cls-8, .cls-4, .cls-12 {
        fill: #c1c9ca;
      }

      .cls-11 {
        fill: #92c9ca;
      }

      .cls-9 {
        fill: #909797;
      }
    </style>
  </defs>
  <g class="cls-10">
    <g id="Layer_2" data-name="Layer 2">
      <g id="Layer_1-2" data-name="Layer 1">
        <g>
          <g>
            <path class="cls-12" d="M34.8,67.5s-21.59,2.62-29.05,4.84c-7.46,2.22-7.87,7.06,0,8.07,7.87,1.01,27.44,1.81,22.39,3.43-5.04,1.61-12.91,4.44-7.06,7.87,5.85,3.43,30.06,5.45,47,5.04,16.94-.4,38.73-1.01,42.36-4.23,3.63-3.23-7.47-9.89,6.25-12.51,13.72-2.63,13.92-8.47,4.23-12.71-9.68-4.24-59.3-2.82-86.13.2Z"/>
            <path class="cls-4" d="M37.04,67.63s-20.37,2.38-27.41,4.39c-7.04,2.01-7.42,6.4,0,7.31,7.42.91,25.88,1.64,21.13,3.11-4.76,1.46-12.18,4.02-6.66,7.13,5.52,3.11,28.36,4.93,44.35,4.57,15.99-.36,36.54-.91,39.97-3.84,3.43-2.92-7.04-8.95,5.9-11.33,12.94-2.37,13.13-7.67,4-11.51-9.14-3.84-55.96-2.56-81.27.18Z"/>
            <g>
              <path class="cls-1" d="M19.4,71.74c1.35-.27,2.7-.55,4.05-.84.88-.27,1.76-.55,2.61-.86-2.98.19-5.97.38-8.9.83-1.59.31-3.15.69-4.66,1.23-2.09.75-6.02,1.56-6.06,4.31,1.71-2.92,7.26-3.69,9.98-4.2.98-.18,1.98-.33,2.99-.47Z"/>
              <path class="cls-1" d="M35.04,81.64c-1.53.94-3.18,1.56-4.66,2.52,1.8-.41,3.66-.69,5.33-1.63.69-.38,1.44-1.14,1.62-1.85-.02-.63-.47-1.1-1.17-1.45-.67-.17-1.34-.29-2.01-.44-.76-.17-1.53-.35-2.3-.48-.87-.07-1.67-.1-2.28-.11-.33.03-.65.09-.97.17,0,0,0,0,0,0,1.28.24,2.59.6,3.79,1.11.58.24,3.86,1.4,2.64,2.14Z"/>
              <path class="cls-1" d="M89.22,92.56c2.68-.24,5.36-.53,8.02-.9,2.26-.32,8.7-.67,8.62-4.22,0-.07-.09,0-.1.02-1.13,3.04-11.17,3.06-13.77,3.41-5.21.71-10.47,1.17-15.69,1.74-.05,0-.1.04-.15.08,4.29-.16,8.68-.1,13.08-.14Z"/>
            </g>
          </g>
          <g>
            <path class="cls-11" d="M39.34,37.47s-2.15-3.5-5.11.81c-2.96,4.3-4.3,30.12-.27,33.49,0,0,1.75,2.82,4.71-1.48h4.57s.54,2.15,2.29,1.61c1.75-.54,2.29-2.55,2.29-2.55l6.72.81s22.59,16.27,25.96,17.08c3.36.81,7.13.54,10.76-1.21,3.63-1.75,11.7-6.19,11.7-6.19,0,0,3.63-2.83,4.17-5.11.54-2.29,1.08-2.69,1.08-2.69l7.4-7.4s.54-.67,1.35.27c.81.94,3.5,3.23,4.84,3.09,1.35-.13,6.19-2.15,6.19-2.15,0,0,2.55-1.61,2.55-4.17s.54-7.26.54-7.26c0,0,4.57,6.05,6.19,5.78,1.61-.27,4.31-3.23,6.46-2.15,2.15,1.07,8.34,7.53,14.12,9.41,5.79,1.88,14.26,2.69,17.62,1.21,3.36-1.48,6.05-5.78,6.05-5.78,0,0,5.51-19.9,1.88-32.28-3.63-12.38-11.03-29.05-14.52-29.32-3.5-.27-6.86-3.36-16.54,1.07-9.69,4.44-7.26,4.3-8.34,5.25-1.07.94-9.15,14.39-9.55,14.93-.4.54-2.29-1.88-3.5-.94l-1.21.94s-.54-1.61-1.61-.27c-1.08,1.34-3.9,5.38-6.05,5.24-2.15-.13-11.97-6.19-12.64-6.32-.67-.13-6.86,5.25-6.86,5.25,0,0-12.24-10.89-14.66-10.49-2.42.41-14.25,6.19-15.6,5.78-1.35-.4-2.42-2.55-4.3-.67-1.89,1.88-13.58,16.94-13.58,16.94,0,0-4.84.54-4.44.41.4-.14-1.21-2.42-3.23-2.15-2.02.27-2.42,1.61-2.42,1.61l-4.98-.4Z"/>
            <g class="cls-7">
              <path class="cls-9" d="M39.28,54.28c-.49,9.16-2.52,16.49-4.54,16.38-2.01-.11-3.24-7.62-2.75-16.78.5-9.15,2.52-16.49,4.54-16.38,2.01.11,3.24,7.62,2.75,16.77Z"/>
              <path class="cls-8" d="M40.01,38.55s4.57,13.85-1.07,31.07c0,0,7.26-16.27,1.07-31.07Z"/>
              <path class="cls-8" d="M45.25,38.42s3.77,3.5,2.83,15.2c-.94,11.7-4.84,16.68-4.84,16.68,0,0,6.32-7.53,5.65-20.31,0,0,0-10.09-3.63-11.56Z"/>
              <path class="cls-8" d="M49.64,38.09s3.68,3.41,2.76,14.84c-.92,11.43-4.73,16.28-4.73,16.28,0,0,6.17-7.35,5.51-19.83,0,0,0-9.85-3.54-11.29Z"/>
              <path class="cls-8" d="M55.3,38.55s3.82,3.25,3.39,14.7c-.43,11.45-4.03,16.47-4.03,16.47,0,0,5.85-7.61,4.66-20.04,0,0-.42-9.84-4.03-11.13Z"/>
              <path class="cls-8" d="M74.84,28.19s18.02,22.19,9.82,54.6c0,0,11.43-29.72-9.82-54.6Z"/>
              <path class="cls-8" d="M102.54,26.45s4.44,6.05,4.98,10.22c.54,4.17.4,34.69.4,34.69,0,0,1.48-29.32,1.21-33.35-.27-4.03-6.59-11.57-6.59-11.57Z"/>
              <path class="cls-8" d="M129.71,22.55s-13.99,41.69-14.12,42.09c-.13.41,11.56-24.88,14.12-42.09Z"/>
              <path class="cls-8" d="M134.55,43.52s-4.44-.41-3.9,10.36l.4,1.48,1.88-8.07s1.88-2.15,2.29-2.15,3.36.4,3.36.4c0,0-1.61-2.96-4.03-2.02Z"/>
              <path class="cls-8" d="M134.42,22.55s3.5,3.63,3.77,5.78c.27,2.15,1.35,9.41,3.36,13.59,0,0,6.05,7.66,9.68,11.57,0,0-8.47-10.89-9.68-15.6-1.21-4.71-2.29-10.63-2.29-10.63l-4.84-4.71Z"/>
              <path class="cls-8" d="M164.4,3.85s3.9,5.11,3.9,11.43-6.32,14.79-2.69,22.6c3.63,7.8,9.68,10.89,7.8,21.24,0,0,3.77-6.32-.81-13.45-4.57-7.13-7.39-9.01-6.59-15.6.81-6.59,4.84-11.3,2.83-17.75-2.02-6.46-4.44-8.47-4.44-8.47Z"/>
              <path class="cls-8" d="M161.51,3.05s-3.83-.81-6.05,14.52c-2.22,15.33,4.44,33.28,5.04,33.89,0,0-9.28-31.07,1.01-48.41Z"/>
            </g>
            <path class="cls-6" d="M183.37,30.62c-3.63-12.38-11.03-29.05-14.52-29.32-3.5-.27-6.86-3.36-16.54,1.07-9.69,4.44-7.26,4.3-8.34,5.25-1.07.94-9.15,14.39-9.55,14.93-.4.54-2.29-1.88-3.5-.94l-1.21.94s-.54-1.61-1.61-.27c-1.08,1.34-3.9,5.38-6.05,5.24-2.15-.13-11.97-6.19-12.64-6.32-.67-.13-6.86,5.25-6.86,5.25,0,0-12.24-10.89-14.66-10.49-2.42.41-14.25,6.19-15.6,5.78-1.35-.4-2.42-2.55-4.3-.67-1.89,1.88-13.58,16.94-13.58,16.94,0,0-4.84.54-4.44.41.4-.14-1.21-2.42-3.23-2.15-2.02.27-2.42,1.61-2.42,1.61l-4.98-.4s-2.15-3.5-5.11.81c-2.96,4.3-4.3,30.12-.27,33.49,0,0,1.75,2.82,4.71-1.48h4.57s.54,2.15,2.29,1.61c1.75-.54,2.29-2.55,2.29-2.55l6.72.81s22.59,16.27,25.96,17.08c3.36.81,7.13.54,10.76-1.21,3.63-1.75,11.7-6.19,11.7-6.19,0,0,3.63-2.83,4.17-5.11.54-2.29,1.08-2.69,1.08-2.69l7.4-7.4s.54-.67,1.35.27c.81.94,3.5,3.23,4.84,3.09,1.35-.13,6.19-2.15,6.19-2.15,0,0,2.55-1.61,2.55-4.17s.54-7.26.54-7.26c0,0,4.57,6.05,6.19,5.78,1.61-.27,4.31-3.23,6.46-2.15,2.15,1.07,8.34,7.53,14.12,9.41,5.79,1.88,14.26,2.69,17.62,1.21,3.36-1.48,6.05-5.78,6.05-5.78,0,0,5.51-19.9,1.88-32.28ZM40.97,56.4c-.17.68-1.19.52-1.2-.16-.06-5.11.57-10.37-1.19-15.27-.11-.32.04-.55.27-.67,0-.12,0-.25,0-.41.02-.62.81-.82,1.14-.31,2.85,4.49,2.18,11.93.97,16.81ZM48.54,50.58c-.14,2.61-1.5,7.05-4.65,3.99-1.01-.99-.84-3.33-.9-4.58-.12-2.87-.01-5.93-1.53-8.48-.19-.32-.05-.61.18-.78.07-1.62,1.83-1.97,3.92-.96,2.93,1.41,3.12,8.13,2.98,10.81ZM50.89,52.31c-.28.38-.78.4-1.06,0-.95-1.4-.81-2.97-.87-4.58-.09-2.3-.64-4.64-1.51-6.76-.09-.22-.04-.38.06-.51-.04-.36-.04-.73.04-1.12.06-.33.45-.51.75-.43,4.3,1.2,4.82,10.35,2.59,13.41ZM58.01,57.18c-.37,1.91-.96,3.26-2.66,4.28-.91.55-1.58-.08-1.88-.87-.49-1.27-.14-3.25-.24-4.6-.13-1.63-.2-3.26-.22-4.89-.05-3.51-.13-7.01-1.42-10.32-.11-.28,0-.5.19-.62,1.1-3.45,4.55,1,5.12,2.78,1.35,4.25,1.96,9.85,1.12,14.26ZM82.32,69.61c-2.64,3.56-6.74,1.23-9.89-.42-3.16-1.66-6.4-3.37-9.39-5.32-1.85-1.2-3.26-2.46-3.79-4.66-.73-3.08.46-6.36.08-9.48-.4-3.35-2.02-7.11-1.61-10.48.29-2.35,2.68-4.67,4.1-6.44,2.23-2.77,4.61-5.41,6.59-8.37.01-.02.03-.04.04-.06.07-.11.16-.22.23-.33.2-.3.53-.33.79-.21,4.15-.56,10.12,14.74,10.86,16.72,2.26,6.03,3.55,12.15,3.71,18.59.08,3.21.31,7.73-1.73,10.47ZM98.91,50.1c-1.66,2.3-3.45,4.51-5.29,6.67-.91,1.07-2.46,3.86-4.06,4-.9.08-1.37-.56-1.57-1.4-.63-2.68-1.04-5.41-1.75-8.08-1.79-6.65-4.06-13.01-7.32-19.09-1.47-2.73-3.91-6.69-.84-9.2,2.18-1.78,4.9-2.57,7.32-3.88.82-.89,1.94-1.88,2.93-1.49,1.88.73,2.84,2.55,4.1,4.05,3.49,4.14,6.59,8.78,8.65,13.81,2.35,5.75,1.41,9.66-2.17,14.61ZM121.34,33.7c-.52,1.69-1.61,3.1-2.34,4.7-.95,2.07-1.81,4.19-2.83,6.22-1.32,2.61-1.67,6.29-3.94,8.31-.33.29-.91.2-1.02-.27-.75-3.29-.3-6.5-.14-9.83.17-3.79-.57-6.67-2.6-9.8-1.15-1.77-2.48-3.68-2.52-5.86-.03-1.78,2.1-3.45,3.21-4.56.23-.23.52-.21.73-.07,1.01.04,1.56.81,2.29,1.52,1.48,1.46,3.23,2.57,4.89,3.8,1.64,1.22,5.07,3.28,4.29,5.82ZM133.68,38.32c-2.58,2.61-2.54,6.08-4.24,9.1-1.45,2.57-3.84,4.29-5.72,6.52-.34.4-1.07.08-1.04-.43.25-4.22,1.88-8.59,3.05-12.64,1.17-4.03,2.36-8.04,3.55-12.06.37-1.44.79-2.87,1.18-4.31.17-.62.98-.55,1.18,0,.7,1.93,1.27,3.91,2.04,5.82.56,1.38,1.71,2.98,1.96,4.49.31,1.87-.74,2.28-1.96,3.51ZM165.69,52c-.01.25-.18.55-.45.59-5.92.88-13.35-3.48-17.07-7.79-2.36-2.73-5.4-6.14-6.4-9.67-.12-.43-.22-.86-.3-1.29-.43-.81-.71-1.68-.64-2.66.04-.45.1-.9.16-1.33-.02-.23-.04-.47-.06-.7-.17-1.74-.84-3.14-1.64-4.53-1.91-1.58-2.7-3.26-.96-5.56,1.92-2.54,3.82-5.13,5.84-7.61.84-1.48,1.8-2.96,3.18-3.86,2.43-1.6,5.37-2.2,7.91-3.61.15-.08.29-.09.43-.07.09-.04.18-.09.28-.14.32-.13.84-.07.9.37.47,3.09-.09,6.16-.16,9.26.69-2.03,1.55-3.99,2.61-5.83.03-.1.06-.21.1-.3.04-.13.14-.24.26-.32.06-.1.11-.2.17-.3.23-.36.85-.43,1.06,0,1.62,3.38,3.43,6.97,4,10.71.53,3.48-.47,6.34-1.29,9.7-.64,2.67-1.39,5.87.07,8.42.87,1.51,2,2.94,2.66,4.56.29.7.45,1.4.54,2.09.3.92.35,1.83-.02,2.67-.27,2.38-1.06,4.77-1.18,7.2ZM179.96,47.12c-.07.33-.44.51-.75.43-3.01-.84-5.16-3.32-7.33-5.42-2.38-2.3-4.36-5.16-5.05-8.48-.77-3.71.47-7.55,1.32-11.15.16-.68.35-1.34.54-2,.08-2.88.39-6.03-.4-8.78-.63-2.2-1.67-4.23-2.22-6.46-.15-.61.57-1,1.02-.59,5.67,5.08,8.86,12.44,10.72,19.7.99,3.87,1.64,7.73,2.05,11.7.38,3.69.87,7.39.1,11.06Z"/>
            <g class="cls-5">
              <path class="cls-3" d="M71.91,28.42c-1.59,1.35-3.2,2.68-4.71,4.11-2.42,2.29-4.47,4.92-6.74,7.36.39,1.47.82,2.94,1.3,4.38,3.94-2.97,7.8-6.07,11.33-9.51.06-.1.1-.23.15-.35-.44-2-.88-4-1.32-5.99Z"/>
              <path class="cls-3" d="M80.59,31.13c.17.25.34.51.52.76.04.06.09.09.14.12,4.18-1.24,8.04-3.25,11.93-5.22h0c-1.43-2.43-2.92-4.82-4.82-6.91-3.44,2.3-6.81,4.74-10.47,6.67,0,.1-.01.2,0,.3.88,1.44,1.78,2.86,2.69,4.28,0,0,.02,0,.03,0Z"/>
              <path class="cls-3" d="M117.59,31.15c-2.06-2.28-4.13-4.53-6.67-6.27-1.19,1.14-2.4,2.27-3.69,3.28.03.12.08.24.13.35,1.22,1.52,2.62,2.9,3.74,4.51.24.34.47.69.7,1.03,1.77-1.28,3.74-2.19,5.79-2.91Z"/>
              <path class="cls-3" d="M130.75,38.25c.56-.69,1.15-1.35,1.74-2.01.07-.1.14-.21.21-.31.7-.94.87-1.38.48-2.46-.72-2.03-1.17-4.22-1.95-6.23-.05-.13-.13-.19-.22-.22-.7,2.47-1.45,4.93-2.21,7.38-.06.45-.12.89-.18,1.34-.31.88-.61,1.76-.93,2.63-.14.38-.3.78-.46,1.17-.5,1.68-1,3.37-1.46,5.07,0,.05,0,.1-.01.15,0,.08,0,.15.03.21,1.52-2.33,3.19-4.55,4.96-6.71Z"/>
              <path class="cls-3" d="M149.52,10.04c-1.3,1.73-2.54,3.51-3.82,5.28-1.73,2.39-3.37,4.82-4.85,7.36.18.38.56.74,1.23,1.1,2.8,1.55.15,3.6-.08,5.97,1.94,2.3,3.7,4.82,5.78,7.02,1.31-3.65,2.81-7.22,4.44-10.74.18-3.06.23-6.13.62-9.18.42-3.25,1.41-6.37,2.02-9.57-1.8.86-3.57,1.79-5.33,2.76Z"/>
              <path class="cls-3" d="M160.94,11.35c-1.47,2.25-2.24,5.42-2.61,7.92-.08.88-.13,1.75-.16,2.61-.14.92-.23,1.88-.21,2.92.06,4.2.34,8.34.8,12.51.02.17.07.28.14.36.69-1.3,1.28-2.64,1.78-4.01.11-1.41.22-2.83.45-4.23.44-2.58,1.36-5.08,1.62-7.69.06-.58.06-1.16.04-1.75-.46-2.91-1.09-5.78-1.86-8.63Z"/>
              <path class="cls-3" d="M175.4,27.04c.11-.76.21-1.52.34-2.22.24-1.31-.67-2.61-1.2-3.73-.9-1.86-1.46-3.79-2.21-5.71-.13-.33-.36-.39-.62-.32-.36,3.17-.67,6.39-1.62,9.44-.63,2.01-1.33,4-1.98,6.01,1.26,1.62,2.78,3.06,4.33,4.44.61-2.76,1.73-5.36,2.96-7.91Z"/>
              <path class="cls-3" d="M46.28,42.64c-.28-.73-.78-1.77-1.74-1.34-.84.38-1.02,1.3-.97,2.12.04.65.33,2.22.99,2.81.14.31.33.57.63.63.83.16,1.29-.74,1.42-1.4.19-.95,0-1.93-.33-2.82Z"/>
              <path class="cls-3" d="M51.08,42.64c-.12-.76-.57-1.73-1.45-1.11-.65.46-.8,1.31-.6,2.04.18.65.56,1.45,1.32,1.52.34.03.72-.23.87-.52.3-.57.39-1.51-.15-1.93Z"/>
              <path class="cls-3" d="M57.13,47.96c-.06-.74-.17-1.48-.33-2.23-.29-1.36-.9-2.43-1.55-3.56-.1-.41-.34-.7-.63-1.08-.51-.67-1.71.57-1.38,1.22.74,1.43,1.44,2.59,1.76,4.22.38,1.95.44,3.93.92,5.87.5-1.46.89-2.94,1.2-4.45Z"/>
              <path class="cls-2" d="M40.38,42.91c-.04-.11-.23.03-.21.12.23.9.17,1.82.32,2.73.04.25.4.02.38-.17-.09-.89-.18-1.82-.49-2.68Z"/>
            </g>
            <path class="cls-6" d="M183.37,30.62c-3.63-12.38-11.03-29.05-14.52-29.32-.14-.01-.27-.04-.41-.05,1.34,1.9,2.57,3.87,3.66,5.93,2.29,4.3,4.37,8.77,6.01,13.36,3.13,8.74,4.85,18.09,3.82,27.39-.41,3.7-1.22,7.26-3.63,10.2-1.75,2.15-4.71,6.46-8.02,5.94-2.43-.38-5.35-.94-7.77-1.99-.75-.11-1.49-.25-2.21-.5-2.6-.91-4.57-4.41-6.23-6.4-3.41-4.09-6.73-8.24-9.94-12.49.41.86.82,1.72,1.23,2.58,1.63,3.41,4.02,7.12,3.78,11.03-.03.46-.5.77-.92.53-2.23-1.27-4.5-2.84-6.36-4.64-.95-.92-.82-1.67-.38-2.65-1.22-.38-2.47-.53-3.75-.72-.26-.04-.46-.35-.45-.59.09-1.87.53-3.64,1.21-5.36-3.55-.17-7.23.52-8.48,4.33-1.04,3.16-2.45,6.3-3.09,9.57-.22,1.11-.23,3.1-1.56,3.53-1.72.55-3.57.48-5.36.65-.41.04-.67-.42-.59-.77,1.24-5.34,2.11-10.83,3.66-16.09.4-1.36.83-2.71,1.26-4.07-.96,2.06-1.93,4.12-2.87,6.19-1.61,3.52-2.82,7.27-5.16,10.39-1.82,2.42-4.31,4.26-6.74,6.01-.4.28-.91-.11-.92-.53-.15-4.44-.39-8.86-.84-13.26-.21,6.2-1.12,12.31-2.39,18.54-.78,3.82-1.94,6.71-5.66,8.43-4.06,1.88-8.18,3.92-12.4,5.44-.28.1-.71-.11-.75-.43-.36-2.61.59-5.1.53-7.71-.02-1.18-.11-2.35-.21-3.51-.56,1.65-1.15,3.29-1.82,4.9-.54,1.29-1.17,3.1-2.66,3.58-1.68.55-4.24,1.69-6.04,1.02-2.76-1.04-5.11-3.06-7.69-4.49-2.86-1.59-5.75-3.14-8.49-4.93-.81-.53-2.95-1.41-2.87-2.73.09-1.46.45-2.9.82-4.34-1,1.31-2.2,2.49-3.67,2.66-1.35.16-3-.87-4.22-.39-1.37.54-1.39,1.25-2.87,1.15-.57-.04-1.2-.61-1.35-1.15-.44-1.53-2.25-1.44-3.74-1.39-1.41.05-2.62,1.06-3.57.59-.53,2.86-1.65,5.82-4.45,7.05-.26.11-.52.19-.76.23.12.16.25.31.39.42,0,0,1.75,2.82,4.71-1.48h4.57s.54,2.15,2.29,1.61c1.75-.54,2.29-2.55,2.29-2.55l6.72.81s22.59,16.27,25.96,17.08c3.36.81,7.13.54,10.76-1.21,3.63-1.75,11.7-6.19,11.7-6.19,0,0,3.63-2.83,4.17-5.11.54-2.29,1.08-2.69,1.08-2.69l7.4-7.4s.54-.67,1.35.27c.81.94,3.5,3.23,4.84,3.09,1.35-.13,6.19-2.15,6.19-2.15,0,0,2.55-1.61,2.55-4.17s.54-7.26.54-7.26c0,0,4.57,6.05,6.19,5.78,1.61-.27,4.31-3.23,6.46-2.15,2.15,1.07,8.34,7.53,14.12,9.41,5.79,1.88,14.26,2.69,17.62,1.21,3.36-1.48,6.05-5.78,6.05-5.78,0,0,5.51-19.9,1.88-32.28Z"/>
          </g>
        </g>
      </g>
    </g>
  </g>
</svg>