<?xml version="1.0" encoding="UTF-8"?>
<svg id="Layer_2" data-name="Layer 2" xmlns="http://www.w3.org/2000/svg" viewBox="0 0 310.82 112.65">
  <defs>
    <style>
      .cls-1 {
        fill: #0cadf4;
      }

      .cls-2 {
        fill: #0277bf;
      }
    </style>
  </defs>
  <g id="Layer_1-2" data-name="Layer 1">
    <g>
      <path class="cls-1" d="M265.02,110.65c-5.37,0-9.74-4.37-9.74-9.74v-4.6c0-2.42-1.97-4.4-4.4-4.4H13c-6.07,0-11-4.93-11-11V13C2,6.93,6.93,2,13,2h236.74c.11,0,.19.09.19.19v2.84c0,8.27,6.73,15,15,15h10.07c8.27,0,15-6.73,15-15v-2.84c0-.11.09-.19.19-.19h7.63c6.07,0,11,4.93,11,11v67.91c0,6.07-4.93,11-11,11h-8.77c-2.42,0-4.4,1.97-4.4,4.4v4.6c0,5.37-4.37,9.74-9.74,9.74h-9.89Z"/>
      <path class="cls-2" d="M297.82,4c4.96,0,9,4.04,9,9v67.91c0,4.96-4.04,9-9,9h-8.77c-3.53,0-6.4,2.87-6.4,6.4v4.6c0,4.27-3.47,7.74-7.74,7.74h-9.89c-4.27,0-7.74-3.47-7.74-7.74v-4.6c0-3.53-2.87-6.4-6.4-6.4H13c-4.96,0-9-4.04-9-9V13c0-4.96,4.04-9,9-9h234.93v1.03c0,9.37,7.63,17,17,17h10.07c9.37,0,17-7.63,17-17v-1.03h5.82M297.82,0h-7.63c-1.21,0-2.19.98-2.19,2.19v2.84c0,7.18-5.82,13-13,13h-10.07c-7.18,0-13-5.82-13-13v-2.84c0-1.21-.98-2.19-2.19-2.19H13C5.82,0,0,5.82,0,13v67.91c0,7.18,5.82,13,13,13h237.88c1.32,0,2.4,1.07,2.4,2.4v4.6c0,6.48,5.26,11.74,11.74,11.74h9.89c6.48,0,11.74-5.26,11.74-11.74v-4.6c0-1.32,1.07-2.4,2.4-2.4h8.77c7.18,0,13-5.82,13-13V13c0-7.18-5.82-13-13-13h0Z"/>
    </g>
  </g>
</svg>