<?xml version="1.0" encoding="UTF-8"?>
<svg id="Layer_2" data-name="Layer 2" xmlns="http://www.w3.org/2000/svg" viewBox="0 0 97.26 131.13">
  <defs>
    <style>
      .cls-1 {
        fill: #fff;
        opacity: .23;
      }

      .cls-2 {
        fill: #c6894e;
      }

      .cls-3 {
        fill: #ead3ac;
      }

      .cls-4 {
        fill: #dd9b54;
      }
    </style>
  </defs>
  <g id="Layer_1-2" data-name="Layer 1">
    <g>
      <path class="cls-3" d="M35.84,53.8c3.95.02,7.9.04,11.86.06.71,3.6,1.42,7.19,2.12,10.79,5.66-.35,11.32-.7,16.98-1.05-3.27,4.11-5.06,9.38-4.96,14.64,3.55-.08,7.11-.16,10.66-.25.57,1.79,1.13,3.58,1.7,5.36,3.41-3.27,6.82-6.54,10.24-9.82,1-.96,2-1.92,2.76-3.08.89-1.35,1.4-2.91,1.79-4.47,1.07-4.3,1.28-8.78,1.1-13.2-.48-11.97-4.05-24.32-12.54-32.77-2-1.99-4.29-3.76-6.94-4.74-3.87-1.44-8.25-1.06-12.13.37-3.88,1.43-7.31,3.85-10.48,6.49-5.15,4.28-9.6,9.2-13.6,14.55-1.78,2.39-2.83,3.6-1.99,6.58.99,3.54,2.46,6.96,3.43,10.52Z"/>
      <path class="cls-3" d="M46.84,64.58c-.76,1.93-1.52,3.85-2.28,5.78,4.71,4.41,9.33,8.91,13.87,13.49.39.4.8.83.88,1.39.05.4-.09.81-.23,1.19-1.75,4.82-3.5,9.65-5.26,14.47-.2.56-.41,1.15-.33,1.74.08.63.47,1.17.84,1.68,3.75,5.19,7,10.73,9.71,16.53-3.99,1.37-7.94,2.87-11.83,4.51.43,1.25,1.39,2.3,2.59,2.84-6.21,1.54-12.61,2.65-18.98,2.04-6.37-.61-12.73-3.07-17.07-7.77-5.78-6.26-7.14-15.34-7.77-23.84-.34-4.56-.53-9.19.43-13.66.96-4.47,3.21-8.81,6.94-11.46,4.29-3.05,9.52-3.91,13.65-7.27,1.79-1.45,2.85-1.85,5.24-1.93.92-.03,9.47.58,9.59.26Z"/>
      <path class="cls-4" d="M61.05,2.12c5.65-1.8,11.79-3.01,17.46-1.29,8.65,2.64,13.97,11.43,16.48,20.11,4.91,17.02,1.77,36.18-8.33,50.73-.25-3.39-.51-6.77-.76-10.16-3.66,1.97-7.11,4.36-10.24,7.1-2.65-12.81-5.98-25.49-9.96-37.95-7.47,4.92-15.39,9.15-23.64,12.61.54-3.19.84-6.42.9-9.65-4.13,1.82-8.09,4.03-11.81,6.58.94-.64,1.59-5.12,1.99-6.3.76-2.26,1.56-4.51,2.4-6.74,1.52-4.03,4.46-6.88,6.89-10.46,4.54-6.71,11.16-12.22,18.63-14.59Z"/>
      <path class="cls-2" d="M57.77,20.32c1.52-7.96,5.86-15.57,12.34-20.32-3.06.29-6.13,1.06-9.07,2-7.47,2.38-14.09,7.88-18.63,14.59-2.43,3.58-5.36,6.42-6.89,10.46-.84,2.23-1.64,4.48-2.4,6.74-.39,1.17-1.05,5.65-1.99,6.3,3.72-2.55,7.68-4.76,11.81-6.58-.06,3.23-.36,6.46-.9,9.65,5.34-2.25,10.55-4.82,15.59-7.69-.78-5.04-.83-10.15.12-15.15Z"/>
      <path class="cls-4" d="M10.2,76.85C4.04,83.48.36,92.37.02,101.42c-.13,3.55.24,7.14,1.43,10.49,2.78,7.87,9.87,13.68,17.71,16.52,7.85,2.84,16.41,3.03,24.73,2.37-3.57-3.18-7.13-6.37-10.7-9.55,5.42-2.59,10.64-5.58,15.62-8.93-4.43-2.89-8.64-6.11-12.59-9.63,1.86-1.4,3.3-3.36,4.09-5.55-1.55-.47-3.18-.68-4.8-.63,2.27-5.64,4.54-11.28,6.8-16.91-6.87-1.36-13.69-3-20.42-4.91,5.88-4.41,14.7-4.35,20.52.13-1.07-.82-1.94-3.85-2.68-5.08-.94-1.57-2.05-3.94-3.49-5.1-2.41-1.95-4.76.33-7.33,1.16-7.16,2.31-13.51,5.44-18.72,11.05Z"/>
      <path class="cls-2" d="M33.19,121.25c3.83-1.83,7.57-3.87,11.19-6.09-3.67.58-7.36.69-11.02-.11-5.03-1.09-9.6-3.83-13.45-7.26-5.74-5.12-10.1-12.09-10.95-19.73-.44-4,.2-8.15,1.82-11.82-.2.2-.39.4-.58.61C4.04,83.48.36,92.37.02,101.42c-.13,3.55.24,7.14,1.43,10.49,2.78,7.87,9.87,13.68,17.71,16.52,7.85,2.84,16.41,3.03,24.73,2.37-3.57-3.18-7.13-6.37-10.7-9.55Z"/>
      <path class="cls-1" d="M88.54,33.41c.06,1.88-.29,3.89.59,5.56.41.78,1.28,1.47,2.11,1.17.55-.2.87-.78,1.08-1.33,1.17-3.03.68-6.42-.02-9.59-.51-2.34-4.86-21.36-9.93-16.44-2.41,2.33,1.54,8.24,2.66,10.42,1.65,3.21,3.39,6.52,3.51,10.21Z"/>
    </g>
  </g>
</svg>