<?xml version="1.0" encoding="UTF-8"?>
<svg xmlns="http://www.w3.org/2000/svg" viewBox="0 0 128.68 146.17">
  <defs>
    <style>
      .cls-1 {
        fill: #18401e;
      }

      .cls-2 {
        fill: #fccec0;
      }

      .cls-3 {
        fill: #d6cece;
      }

      .cls-4 {
        fill: #534b48;
      }

      .cls-5 {
        fill: #848484;
      }

      .cls-6 {
        fill: #e48367;
      }

      .cls-7 {
        fill: #fff;
      }

      .cls-8 {
        fill: #5b5b5b;
      }

      .cls-9 {
        fill: #5e3428;
      }

      .cls-10 {
        fill: #368f45;
      }

      .cls-11 {
        fill: #ee8482;
        opacity: .37;
      }

      .cls-11, .cls-12 {
        mix-blend-mode: multiply;
      }

      .cls-13 {
        isolation: isolate;
      }

      .cls-14 {
        fill: #d68973;
      }

      .cls-15 {
        fill: #f8bba8;
      }

      .cls-16 {
        fill: #fd7d7a;
      }

      .cls-17 {
        fill: #0e2e2c;
      }

      .cls-18 {
        fill: #114543;
      }

      .cls-19 {
        fill: #68b677;
      }

      .cls-20 {
        fill: #1a524f;
      }

      .cls-21 {
        fill: #e2d8d8;
      }

      .cls-22 {
        fill: #fdf5f5;
      }

      .cls-23 {
        fill: #071211;
      }

      .cls-12 {
        fill: #5a2478;
        opacity: .17;
      }

      .cls-24 {
        fill: #2b7b36;
      }

      .cls-25 {
        fill: #313a3a;
      }
    </style>
  </defs>
  <g class="cls-13">
    <g id="Layer_2" data-name="Layer 2">
      <g id="Layer_1-2" data-name="Layer 1">
        <g>
          <path class="cls-7" d="M46.64,146.17c-.56,0-1.17-.04-1.8-.13-2.57-.36-5.3-.76-8-1.5-.09-.02-.18-.04-.27-.06-.13-.04-.26-.08-.39-.12l-.15-.05c-.28-.08-.57-.17-.86-.27-.34-.11-.67-.24-.99-.36l-.15-.06c-.22-.08-.44-.17-.66-.26-.09-.04-.18-.07-.26-.11-.29.02-.59.03-.91.03-.55,0-1.11-.03-1.66-.06-5.31-.32-10.91-.84-15.92-3.33-3.01-1.5-5.74-3.67-8.12-6.47-.02-.03-.05-.06-.08-.09-.53-.63-1.03-1.28-1.58-2.06-.13-.19-.26-.37-.39-.56-.56-.82-1.02-1.57-1.42-2.27-.63-1.12-1.15-2.17-1.58-3.22-.49-1.21-.86-2.42-1.1-3.59-.49-2.45-.48-5.13.03-7.97.07-.39.14-.79.22-1.19,0,0,.21-.99.26-1.23,0,0,.26-1.08.31-1.27.04-.15.32-1.13.37-1.3.05-.18.25-.78.25-.78.06-.18.11-.36.18-.53.07-.2.14-.4.22-.6,0,0,.22-.59.29-.75.1-.24.21-.49.31-.74.1-.24.18-.42.26-.59.11-.25.23-.49.35-.72.13-.26.22-.45.33-.64.13-.24.28-.5.43-.76.12-.21.23-.4.34-.58.15-.25.32-.51.49-.76.13-.19.25-.38.38-.57.18-.26.36-.5.55-.75.15-.19.29-.38.43-.56.21-.25.41-.5.62-.74.16-.18.32-.36.48-.54.23-.25.46-.49.7-.73.17-.18.35-.35.54-.53.24-.23.49-.46.75-.69.2-.18.4-.34.6-.51.27-.22.55-.44.83-.66.21-.16.44-.33.67-.49.29-.21.59-.42.9-.62.1-.07.19-.13.28-.19.07-.05.15-.09.23-.13,0,0,.13-.08.14-.09,1.11-1.78,2.62-3.02,4.5-3.71.64-.24,1.28-.4,1.91-.5-.04-.03-.07-.07-.11-.1-2.33-2.18-4.72-4.62-6.49-7.64-1.3-2.22-1.89-4.26-1.81-6.24.07-1.89.77-3.56,1.37-4.81,1.65-3.44,3.53-6.06,5.9-8.85-.24-.43-.49-1.06-.48-1.83,0-.78.26-1.92,1.46-2.93.13-.11.27-.21.4-.3,1.66-1.19,3.35-2.51,5.03-3.93,1.38-4.44,1.94-9.18,2.54-14.19.35-2.92.71-5.93,1.24-8.9,0-.03.15-.8.2-1.05-.14-.43-.18-.9-.13-1.38-.2-7.81,1.67-13.92,5.57-18.17,3.7-4.03,8.8-6.01,13.76-7.56C49.92.67,52.04.07,54.34,0c.13,0,.27,0,.41,0,3.66,0,7.43,1.41,10.62,3.97,1.69,1.36,3.23,3.02,4.65,5.04.56-.18,1.11-.36,1.67-.53,2.44-.75,7.08-2,10.65-2,1.56,0,2.81.24,3.81.74.08.04.15.08.22.12,1.01.54,1.46,1.35,1.65,1.83.23.58.8,2.62-1.45,4.39-1.21.96-2.58,1.56-3.8,2.09-2.4,1.05-4.83,2.1-7.25,3.12,1.24,3.2,1.71,6.59,2.02,9.84.79,8.33.67,16.92.52,24.63,1.33.99,2.71,2.02,3.98,3.34.22.23.4.49.54.77,4.65,1.78,9.17,3.06,13.02,4.08.48.13.99.2,1.48.24-1.69-6.57-3.44-13.35-5.18-20.35-.24-1.02-.57-3.26-.53-4.21h0c.02-.57.2-1.14.52-1.61.35-.52,1.19-1.39,2.8-1.39s4.18.85,4.71,3.18c1.57,6.73,3.24,13.6,4.86,20.24l.98,4.04c1.14.72,2.01,1.82,2.48,3.14.92.71,1.45,1.62,1.71,2.07.65,1.11.82,2.41.54,3.58.13.49.17,1.02.12,1.57-.05.5-.19.99-.43,1.45.08.98-.19,1.96-.82,2.78-.02.04-.05.08-.07.12l.24,1.02c2.31,9.92,4.69,20.14,8.25,30.01.09-.03.17-.06.25-.08.08-.03.15-.05.23-.08.01,0,.03-.01.04-.02.29-.16.64-.35,1.08-.48.45-.12.81-.17,1.18-.17,1.01,0,1.97.36,2.7,1,.07.04.14.09.21.14,1.29.92,1.76,2.2,2.08,3.04.06.17.15.39.2.51.11.09.34.24.5.34.82.53,2.19,1.41,2.73,3.17.33,1.06.26,2.22-.19,3.44-1.32,3.54-4.82,5.31-6.92,6.36-1.41.71-3,1.51-4.84,1.9-.33.07-.67.13-1.01.18-.48.08-1.02.17-1.23.28l-.17.11c-.45.28-1.2.75-2.25.85-.13.01-.26.02-.4.02h0c-1.51,0-2.61-.81-3.13-1.2-.76-.57-1.7-1.26-2.43-2.36-.84-1.26-1.14-2.75-.87-4.11-.44-.7-.65-1.54-.6-2.41.07-1.2.66-2.39,1.55-3.26-.12-1-.12-2.01.01-3.01.11-.84.37-2.08,1.35-3.12.52-.56,1.11-.91,1.67-1.15-2.35-7.56-4.25-15.21-6.1-22.64-.45-1.8-.89-3.57-1.34-5.33-.13,0-.26,0-.4,0-3.22,0-7.06-.67-9.86-1.16l-1.21-.21c-5.48-.93-11.98-3.02-15.96-4.41.1.5.2,1.01.31,1.53.4,2.04.72,3.77,1,5.53.15.92.27,1.85.39,2.78.02.16.05.32.07.49.13.83.3,1.86.09,3.01-.09.5-.29.96-.58,1.35l2.36,11.22,1.27,5.86,1.21,5.41.38,1.67.38,1.65c1.71,7.24,3.12,12.47,4.22,15.57.15.43.63,1.24.89,1.54.1.06.2.12.3.17,3.12,1.78,4.07,4.05,2.83,6.76-.7,1.53-2.01,2.3-2.71,2.71-2.81,1.66-5.84,2.96-9.01,3.84-1.19.33-2.27.58-3.28.74-.31.05-.61.09-.92.13,0,0,0,0-.01,0-.36.04-.66.07-.96.08h-.12c-.29.02-.57.03-.86.03h-.15c-.38,0-.73-.01-1.08-.04-.77-.06-1.45-.19-2.08-.38-.88-.27-1.66-.68-2.31-1.23-.67-.56-1.22-1.25-1.67-2.12-.34-.64-.58-1.29-.77-1.84-.6-1.7-1.19-3.58-1.82-5.73-.27-.95-.54-1.9-.8-2.85-.26-.95-.51-1.89-.77-2.83-.28-1.05-.57-2.21-.88-3.55-.42-1.83-.86-3.95-1.4-6.66-.35-1.77-.7-3.59-1.04-5.4l-.07-.38c-.24,1.02-.46,1.99-.61,2.94,0,.04-.01.08-.02.13-.02.12-.04.24-.06.35-.03.21-.06.42-.1.63-.09.48-.25.9-.47,1.25l-3.58,18.17c-.04.23-.11.54-.1.65.01.19.23.73.38,1.09.52,1.26,1.3,3.17.37,5.29-.53,1.19-1.98,3.19-5.75,3.19Z"/>
          <g>
            <g>
              <g>
                <path class="cls-22" d="M107.8,118.8c-.78-.62-.21-1.94.64-2.46.29-.18.63-.34.73-.66.07-.22.01-.46-.04-.68-.24-1.03-.29-2.1-.15-3.14.07-.53.2-1.08.57-1.47.42-.45,1.05-.6,1.65-.73.64-.14,1.3-.28,1.95-.15.64.13,1.27.59,1.37,1.24.04.28.05.65.33.71.1.02.2-.02.3-.06.97-.39,1.37.2,2.23-.39,1.85-1.26,2.95-1.61,3.85-.96.94.67.95,2.08,1.66,2.98.78.98,2.35,1.31,2.71,2.51.15.49.05,1.03-.13,1.52-.86,2.31-3.25,3.62-5.46,4.73-1.32.67-2.67,1.34-4.12,1.65-1.04.22-2.15.26-3.08.78-.4.23-.78.54-1.24.59-.54.05-1.03-.29-1.46-.61-.63-.47-1.28-.95-1.72-1.61-.44-.66-.63-1.53-.29-2.24.07-.15.17-.3.18-.47.04-.62-.23-.58-.49-1.08Z"/>
                <path class="cls-3" d="M117.88,116.56c-.35.06-.45.06-.75.06-.81,0-.98.63-1.24,1.26-.1.22-.22.4-.44.57,0,0,0,0-.01,0-.02,0-.05.03-.08.04,0,0,0,0,0,0-.01,0-.02,0-.03,0-.11-.04-.23-.32-.38-.75-.35-1.12-1.31-.8-1.98-.87-.03,0-.06-.01-.09-.02,0,0,0,0,0,0-.05-.07-.07-.15-.1-.3-.14-.62-.13-1.27-.4-1.85-.17-.27-.29-.39-.57-.62-.32-.23-.74-.29-1.12-.18-.11.03-.28.07-.32.2-.01.08.08.15.15.12.26-.15.62-.15.86-.03.06.03.24.17.26.19.14.14.3.39.31.4.25.51.16,1.39.37,2.06.1.41.36.55.76.54.42,0,.53-.04.95.02.41.04.35.43.69,1.15.44.77,1.08.42,1.44-.21.23-.36.28-.89.51-1.18.23-.27.69-.11,1.17-.19.09-.02.2-.02.26-.1.1-.13-.02-.34-.18-.31Z"/>
                <path class="cls-3" d="M120.86,109.8c-.27-.3-.72-.4-1.11-.3-.28.09-.53.28-.8.38-.44.19-.94.27-1.33.56-.15.09-.29.2-.44.3-.01,0-.03.01-.04.02,0,0-.01,0-.02,0-.19-.06-.39-.13-.59-.12-.39.05-.82.06-1.15.31-.2.14-.4.33-.55.47-.01-.05-.03-.1-.03-.11-.02-.08-.08-.58-.16-.82-.13-.49-.47-.96-.98-1.1-.52-.09-1.06-.12-1.58,0-.17.02-.14.29.04.26.53-.12.92-.07,1.47.02.58.17.84.89.91,1.73,0,.07.02.14.03.21,0-.06,0-.05,0,0,0,.02,0,.03.01.05,0,0,0,0,0-.02-.03.07.06.41.43.32.47-.21.66-.44.87-.52,0-.01.39-.12.84-.15.2,0,.41.09.61.01.39-.18.72-.53.95-.61.27-.13.57-.19.84-.34.39-.2.51-.35.85-.48.18-.03.15-.02.37,0,.18,0,.34.16.43.23.22.1.33-.18.14-.31Z"/>
                <path class="cls-3" d="M120.57,111.94c-.2-.14-.29.04-.35.17-.12.24-.33.61-.38.72-.19.31-.26.7-.14,1.05.12.25.17.3.38.62.19.24.56.97.56,1.14,0,0,0,.01,0,.02,0,.02,0,.04,0,.07,0,.02-.01.04-.02.06-.02.03-.04.07-.06.1-.25.37-.54.73-.67,1.16-.37,1.18.33,1.98,1.41,2.37.33.13.54-.37.2-.51-.89-.36-1.32-.91-.98-1.61.07-.14.21-.38.44-.67.29-.34.54-.79.38-1.24-.15-.64-1.13-1.66-1.17-1.8-.11-.35.17-.74.37-1.25.03-.06.09-.23.08-.23.02-.06,0-.14-.05-.18Z"/>
              </g>
              <path class="cls-2" d="M71.18,69.14c1.93.77,11.91,4.46,19.43,5.74,4.91.84,14.11,2.75,15.78-.45.7-1.35-3.32-8-4.29-9.2-.83-1.02-4.06-.04-7.26-.89-4.3-1.15-9.37-2.59-14.57-4.67-3.22-1.29-5.26-2.89-5.64-2.84-.58,4.26-1.73,8.44-3.44,12.32Z"/>
              <path class="cls-12" d="M81.46,60.13c-2.31-.9-4.61-1.81-6.92-2.71-.25,1.71-.64,3.64-1.21,5.71-.64,2.29-1.4,4.3-2.15,6.02.49.2,1.5.58,2.86,1.07,1.31-.79,3.55-2.38,5.33-5.17,1.19-1.87,1.78-3.64,2.08-4.9Z"/>
              <path class="cls-4" d="M94.83,40.6c3.7,14.88,7.3,28.33,11,43.22,2.15,8.66,4.31,17.32,7.13,25.84.38,1.13,1.42,2.55,2.77,2.09-4.32-11-6.98-22.4-9.64-33.78-3.11-13.35-6.51-26.68-9.62-40.02-.16-.74-2.24-1.05-2.1-.69-.02.5.22,2.4.44,3.34Z"/>
              <path class="cls-2" d="M98.83,64.47c.95-.63,1.71-.73,2.85-.71,1.46.02,2.15.22,2.65,1.03.45.72.59,1.77.61,1.89,1.04.06,1.65,1.15,1.94,1.64.45.77.2,1.73-.24,2.09.33.32.53.66.48,1.22-.04.45-.47.89-.82,1.18.61.64.4,1.27.09,1.6-.42.44-1.17.58-1.73.79-1.67.64-6.64-1-3.84-2.8-.08-.14-1.15-1.3.38-2.18-.51-.09-.85-1.37-.49-2.23.02-.06-.35.28-1.08.7-.73.42-1.61.64-2.43.42-.32-.09-.64-.26-.82-.54-.26-.41-.16-.95,0-1.4.21-.62.51-1.21.97-1.68.46-.47,1.09-.76,1.49-1.02Z"/>
              <path class="cls-14" d="M101.16,70.4c.12-.06.25-.13.38-.17.03,0,.06-.02.09-.04.41.27.88.41,1.35.52.54.12,1.09.23,1.64.24.64.01,1.31-.1,1.9-.38.11-.09,0-.28-.14-.23-.4.12-1.32.27-1.81.22-.49-.01-1.53-.21-2.19-.41-.65-.2-1.57-.79-1.01-1.51.13-.2.41-.35.64-.54.07-.1-.07-.22-.16-.15-.95.5-1.35,1.34-.41,2.09-.62.19-1.26.56-1.28,1.26.01.4.25.72.53,1-1.01.48-1.17,1.55-.22,2.25.53.37,1.11.65,1.74.8.7.14,1.43.15,2.14.09.41-.06.82-.17,1.19-.38.25-.16.49-.32.71-.51-.03.04.04-.04.04-.06.01-.06-.04-.13-.1-.14-.13,0-.27.15-.43.24,0,0,0,0,0,0,0,0,0,0,0,0,0,0-.02,0-.02.01,0,0,0,0,0,0-.46.26-.82.43-1.35.49-.96.08-1.83.05-2.68-.29-.91-.39-1.74-.95-1.43-1.65.09-.23.15-.23.32-.38.18-.13.17-.12.33-.2.02,0,.03-.02.04-.03.04.03.08.07.12.1.25.2.55.29.86.37.47.11.94.22,1.41.29.53.07,1.07.06,1.6-.05.09-.03.2-.03.27-.09.09-.08.04-.24-.08-.26-.28.03-.8.14-1.2.11-.47,0-1.4-.21-2.01-.36-.44-.12-.54-.18-.93-.51-.51-.39-.76-.9-.38-1.35.1-.13.4-.37.52-.42Z"/>
              <path class="cls-14" d="M102.63,63.72c-1.1-.15-2.19-.02-3.21.43-.58.19-1.01.5-1.48.92-.13.14-.36.29-.42.47,0,.07.1.1.14.04.53-.52,1.17-.94,1.9-1.18.82-.34,1.67-.5,2.46-.44,1.13-.02,1.92.57,2.38,1.35.44.85.49,1.82.23,2.58-.21.52-.4.78-.81.93-.39.14-.78-.02-1.19-.41-.15-.13-.45-.6-.6-1.03-.04-.13-.22-.17-.31-.06-.09.13-.14.21-.3.35-.2.19-.68.53-1.04.74-.27.14-.96.5-1.44.63-.06.03-.39.03-.42.04-.11-.03-.2.11-.13.2.02.03.06.05.1.05.45.07.88-.05,1.29-.22.73-.27,1.43-.68,1.95-1.26.03-.03.05-.06.07-.09.18.45.43.88.83,1.16.24.18.64.34.81.33.47.02.93-.24,1.19-.63,1.13-1.81.21-4.55-2.01-4.9Z"/>
            </g>
            <g>
              <path class="cls-5" d="M78.13,114.59c-3.58-15.21-7.15-33.76-7.45-34.16-7.61,2.02-15.65,1.53-23.49.78-4.38-.42-8.83-.93-12.74-2.39-2.06,13.88-3.48,24.9-4.52,36.55,4.79,1.73,8.66,1.73,14.06,2.32,2.32.25,5.44.73,8.18.59,1.04-5.27,2.07-10.53,3.11-15.8.23-.03.71-5.68,1.03-5.77,1.51,5.6,2.9,13.68,4.33,20.96,5.96.15,11.94-.9,17.49-3.08Z"/>
              <path class="cls-12" d="M70.69,80.44c-7.61,2.02-15.65,1.53-23.49.78-4.38-.42-8.83-.93-12.74-2.39-.54,3.64-1.04,7.08-1.49,10.39-1.29,9.31-2.26,17.56-3.03,26.16,4.79,1.73,8.66,1.73,14.06,2.32.69.08,1.45.17,2.25.26.77-5.89.52-11.82.27-17.59,0-2.1,2.51-5.34,3.01-8.86,7.79.37,15.51-.6,22.67-4.29-.84-4.01-1.39-6.64-1.5-6.78Z"/>
              <path class="cls-5" d="M72.19,87.22c-7.17,3.69-14.88,4.66-22.67,4.29-.5,3.51-3.01,6.76-3.01,8.86.25,5.77.5,11.7-.27,17.59,1.89.22,4.01.43,5.93.33,1.04-5.27,2.07-10.53,3.11-15.8.23-.03.71-5.68,1.03-5.77,1.51,5.6,2.9,13.69,4.33,20.96,5.96.15,11.94-.9,17.49-3.08-2.26-9.59-4.51-20.51-5.94-27.37Z"/>
              <path class="cls-12" d="M56.3,96.73s0,0,0,0c1.51,5.6,2.9,13.69,4.33,20.96,1.23.03,2.47,0,3.7-.06-1.81-7.65-3.76-15.08-4.46-23.15-1.21.91-3.13,1.12-3.58,2.26Z"/>
              <path class="cls-5" d="M72.19,87.22c-7.17,3.69-14.88,4.66-22.67,4.29-.5,3.51-3.01,6.76-3.01,8.86.25,5.77.5,11.7-.27,17.59,1.89.22,4.01.43,5.93.33,1.04-5.27,2.07-10.53,3.11-15.8.23-.03.7-5.6,1.02-5.76.45-1.13,2.36-1.35,3.58-2.26.7,8.06,2.65,15.5,4.46,23.15,4.72-.27,9.39-1.29,13.79-3.02-2.26-9.59-4.51-20.51-5.94-27.37Z"/>
              <path class="cls-10" d="M43.99,117.69c-5.4-.59-9.27-.59-14.06-2.32-.52,5.83-.95,11.82-1.31,18.4-.05.84.03,1.7.33,2.48.45,1.2,1.5,2.08,2.57,2.78,4.04,2.61,8.97,3.38,13.73,4.03,1.63.23,3.73.2,4.39-1.3.71-1.6-.92-3.29-1-5.03-.02-.46.07-.91.16-1.36,1.12-5.69,2.24-11.39,3.37-17.08-2.74.14-5.86-.34-8.18-.59Z"/>
              <path class="cls-10" d="M84.48,133.51c-.78-.48-1.73-2.17-2.03-3.03-1.28-3.6-2.8-9.44-4.31-15.88-5.55,2.18-11.53,3.23-17.49,3.08.73,3.69,1.46,7.17,2.23,10.01,1.01,3.76,2.02,7.52,3.32,11.2.34.98.74,1.99,1.54,2.66.75.62,1.75.84,2.71.92,2.13.17,4.28-.27,6.33-.85,2.91-.81,5.7-2,8.3-3.54.6-.35,1.22-.75,1.51-1.38.83-1.81-.81-2.42-2.1-3.2Z"/>
              <path class="cls-12" d="M46.09,117.94c-.74-.09-1.46-.17-2.1-.25-5.4-.59-9.27-.59-14.06-2.32-.52,5.83-.95,11.82-1.31,18.4-.05.84.03,1.7.33,2.48.45,1.2,1.5,2.08,2.57,2.78,1.81,1.17,3.8,1.97,5.87,2.55,5.91-5.66,8.33-15.34,8.7-23.65Z"/>
              <path class="cls-12" d="M60.64,117.68c.73,3.69,1.46,7.17,2.23,10.01,1.01,3.76,2.02,7.52,3.32,11.2.34.98.74,1.99,1.54,2.66.75.62,1.75.84,2.71.92,1.13.09,2.26,0,3.38-.17-5.01-7.15-7.33-16.36-9.34-24.69-1.28.08-2.55.1-3.83.07Z"/>
            </g>
            <path class="cls-1" d="M67.05,14.53c3.43-1.25,6.93-2.4,10.47-3.46,2-.59,4.04-1.16,6.15-1.29.62-.04,1.39.04,1.57.47.13.33-.18.69-.52.95-.89.71-2.02,1.21-3.14,1.7-4.06,1.78-8.14,3.54-12.34,5.26-.37-1.34-1.14-2.61-2.19-3.63Z"/>
            <path class="cls-20" d="M62.81,11.32c3.84.28,7.14,3.08,8.97,6.46,1.83,3.38,2.42,7.28,2.79,11.11.83,8.7.65,17.46.47,26.2-.03,1.55-.06,3.1-.11,4.64-.03,1.03-.11,2.14-.79,2.91-.56.64-1.51.9-2.33.66-.81-.25-1.46-.99-1.57-1.83,0,1.82-1.88,3.31-3.69,3.11-1.81-.2-3.27-1.83-4.25-4.21-.24,1.22-5.09,6.74-14.18,5.31-6.62-1.04-10.54-9.34-10.39-10.29,2.41-15.53-5.33-40.91,25.08-44.07Z"/>
            <path class="cls-10" d="M50.79,49.77c-4.66-1.68-9.74-3.38-14.45-1.83-3.31,1.09-5.9,3.64-8.52,5.94-2.03,1.78-4.15,3.47-6.35,5.04-.28.2-.59.45-.59.8,0,.23.14.43.27.61,3.08,4.26,7.01,7.9,11.48,10.66.25.16.54.31.83.24.23-.06.39-.25.54-.42.97-1.16,1.94-2.32,2.93-3.24-1.34,3.91-3.08,14.46-4.53,18.6,4.16,4.16,28.47,6.15,40.36,0-.06-3.77-1.93-12.59-2.83-16.25,4.35-2.54,7.87-6.47,9.97-11.24-2.04-2.11-4.58-3.52-6.74-5.51-2.16-1.99-5.01-4.23-7.18-4.58-2.22-.36-4.55-.03-7.8,1.7-2.09.51-4.32.45-6.38-.18-.53-.16-1.08-.37-1-.33Z"/>
            <path class="cls-12" d="M32.39,86.16c2.04,2.04,8.92,3.56,16.81,3.85-.12-.62-.35-1.23-.73-1.83-.79-1.18-3.54-1.18-3.54-1.97,1.97-4.72-2.36-6.69-3.93-9.05-1.32-1.65-1.46-3.78-1.04-6.1,5.49-5.9,8.98-13.37,8.95-21.96-4.12-1.41-8.49-2.51-12.56-1.17-3.31,1.09-5.9,3.64-8.52,5.94-2.03,1.78-4.15,3.47-6.35,5.04-.28.2-.59.45-.59.8,0,.23.14.43.27.61,3.08,4.26,7.01,7.9,11.48,10.66.25.16.54.31.83.24.23-.06.39-.25.54-.42.97-1.16,1.94-2.32,2.93-3.24-.6,1.75-1.28,4.82-1.98,8.06-.86,4-1.75,8.25-2.55,10.54Z"/>
            <g>
              <path class="cls-23" d="M32.4,77.86c.84-1.16,2.41-1.04,3.83-.82,1.42.22,2.68,1.24,3.21,2.58.19.47.29.97.6,1.37.67.86,1.98.84,2.91,1.42.73.45,1.19,1.3,1.18,2.16,0,.67-.28,1.34-.11,1.98.17.68.79,1.15,1.13,1.77.77,1.36.83,4.85-.4,5.8s-3.63-.42-5.16-.14c-.69.13-1.38.25-2.07.38-.48.09-.98.18-1.46.08-.85-.16-1.5-.85-1.98-1.58-1.72-2.6-1.92-5.9-1.98-9.02-.04-2.14-.21-5.27.29-5.97Z"/>
              <path class="cls-25" d="M31.49,84.33c-.12-1.68,0-3.39.36-5.04.19-.87.56-1.85,1.4-2.15.98-.35,2.06.47,2.42,1.45s.23,2.06.23,3.11.18,2.19.96,2.88c.59.52,1.41.67,2.14.97.73.3,1.46.9,1.44,1.68-.02.87-.96,1.56-.85,2.42.21,1.63,1.6,3.19,4.78,2.94,1.8-.14,1.61,1.62-.98,3.62-.86.66-2.27,2.07-1.58,3.48,4.7,9.61,5.07,17.74,2.78,28.04-.45,2.02-1.03,4.05-2.16,5.79-1.18,1.81-2.89,3.19-4.58,4.54-.88.71-1.78,1.43-2.84,1.82-1.35.5-2.85.43-4.29.35-5.05-.3-10.23-.77-14.76-3.02-4.4-2.19-7.89-5.96-10.31-10.24-1.05-1.86-1.92-3.84-2.34-5.93-.45-2.25-.37-4.59.04-6.86,1.08-6.05,3.35-13.59,11.96-18.63.1-.06.88-2.15,3.33-3.05,3.39-1.25,7.35.36,10.01-2.09,1.89-1.74,2.98-4.38,2.86-6.07Z"/>
              <path class="cls-12" d="M33.53,97.22c2.12,3.44,6.02,4.21,9.67,5.55-.41-1.02-.87-2.04-1.38-3.09-.47-.96.03-1.91.67-2.63-2.99,1.31-5.97.92-8.96.17Z"/>
              <path class="cls-12" d="M9.93,128.69c2.36-1.97,4.66-1.8,7.02-1.4-6.8-9.18-6.02-19.67-1.72-31.6l-.9.46c-7.81,5.03-9.96,12.22-10.99,18.04-.4,2.26-.49,4.6-.04,6.86.42,2.09,1.29,4.07,2.34,5.93.9,1.59,1.95,3.12,3.14,4.52,0-.95.33-1.89,1.14-2.78Z"/>
              <path class="cls-17" d="M42.49,96.74c-.06.03-.13.05-.19.08,0,0-.01,0-.02,0-2.69.72-5.31.08-7.9-.91-.24-.07-.47-.21-.71-.24-.17.01-.19.27-.03.31-.01,0-.03-.01,0,0,2.03.91,4.25,1.59,6.48,1.53-.31.07-.61.13-.91.16-1.52.17-3.27-.12-4.5-.27-.18-.03-.68-.1-.97-.15,0,0,.04,0,.04,0-.15-.05-.28.13-.2.26.1.13.29.11.44.16.86.17,1.48.24,2.32.34.93.07,1.86.15,2.79.03.97-.12,1.92-.41,2.83-.76.14-.03.29-.06.43-.1.05-.01.09-.05.12-.09,0-.01.01-.03.02-.04.08-.03.16-.08.19-.16.04-.13-.11-.25-.23-.18Z"/>
              <path class="cls-17" d="M25.61,128.62c-.03-.13-.15-.2-.24-.29-.34-.31-.69-.62-1.02-.94-1.19-1.22-1.89-2.22-2.85-3.48-1.62-2.28-2.82-4.72-3.63-6.79-.91-2.19-1.71-4.43-2.21-6.75-.33-1.5-.58-3.02-.79-4.55-.19-1.31-.37-3.28-.24-4.89.12-1.51.09-2.94.57-4.34.13-.4.27-.74.42-1.1.03-.14-.18-.22-.25-.09-.16.31-.29.63-.41.96-.48,1.09-1.01,2.24-1.39,3.38-1.1,3.42-1.75,6.65-1.88,10.16-.13,2.58.07,5.2.65,7.72.54,2.23,1.42,4.37,2.46,6.41.43.87.94,1.7,1.46,2.51.14.21.27.42.41.64.06.1.2.14.3.08.13-.07.13-.25.04-.36-.13-.25-.27-.49-.4-.74-.6-1.08-1.18-2.17-1.69-3.29-.42-.96-1.03-2.34-1.43-3.62-.38-1.14-.78-2.99-.9-3.84-.68-4.87-.17-9.56.97-14.21.25-1.02.58-2,.95-2.98-.09.55-.15,1.1-.2,1.65-.25,2.01-.29,4.03-.07,6.04.18,1.98.54,4.19,1.07,6.37.45,1.62,1,3.21,1.63,4.76,1.16,3.1,2.75,6.03,4.86,8.58.84,1.08,1.76,2.11,2.84,2.95.35.23.54.63.9.35.08-.08.11-.2.08-.32Z"/>
              <path class="cls-17" d="M22.32,117.93c-1.36-1.87-2.73-3.87-3.52-6-.32-.92-.67-1.84-.87-2.8-.03-.11-.02-.24-.13-.31-.14-.08-.32.05-.27.21.36,1.73.94,3.42,1.74,5,.78,1.48,1.89,3.1,2.87,4.26.09.08.26.03.29-.1.03-.11-.05-.19-.11-.27Z"/>
            </g>
            <path class="cls-15" d="M49.12,46.98c-.1.36-1.05,3.28-.41,4.25.44.67,3.44,1.6,6.07,1.49,1.55-.07,3.09-.65,4.05-1.73-.04-.26.51-3.22.28-3.66-1.42.03-3.42.36-4.84.39-1.58.03-3.57-.5-5.16-.74Z"/>
            <path class="cls-2" d="M60.16,9.85c-6.28-2.14-13.54-.23-18.56,4.11-2.22,1.92-4.08,4.3-5.21,7.01-.86,2.05-1.3,4.27-1.44,6.49-.24,3.96.5,8.01,2.35,11.52,1.85,3.51,4.84,6.46,8.48,8.04,2.3,1,4.81,1.45,7.31,1.55,3.83.15,7.74-.52,11.11-2.35s6.14-4.87,7.25-8.54c.55-1.83.68-3.83.04-5.62-.17-.48-.4-.95-.53-1.44-.2-.72-.2-1.48-.21-2.22-.04-1.9-.19-3.79-.46-5.67-.36-2.52-.95-5.07-2.36-7.19-1.69-2.53-4.28-4.49-7.76-5.68Z"/>
            <path class="cls-2" d="M22.19,61.7c-2.91,3.25-5.14,6.04-7.03,9.98-.55,1.14-1.02,2.35-1.07,3.62-.06,1.63.59,3.2,1.41,4.61,1.54,2.65,3.71,4.87,5.95,6.96,2.53,2.37,5.23,4.65,8.43,5.97.51.21,1.26.29,1.44-.23.11-.32-.11-.66-.32-.92-.94-1.19-1.98-2.3-3.11-3.31,1.23,1.23,2.54,2.51,4.22,2.99.21.06.44.1.63,0,.47-.24.22-.96-.09-1.38-.82-1.13-1.7-2.21-2.63-3.25.99.94,2.03,1.91,3.34,2.29.39.11.88.14,1.14-.18.34-.42,0-1.03-.35-1.45-.87-1.06-1.76-2.09-2.67-3.11.49.15.92.45,1.41.57.49.12,1.12-.01,1.3-.48.2-.53-.26-1.06-.67-1.45-2.05-1.89-2.83-2.83-4.62-4.97-.41-.49-.89-1.01-.89-1.65,0-1.2,2.69-4.07,3.8-5.88.04-.06-1.22-.61-5.22-4.04-1.22-1.05-4.17-4.56-4.38-4.7Z"/>
            <path class="cls-12" d="M30.78,71.89c.39-.52.74-1.01,1.01-1.44.04-.06-1.22-.61-5.22-4.04-1.22-1.05-4.17-4.56-4.38-4.7-.07.08-.14.16-.21.24,1.41,4.58,4.91,7.61,8.8,9.94Z"/>
            <path class="cls-12" d="M27.88,88.39c.37.37.75.74,1.14,1.1-.37-.38-.75-.74-1.14-1.1Z"/>
            <path class="cls-20" d="M55.4,8.58c-5.37.11-10.69,1.87-15.06,4.98-1.83,1.3-3.51,2.84-4.78,4.69-1.42,2.06-2.31,4.45-2.97,6.87-3.13,11.38-1.81,24.08-7.49,34.42-.39.72-.83,1.43-1,2.23-.18.8-.05,1.72.55,2.28.81.76,2.09.59,3.17.37-1.04,1.67.02,4.23,1.94,4.68,1.79.42,3.52-.77,4.96-1.91-.02,1.13.24,2.38,1.14,3.05,2.05,1.53,4.93-.6,6.61-3.22,3.61-5.65,6.48-12.13,6.66-20.05.17-7.33-2.2-18.24-1.77-25.56.18-3.01-.58-5.68,1.02-8.24,1.6-2.55,4.54-4.46,7.03-4.61Z"/>
            <path class="cls-12" d="M41.1,26.08c.06-.02.12-.05.18-.07.5-.2,1-.4,1.5-.61,1.48-.6,2.97-1.2,4.45-1.79.07-.03.13-.05.2-.08.63-.25,1.26-.5,1.9-.75.04-.01.07-.03.11-.04,2.06-.81,4.13-1.6,6.21-2.34.06-.02.12-.04.17-.06.61-.22,1.23-.44,1.84-.65.13-.04.25-.09.38-.13.55-.19,1.11-.37,1.66-.56.15-.05.31-.1.46-.15.53-.17,1.07-.34,1.6-.51.16-.05.33-.1.49-.15.54-.16,1.07-.32,1.61-.47.16-.04.31-.09.47-.13.57-.16,1.14-.31,1.71-.46.13-.03.25-.07.38-.1.67-.17,1.34-.34,2.02-.5.74-.17,1.48-.34,2.22-.49-1.76-2.36-4.28-4.18-7.13-4.63-1.01-.61-2.13-1.14-3.37-1.56-2.16-.74-4.44-1-6.71-.84.66-.25,1.32-.4,1.95-.44-5.37.11-10.69,1.87-15.06,4.98-1.83,1.3-3.51,2.84-4.78,4.69-1.42,2.06-2.31,4.45-2.97,6.87-.43,1.55-.77,3.13-1.06,4.72,1.13-.42,2.26-.85,3.39-1.29,0,0,0,0,0,0,.14-.05.27-.11.41-.16.18-.07.35-.14.53-.21,1.14-.45,2.28-.9,3.42-1.36.34-.14.68-.28,1.03-.41.06-.02.12-.05.18-.07,0,0,0,0,0,0,.21-.08.42-.17.63-.25Z"/>
            <path class="cls-8" d="M61.86,92.21c-.77.69-1.59,1.49-2.26,1.95-.84.55-1.77.93-2.68,1.35-.36.19-.76.34-1.1.58-.15.16-.11.4-.14.6-.37,2.99-1.39,8.06-2.09,11.94-.36,1.93-.58,3.65-.86,5.47-.08.73-.18,1.32-.23,1.98,0,0,0,0,0,0-.02.06,0,.13.06.16.22.12.26-.13.29-.29.06-.33.1-.67.16-1,.22-1.44.59-2.86.91-4.29.54-2.73,1.03-5.46,1.55-8.19.4-2.15.73-3.91.86-5.97.07-.03.13-.07.2-.1,1.18-.62,2.46-1.07,3.56-1.84.78-.64,1.57-1.3,2.26-2.03.14-.28-.27-.56-.48-.33Z"/>
            <path class="cls-11" d="M63.08,31.21c-.16-.48-.61-.64-.97-.76-.36-.12-.76-.1-1.13-.02-.37.08-.73.21-1.01.46s-.47.62-.44.99c.04.42.37.78.75.96.39.17.83.19,1.25.15.46-.05.93-.23,1.26-.55.33-.32.44-.73.28-1.22Z"/>
            <g>
              <path d="M53.17,30.17c.03-.79.61-1.42,1.29-1.39.68.03,1.21.7,1.17,1.49-.03.79-.61,1.42-1.29,1.39-.68-.03-1.21-.7-1.17-1.49Z"/>
              <path d="M53.64,29.15c.16-.24.41-.41.69-.48.13-.03.26-.04.4-.06.23-.04.45-.14.64-.28.12-.09.27-.2.4-.13.13.07.13.27.06.4-.13.27-.43.43-.73.49-.3.06-.6.03-.91,0-.2-.02-.43,0-.57.05Z"/>
            </g>
            <g>
              <path d="M65.17,28.88c.03-.79.61-1.42,1.29-1.39s1.21.7,1.17,1.49-.61,1.42-1.29,1.39c-.68-.03-1.21-.7-1.17-1.49Z"/>
              <path d="M65.63,28.13c.13-.26.36-.46.63-.56.13-.04.26-.07.39-.11.23-.07.43-.19.61-.35.11-.1.24-.23.38-.18.14.05.16.25.11.39-.1.29-.37.48-.66.57-.29.09-.6.1-.9.11-.2,0-.43.04-.56.12Z"/>
            </g>
            <path class="cls-20" d="M54.58,23.14c-.68.23-1.32.62-1.84,1.11-.47.45-.87,1.06-.82,1.71,0,.08.03.18.09.23.07.07.18.08.27.07.41-.04.74-.34,1.07-.58.59-.44,1.28-.73,1.98-.98.3-.1.63-.23.74-.53.12-.32-.09-.67-.36-.88-.29-.23-.74-.29-1.13-.16Z"/>
            <path class="cls-20" d="M66.38,21.78c.72.09,1.41.34,2.03.72.55.35,1.07.86,1.15,1.51.01.08.01.18-.04.25-.05.08-.16.11-.25.12-.41.04-.79-.18-1.16-.35-.67-.31-1.4-.46-2.13-.56-.31-.04-.67-.1-.83-.37-.18-.29-.05-.68.17-.94.24-.28.66-.44,1.07-.38Z"/>
            <g>
              <path class="cls-16" d="M54.91,40.9c.35.3.74.55,1.14.78,1.64.9,3.57,1.25,5.42.99,1.63-.23,3.23-.89,4.45-1.98-1.7-1.24-3.7-2.11-5.8-2.13-1.98-.02-4.01.83-5.22,2.34Z"/>
              <path d="M66.87,35.77c-.79-.91-2.01-1.16-3.43-.94-.57.09-1.12.28-1.69.39-1.15.23-2.34.14-3.49-.07-.95-.17-1.94-.42-2.88-.18-.84.22-1.56.85-1.89,1.65-.39.96-.22,2.09.3,2.98.29.5.68.93,1.12,1.3,1.22-1.52,3.25-2.37,5.22-2.34,2.09.02,4.1.89,5.8,2.13.17-.15.33-.31.48-.48.72-.79,1.86-2.82.46-4.44Z"/>
            </g>
            <path class="cls-18" d="M43.69,26.57c.15-.87.31-1.74.55-2.59.03-.21.2-.43.12-.64-.09-.16-.35-.13-.4.05-.45,1.42-.79,2.89-.99,4.36-.2,1.96-.17,3.94-.14,5.91.07,3.21.16,6.42.33,9.62.07,2.05.11,4.11.03,6.15-.34,4.3-1.14,8.5-2.77,12.68-.34.82-.58,1.41-1,2.29-.05.14-.18.26-.17.41.02.08.13.13.2.08.12-.12.19-.29.28-.43.31-.53.58-1.09.84-1.65,2.03-4.48,3.07-9.37,3.36-14.26.05-2.78-.02-5.56-.19-8.34-.12-1.84-.13-3.68-.2-5.53-.07-1.6-.09-3.2-.08-4.79.02-1.2.03-2.31.23-3.33Z"/>
            <path class="cls-18" d="M41.12,25.79c-.09-.03-.19.03-.21.12-.66,1.99-1.07,4.06-1.24,6.15-.26,2.28-.38,4.57-.5,6.86-.06,3-.26,6-.4,9-.04,2.06-.3,4.59-.52,5.92-.28,2-.7,4.29-1.48,6.39-.2.56-.42,1.13-.61,1.7-.07.21-.2.5.1.59.38.05.34-.34.51-.64.23-.57.45-1.14.66-1.72.61-1.81.97-3.69,1.3-5.57.23-1.43.5-2.86.62-4.3.18-2.88.3-5.76.4-8.64.03-2.33.07-4.66.2-6.99.16-2.25.24-4.35.71-6.49.17-.73.37-1.45.58-2.17.03-.09-.03-.19-.12-.21Z"/>
            <path class="cls-18" d="M37.05,28.16c-.07-.13-.29-.11-.32.04-.78,2.74-1.26,5.7-1.64,8.27-.4,2.64-.71,4.93-.9,7.72-.2,2.49-.35,5.74-.64,7.73-.38,2.59-1.53,7.13-2.59,9.76-.12.36-.29.64-.27.89.04.16.25.25.39.16.15-.11.2-.32.3-.48.85-1.67,1.44-3.24,1.99-5.19.48-1.6.89-3.23,1.14-4.88.45-3.47.48-6.99.75-10.48.29-3.6.61-7.11,1.18-10.51.13-.81.29-1.62.49-2.42.04-.25.17-.41.11-.6Z"/>
            <path class="cls-6" d="M62.82,30.65c-.27-.24-.64-.32-.98-.35-.14,0-.27,0-.41,0-.03,0-.05.02-.06.04-.02.04.02.1.06.1.52.02.92.16,1.24.53.06.09.21.37.17.56,0,.04-.07.37-.14.45-.04.09-.42.48-.52.55-.09.07-.2.11-.28.18-.06.07,0,.19.09.19.32-.06.79-.36,1.03-.69.16-.23.23-.51.21-.78-.03-.3-.19-.6-.41-.8Z"/>
            <path class="cls-9" d="M60.27,32.35c-.08-.09-.18-.16-.29-.2-.2-.05-.3.14-.21.3.05.11.15.18.25.26.09.07.21.14.33.13.28-.07.13-.31-.08-.49Z"/>
            <path class="cls-24" d="M72.88,83.66c-.12-.9-.24-1.8-.38-2.7-.29-1.81-.63-3.62-.98-5.42-.68-3.45-1.43-6.92-2.45-10.28-.56-1.85-1.23-3.66-2.06-5.41-.04-.07-.17-.02-.13.06,1.32,3.16,2.06,6.51,2.7,9.87.67,3.51,1.34,7.03,1.92,10.57.17,1.02.34,2.03.49,3.05.14.94.14,2.04.52,2.92.1.24.51.17.56-.07.15-.83-.08-1.75-.19-2.57Z"/>
            <g>
              <path class="cls-10" d="M31.62,27.32c12.17-5.66,24.89-10.16,37.94-13.39-1.57-2.86-3.51-5.57-6.06-7.62-2.56-2.05-5.78-3.4-9.07-3.3-1.91.05-3.77.58-5.59,1.15-4.56,1.42-9.23,3.22-12.44,6.72-3.84,4.19-4.99,10.21-4.77,16.45Z"/>
              <path class="cls-19" d="M31.6,27.32c6.84-3.3,13.91-6.14,21-8.85,6.6-2.53,13.21-5.05,19.98-7.12,4.02-1.23,9.97-2.57,12.25-1.45-1.87-.43-9.29,2-13.84,3.71-12.51,4.68-25.66,7.63-37.68,13.43-.58.28-1.8,1-1.7.28Z"/>
              <g>
                <g>
                  <path class="cls-21" d="M55.69,7.24c-.34.61-.64,1.33-.95,2.25-.01.04.03.07.07.05.17-.12.37-.2.46-.18.13.05.21.23.33.4.01.01.03.02.04,0,.21-.51.73-2.47,1-2.54.01,0,.03,0,.04,0-.24-.08-.44-.11-.72-.07-.09.01-.18.05-.27.1Z"/>
                  <path class="cls-7" d="M60.45,8.37c-.29-.7-.67-1.23-.76-1.21-.05,0-.07.06-.09.11-.05.2-.08.36-.14.52-.71-.48-1.53-1.09-2.31-1.39-.22-.08-.45-.16-.67-.1-.29.07-.47.34-.62.6-.04.07-.12.28-.16.35.08-.05.18-.09.27-.1.28-.04.48,0,.72.07.44-.03,1.97.97,2.43,1.19-.15.11-.28.16-.46.3-.02.01-.04.03-.04.05-.02.06.06.1.12.11.5.1,1.02.07,1.5-.09.11-.04.23-.1.26-.21.01-.07-.01-.13-.04-.2Z"/>
                </g>
                <g>
                  <path class="cls-21" d="M62.43,10.31c-.42-.56-.95-1.13-1.66-1.79-.03-.03-.08,0-.07.04.04.21.05.39-.01.46-.1.1-.4.13-.52.12-.02,0-.03.02-.02.03.37.4,1.95,1.73,1.91,2.01,0,.01,0,.03-.01.04.17-.18.28-.36.36-.63.03-.09.03-.19.02-.28Z"/>
                  <path class="cls-7" d="M59.34,14.09c.76.03,1.5,0,1.52-.1.02-.06-.32-.32-.32-.32,0,0,1.35-.73,2.11-1.53.16-.17.36-.44.4-.66.05-.29-.3-.72-.47-.96-.05-.07-.1-.14-.15-.21.01.1,0,.2-.02.28-.08.27-.19.44-.36.63-.15.41-1.66,1.48-2.05,1.8-.03-.19-.07-.41-.12-.62,0-.02-.01-.05-.03-.06-.05-.04-.12,0-.15.06-.21.39-.43.95-.53,1.26-.03.11-.12.31-.02.38.05.04.13.05.19.05Z"/>
                </g>
                <g>
                  <path class="cls-21" d="M55.97,14.91c.7.04,2.11-.17,3.05-.39.04,0,.05-.06.02-.08-.19-.1-.51-.21-.53-.3-.01-.14.17-.45.26-.53.01-.01,0-.04-.01-.03-.6.18-3.05.49-3.24.28,0,0-.02-.02-.02-.03.03.25.13.67.28.9.05.08.12.14.21.2Z"/>
                  <path class="cls-7" d="M54.9,9.91c-.51.56-.82,1.13-.77,1.21.03.04.09.04.14.03.21-.04.24-.04.42-.06-.12.85-.21,1.83-.14,2.67.02.23.08.69.23.87.19.23.64.23.94.25.08,0,.17.01.25.02-.08-.05-.15-.12-.21-.2-.15-.23-.25-.65-.28-.9-.22-.38-.06-2.22-.06-2.72.16.09.36.21.56.3.02.01.04.02.07.02.06-.01.07-.1.05-.16-.12-.49-.38-.95-.73-1.32-.08-.08-.19-.17-.3-.14-.07.02-.12.07-.16.12Z"/>
                </g>
              </g>
            </g>
          </g>
        </g>
      </g>
    </g>
  </g>
</svg>