<?xml version="1.0" encoding="UTF-8"?>
<svg xmlns="http://www.w3.org/2000/svg" viewBox="0 0 107.7 146.17">
  <defs>
    <style>
      .cls-1 {
        fill: #18401e;
      }

      .cls-2 {
        fill: #fccec0;
      }

      .cls-3 {
        fill: #d6cece;
      }

      .cls-4 {
        fill: #534b48;
      }

      .cls-5 {
        fill: #848484;
      }

      .cls-6 {
        fill: #e48367;
      }

      .cls-7 {
        fill: #fff;
      }

      .cls-8 {
        fill: #5b5b5b;
      }

      .cls-9 {
        fill: #5e3428;
      }

      .cls-10 {
        fill: #368f45;
      }

      .cls-11 {
        fill: #ee8482;
        opacity: .37;
      }

      .cls-11, .cls-12 {
        mix-blend-mode: multiply;
      }

      .cls-13 {
        isolation: isolate;
      }

      .cls-14 {
        fill: #d68973;
      }

      .cls-15 {
        fill: #f8bba8;
      }

      .cls-16 {
        fill: #fd7d7a;
      }

      .cls-17 {
        fill: #0e2e2c;
      }

      .cls-18 {
        fill: #114543;
      }

      .cls-19 {
        fill: #68b677;
      }

      .cls-20 {
        fill: #1a524f;
      }

      .cls-21 {
        fill: #e2d8d8;
      }

      .cls-22 {
        fill: #fdf5f5;
      }

      .cls-23 {
        fill: #071211;
      }

      .cls-12 {
        fill: #5a2478;
        opacity: .17;
      }

      .cls-24 {
        fill: #2b7b36;
      }

      .cls-25 {
        fill: #313a3a;
      }
    </style>
  </defs>
  <g class="cls-13">
    <g id="Layer_2" data-name="Layer 2">
      <g id="Layer_1-2" data-name="Layer 1">
        <g>
          <path class="cls-7" d="M46.64,146.17c-.56,0-1.17-.04-1.8-.13-2.58-.36-5.31-.76-8-1.5-.08-.02-.17-.04-.25-.06-.13-.04-.26-.08-.4-.12l-.14-.04c-.3-.09-.59-.18-.88-.28-.32-.11-.62-.22-.93-.34l-.15-.06c-.24-.09-.48-.18-.71-.27-.09-.04-.18-.08-.27-.12-.29.02-.59.03-.91.03-.55,0-1.11-.03-1.66-.06-5.31-.32-10.91-.84-15.92-3.33-3-1.49-5.74-3.67-8.12-6.47-.02-.02-.04-.04-.06-.07-.52-.61-1.03-1.27-1.6-2.08-.13-.19-.26-.37-.39-.56-.57-.83-1.02-1.56-1.42-2.27-.29-.52-.57-1.04-.83-1.57-.58-1.17-1.02-2.29-1.37-3.4-.19-.62-.35-1.24-.47-1.84-.49-2.45-.48-5.13.03-7.97.07-.39.14-.79.22-1.19,0,0,.21-.99.26-1.23,0,0,.26-1.08.31-1.27.04-.15.22-.8.22-.8l.14-.49c.06-.19.12-.38.18-.56,0,0,.19-.59.25-.76.07-.2.26-.72.26-.72,0,0,.17-.46.24-.62.09-.22.18-.43.27-.64,0,0,.23-.54.3-.7.11-.24.23-.47.34-.71,0,0,.25-.5.33-.66.14-.26.28-.51.43-.77.12-.21.22-.39.34-.58.15-.24.3-.48.46-.71.16-.25.29-.44.42-.63.17-.24.35-.49.54-.75.15-.19.29-.38.43-.56.21-.25.41-.5.62-.74.16-.18.32-.36.48-.54.22-.24.45-.48.69-.72.18-.18.36-.36.55-.54.24-.23.49-.46.76-.69.19-.17.39-.33.59-.5.28-.23.56-.45.85-.67.2-.16.43-.32.65-.48.3-.21.6-.42.91-.62.1-.07.18-.13.28-.19.08-.05.15-.09.23-.13,0,0,.13-.08.14-.09,1.11-1.78,2.62-3.02,4.5-3.71.64-.24,1.28-.4,1.91-.5-.04-.03-.07-.07-.11-.1-2.33-2.18-4.72-4.62-6.49-7.64-1.3-2.22-1.89-4.26-1.81-6.24.07-1.9.77-3.56,1.37-4.81,1.65-3.43,3.53-6.06,5.9-8.85-.24-.43-.49-1.06-.48-1.83,0-.78.26-1.92,1.46-2.93.13-.11.27-.21.4-.3,1.66-1.19,3.35-2.51,5.03-3.93,1.38-4.44,1.94-9.18,2.54-14.19.35-2.92.71-5.94,1.24-8.9,0-.03.15-.8.2-1.05-.14-.43-.18-.9-.13-1.38-.2-7.81,1.67-13.92,5.57-18.17,3.7-4.03,8.8-6.02,13.76-7.56C49.92.67,52.04.07,54.34,0c.13,0,.27,0,.41,0,3.66,0,7.43,1.41,10.62,3.97,1.69,1.36,3.23,3.02,4.65,5.04.56-.18,1.11-.36,1.67-.53,2.44-.75,7.08-2,10.65-2,1.56,0,2.81.24,3.81.74.07.04.14.07.21.11,1.02.54,1.48,1.35,1.67,1.83.23.58.8,2.62-1.45,4.4-1.21.96-2.64,1.59-3.8,2.09-2.42,1.06-4.84,2.11-7.25,3.12,1.24,3.19,1.71,6.59,2.02,9.84.79,8.33.67,16.92.52,24.63,1.33.99,2.71,2.02,3.98,3.34.84.88,1.08,2.17.59,3.29-.18.4-.37.81-.58,1.23.38.45.81.93,1.3,1.41,3.85,3.85,7.87,7.11,11.29,9.79.4.31.83.57,1.27.8,1.03-6.71,2.1-13.63,3.25-20.75.16-.92.63-2.76,1.03-3.75.41-1.23,1.57-2.09,2.94-2.09,1.57,0,3,1.22,3.6,1.94,1.06,1.28,1.03,2.52.91,3.15-1.21,6.84-2.39,13.85-3.52,20.62l-.67,3.99c.76,1.11,1.13,2.47,1.04,3.86.56,1.02.7,2.06.76,2.58.17,1.27-.2,2.53-.91,3.5-.08.5-.25,1-.51,1.48-.24.45-.57.83-.96,1.17-.31.93-.95,1.72-1.85,2.23-.04.03-.08.05-.12.08l-.18,1.03c-1.78,10.03-3.62,20.36-4.23,30.84.09,0,.18.01.26.02.08,0,.16.02.24.02h.04c.3-.03.51-.04.71-.04.15,0,.31,0,.46.02.04,0,.08,0,.11.01,1.37.2,2.55,1.07,3.13,2.28.05.07.1.15.14.22.82,1.35.75,2.71.71,3.61,0,.18-.02.42-.02.55.07.12.22.35.33.51.55.81,1.46,2.16,1.26,3.99-.12,1.11-.63,2.14-1.53,3.08-2.61,2.74-6.53,2.98-8.87,3.13-.72.04-1.54.1-2.38.1-1.04,0-1.96-.08-2.82-.25-.26-.05-.51-.11-.77-.17-.37.28-.7.47-.94.61-2.81,1.66-5.84,2.95-9.01,3.84-1.6.45-2.95.73-4.23.88-.02,0-.08,0-.1.01-.24.03-.54.05-.84.07h-.12c-.29.02-.57.03-.85.03h-.17c-.38,0-.73-.01-1.08-.04-.78-.06-1.46-.19-2.08-.38-.88-.27-1.65-.68-2.31-1.22-.67-.55-1.22-1.25-1.67-2.12-.34-.64-.58-1.29-.77-1.84-.6-1.7-1.19-3.57-1.82-5.73-.27-.95-.54-1.9-.8-2.86-.26-.94-.51-1.89-.77-2.83-.28-1.06-.57-2.22-.88-3.55-.42-1.82-.86-3.94-1.4-6.66-.35-1.79-.7-3.62-1.05-5.45-.02-.11-.04-.22-.06-.34-.24,1.02-.46,1.99-.61,2.95,0,.04-.01.08-.02.13-.02.12-.04.24-.06.36-.03.21-.06.42-.1.63-.09.48-.25.9-.47,1.25l-3.58,18.17c-.04.21-.11.54-.1.65.01.19.23.73.38,1.09.52,1.26,1.3,3.17.37,5.29-.53,1.19-1.98,3.19-5.75,3.19ZM77.8,99.33l1.58,7.27.9,3.99.77,3.32c.95,4.04,1.82,7.46,2.58,10.24.24-.61.53-1.2.86-1.77.43-.73,1.16-1.76,2.47-2.34.6-.27,1.27-.4,1.98-.4h0c.81-7.87,2.08-15.65,3.31-23.21.3-1.83.59-3.64.87-5.43-3.09-1.26-6.4-3.42-8.98-5.11l-1.02-.67c-2.62-1.69-5.39-3.84-7.86-5.9.07.4.13.79.19,1.19.15.92.27,1.85.39,2.78.02.16.05.33.07.49.13.83.3,1.86.09,3-.09.5-.29.96-.58,1.35l2.36,11.22Z"/>
          <g>
            <g>
              <path class="cls-22" d="M83.26,129.83c-.47-.88.57-1.87,1.56-2.01.33-.05.71-.07.93-.32.15-.17.19-.42.23-.64.19-1.04.56-2.04,1.1-2.95.27-.46.61-.91,1.1-1.13.56-.25,1.2-.13,1.81-.02.64.13,1.31.26,1.85.63.54.37.93,1.05.77,1.68-.07.27-.21.62.02.78.08.06.19.06.3.06,1.04.02,1.18.72,2.21.52,2.2-.43,3.34-.32,3.92.63.6.98.05,2.28.36,3.39.33,1.21,1.64,2.13,1.51,3.38-.06.51-.36.97-.72,1.34-1.7,1.79-4.42,2.05-6.88,2.2-1.48.09-2.98.18-4.43-.1-1.05-.21-2.08-.6-3.14-.49-.46.05-.93.19-1.37.05-.52-.16-.83-.67-1.1-1.14-.4-.68-.8-1.38-.95-2.16-.14-.78.02-1.66.62-2.18.13-.11.27-.21.35-.36.28-.56.01-.62-.02-1.19Z"/>
              <path class="cls-3" d="M93.41,131.74c-.34-.08-.43-.12-.72-.24-.75-.32-1.15.19-1.63.67-.18.16-.36.28-.63.35,0,0-.01,0-.02,0-.02,0-.06,0-.09,0,0,0,0,0,0,0,0,0-.02-.01-.03-.02-.08-.08-.08-.38-.06-.84.12-1.17-.89-1.25-1.48-1.58-.03-.02-.05-.04-.08-.05,0,0,0,0,0,0-.02-.09,0-.17.02-.31.11-.62.38-1.22.36-1.86-.05-.31-.11-.47-.28-.8-.2-.34-.57-.56-.96-.61-.12-.01-.29-.05-.37.05-.04.07.01.17.1.17.3-.04.63.1.81.31.04.05.15.25.16.28.07.19.12.48.13.49.02.57-.4,1.34-.47,2.04-.07.41.11.65.49.8.38.17.5.17.87.39.36.2.15.54.19,1.33.1.88.83.81,1.41.38.36-.24.61-.71.93-.88.32-.16.67.17,1.15.28.09.02.19.06.28,0,.15-.08.12-.32-.05-.36Z"/>
              <path class="cls-3" d="M98.81,126.7c-.13-.38-.51-.66-.9-.71-.3-.03-.59.05-.89.04-.48,0-.97-.12-1.45,0-.18.03-.35.07-.52.11-.01,0-.03,0-.04,0,0,0-.01,0-.02,0-.15-.13-.3-.27-.49-.35-.38-.11-.78-.27-1.18-.17-.24.05-.49.15-.69.21,0-.05,0-.1.01-.12.02-.08.15-.57.18-.81.08-.5-.06-1.07-.47-1.4-.44-.28-.93-.53-1.45-.62-.16-.05-.24.21-.07.25.53.1.88.3,1.34.59.46.39.42,1.15.16,1.95-.02.07-.04.13-.06.2.02-.05.02-.05,0,0,0,.02,0,.03,0,.05,0,0,0,0,0-.02-.05.05-.11.4.27.47.52,0,.78-.14,1.01-.14,0-.01.41.05.83.2.19.09.34.24.56.25.43-.01.87-.21,1.11-.19.3,0,.6.05.9.02.44-.03.61-.12.97-.11.17.04.15.04.34.14.16.07.25.28.3.38.16.17.37-.03.25-.23Z"/>
              <path class="cls-3" d="M97.7,128.55c-.13-.21-.28-.08-.39.02-.21.17-.54.43-.64.51-.3.21-.51.54-.54.91.01.28.04.35.11.72.08.29.13,1.11.07,1.27,0,0,0,.01,0,.02-.01.02-.02.04-.03.06-.01.02-.03.03-.05.05-.03.02-.06.05-.1.07-.38.24-.78.46-1.08.8-.81.94-.48,1.96.36,2.73.26.25.64-.13.39-.39-.67-.68-.85-1.35-.26-1.86.12-.1.35-.27.67-.44.4-.2.81-.51.83-.99.11-.65-.39-1.97-.37-2.11.03-.36.45-.62.83-1,.05-.05.17-.18.17-.17.04-.05.06-.12.03-.18Z"/>
            </g>
            <path class="cls-2" d="M69.15,69.76c1.47,1.47,9.2,8.79,15.6,12.92,4.18,2.7,11.89,8.09,14.68,5.8,1.17-.96.1-8.66-.32-10.14-.36-1.26-3.72-1.64-6.32-3.68-3.5-2.75-7.59-6.07-11.56-10.03-2.45-2.45-3.7-4.73-4.07-4.84-2.21,3.69-4.92,7.08-8.02,9.97Z"/>
            <path class="cls-12" d="M78.49,61.42c-.7-.94-1.13-1.57-1.32-1.62-2.21,3.69-4.92,7.08-8.02,9.97.37.37,1.15,1.13,2.21,2.11,3.35-2.61,5.68-6.49,7.12-10.45Z"/>
            <path class="cls-4" d="M102.13,52.84c-2.46,15.14-4.44,28.92-6.9,44.06-1.43,8.81-2.86,17.62-3.62,26.56-.1,1.19.3,2.9,1.73,3.02.36-11.81,2.4-23.34,4.44-34.85,2.4-13.49,4.52-27.08,6.92-40.58.14-.74-1.65-1.85-1.66-1.46-.22.45-.74,2.29-.91,3.24Z"/>
            <g>
              <path class="cls-5" d="M78.13,114.59c-3.58-15.21-7.15-33.76-7.45-34.16-7.61,2.02-15.65,1.53-23.49.78-4.38-.42-8.83-.93-12.74-2.39-2.06,13.88-3.48,24.9-4.52,36.55,4.79,1.73,8.66,1.73,14.06,2.32,2.32.25,5.44.73,8.18.59,1.04-5.27,2.07-10.53,3.11-15.8.23-.03.71-5.68,1.03-5.77,1.51,5.6,2.9,13.68,4.33,20.96,5.96.15,11.94-.9,17.49-3.08Z"/>
              <path class="cls-12" d="M70.69,80.44c-7.61,2.02-15.65,1.53-23.49.78-4.38-.42-8.83-.93-12.74-2.39-.54,3.64-1.04,7.08-1.49,10.39-1.29,9.31-2.26,17.56-3.03,26.16,4.79,1.73,8.66,1.73,14.06,2.32.69.08,1.45.17,2.25.26.77-5.89.52-11.82.27-17.59,0-2.1,2.51-5.34,3.01-8.86,7.79.37,15.51-.6,22.67-4.29-.84-4.01-1.39-6.64-1.5-6.78Z"/>
              <path class="cls-5" d="M72.19,87.22c-7.17,3.69-14.88,4.66-22.67,4.29-.5,3.51-3.01,6.76-3.01,8.86.25,5.77.5,11.7-.27,17.59,1.89.22,4.01.43,5.93.33,1.04-5.27,2.07-10.53,3.11-15.8.23-.03.71-5.68,1.03-5.77,1.51,5.6,2.9,13.69,4.33,20.96,5.96.15,11.94-.9,17.49-3.08-2.26-9.59-4.51-20.51-5.94-27.37Z"/>
              <path class="cls-12" d="M56.3,96.73s0,0,0,0c1.51,5.6,2.9,13.69,4.33,20.96,1.23.03,2.47,0,3.7-.06-1.81-7.65-3.76-15.08-4.46-23.15-1.21.91-3.13,1.12-3.58,2.26Z"/>
              <path class="cls-5" d="M72.19,87.22c-7.17,3.69-14.88,4.66-22.67,4.29-.5,3.51-3.01,6.76-3.01,8.86.25,5.77.5,11.7-.27,17.59,1.89.22,4.01.43,5.93.33,1.04-5.27,2.07-10.53,3.11-15.8.23-.03.7-5.6,1.02-5.76.45-1.13,2.36-1.35,3.58-2.26.7,8.06,2.65,15.5,4.46,23.15,4.72-.27,9.39-1.29,13.79-3.02-2.26-9.59-4.51-20.51-5.94-27.37Z"/>
              <path class="cls-10" d="M43.99,117.69c-5.4-.59-9.27-.59-14.06-2.32-.52,5.83-.95,11.82-1.31,18.4-.05.84.03,1.7.33,2.48.45,1.2,1.5,2.08,2.57,2.78,4.04,2.61,8.97,3.38,13.73,4.03,1.63.23,3.73.2,4.39-1.3.71-1.6-.92-3.29-1-5.03-.02-.46.07-.91.16-1.36,1.12-5.69,2.24-11.39,3.37-17.08-2.74.14-5.86-.34-8.18-.59Z"/>
              <path class="cls-10" d="M84.48,133.51c-.78-.48-1.73-2.17-2.03-3.03-1.28-3.6-2.8-9.44-4.31-15.88-5.55,2.18-11.53,3.23-17.49,3.08.73,3.69,1.46,7.17,2.23,10.01,1.01,3.76,2.02,7.52,3.32,11.2.34.98.74,1.99,1.54,2.66.75.62,1.75.84,2.71.92,2.13.17,4.28-.27,6.33-.85,2.91-.81,5.7-2,8.3-3.54.6-.35,1.22-.75,1.51-1.38.83-1.81-.81-2.42-2.1-3.2Z"/>
              <path class="cls-12" d="M46.09,117.94c-.74-.09-1.46-.17-2.1-.25-5.4-.59-9.27-.59-14.06-2.32-.52,5.83-.95,11.82-1.31,18.4-.05.84.03,1.7.33,2.48.45,1.2,1.5,2.08,2.57,2.78,1.81,1.17,3.8,1.97,5.87,2.55,5.91-5.66,8.33-15.34,8.7-23.65Z"/>
              <path class="cls-12" d="M60.64,117.68c.73,3.69,1.46,7.17,2.23,10.01,1.01,3.76,2.02,7.52,3.32,11.2.34.98.74,1.99,1.54,2.66.75.62,1.75.84,2.71.92,1.13.09,2.26,0,3.38-.17-5.01-7.15-7.33-16.36-9.34-24.69-1.28.08-2.55.1-3.83.07Z"/>
            </g>
            <path class="cls-1" d="M67.05,14.53c3.43-1.25,6.93-2.4,10.47-3.46,2-.59,4.04-1.16,6.15-1.29.62-.04,1.39.04,1.57.47.13.33-.18.69-.52.95-.89.71-2.02,1.21-3.14,1.7-4.06,1.78-8.14,3.54-12.34,5.26-.37-1.34-1.14-2.61-2.19-3.63Z"/>
            <path class="cls-20" d="M62.81,11.32c3.84.28,7.14,3.08,8.97,6.46s2.42,7.28,2.79,11.11c.83,8.7.65,17.46.47,26.2-.03,1.55-.06,3.1-.11,4.64-.03,1.03-.11,2.14-.79,2.91-.56.64-1.51.9-2.33.66-.81-.25-1.46-.99-1.57-1.83,0,1.82-1.88,3.31-3.69,3.11-1.81-.2-3.27-1.83-4.25-4.21-.24,1.22-5.09,6.74-14.18,5.31-6.62-1.04-10.54-9.34-10.39-10.29,2.41-15.53-5.33-40.91,25.08-44.07Z"/>
            <path class="cls-10" d="M50.79,49.77c-4.66-1.68-9.74-3.38-14.45-1.83-3.31,1.09-5.9,3.64-8.52,5.94-2.03,1.78-4.15,3.47-6.35,5.04-.28.2-.59.45-.59.8,0,.23.14.43.27.61,3.08,4.26,7.01,7.9,11.48,10.66.25.16.54.31.83.24.23-.06.39-.25.54-.42.97-1.16,1.94-2.32,2.93-3.24-1.34,3.91-3.08,14.46-4.53,18.6,4.16,4.16,28.47,6.15,40.36,0-.06-3.77-1.93-12.59-2.83-16.25,4.35-2.54,7.87-6.47,9.97-11.24-2.04-2.11-4.58-3.52-6.74-5.51-2.16-1.99-5.01-4.23-7.18-4.58-2.22-.36-4.55-.03-7.8,1.7-2.09.51-4.32.45-6.38-.18-.53-.16-1.08-.37-1-.33Z"/>
            <path class="cls-12" d="M32.39,86.16c2.04,2.04,8.92,3.56,16.81,3.85-.12-.62-.35-1.23-.73-1.83-.79-1.18-3.54-1.18-3.54-1.97,1.97-4.72-2.36-6.69-3.93-9.05-1.32-1.65-1.46-3.78-1.04-6.1,5.49-5.9,8.98-13.37,8.95-21.96-4.12-1.41-8.49-2.51-12.56-1.17-3.31,1.09-5.9,3.64-8.52,5.94-2.03,1.78-4.15,3.47-6.35,5.04-.28.2-.59.45-.59.8,0,.23.14.43.27.61,3.08,4.26,7.01,7.9,11.48,10.66.25.16.54.31.83.24.23-.06.39-.25.54-.42.97-1.16,1.94-2.32,2.93-3.24-.6,1.75-1.28,4.82-1.98,8.06-.86,4-1.75,8.25-2.55,10.54Z"/>
            <g>
              <path class="cls-23" d="M32.4,77.86c.84-1.16,2.41-1.04,3.83-.82,1.42.22,2.68,1.24,3.21,2.58.19.47.29.97.6,1.37.67.86,1.98.84,2.91,1.42.73.45,1.19,1.3,1.18,2.16,0,.67-.28,1.34-.11,1.98.17.68.79,1.15,1.13,1.77.77,1.36.83,4.85-.4,5.8-1.24.95-3.63-.42-5.16-.14-.69.13-1.38.25-2.07.38-.48.09-.98.18-1.46.08-.85-.16-1.5-.85-1.98-1.58-1.72-2.6-1.92-5.9-1.98-9.02-.04-2.14-.21-5.27.29-5.97Z"/>
              <path class="cls-25" d="M31.49,84.33c-.12-1.68,0-3.39.36-5.04.19-.87.56-1.85,1.4-2.15.98-.35,2.06.47,2.42,1.45s.23,2.06.23,3.11.18,2.19.96,2.88c.59.52,1.41.67,2.14.97.73.3,1.46.9,1.44,1.68-.02.87-.96,1.56-.85,2.42.21,1.63,1.6,3.19,4.78,2.94,1.8-.14,1.61,1.62-.98,3.62-.86.66-2.27,2.07-1.58,3.48,4.7,9.61,5.07,17.74,2.78,28.04-.45,2.02-1.03,4.05-2.16,5.79-1.18,1.81-2.89,3.19-4.58,4.54-.88.71-1.78,1.43-2.84,1.82-1.35.5-2.85.43-4.29.35-5.05-.3-10.23-.77-14.76-3.02-4.4-2.19-7.89-5.96-10.31-10.24-1.05-1.86-1.92-3.84-2.34-5.93-.45-2.25-.37-4.59.04-6.86,1.08-6.05,3.35-13.59,11.96-18.63.1-.06.88-2.15,3.33-3.05,3.39-1.25,7.35.36,10.01-2.09,1.89-1.74,2.98-4.38,2.86-6.07Z"/>
              <path class="cls-12" d="M33.53,97.22c2.12,3.44,6.02,4.21,9.67,5.55-.41-1.02-.87-2.04-1.38-3.09-.47-.96.03-1.91.67-2.63-2.99,1.31-5.97.92-8.96.17Z"/>
              <path class="cls-12" d="M9.93,128.69c2.36-1.97,4.66-1.8,7.02-1.4-6.8-9.18-6.02-19.67-1.72-31.6l-.9.46c-7.81,5.03-9.96,12.22-10.99,18.04-.4,2.26-.49,4.6-.04,6.86.42,2.09,1.29,4.07,2.34,5.93.9,1.59,1.95,3.12,3.14,4.52,0-.95.33-1.89,1.14-2.78Z"/>
              <path class="cls-17" d="M42.49,96.74c-.06.03-.13.05-.19.08,0,0-.01,0-.02,0-2.69.72-5.31.08-7.9-.91-.24-.07-.47-.21-.71-.24-.17.01-.19.27-.03.31-.01,0-.03-.01,0,0,2.03.91,4.25,1.59,6.48,1.53-.31.07-.61.13-.91.16-1.52.17-3.27-.12-4.5-.27-.18-.03-.68-.1-.97-.15,0,0,.04,0,.04,0-.15-.05-.28.13-.2.26.1.13.29.11.44.16.86.17,1.48.24,2.32.34.93.07,1.86.15,2.79.03.97-.12,1.92-.41,2.83-.76.14-.03.29-.06.43-.1.05-.01.09-.05.12-.09,0-.01.01-.03.02-.04.08-.03.16-.08.19-.16.04-.13-.11-.25-.23-.18Z"/>
              <path class="cls-17" d="M25.61,128.62c-.03-.13-.15-.2-.24-.29-.34-.31-.69-.62-1.02-.94-1.19-1.22-1.89-2.22-2.85-3.48-1.62-2.28-2.82-4.72-3.63-6.79-.91-2.19-1.71-4.43-2.21-6.75-.33-1.5-.58-3.02-.79-4.55-.19-1.31-.37-3.28-.24-4.89.12-1.51.09-2.94.57-4.34.13-.4.27-.74.42-1.1.03-.14-.18-.22-.25-.09-.16.31-.29.63-.41.96-.48,1.09-1.01,2.24-1.39,3.38-1.1,3.42-1.75,6.65-1.88,10.16-.13,2.58.07,5.2.65,7.72.54,2.23,1.42,4.37,2.46,6.41.43.87.94,1.7,1.46,2.51.14.21.27.42.41.64.06.1.2.14.3.08.13-.07.13-.25.04-.36-.13-.25-.27-.49-.4-.74-.6-1.08-1.18-2.17-1.69-3.29-.42-.96-1.03-2.34-1.43-3.62-.38-1.14-.78-2.99-.9-3.84-.68-4.87-.17-9.56.97-14.21.25-1.02.58-2,.95-2.98-.09.55-.15,1.1-.2,1.65-.25,2.01-.29,4.03-.07,6.04.18,1.98.54,4.19,1.07,6.37.45,1.62,1,3.21,1.63,4.76,1.16,3.1,2.75,6.03,4.86,8.58.84,1.08,1.76,2.11,2.84,2.95.35.23.54.63.9.35.08-.08.11-.2.08-.32Z"/>
              <path class="cls-17" d="M22.32,117.93c-1.36-1.87-2.73-3.87-3.52-6-.32-.92-.67-1.84-.87-2.8-.03-.11-.02-.24-.13-.31-.14-.08-.32.05-.27.21.36,1.73.94,3.42,1.74,5,.78,1.48,1.89,3.1,2.87,4.26.09.08.26.03.29-.1.03-.11-.05-.19-.11-.27Z"/>
            </g>
            <path class="cls-15" d="M49.12,46.98c-.1.36-1.05,3.28-.41,4.25.44.67,3.44,1.6,6.07,1.49,1.55-.07,3.09-.65,4.05-1.73-.04-.26.51-3.22.28-3.66-1.42.03-3.42.36-4.84.39-1.58.03-3.57-.5-5.16-.74Z"/>
            <path class="cls-2" d="M60.16,9.85c-6.28-2.14-13.54-.23-18.56,4.11-2.22,1.92-4.08,4.3-5.21,7.01-.86,2.05-1.3,4.27-1.44,6.49-.24,3.96.5,8.01,2.35,11.52,1.85,3.51,4.84,6.46,8.48,8.04,2.3,1,4.81,1.45,7.31,1.55,3.83.15,7.74-.52,11.11-2.35s6.14-4.87,7.25-8.54c.55-1.83.68-3.83.04-5.62-.17-.48-.4-.95-.53-1.44-.2-.72-.2-1.48-.21-2.22-.04-1.9-.19-3.79-.46-5.67-.36-2.52-.95-5.07-2.36-7.19-1.69-2.53-4.28-4.49-7.76-5.68Z"/>
            <path class="cls-2" d="M22.19,61.7c-2.91,3.25-5.14,6.04-7.03,9.98-.55,1.14-1.02,2.35-1.07,3.62-.06,1.63.59,3.2,1.41,4.61,1.54,2.65,3.71,4.87,5.95,6.96,2.53,2.37,5.23,4.65,8.43,5.97.51.21,1.26.29,1.44-.23.11-.32-.11-.66-.32-.92-.94-1.19-1.98-2.3-3.11-3.31,1.23,1.23,2.54,2.51,4.22,2.99.21.06.44.1.63,0,.47-.24.22-.96-.09-1.38-.82-1.13-1.7-2.21-2.63-3.25.99.94,2.03,1.91,3.34,2.29.39.11.88.14,1.14-.18.34-.42,0-1.03-.35-1.45-.87-1.06-1.76-2.09-2.67-3.11.49.15.92.45,1.41.57.49.12,1.12-.01,1.3-.48.2-.53-.26-1.06-.67-1.45-2.05-1.89-2.83-2.83-4.62-4.97-.41-.49-.89-1.01-.89-1.65,0-1.2,2.69-4.07,3.8-5.88.04-.06-1.22-.61-5.22-4.04-1.22-1.05-4.17-4.56-4.38-4.7Z"/>
            <path class="cls-12" d="M30.78,71.89c.39-.52.74-1.01,1.01-1.44.04-.06-1.22-.61-5.22-4.04-1.22-1.05-4.17-4.56-4.38-4.7-.07.08-.14.16-.21.24,1.41,4.58,4.91,7.61,8.8,9.94Z"/>
            <path class="cls-12" d="M27.88,88.39c.37.37.75.74,1.14,1.1-.37-.38-.75-.74-1.14-1.1Z"/>
            <path class="cls-20" d="M55.4,8.58c-5.37.11-10.69,1.87-15.06,4.98-1.83,1.3-3.51,2.84-4.78,4.69-1.42,2.06-2.31,4.45-2.97,6.87-3.13,11.38-1.81,24.08-7.49,34.42-.39.72-.83,1.43-1,2.23-.18.8-.05,1.72.55,2.28.81.76,2.09.59,3.17.37-1.04,1.67.02,4.23,1.94,4.68,1.79.42,3.52-.77,4.96-1.91-.02,1.13.24,2.38,1.14,3.05,2.05,1.53,4.93-.6,6.61-3.22,3.61-5.65,6.48-12.13,6.66-20.05.17-7.33-2.2-18.24-1.77-25.56.18-3.01-.58-5.68,1.02-8.24,1.6-2.55,4.54-4.46,7.03-4.61Z"/>
            <path class="cls-12" d="M41.1,26.08c.06-.02.12-.05.18-.07.5-.2,1-.4,1.5-.61,1.48-.6,2.97-1.2,4.45-1.79.07-.03.13-.05.2-.08.63-.25,1.26-.5,1.9-.75.04-.01.07-.03.11-.04,2.06-.81,4.13-1.6,6.21-2.34.06-.02.12-.04.17-.06.61-.22,1.23-.44,1.84-.65.13-.04.25-.09.38-.13.55-.19,1.11-.37,1.66-.56.15-.05.31-.1.46-.15.53-.17,1.07-.34,1.6-.51.16-.05.33-.1.49-.15.54-.16,1.07-.32,1.61-.47.16-.04.31-.09.47-.13.57-.16,1.14-.31,1.71-.46.13-.03.25-.07.38-.1.67-.17,1.34-.34,2.02-.5.74-.17,1.48-.34,2.22-.49-1.76-2.36-4.28-4.18-7.13-4.63-1.01-.61-2.13-1.14-3.37-1.56-2.16-.74-4.44-1-6.71-.84.66-.25,1.32-.4,1.95-.44-5.37.11-10.69,1.87-15.06,4.98-1.83,1.3-3.51,2.84-4.78,4.69-1.42,2.06-2.31,4.45-2.97,6.87-.43,1.55-.77,3.13-1.06,4.72,1.13-.42,2.26-.85,3.39-1.29,0,0,0,0,0,0,.14-.05.27-.11.41-.16.18-.07.35-.14.53-.21,1.14-.45,2.28-.9,3.42-1.36.34-.14.68-.28,1.03-.41.06-.02.12-.05.18-.07,0,0,0,0,0,0,.21-.08.42-.17.63-.25Z"/>
            <path class="cls-8" d="M61.86,92.21c-.77.69-1.59,1.49-2.26,1.95-.84.55-1.77.93-2.68,1.35-.36.19-.76.34-1.1.58-.15.16-.11.4-.14.6-.37,2.99-1.39,8.06-2.09,11.94-.36,1.93-.58,3.65-.86,5.47-.08.73-.18,1.32-.23,1.98,0,0,0,0,0,0-.02.06,0,.13.06.16.22.12.26-.13.29-.29.06-.33.1-.67.16-1,.22-1.44.59-2.86.91-4.29.54-2.73,1.03-5.46,1.55-8.19.4-2.15.73-3.91.86-5.97.07-.03.13-.07.2-.1,1.18-.62,2.46-1.07,3.56-1.84.78-.64,1.57-1.3,2.26-2.03.14-.28-.27-.56-.48-.33Z"/>
            <path class="cls-11" d="M63.08,31.21c-.16-.48-.61-.64-.97-.76-.36-.12-.76-.1-1.13-.02-.37.08-.73.21-1.01.46s-.47.62-.44.99c.04.42.37.78.75.96.39.17.83.19,1.25.15.46-.05.93-.23,1.26-.55.33-.32.44-.73.28-1.22Z"/>
            <g>
              <path d="M53.17,30.17c.03-.79.61-1.42,1.29-1.39.68.03,1.21.7,1.17,1.49-.03.79-.61,1.42-1.29,1.39-.68-.03-1.21-.7-1.17-1.49Z"/>
              <path d="M53.64,29.15c.16-.24.41-.41.69-.48.13-.03.26-.04.4-.06.23-.04.45-.14.64-.28.12-.09.27-.2.4-.13.13.07.13.27.06.4-.13.27-.43.43-.73.49-.3.06-.6.03-.91,0-.2-.02-.43,0-.57.05Z"/>
            </g>
            <g>
              <path d="M65.17,28.88c.03-.79.61-1.42,1.29-1.39s1.21.7,1.17,1.49-.61,1.42-1.29,1.39c-.68-.03-1.21-.7-1.17-1.49Z"/>
              <path d="M65.63,28.13c.13-.26.36-.46.63-.56.13-.04.26-.07.39-.11.23-.07.43-.19.61-.35.11-.1.24-.23.38-.18.14.05.16.25.11.39-.1.29-.37.48-.66.57-.29.09-.6.1-.9.11-.2,0-.43.04-.56.12Z"/>
            </g>
            <path class="cls-20" d="M54.58,23.14c-.68.23-1.32.62-1.84,1.11-.47.45-.87,1.06-.82,1.71,0,.08.03.18.09.23.07.07.18.08.27.07.41-.04.74-.34,1.07-.58.59-.44,1.28-.73,1.98-.98.3-.1.63-.23.74-.53.12-.32-.09-.67-.36-.88-.29-.23-.74-.29-1.13-.16Z"/>
            <path class="cls-20" d="M66.38,21.78c.72.09,1.41.34,2.03.72.55.35,1.07.86,1.15,1.51.01.08.01.18-.04.25-.05.08-.16.11-.25.12-.41.04-.79-.18-1.16-.35-.67-.31-1.4-.46-2.13-.56-.31-.04-.67-.1-.83-.37-.18-.29-.05-.68.17-.94.24-.28.66-.44,1.07-.38Z"/>
            <g>
              <path class="cls-16" d="M54.91,40.9c.35.3.74.55,1.14.78,1.64.9,3.57,1.25,5.42.99,1.63-.23,3.23-.89,4.45-1.98-1.7-1.24-3.7-2.11-5.8-2.13-1.98-.02-4.01.83-5.22,2.34Z"/>
              <path d="M66.87,35.77c-.79-.91-2.01-1.16-3.43-.94-.57.09-1.12.28-1.69.39-1.15.23-2.34.14-3.49-.07-.95-.17-1.94-.42-2.88-.18-.84.22-1.56.85-1.89,1.65-.39.96-.22,2.09.3,2.98.29.5.68.93,1.12,1.3,1.22-1.52,3.25-2.37,5.22-2.34,2.09.02,4.1.89,5.8,2.13.17-.15.33-.31.48-.48.72-.79,1.86-2.82.46-4.44Z"/>
            </g>
            <path class="cls-18" d="M43.69,26.57c.15-.87.31-1.74.55-2.59.03-.21.2-.43.12-.64-.09-.16-.35-.13-.4.05-.45,1.42-.79,2.89-.99,4.36-.2,1.96-.17,3.94-.14,5.91.07,3.21.16,6.42.33,9.62.07,2.05.11,4.11.03,6.15-.34,4.3-1.14,8.5-2.77,12.68-.34.82-.58,1.41-1,2.29-.05.14-.18.26-.17.41.02.08.13.13.2.08.12-.12.19-.29.28-.43.31-.53.58-1.09.84-1.65,2.03-4.48,3.07-9.37,3.36-14.26.05-2.78-.02-5.56-.19-8.34-.12-1.84-.13-3.68-.2-5.53-.07-1.6-.09-3.2-.08-4.79.02-1.2.03-2.31.23-3.33Z"/>
            <path class="cls-18" d="M41.12,25.79c-.09-.03-.19.03-.21.12-.66,1.99-1.07,4.06-1.24,6.15-.26,2.28-.38,4.57-.5,6.86-.06,3-.26,6-.4,9-.04,2.06-.3,4.59-.52,5.92-.28,2-.7,4.29-1.48,6.39-.2.56-.42,1.13-.61,1.7-.07.21-.2.5.1.59.38.05.34-.34.51-.64.23-.57.45-1.14.66-1.72.61-1.81.97-3.69,1.3-5.57.23-1.43.5-2.86.62-4.3.18-2.88.3-5.76.4-8.64.03-2.33.07-4.66.2-6.99.16-2.25.24-4.35.71-6.49.17-.73.37-1.45.58-2.17.03-.09-.03-.19-.12-.21Z"/>
            <path class="cls-18" d="M37.05,28.16c-.07-.13-.29-.11-.32.04-.78,2.74-1.26,5.7-1.64,8.27-.4,2.64-.71,4.93-.9,7.72-.2,2.49-.35,5.74-.64,7.73-.38,2.59-1.53,7.13-2.59,9.76-.12.36-.29.64-.27.89.04.16.25.25.39.16.15-.11.2-.32.3-.48.85-1.67,1.44-3.24,1.99-5.19.48-1.6.89-3.23,1.14-4.88.45-3.47.48-6.99.75-10.48.29-3.6.61-7.11,1.18-10.51.13-.81.29-1.62.49-2.42.04-.25.17-.41.11-.6Z"/>
            <path class="cls-6" d="M62.82,30.65c-.27-.24-.64-.32-.98-.35-.14,0-.27,0-.41,0-.03,0-.05.02-.06.04-.02.04.02.1.06.1.52.02.92.16,1.24.53.06.09.21.37.17.56,0,.04-.07.37-.14.45-.04.09-.42.48-.52.55-.09.07-.2.11-.28.18-.06.07,0,.19.09.19.32-.06.79-.36,1.03-.69.16-.23.23-.51.21-.78-.03-.3-.19-.6-.41-.8Z"/>
            <path class="cls-9" d="M60.27,32.35c-.08-.09-.18-.16-.29-.2-.2-.05-.3.14-.21.3.05.11.15.18.25.26.09.07.21.14.33.13.28-.07.13-.31-.08-.49Z"/>
            <path class="cls-2" d="M96.4,76.36c1.13-.21,1.85,0,2.9.47,1.33.6,1.89,1.05,2.03,1.99.13.84-.15,1.86-.18,1.98.93.47,1.06,1.7,1.14,2.27.11.89-.49,1.67-1.05,1.83.18.42.23.81-.04,1.31-.22.4-.78.63-1.22.76.31.83-.13,1.33-.55,1.51-.56.24-1.3.07-1.9.05-1.78-.07-5.71-3.54-2.43-4.08-.02-.16-.55-1.65,1.21-1.85-.43-.28-.25-1.6.43-2.24.04-.04-.43.12-1.27.22-.84.1-1.74-.05-2.4-.57-.26-.21-.49-.49-.54-.82-.07-.48.22-.93.55-1.29.43-.49.95-.91,1.55-1.17.6-.25,1.3-.27,1.77-.36Z"/>
            <path class="cls-14" d="M96.21,82.72c.14,0,.28-.02.42,0,.03,0,.07,0,.1,0,.27.4.65.72,1.04,1.01.45.33.91.64,1.41.87.59.27,1.25.42,1.89.4.14-.04.1-.26-.04-.26-.41-.05-1.32-.27-1.75-.51-.45-.2-1.33-.8-1.85-1.24-.52-.44-1.13-1.35-.33-1.78.2-.13.51-.16.8-.24.1-.06.03-.23-.09-.2-1.07.08-1.77.71-1.2,1.76-.65-.07-1.37.02-1.68.65-.15.38-.06.76.09,1.12-1.12.05-1.68.96-1.09,1.99.34.54.76,1.04,1.28,1.42.59.41,1.26.7,1.94.93.4.11.82.17,1.24.12.29-.05.57-.1.85-.19-.05.03.05-.02.06-.05.04-.05.02-.14-.04-.17-.12-.05-.31.03-.49.05,0,0,0,0,0,0,0,0,0,0,0,0,0,0-.02,0-.03,0,0,0,0,0,0,0-.53.05-.93.07-1.43-.08-.91-.3-1.71-.68-2.35-1.32-.68-.72-1.23-1.56-.67-2.08.17-.17.23-.15.45-.23.22-.05.2-.05.39-.05.02,0,.03,0,.05,0,.02.05.05.09.08.14.15.28.39.49.64.68.38.29.77.57,1.18.82.46.27.96.47,1.49.58.09.01.19.05.29.02.12-.03.13-.2.03-.27-.27-.09-.79-.18-1.15-.37-.43-.19-1.2-.74-1.7-1.12-.35-.28-.43-.38-.66-.83-.31-.56-.35-1.13.18-1.39.14-.08.52-.18.64-.18Z"/>
            <path class="cls-14" d="M100.2,77.16c-.95-.57-2-.88-3.12-.87-.6-.05-1.13.06-1.72.26-.18.07-.44.12-.57.26-.02.06.05.13.11.09.69-.27,1.45-.4,2.21-.34.89.01,1.73.2,2.44.57,1.05.42,1.54,1.28,1.65,2.18.07.95-.26,1.87-.81,2.46-.4.39-.67.56-1.11.53-.41-.02-.71-.33-.93-.85-.08-.18-.18-.73-.15-1.18.01-.13-.13-.24-.26-.18-.13.09-.22.14-.41.21-.25.1-.83.22-1.24.27-.31.02-1.08.09-1.57.02-.07,0-.37-.12-.4-.13-.09-.07-.22.02-.2.13,0,.04.03.07.07.09.38.24.83.3,1.27.3.78.04,1.58-.06,2.29-.39.03-.01.06-.03.1-.05-.01.48.04.98.31,1.39.15.26.46.57.61.62.42.2.96.14,1.34-.11,1.76-1.22,1.98-4.1.09-5.3Z"/>
            <path class="cls-24" d="M72.88,83.66c-.12-.9-.24-1.8-.38-2.7-.29-1.81-.63-3.62-.98-5.42-.68-3.45-1.43-6.92-2.45-10.28-.56-1.85-1.23-3.66-2.06-5.41-.04-.07-.17-.02-.13.06,1.32,3.16,2.06,6.51,2.7,9.87.67,3.51,1.34,7.03,1.92,10.57.17,1.02.34,2.03.49,3.05.14.94.14,2.04.52,2.92.1.24.51.17.56-.07.15-.83-.08-1.75-.19-2.57Z"/>
            <g>
              <path class="cls-10" d="M31.62,27.32c12.17-5.66,24.89-10.16,37.94-13.39-1.57-2.86-3.51-5.57-6.06-7.62-2.56-2.05-5.78-3.4-9.07-3.3-1.91.05-3.77.58-5.59,1.15-4.56,1.42-9.23,3.22-12.44,6.72-3.84,4.19-4.99,10.21-4.77,16.45Z"/>
              <path class="cls-19" d="M31.6,27.32c6.84-3.3,13.91-6.14,21-8.85,6.6-2.53,13.21-5.05,19.98-7.12,4.02-1.23,9.97-2.57,12.25-1.45-1.87-.43-9.29,2-13.84,3.71-12.51,4.68-25.66,7.63-37.68,13.43-.58.28-1.8,1-1.7.28Z"/>
              <g>
                <g>
                  <path class="cls-21" d="M55.69,7.24c-.34.61-.64,1.33-.95,2.25-.01.04.03.07.07.05.17-.12.37-.2.46-.18.13.05.21.23.33.4.01.01.03.02.04,0,.21-.51.73-2.47,1-2.54.01,0,.03,0,.04,0-.24-.08-.44-.11-.72-.07-.09.01-.18.05-.27.1Z"/>
                  <path class="cls-7" d="M60.45,8.37c-.29-.7-.67-1.23-.76-1.21-.05,0-.07.06-.09.11-.05.2-.08.36-.14.52-.71-.48-1.53-1.09-2.31-1.39-.22-.08-.45-.16-.67-.1-.29.07-.47.34-.62.6-.04.07-.12.28-.16.35.08-.05.18-.09.27-.1.28-.04.48,0,.72.07.44-.03,1.97.97,2.43,1.19-.15.11-.28.16-.46.3-.02.01-.04.03-.04.05-.02.06.06.1.12.11.5.1,1.02.07,1.5-.09.11-.04.23-.1.26-.21.01-.07-.01-.13-.04-.2Z"/>
                </g>
                <g>
                  <path class="cls-21" d="M62.43,10.31c-.42-.56-.95-1.13-1.66-1.79-.03-.03-.08,0-.07.04.04.21.05.39-.01.46-.1.1-.4.13-.52.12-.02,0-.03.02-.02.03.37.4,1.95,1.73,1.91,2.01,0,.01,0,.03-.01.04.17-.18.28-.36.36-.63.03-.09.03-.19.02-.28Z"/>
                  <path class="cls-7" d="M59.34,14.09c.76.03,1.5,0,1.52-.1.02-.06-.32-.32-.32-.32,0,0,1.35-.73,2.11-1.53.16-.17.36-.44.4-.66.05-.29-.3-.72-.47-.96-.05-.07-.1-.14-.15-.21.01.1,0,.2-.02.28-.08.27-.19.44-.36.63-.15.41-1.66,1.48-2.05,1.8-.03-.19-.07-.41-.12-.62,0-.02-.01-.05-.03-.06-.05-.04-.12,0-.15.06-.21.39-.43.95-.53,1.26-.03.11-.12.31-.02.38.05.04.13.05.19.05Z"/>
                </g>
                <g>
                  <path class="cls-21" d="M55.97,14.91c.7.04,2.11-.17,3.05-.39.04,0,.05-.06.02-.08-.19-.1-.51-.21-.53-.3-.01-.14.17-.45.26-.53.01-.01,0-.04-.01-.03-.6.18-3.05.49-3.24.28,0,0-.02-.02-.02-.03.03.25.13.67.28.9.05.08.12.14.21.2Z"/>
                  <path class="cls-7" d="M54.9,9.91c-.51.56-.82,1.13-.77,1.21.03.04.09.04.14.03.21-.04.24-.04.42-.06-.12.85-.21,1.83-.14,2.67.02.23.08.69.23.87.19.23.64.23.94.25.08,0,.17.01.25.02-.08-.05-.15-.12-.21-.2-.15-.23-.25-.65-.28-.9-.22-.38-.06-2.22-.06-2.72.16.09.36.21.56.3.02.01.04.02.07.02.06-.01.07-.1.05-.16-.12-.49-.38-.95-.73-1.32-.08-.08-.19-.17-.3-.14-.07.02-.12.07-.16.12Z"/>
                </g>
              </g>
            </g>
          </g>
        </g>
      </g>
    </g>
  </g>
</svg>