<?xml version="1.0" encoding="UTF-8"?>
<svg xmlns="http://www.w3.org/2000/svg" xmlns:xlink="http://www.w3.org/1999/xlink" viewBox="0 0 84.23 112.57">
  <defs>
    <style>
      .cls-1 {
        fill: #f9e0be;
      }

      .cls-2 {
        fill: #897955;
      }

      .cls-3 {
        opacity: .49;
      }

      .cls-3, .cls-4 {
        fill: #adad86;
      }

      .cls-5 {
        fill: url(#linear-gradient-2);
      }

      .cls-6, .cls-7 {
        fill: #fff;
      }

      .cls-4 {
        opacity: .34;
      }

      .cls-8 {
        fill: #908484;
      }

      .cls-9 {
        fill: #b4885e;
      }

      .cls-10 {
        opacity: .44;
      }

      .cls-10, .cls-11 {
        fill: #ffe5c9;
      }

      .cls-12 {
        fill: #e5543c;
        mix-blend-mode: multiply;
        opacity: .32;
      }

      .cls-13 {
        fill: url(#linear-gradient-3);
      }

      .cls-14 {
        fill: #f47366;
      }

      .cls-15 {
        isolation: isolate;
      }

      .cls-7 {
        opacity: .4;
      }

      .cls-16 {
        fill: #c9a884;
      }

      .cls-17 {
        fill: #a09595;
      }

      .cls-18 {
        fill: #a08f64;
      }

      .cls-19 {
        fill: url(#linear-gradient);
      }

      .cls-20 {
        fill: #b2adad;
      }
    </style>
    <linearGradient id="linear-gradient" x1="42.73" y1="79.39" x2="40.74" y2="8.93" gradientUnits="userSpaceOnUse">
      <stop offset="0" stop-color="#ea684e"/>
      <stop offset="1" stop-color="#e5543c"/>
    </linearGradient>
    <linearGradient id="linear-gradient-2" x1="32.43" y1="112.35" x2="3.13" y2="26.36" gradientUnits="userSpaceOnUse">
      <stop offset="0" stop-color="#ea684e"/>
      <stop offset="1" stop-color="#fce3c1"/>
    </linearGradient>
    <linearGradient id="linear-gradient-3" x1="-4945.33" y1="112.35" x2="-4974.63" y2="26.36" gradientTransform="translate(-4893.45) rotate(-180) scale(1 -1)" xlink:href="#linear-gradient-2"/>
  </defs>
  <g class="cls-15">
    <g id="Layer_2" data-name="Layer 2">
      <g id="Layer_1-2" data-name="Layer 1">
        <g>
          <g>
            <path class="cls-17" d="M23.32,79.02s20.92,30.15,11.52,33.15c-9.39,3.01-16.45-11.62-25.68-30.07-.56-1.12-1.09-2.23-1.59-3.32C2.93,68.67.54,59.3.08,50.46c-.14-2.65-.1-5.24.1-7.8.26-3.33.8-6.58,1.6-9.78,2.88-11.51,10.9-19.19,17.86-23.55,1.97-1.23,3.86-2.2,5.52-2.91C33.78,2.73,41.78.27,41.78.27c0,0-14.77,31.38-15.38,31.99s-3.08,46.76-3.08,46.76Z"/>
            <path class="cls-20" d="M29.64,19.03c-3.74,5.01-8.46,9.26-12.32,14.19-2.18,2.79-3.99,5.81-6.22,8.57-.66.82-1.66,3.1-2.65,3.5-.74.3-1.52-.36-2.17-.6-1.8-.66-3.63-1.1-5.42-1.78-.22-.09-.44-.17-.66-.24.26-3.33.8-6.58,1.6-9.78,2.88-11.51,10.9-19.19,17.86-23.55,2.73.49,5.54,2.14,7.63,3.57,2.69,1.83,4.59,3.14,2.36,6.12Z"/>
            <path class="cls-8" d="M11.79,75.7c-.35.66-2.99,2.63-4.22,3.08C2.93,68.67.54,59.3.08,50.46c1.42.25,3.05.39,4.82.41,2.33.04,2.94.19,3.53,2.5,1.19,4.65,1.08,9.62,1.82,14.36.33,2.13,1.12,4.08,1.54,6.15.12.59.29,1.26,0,1.82Z"/>
            <path class="cls-17" d="M60.91,79.02s-20.92,30.15-11.52,33.15c9.39,3.01,16.45-11.62,25.68-30.07.56-1.12,1.09-2.23,1.59-3.32,4.65-10.11,7.03-19.47,7.49-28.32.14-2.65.1-5.24-.1-7.8-.26-3.33-.8-6.58-1.6-9.78-2.88-11.51-10.9-19.19-17.86-23.55-1.97-1.23-3.86-2.2-5.52-2.91C50.45,2.73,42.45.27,42.45.27c0,0,14.77,31.38,15.38,31.99.62.62,3.08,46.76,3.08,46.76Z"/>
            <path class="cls-20" d="M54.59,19.03c3.74,5.01,8.46,9.26,12.32,14.19,2.18,2.79,3.99,5.81,6.22,8.57.66.82,1.66,3.1,2.65,3.5.74.3,1.52-.36,2.17-.6,1.8-.66,3.63-1.1,5.42-1.78.22-.09.44-.17.66-.24-.26-3.33-.8-6.58-1.6-9.78-2.88-11.51-10.9-19.19-17.86-23.55-2.73.49-5.54,2.14-7.63,3.57-2.69,1.83-4.59,3.14-2.36,6.12Z"/>
            <path class="cls-8" d="M72.44,75.7c.35.66,2.99,2.63,4.22,3.08,4.65-10.11,7.03-19.47,7.49-28.32-1.42.25-3.05.39-4.82.41-2.33.04-2.94.19-3.53,2.5-1.19,4.65-1.08,9.62-1.82,14.36-.33,2.13-1.12,4.08-1.54,6.15-.12.59-.29,1.26,0,1.82Z"/>
            <path class="cls-19" d="M79.03,63.43c-1.71,10.61-9.59,24.78-13.97,33.64-4.37,8.85-10.52,14.19-14.06,15.09-3.53.9-8.87-6.14-5.38-15.87.81-2.28,1.67-4.36,2.5-6.31,2.69-6.38,4.95-11.29,3.57-16.7-1.78-6.97-9.57-7.01-9.76-7.01,0,0-7.96.04-9.68,7.12-.94,3.81-.07,7.36,1.48,11.34,0,0,0,.01,0,.01.15.38.3.76.46,1.14,1.27,3.09,2.89,6.47,4.36,10.44,3.58,9.7-1.68,16.8-5.22,15.93-3.53-.86-9.75-6.13-14.21-14.94-4.46-8.81-12.48-22.91-14.31-33.5-1.54-9.01-3.75-22.48,2.63-35.58,1.12-2.31,2.52-4.6,4.22-6.87C23.08,6.29,39.86,5.31,39.86,5.31l3.54-.02s16.79.8,28.35,15.76c11.56,14.96,9,31.77,7.28,42.37Z"/>
            <g>
              <path class="cls-14" d="M10.85,50.52c2.04-1.13,3.88-2.6,5.49-4.28,1.63-1.67,2.91-3.73,3.62-5.97.75-2.23,1.11-4.54,1.6-6.79.49-2.25,1.17-4.45,2.3-6.42,1.13-1.96,2.65-3.71,4.44-5.04,1.8-1.33,3.94-2.16,6.16-2.24,1.1-.07,2.22.03,3.3.27,1.07.24,2.17.6,3.09,1.09l.63-1.13c-1.15-.57-2.28-.9-3.47-1.15-1.19-.24-2.41-.32-3.62-.21-2.43.15-4.77,1.13-6.66,2.59-1.89,1.48-3.43,3.34-4.56,5.42-1.14,2.09-1.78,4.39-2.22,6.68-.44,2.29-.75,4.58-1.43,6.77-.64,2.2-1.83,4.22-3.4,5.9-1.56,1.69-3.34,3.2-5.34,4.36-1,.58-2.05,1.07-3.14,1.45-1.09.38-2.22.67-3.38.73,1.16-.04,2.3-.3,3.41-.66,1.1-.36,2.18-.82,3.2-1.39Z"/>
              <path class="cls-14" d="M43.53,18.83c.18-.1.37-.19.58-.26.4-.16.83-.26,1.27-.33.88-.13,1.79-.07,2.68.09,1.78.4,3.46,1.33,4.95,2.5.76.57,1.43,1.26,2.12,1.92.63.73,1.3,1.42,1.89,2.2,1.23,1.51,2.34,3.12,3.46,4.72,1.12,1.61,2.22,3.25,3.49,4.77,1.26,1.52,2.72,2.93,4.44,3.94.44.23.87.49,1.33.68l1.39.52c.96.24,1.92.51,2.9.58.98.16,1.96.12,2.95.14.98,0,1.96-.13,2.94-.19-.98.03-1.96.12-2.94.09-.98-.05-1.96-.05-2.92-.24-.97-.1-1.91-.4-2.84-.66l-1.34-.56c-.44-.2-.84-.47-1.27-.71-1.64-1.03-3-2.44-4.19-3.97-1.19-1.53-2.24-3.19-3.3-4.84-1.07-1.65-2.14-3.31-3.34-4.88-.57-.81-1.24-1.56-1.87-2.33-.7-.72-1.38-1.46-2.17-2.1-1.54-1.3-3.34-2.4-5.38-2.92-1.03-.23-2.1-.33-3.17-.21-.53.06-1.07.17-1.59.35-.26.08-.52.19-.77.32-.26.13-.51.27-.81.54l1.09,1.06c.09-.03.24-.17.42-.26Z"/>
              <path class="cls-14" d="M37.59,23.37c-1.24.38-2.44.9-3.57,1.55-2.28,1.26-4.21,3.25-5.32,5.64-2,4.87-1.74,10.03-2.22,14.94-.13,1.23-.34,2.44-.65,3.64-.34,1.18-.73,2.35-1.3,3.44-.25.56-.58,1.09-.9,1.62-.15.27-.32.53-.5.77-.17.26-.37.48-.57.71-.8.92-1.79,1.68-2.86,2.28-2.15,1.22-4.6,1.85-7.07,2.18-2.47.32-4.98.36-7.47.11,2.48.31,5,.34,7.49.08,2.49-.27,4.99-.84,7.23-2.04,1.12-.6,2.17-1.35,3.03-2.3.21-.24.43-.47.62-.74.2-.25.38-.51.54-.79.34-.54.69-1.06.96-1.64.62-1.11,1.06-2.31,1.44-3.52.35-1.22.59-2.47.76-3.72.33-2.51.41-5.01.73-7.46.14-1.23.37-2.44.64-3.64.14-.6.31-1.19.47-1.78.23-.55.39-1.13.66-1.65,1.05-2.13,2.81-3.86,4.93-4.96,1.05-.57,2.17-1.02,3.33-1.34,1.15-.32,2.37-.57,3.51-.65l-.09-1.54c-1.35.13-2.59.42-3.83.8Z"/>
              <path class="cls-14" d="M51.83,29.34c.32.41.53.88.8,1.32.25.45.41.94.62,1.41.37,1.03.81,2.04,1.3,3.02.98,1.95,2.15,3.8,3.46,5.53,2.62,3.45,5.85,6.5,9.69,8.55,1.91,1.03,3.97,1.76,6.1,2.15,2.13.38,4.31.37,6.44.03-2.13.28-4.3.22-6.4-.22-2.09-.45-4.11-1.23-5.95-2.3-3.71-2.13-6.79-5.21-9.25-8.67-1.23-1.73-2.32-3.57-3.22-5.49-.45-.96-.84-1.94-1.16-2.94-.21-.52-.38-1.06-.63-1.56-.27-.49-.49-1.01-.82-1.46-1.22-1.88-2.83-3.47-4.63-4.76-1.81-1.3-3.71-2.37-5.84-3.17l-.49,1.46c1.92.66,3.83,1.65,5.55,2.81,1.73,1.17,3.27,2.61,4.44,4.3Z"/>
              <path class="cls-14" d="M30.64,35.37c.4-.88.9-1.72,1.47-2.5,1.13-1.57,2.54-2.95,4.11-4.11,1.55-1.16,3.29-2.17,5.04-2.87l-.56-1.43c-1.95.86-3.67,1.95-5.3,3.24-1.61,1.29-3.07,2.79-4.23,4.52-.59.86-1.09,1.77-1.49,2.73-.41.95-.73,1.95-.92,2.97-.43,2.03-.36,4.14,0,6.15.08.51.21,1,.32,1.5.14.49.25.99.43,1.47.3.97.71,1.92,1.2,2.82.49.9,1.09,1.74,1.78,2.49.69.76,1.47,1.41,2.24,2.05.77.64,1.54,1.28,2.06,2.11.54.82.76,1.81.8,2.8.04,1.99-.47,3.97-1.03,5.89.61-1.9,1.2-3.86,1.22-5.89,0-1.01-.19-2.06-.74-2.94-.52-.9-1.31-1.58-2.06-2.25-.76-.66-1.5-1.33-2.13-2.08-.64-.75-1.19-1.57-1.63-2.44-.44-.88-.8-1.8-1.07-2.75-.15-.47-.24-.96-.37-1.43-.08-.49-.2-.97-.26-1.46-.28-1.94-.28-3.93.19-5.82.21-.95.54-1.87.95-2.74Z"/>
              <path class="cls-14" d="M49.68,53.84c1.43-1.39,2.96-2.8,3.92-4.66.97-1.84,1.28-3.96,1.26-6,0-.51-.04-1.02-.08-1.53l-.19-1.52-.1-.76-.17-.75c-.12-.5-.22-1-.35-1.5-.59-1.97-1.4-3.87-2.47-5.64-1.07-1.77-2.42-3.36-3.93-4.78-.37-.36-.78-.68-1.17-1.02-.41-.31-.82-.64-1.25-.93l-.65-.44-.68-.4c-.23-.14-.47-.25-.71-.38-.12-.06-.26-.12-.39-.17l-.1-.04-.05-.02-.09-.03c-.13-.04-.26-.06-.39-.08v.88c.01.18.01.36,0,.54v.12s-.01,0-.01,0h0s0,0,0,0h.03s.07.04.07.04c.1.04.2.07.3.12.21.11.42.19.63.31l.63.35.61.38c.41.26.8.55,1.2.83.38.31.77.6,1.13.92,1.47,1.28,2.78,2.75,3.85,4.39,1.07,1.64,1.9,3.43,2.52,5.3.14.47.25.95.38,1.43l.19.72.12.73.23,1.46c.05.49.1.98.12,1.47.08,1.96-.15,3.96-1,5.72-.84,1.78-2.28,3.2-3.68,4.64-.7.73-1.38,1.49-1.96,2.33-.58.84-1.04,1.76-1.35,2.73-.62,1.94-.62,4.01-.4,6-.16-2-.08-4.05.58-5.94.64-1.9,1.96-3.46,3.39-4.84Z"/>
              <polygon class="cls-14" points="42.06 24.74 42.07 24.74 42.06 24.74 42.06 24.74"/>
              <path class="cls-14" d="M7.54,71.69l-.05-.07s-.01-.01-.02-.02c.03.04.05.08.09.13l-.02-.04Z"/>
              <path class="cls-14" d="M7.21,71.33c-.05-.02.12.08.18.15.03.03.06.07.09.11-.13-.19-.19-.29-.21-.33-.02.02-.03.04-.04.05l-.02.02Z"/>
              <path class="cls-14" d="M13.09,66.58c2.01-1.51,4.45-2.41,6.99-2.76,2.54-.3,5.17-.33,7.69.28,1.26.29,2.47.78,3.57,1.45.28.16.53.37.8.55.25.21.51.4.74.64.47.45.9.95,1.21,1.52-.28-.59-.69-1.12-1.14-1.59-.22-.25-.47-.45-.71-.68-.26-.2-.51-.42-.79-.6-1.09-.74-2.31-1.3-3.58-1.66-2.55-.74-5.23-.85-7.87-.67-2.65.24-5.31,1.05-7.57,2.59-1.13.75-2.15,1.68-3.04,2.71-.45.52-.86,1.06-1.24,1.61l-.55.83-.26.39s-.04.05-.06.08c.03.03.08.09.03,0,.09-.06.22-.09.33-.09v1.54c.15,0,.32-.05.45-.13.1-.06.11-.08.16-.12.1-.09.13-.13.17-.18.09-.11.12-.17.18-.26l.27-.44.49-.83c.33-.54.69-1.05,1.07-1.55.77-.98,1.66-1.88,2.67-2.62Z"/>
              <path class="cls-14" d="M7.27,71.27s0,0,0,0c-.02-.02-.03-.04,0,0Z"/>
              <path class="cls-14" d="M53.75,58.71c2.78-1.41,5.95-2.21,9.08-2.53,1.57-.11,3.17-.02,4.69.38.77.19,1.5.48,2.22.81.71.35,1.39.76,2.03,1.23,2.54,1.92,4.39,4.74,5.37,7.8-.86-3.1-2.6-6.02-5.13-8.11-.64-.51-1.33-.96-2.05-1.36-.73-.37-1.49-.7-2.28-.94-1.58-.49-3.25-.65-4.89-.6-.41,0-.82.04-1.23.08-.41.03-.82.1-1.22.16-.81.13-1.62.23-2.42.45l-1.2.28-1.18.38c-.8.22-1.54.6-2.31.91-1.5.73-2.92,1.66-4.13,2.88-.61.6-1.14,1.28-1.6,2.02-.23.37-.43.76-.61,1.16-.17.43-.32.8-.42,1.33l1.52.21c.03-.26.16-.65.28-.98.14-.34.29-.68.47-1,.36-.65.81-1.27,1.32-1.82,1.03-1.12,2.3-2.03,3.67-2.77Z"/>
              <path class="cls-14" d="M17.02,70.02l.6-.13c.2-.02.4-.05.6-.05.79-.01,1.55.2,2.14.74.6.52,1.06,1.24,1.43,2.02.37.78.67,1.61.95,2.46.55,1.69,1.02,3.43,1.62,5.13.6,1.7,1.33,3.39,2.42,4.85.54.74,1.19,1.37,1.82,2.01.64.63,1.29,1.25,1.99,1.82.69.58,1.41,1.12,2.19,1.57.39.23.79.43,1.21.6.42.16.86.3,1.31.29-.45,0-.88-.16-1.29-.33-.41-.18-.8-.4-1.18-.64-.75-.48-1.45-1.04-2.12-1.64-.67-.59-1.29-1.23-1.91-1.88-.6-.66-1.22-1.31-1.71-2.04-1-1.45-1.66-3.12-2.19-4.81-.53-1.7-.94-3.44-1.43-5.18-.25-.87-.53-1.74-.89-2.59-.37-.85-.84-1.7-1.58-2.38-.72-.71-1.79-1.07-2.78-1.07-.25,0-.49.03-.74.04l-.72.13-1.36.41c-1.78.65-3.44,2.01-4.24,3.82-.43.89-.64,1.86-.73,2.82-.08.97-.06,1.9.15,2.91l1.49-.37c-.18-.74-.24-1.62-.2-2.43.05-.82.19-1.64.52-2.38.61-1.5,1.88-2.65,3.43-3.29l1.2-.41Z"/>
              <path class="cls-14" d="M74.25,64.56c-.67-.66-1.47-1.18-2.3-1.64-.44-.18-.87-.38-1.31-.53-.46-.11-.9-.26-1.37-.33-.46-.05-.93-.13-1.39-.14l-1.38.03c-.91.14-1.81.23-2.7.53-1.79.58-3.3,1.84-4.32,3.35-1.02,1.52-1.68,3.2-2.24,4.87-.56,1.68-1.02,3.38-1.54,5.06-.52,1.68-1.11,3.34-1.89,4.9-.4.78-.85,1.53-1.37,2.24-.53.7-1.12,1.35-1.78,1.94.68-.56,1.3-1.19,1.85-1.88.54-.7,1.03-1.44,1.46-2.21.85-1.55,1.5-3.21,2.09-4.87.59-1.67,1.11-3.35,1.72-4.99.61-1.64,1.32-3.24,2.32-4.62,1-1.37,2.38-2.42,3.98-2.88.79-.24,1.65-.29,2.49-.39h1.26c.42.04.82.13,1.23.18,3.3.58,5.78,3.45,6.74,6.5l1.48-.42c-.33-.95-.74-1.75-1.24-2.55-.51-.78-1.09-1.53-1.78-2.16Z"/>
              <path class="cls-14" d="M73.12,75.73c-.46-.15-.93-.21-1.38-.2-.92.01-1.75.3-2.49.67-.76.36-1.41.83-2.06,1.31l-.91.78-.44.45-.4.48c-.99,1.32-1.59,2.79-2.15,4.23-.55,1.45-1.03,2.9-1.58,4.32-1.08,2.83-2.46,5.6-4.61,7.76-2.12,2.19-4.98,3.57-7.96,4.26,3-.57,5.96-1.83,8.22-3.99,2.3-2.12,3.84-4.92,5.06-7.74.62-1.42,1.16-2.86,1.76-4.25.6-1.39,1.25-2.77,2.16-3.87l.35-.39.38-.35.87-.68c.6-.41,1.21-.82,1.86-1.09.64-.28,1.31-.47,1.93-.45.31,0,.61.07.88.16.13.06.26.12.37.19.06.04.11.08.16.12.04.03.11.1.1.09l1.17-.99c-.25-.27-.42-.36-.64-.51-.21-.13-.44-.22-.66-.3Z"/>
            </g>
            <path class="cls-12" d="M79.52,37.8c-1.25-9.84-10.04-19.69-13.8-22.15-3.76-2.46-16.31-8.61-16.31-8.61l-5.02,3.08-2.2,10.23-2.2-10.23-5.02-3.08s-12.55,6.15-16.31,8.61c-3.76,2.46-12.55,12.31-13.8,22.15-1.25,9.84.78,19.61.78,19.61,0,0-2.03-23.3,8-33.15,10.04-9.84,18.82-8,21.95-6.15,3.14,1.85,5.65,8,5.65,10.46s-1.88,4.31-3.14,4.92-5.65,2.46-6.27,7.38c-.63,4.92,1.88,9.23,3.76,9.84,1.88.62,3.14-.62,3.14,1.85s.63,8,1.88,9.23c.74.73,1.27.81,1.57.75.3.05.82-.02,1.57-.75,1.25-1.23,1.88-6.77,1.88-9.23s1.25-1.23,3.14-1.85c1.88-.62,4.39-4.92,3.76-9.84-.63-4.92-5.02-6.77-6.27-7.38-1.25-.62-3.14-2.46-3.14-4.92s2.51-8.61,5.65-10.46c3.14-1.85,11.92-3.69,21.95,6.15,10.04,9.84,8,33.15,8,33.15,0,0,2.03-9.77.78-19.61Z"/>
            <path class="cls-1" d="M71.69,19.29c-4.53-6.16-15.35-11.41-21.67-14.03-6.31-2.62-8.12-5.26-8.12-5.26h-.3s-1.79,2.66-8.07,5.34c-6.29,2.68-17.05,8.04-21.52,14.25-4.47,6.21-5.44,11.18-5.44,11.18,0,0,7.24-12.95,17.11-16.54,9.88-3.58,13.48-2.72,15.3.81,1.82,3.52,1.87,13.24,2.77,13.24.06,0,.11-.11.15-.32.04.21.09.32.15.32.9,0,.85-9.72,2.63-13.27,1.78-3.54,5.38-4.44,15.29-.96,9.92,3.48,17.28,16.36,17.28,16.36,0,0-1.03-4.96-5.56-11.12Z"/>
            <path class="cls-5" d="M33.34,112.26c-3.53-.87-9.75-6.13-14.22-14.95-4.46-8.81-12.48-22.91-14.3-33.5-1.55-9-3.75-22.48,2.62-35.58,1.4-2.07,3.03-4.01,4.89-5.8-.5.71-8.84,13.31-7.62,27.95,1.77,21.2,12.37,42.41,22.09,47.71,9.44,5.15,8.47-9.02,7.4-12.18,1.27,3.08,2.89,6.47,4.36,10.43,3.58,9.7-1.68,16.8-5.22,15.93Z"/>
            <path class="cls-13" d="M50.97,112.26c3.53-.87,9.75-6.13,14.22-14.95,4.46-8.81,12.48-22.91,14.3-33.5,1.55-9,3.76-22.48-2.62-35.58-1.4-2.07-3.03-4.01-4.89-5.8.5.71,8.84,13.31,7.62,27.95-1.77,21.2-12.37,42.41-22.09,47.71-9.44,5.15-8.47-9.02-7.4-12.18-1.27,3.08-2.89,6.47-4.36,10.43-3.58,9.7,1.68,16.8,5.22,15.93Z"/>
            <path class="cls-11" d="M43.6,33.58c-.19-.38-.38-.72-.56-1.01-.55-.91-1.87-.91-2.42,0-.18.3-.37.63-.56,1.01-.88,1.77-7.07,1.77-7.07,7.95s5.3,7.07,6.18,7.95c.88.88,0,7.07.88,9.72.17.5.33.9.49,1.23.52,1.07,2.03,1.07,2.55,0,.16-.33.33-.73.49-1.23.88-2.65,0-8.84.88-9.72.88-.88,6.18-1.77,6.18-7.95s-6.18-6.18-7.07-7.95Z"/>
            <path class="cls-16" d="M43.36,36.11c-.95-.15-1.91-.14-2.85.03-1.36.25-2.66.73-3.85,1.49-1.67,1.07-2.04,2.98-1.7,4.88.45,2.56,3.4,4.09,5.77,4.36,1.73.2,4.02.07,5.47-1.01,1.56-1.16,2.25-3.61,2.05-5.49-.18-1.66-1.77-3.4-3.3-3.98-.43-.16-1.11-.21-1.58-.28Z"/>
            <path class="cls-9" d="M42.12,37.41c-1.5-.59-3.84.53-5.01,1.47-1.36,1.1-1.26,2.84-.37,4.25,1.17,1.83,2.99,2.27,5.07,2.15,2.82-.16,5.86-3.03,4.27-5.91-.52-.94-1.41-1.34-2.35-1.75-.59-.26-1.38-.13-1.62-.22Z"/>
            <path class="cls-10" d="M48.32,90.05l-.19-.07c2.69-6.38,4.95-11.29,3.57-16.7-1.78-6.97-9.57-7.01-9.76-7.01,0,0-7.96.04-9.68,7.12-.94,3.81-.07,7.36,1.48,11.34-.21-.31-4.21-6.52-2.42-13.71,1.85-7.38,9.84-7.38,12.92-6.77,3.08.62,8.61,2.46,9.23,10.46.62,8-5.15,15.34-5.15,15.34Z"/>
            <path class="cls-6" d="M34.39,40.18c.45-1.6,1.43-2.98,3.03-3.58,1.12-.42,2.29-.64,3.37-1.18.56-.28,2-1.6,1.27-2.36-.37-.38-1.05-.1-1.35.18-.5.47-.67,1.19-1.15,1.67-.52.51-1.34.7-2,.95-.72.28-1.39.69-1.96,1.22-.62.58-1.22,1.25-1.49,2.08-.11.34-.29.96-.15,1.3.26,0,.43-.19.43-.27Z"/>
            <path class="cls-6" d="M46.43,36.72c.55.7,1.19,1.27,1.63,2.06.36.63.45,1.46.56,2.17.12.83.2,1.71,0,2.52-.1.44-.19.86-.44,1.26-.25.4-.59.72-.81,1.15-.17.34-.35.7.21.69.45,0,.96-.48,1.22-.83.58-.8.83-2.02,1.04-2.97.21-.99.2-2.08-.16-3.03-.18-.5-.38-1.04-.66-1.5-.26-.42-.68-.75-1-1.13-.37-.44-.91-.71-1.49-.53-.03.13-.12.13-.12.15Z"/>
            <path class="cls-6" d="M38.55,46.99c.34.28.69.49,1.12.59.51.12,1.03.03,1.5.29,1.51.83,1.15,3.71,1.27,5.12.15,1.73.18,3.6.08,5.35-.03.43-.09,1-.29,1.38-.11.21-.26.38-.51.4-.67.04-.88-.92-1.06-1.37-.99-2.45-.41-5.19-.63-7.77-.1-1.12-.64-1.75-1.56-2.38-.54-.37-1.11-.7-1.65-1.09-.48-.35-1.37-.91-1.51-1.54-.26-1.19,1.91.47,2.23.65.44.25.83.39,1,.38Z"/>
            <path class="cls-7" d="M15.4,17.08s4.84-3.89,12.22-7.58c7.38-3.69,9.84-3.69,11.08-4.92,1.23-1.23,2.46-2.46,3.08-1.85.62.62,3.69,2.26,7.08,3.59,3.38,1.33,10.36,4.41,15.48,7.49,5.13,3.08,6.05,5.54,6.05,5.54,0,0-9.54-7.38-18.15-9.23-8.61-1.85-8.22,5.3-9.34,6.96-1.12,1.66-.65-7.03-3.96-7.61-3.31-.58-15.45,1.04-23.53,7.62Z"/>
          </g>
          <g>
            <path class="cls-4" d="M10.42,31.19c.32-.95,1-2.35,1.63-3.17.84-1.09,1.01-.69,2.12-1.07,1.73-.58,2.97-.95,3.6-2.7.54-1.51,1.41-2.75,2.53-3.95,1.65-1.77,2.41-.53,3.81.59.53.42,1.62.59,2.04,1.1.89,1.08-.13,1.82-.19,2.96,2.87.45,2.37-2.52,4.26-3.58,1.21-.68,3.08,0,3.87,1.06.92,1.25.34,1.96.19,3.11-.18,1.43.34,2.2.49,3.6.19,1.71-.63,3.9-1.56,5.29-.78,1.18-2.15,1.8-2.92,2.95-.88,1.33-.81,2.41-1.98,3.63-1.4,1.46-1.18,1.53-.9,3.34.3,1.96-.29,3.9,1.96,4.85,1.83.77.86-.58,2.29-.73,2.1-.23,2.69,3.36,2.61,4.74-.18,3.22-3.12,5.29-5.59,6.93-.69.46-1.93,1.01-2.28,1.83-.41.97.04.82.16,1.49.1.56.48.77.38,1.53-.15,1.04-1.52,2.6-1.99,3.61-1.19,2.52-2.44,5.65-.63,8.2.76,1.07,1.28,1.5,1.91,2.72.61,1.18,1.97,2.34,2.18,3.71.17,1.13-.28,2.89-.54,3.99-.49,2.1-1,1.62-2.43,2.75-1.58,1.24-1.72,3.81-1.59,5.75.08,1.15.25,3.28-1.7,2.78-1.94-.5-.74-3-1.09-4.39-.32-1.25-1.06-2.42-1.32-3.8-.31-1.66.02-2.85.02-4.48,0-2.05-1.23-3.76-1.45-5.82-.15-1.37-.15-4.14-1.44-4.88-1.97-1.11-2.48,1.31-3.84,1.62-2.74.64-3.41-2.49-3.42-4.34,0-1.17.25-2.24.34-3.31.17-2.03-.63-3.32-1.46-5.22-.92-2.12-1.73-3.54-2.97-5.37-1.22-1.8-1.39-3.83-.27-5.81.77-1.35,1.93-1.54,3.02-2.43,1.97-1.6,1.2-3.72,2.8-5.63.47-.56,1.89-1.56,1.69-2.46-.18-.81-1.8-1.1-2.35-1.58-1.6-1.42-1.76-3.14-.97-4.9.53-1.17.69-1.78.82-3.06.14-1.45.2-1.47.16-1.47Z"/>
            <path class="cls-18" d="M13.36,35.28c.41-1.9-.13-3.04,1.14-4.45.8-.89,1.62-2.23,2.62-2.75.53-.27,1.27-.02,1.81-.45.5-.4.39-1.16.84-1.51,1.89-1.46,2.14.77,2.91,1.64,1.26,1.44,2.23.29,3.59-.02,1.08-.25.93.39,2.1-.6.59-.5,1.13-2.07,2.42-.87.75.7.25,3-.17,3.82-.28.55-.95.77-1.24,1.39-.31.65-.16,1.33-.32,2-.24.99-.81,1.65-1.12,2.61-.18.55.08,1.1-.18,1.65-.23.49-1.18.95-1.51,1.44-.63.94-.4,1.59-.75,2.61-.39,1.15-1.31,1.81-1.37,3.17-.08,1.85.66,4.64,2.3,5.7,1.53.99,3.2.77,3.29,3.35.07,1.79-1.64,2.23-2.1,3.98-.23.87.05,1.31-.5,2.1-.39.56-1.47.98-1.99,1.5-1.27,1.27-2.41,3.53-2.76,5.24-.19.97.07,1.23-.38,2.27-.47,1.07-1.06,1.67-1.12,2.96-.03.58.11,1.21.18,1.78.18,1.41.51,1.31,1.02,2.57.34.85.09,1.8.47,2.66.27.6.88,1.15,1.25,1.71,1.6,2.46,1.19,3.63.55,6.29-.27,1.1-.49,4.37-1.96,2.38-.59-.8-.43-2.86-.51-3.79-.13-1.49-.37-2.83-.81-4.3-.79-2.58-1.12-6.26-2.94-8.36-.92-1.06-.9-.88-2.29-.58-1.01.22-2.24.83-2.95-.66-.68-1.44-.15-4.24-.57-5.89-.3-1.18-.51-2.17-1.25-3.14-.66-.86-1.37-1.1-1.9-2.16-1.18-2.38-.55-3.31.26-5.54.57-1.56.48-2.79,1.66-4.21.84-1.01,1.79-1.63,2.57-2.66,1.14-1.51,2.97-3.12,2.67-5.2-.21-1.46-1.27-2.12-1.94-3.29-1.12-1.96-.49-3.29-1.01-4.38Z"/>
            <path class="cls-2" d="M12.05,55.55c.02-3.08,2.82-3.61,4.22-6.21.32-.6.23-1.71.52-2.33.34-.72,1.02-1.27,1.28-2.09.42-1.34.03-2.59-.61-3.72-.3-.53-1.05-1-1.27-1.54-.39-.94-.02-1.79-.07-2.73-.03-.68-1.14-1.62.19-1.98,1.33-.36.92,1.02,1.14,1.65.32.9.56,1.14,1.14,1.95.78,1.08.68,1.42.82,2.82.25,2.56,1.38,5.58.63,8.3-.4,1.43-1.78,2.16-2.36,3.43-.21.47-.15,1.02-.27,1.33-.34.84-.51.92-1.08,1.77-.63.94-1.27,3.15.6,3.31,1.75.14,1.47-2.29,2.6-2.79.82,1.94,2.25-1.4,3.48-.67,1.38.82-.31,2.59-.73,3.1-.75.91-.66,1.03-1.06,1.95-.85,1.92-.93,3.05-1.15,5.09-.2,1.78-.34,3.84-2.42,3.9-.76-1.48-.77-2.76-.53-4.39-2.08-.45-1.8,3.24-3.11.34-.56-1.24.12-2.68-.3-3.83-.33-.91-.96-.99-1.59-1.66-.91-.97-1.06-1.6-.72-2.93.29-1.15.55-2.06.66-2.06Z"/>
            <path class="cls-2" d="M19.24,33.81c0-.79-.65-3.03-.05-3.64-.09.1,2.46-.9,2.37-.9,1.07-.05,1.5.81,2.68.78,1.23-.04,2.54-1.12,2.32,1.19-.15,1.5-1.35,2.34-1.43,4.01-.06,1.17.22,2.72-.36,3.79-1.25,2.28-2.5.38-2.22-1.51.14-.97,1.72-3.72.39-4.44-1.86-1.01-1.15,1.83-1.63,2.21-1.57,1.21-1.82-1.86-2.05-1.48Z"/>
            <path class="cls-2" d="M21.04,53.58c.38-1.13.29-2.32.35-3.57,1.62-.89.91.91,1.68,1.45.69.49,1.68-.15,2.51.36,1.22.75,2.11,4.87.06,4.68-.47-1.41.17-3-1.94-2.56-.66.14-.53,1.03-1.68.79-1.52-.33-1-1.35-.33-2.62l-.65,1.47Z"/>
            <path class="cls-3" d="M56.84,83.5c1.38-1.89.74-3.32,3.27-3.47,2.36-.14,1.99-1,3.33-2.82.62-.85,3.75-3.69,4.2-.9.16.96-1.31,1.68-1.17,2.78.08.63,1.53,1.44,1.62,2.12.17,1.3-1.42,1.73-1.52,2.71-.11,1.06.74,1.05,1.22,1.95.85,1.57.25,4.2-.53,5.69-.67,1.28-1.6,2.45-2.56,3.53-.83.93-1.06,1-2.47,1.34-3.21.76-1.45,3.58-2.96,6-.93,1.48-2.61,2.25-3.22.16-.7-2.37,1.22-4.27.78-6.58-.4-2.12-1.24-1.22-2.3-.09-1.04,1.11-1.38,1.39-3.08.84-.08-1.93-.3-4.06-.18-5.97.06-1.03.32-5,1.3-5.31,1.39-.44,1.5,1.46,2.84.05.41-.43,1.68-2.48,1.42-2Z"/>
            <path class="cls-18" d="M53.41,91.02c-.05-1.64.19-1.73,1.31-2.62.67-.53,1.83-.8,2.52-1.33,1.96-1.51.36-3.77,3.82-3.93.55-.79.69-2.59,2.08-2.19,1.68.48.58,2.5.57,3.52,0,1.75,1.53,3.62,1.29,5.78-.05.43-.65,2.59-.96,2.89-.99.98-2.06-.33-3.12.52-.74.59-.93,3.12-1.53,3.38-2.3,1.02-.93-3.34-1.22-3.92-1-1.99-2.4.3-3.46.17-1.15-.14-1.33-1.92-1.3-2.29Z"/>
            <path class="cls-2" d="M55.86,90.2c-.66-1.47,2.3-1.1,2.87-1.71.39-.42.2-1.44.54-1.97.37-.57.94-.81,1.49-1.24,1.5.9-.78,1.85-.47,3.26.89-.2,2.19.75,2.11,1.74-.11,1.27-1.5.67-2.38,1.22-.32.2.22,1.04-.33,1.14-.94.17-.6-.81-1.01-1.14-.65-.51-1.43-.94-2.33-.31-.52-.49-.54-1.16-.49-1Z"/>
          </g>
        </g>
      </g>
    </g>
  </g>
</svg>