<?xml version="1.0" encoding="UTF-8"?>
<svg id="Layer_2" data-name="Layer 2" xmlns="http://www.w3.org/2000/svg" viewBox="0 0 84.71 87.47">
  <defs>
    <style>
      .cls-1 {
        fill: #b2b3b3;
      }

      .cls-1, .cls-2, .cls-3, .cls-4, .cls-5, .cls-6, .cls-7, .cls-8, .cls-9 {
        fill-rule: evenodd;
      }

      .cls-2 {
        fill: #7e7e7d;
      }

      .cls-3 {
        fill: #bdbdbd;
      }

      .cls-4 {
        fill: #edeeee;
      }

      .cls-5 {
        fill: #dbdad9;
      }

      .cls-6 {
        fill: #ccccce;
      }

      .cls-7 {
        fill: #c2c2c1;
      }

      .cls-8 {
        fill: #464545;
      }

      .cls-9 {
        fill: #e6e6e5;
      }
    </style>
  </defs>
  <g id="Layer_1-2" data-name="Layer 1">
    <g>
      <path class="cls-7" d="M0,48.18l.5,28.74s-.76,4.16,12.23,7.44c16.43,4.15,42.81,4.15,59.24,0,12.98-3.28,12.23-7.44,12.23-7.44l.5-28.74c-14.44,2.93-26.82,3.99-35.54,4.33v-.04s-1.45.11-4.1.15h-.09s-.12,0-.12,0c-.89.01-1.73.02-2.5.02-.78,0-1.61,0-2.5-.02h-.12s-.09,0-.09,0c-2.65-.05-4.09-.15-4.09-.15v.04c-8.73-.34-21.11-1.4-35.55-4.33Z"/>
      <path class="cls-6" d="M37.39,87.39c5.12.15,10.34.07,15.36-.26,37.18-4.21,37.15-35.41-10.4-33.04-27.25,1.36-36.81,10.84-30.77,22.04,5.3,9.83,21.84,11.09,25.81,11.25Z"/>
      <path class="cls-9" d="M42.35,54.09c23.33,0,42.35-2.6,42.35-5.79s-19.03-5.79-42.35-5.79S0,45.12,0,48.31s19.03,5.79,42.35,5.79Z"/>
      <path class="cls-2" d="M42.35,53.24c22.86,0,41.5-2.21,41.5-4.93s-18.64-4.93-41.5-4.93S.86,45.59.86,48.31s18.64,4.93,41.5,4.93Z"/>
      <path class="cls-8" d="M80.61,50.22c-6.28,1.77-21.05,3.02-38.26,3.02-13.59,0-25.65-.78-33.22-1.97,4.48-.44,20.59-1.99,40.2-3.38,13.19-.93,24.39.36,31.28,2.33Z"/>
      <path class="cls-6" d="M10.19,52.07c-6.35-1.01-10.19-2.33-10.19-3.77,0-2.3,9.83-4.29,24.07-5.22-2.03,2.42-11.35,9.04-11.35,9.04,0,0-1.09,0-2.52-.05Z"/>
      <path class="cls-1" d="M7.89,51.67c-4.97-.95-7.89-2.11-7.89-3.36,0-.19.07-.37.19-.55.44,1.69,1.68.8,3.3.95,1.62.15,4.59-.53,7.11-1.13,2.52-.6,2.64-.13,4.44-.41,1.79-.28,3.52-2.11,1.38-2.8-.95-.31-2.01-.35-2.91-.3,3.12-.4,6.67-.73,10.55-.98-1.47,1.75-6.77,5.71-9.58,7.76-.92.14-1.79.26-2.5.38-.82.13-2.37.3-4.1.45Z"/>
      <path class="cls-9" d="M.51,49.28s6.04,1.51,8.43.63c2.39-.88,8.93-2.52,9.81-3.02q.88-.5,2.39-2.14c1.51-1.64,2.89-2.14,5.16-4.66,2.26-2.52,4.78-5.41,9.06-9.06,4.28-3.65,6.92-6.79,10.44-7.68,3.52-.88,9.56.13,11.45.38s.38.88,5.91,2.01c5.54,1.13,8.93,2.77,11.2,5.79,2.26,3.02,2.52,6.17,2.39,8.18-.13,2.01-1.01,3.52-3.77,6.17-2.77,2.64-6.29.13-14.22,1.64-7.93,1.51-12.71,3.15-17.49,3.65-4.78.5-6,1.11-11.45.5-5.45-.6-18.26,3.74-29.32-2.39Z"/>
      <path class="cls-5" d="M65.01,26.17c4.47,1.11,7.36,2.7,9.36,5.37,2.26,3.02,2.52,6.17,2.39,8.18-.13,2.01-1.01,3.52-3.77,6.17-2.77,2.64-6.29.13-14.22,1.64-7.93,1.51-12.71,3.15-17.49,3.65-4.78.5-6.42,1.13-11.45.5-4.23-.53-11.22,2.06-22.47-.4.18.01,6.64.51,11.39-.09,4.82-.61,3.69-1.93,7.65-2.5,3.96-.57,6.92.75,9.37-1.95,2.45-2.71,8.37-9.75,9.81-9.69,1.45.06,1.64,8.05,3.65,8.49,2.01.44,3.66-.07,9.19-2.58,5.53-2.51,7.29-.75,8.05-4.78.75-4.03,2.31-7.91-1.47-12.01Z"/>
      <path class="cls-3" d="M71.2,28.62c1.26.8,2.3,1.76,3.17,2.92,2.26,3.02,2.52,6.17,2.39,8.18-.13,2.01-1.01,3.52-3.77,6.17-2.77,2.64-6.29.13-14.22,1.64-7.93,1.51-12.71,3.15-17.49,3.65-4.78.5-6.42,1.13-11.45.5-2.14-.27-4.99.26-8.74.53,2.15-.53,4.55-1.25,6.32-1.57,3.08-.57,4.15-.19,7.17-.13,3.02.06,4.22-3.71,7.8-5.47,3.59-1.76-.02,3.28,1.95,3.65,1.97.37,7.56-.95,12.14-2.14,4.59-1.19,6.67-2.08,8.12-3.16,1.45-1.08,1.75.16,3.14,1.21,1.39,1.05,1.57.75,3.21.44,1.64-.31,3.02-1.64,3.77-7.74.71-5.72-3.04-8.36-3.51-8.67Z"/>
      <path class="cls-9" d="M54.01,23.17c.44.13,2.58,1.76,4.91,1.76s2.96-4.47,2.08-6.79S51.75,2.66,47.22.52c-4.53-2.14-11.26,2.64-9.37,8.24,1.89,5.6,11.77,10.7,16.17,14.41h0ZM43.19,8.26c-.06-1.01.79-3.18,2.93-3.15,2.14.03,6.48,4.4,4.94,6.51s-6.51.53-7.86-3.37h0ZM58.76,21.22c-3.65-1.98-8.56-5.95-6.35-7.61,2.2-1.67,5.91,2.64,6.73,4.22.82,1.57.25,2.61-.38,3.4Z"/>
      <path class="cls-4" d="M25.01,44.78c2.08-1.64,3.65-1.13,5.66-4.72,2.01-3.59,10.07-12.02,15.16-13.59,5.1-1.57,7.05.25,12.02,1.01,4.97.76,6.61,3.33,6.17,5.98-.44,2.64-.63,4.22-3.96,4.28-3.33.06-3.46-.13-7.93-1.7-4.47-1.57-5.35-3.96-8.37-1.13-3.02,2.83-2.77,4.84-7.49,7.68-4.72,2.83-15.1,4.72-11.26,2.2Z"/>
      <path class="cls-6" d="M0,53.74l.5,20.58s-.41,1.52,12.23,5.33c16.35,4.92,42.73,4.87,59.24,0,12.65-3.73,12.23-5.33,12.23-5.33l.5-20.58c-22.3,8.51-59.32,8.08-84.71,0Z"/>
      <path class="cls-9" d="M14.93,80.26c16.44,4.3,41.25,4.05,57.05-.62,1.02-.3,1.95-.59,2.81-.86,7.48-6.81,6.1-15.89-5.2-20.97-15.09,2.75-33.08,2.82-49.46.43-9.81,4.07-12.47,10.62-8.55,17.89.86,1.59,2,2.95,3.35,4.12Z"/>
    </g>
  </g>
</svg>