<?xml version="1.0" encoding="UTF-8"?>
<svg xmlns="http://www.w3.org/2000/svg" viewBox="0 0 107.97 84.97">
  <defs>
    <style>
      .cls-1, .cls-2, .cls-3, .cls-4 {
        fill: #a6a7aa;
      }

      .cls-2, .cls-3, .cls-5, .cls-6, .cls-7 {
        mix-blend-mode: multiply;
      }

      .cls-2, .cls-8, .cls-4, .cls-7 {
        opacity: .5;
      }

      .cls-9, .cls-6 {
        fill: #88c440;
      }

      .cls-8, .cls-10 {
        fill: #fff;
      }

      .cls-11 {
        fill: #b7d333;
      }

      .cls-12 {
        isolation: isolate;
      }

      .cls-13 {
        fill: #565656;
      }

      .cls-10 {
        opacity: .7;
      }
    </style>
  </defs>
  <g class="cls-12">
    <g id="Layer_2" data-name="Layer 2">
      <g id="Layer_1-2" data-name="Layer 1">
        <g>
          <path class="cls-11" d="M43.54,7.27s-3.11,6.23-4.47,14.01c-7.01-.58-7.78-.78-11.68,3.11-3.31,2.73-5.84.78-9.34.97-3.5.19-2.92,2.92-3.5,5.25-.97,3.11-8.32,12.18-11.87,18.48-6.03,10.7-1.56,24.71,9.92,32.3,11.67,7.2,26.46,1.75,29.96-1.17,3.5-2.92,9.53-9.14,14.4-10.12,4.86-.97,28.6-2.92,28.6-2.92,0,0,4.67-9.53,5.25-14.4.58-4.86,1.56-7.59,1.56-7.59,0,0,8.76-1.17,10.7-4.87,1.95-3.69,2.92-16.54,2.92-16.54L43.54,7.27Z"/>
          <path class="cls-6" d="M92.2,45.46c-6.68.78-11.88,3.06-17.73,5.33-3.74,1.46-5.04.16-7.64-4.39-2.6-4.55-4.39-2.76-4.71,3.25-.33,6.01-.33,4.23-2.6-1.14-2.28-5.36-7.64-6.34-7.64-6.34,0,0,7.31,12.84,3.09,16.58-4.23,3.74-1.46-3.09-2.6-8.12-1.14-5.04-3.41-11.21-9.43-11.86-4.51-.49-25.79,24.95-36.12,37.66,1.66,1.85,3.59,3.53,5.79,4.98,11.67,7.2,26.46,1.75,29.96-1.17,3.5-2.92,9.53-9.14,14.4-10.12,4.86-.97,28.6-2.92,28.6-2.92,0,0,4.67-9.53,5.25-14.4.49-4.05,1.24-6.61,1.48-7.36-.03,0-.07,0-.1.01Z"/>
          <path class="cls-6" d="M41.97,35.35c-6.99-7.64-9.59-11.86-5.52-12.03,4.06-.16,4.39,5.69,9.91,11.54,5.53,5.85,3.9,7.64,18.37,5.36,14.46-2.27,19.72-4.8,19.72-4.8,0,0-21.99,3.66-28.49,1.71-6.5-1.95-13.98-11.7-14.46-15.28-.33-3.74,1.46-4.71,3.41-1.79,1.95,2.93-1.62-4.55,1.3-2.27,2.73,2.12,31.86,21.65,52.69,9.16L43.54,7.27s-3.11,6.23-4.47,14.01c-7.01-.58-7.78-.78-11.68,3.11-3.31,2.73-5.84.78-9.34.97-3.5.19-2.92,2.92-3.5,5.25-.44,1.41-2.2,4.06-4.32,7.12,6.26-3.9,18.35-9.08,31.73-2.39Z"/>
          <path class="cls-1" d="M44.43,70.13c10.09-15.51,5.6-28.2-3.55-35.12-9.15-6.91-19.24-3.92-19.24-3.92-3.01.63-7.25,2.91-11.32,6.53-2.56,3.7-5.67,8.01-7.63,11.49-6.03,10.7-1.56,24.71,9.92,32.3,2.52,1.55,5.18,2.51,7.84,3.04,9.76.19,17.61-4.53,23.98-14.31Z"/>
          <g class="cls-7">
            <path class="cls-1" d="M42.49,68.26c8.86-13.51,4.92-24.59-3.12-30.61-8.04-6.03-16.91-3.42-16.91-3.42-2.64.55-6.37,2.54-9.95,5.69-2.25,3.22-4.98,6.98-6.7,10.01-5.3,9.33-1.37,21.54,8.72,28.15,2.21,1.35,4.55,2.19,6.89,2.65,8.58.17,15.48-3.95,21.07-12.48Z"/>
          </g>
          <g class="cls-5">
            <path class="cls-1" d="M6.77,52.2c1.72-3.03,4.45-6.79,6.71-10.01,3.58-3.15,7.31-5.14,9.95-5.69,0,0,8.87-2.61,16.91,3.42,2.55,1.91,4.68,4.33,6.13,7.17-1.35-3.83-3.9-7.03-7.1-9.43-8.04-6.03-16.91-3.42-16.91-3.42-2.64.55-6.37,2.54-9.95,5.69-2.25,3.22-4.98,6.98-6.7,10.01-3.23,5.69-3.02,12.45-.08,18.36-1.96-5.33-1.78-11.12,1.05-16.09Z"/>
            <path class="cls-4" d="M14.53,78.09c2.21,1.35,4.55,2.19,6.89,2.65,8.58.17,15.48-3.95,21.07-12.48,5.34-8.14,6.03-15.38,3.98-21.18-1.45-2.84-3.58-5.26-6.13-7.17-8.04-6.03-16.91-3.42-16.91-3.42-2.64.55-6.37,2.54-9.95,5.69-2.25,3.22-4.99,6.98-6.71,10.01-2.83,4.98-3.01,10.76-1.05,16.09,1.88,3.78,4.86,7.22,8.8,9.8Z"/>
          </g>
          <g class="cls-5">
            <path class="cls-9" d="M39.86,18.11s-1.7,2.56,8.95,13.35c7.1,6.53,7.1,5.82,16.33,5.11,9.23-.71,19.31-1.14,19.31-1.14,0,0-19.03,3.27-27.68,3.55-4.68,0-17.62-13.67-17.68-17.7.5-2.6.79-3.17.79-3.17Z"/>
            <path class="cls-9" d="M49.87,38.26s1.35,3.94,3.83,7.89c2.48,3.94,6.2,12.62-4.17,28.06,5.64-5.3,8.22-12.51,8.45-18.26.23-5.75-3.83-10.37-8.11-17.69Z"/>
            <path class="cls-9" d="M92.2,45.46s-12.41,1.64-20.59,7.5c8.18-2.87,19.91-5.86,19.91-5.86l.68-1.64Z"/>
          </g>
          <path class="cls-1" d="M107.88,20.51c-1.36,7.06-17.03,9.98-34.99,6.52-17.96-3.46-31.42-11.99-30.06-19.05,1.36-7.06,17.02-9.98,34.99-6.52,17.96,3.46,31.43,11.99,30.07,19.05Z"/>
          <g>
            <path class="cls-2" d="M77.26,4.19c-16.24-3.13-30.21-1.45-31.21,3.76-.05.24-.05.48-.04.73,3.39-3.88,15.99-4.89,30.37-2.12,15.49,2.98,27.44,9.27,27.63,14.36.44-.5.73-1.05.84-1.64,1-5.2-11.35-11.96-27.59-15.08Z"/>
            <path class="cls-2" d="M76.37,6.55c-14.38-2.77-26.98-1.76-30.37,2.12.2,5.09,12.14,11.37,27.63,14.35,14.38,2.77,26.98,1.76,30.37-2.12-.19-5.09-12.14-11.37-27.63-14.36Z"/>
            <path class="cls-2" d="M76.37,6.55c-14.38-2.77-26.98-1.76-30.37,2.12.2,5.09,12.14,11.37,27.63,14.35,14.38,2.77,26.98,1.76,30.37-2.12-.19-5.09-12.14-11.37-27.63-14.36Z"/>
          </g>
          <g class="cls-5">
            <path class="cls-3" d="M60.8,15.01c4.97.69,9.25.18,10.31-1.12-.99-1.46-4.79-2.96-9.47-3.62-4.97-.69-9.25-.18-10.31,1.12.99,1.46,4.79,2.97,9.47,3.61Z"/>
          </g>
          <path class="cls-13" d="M83.51,11.15c-9.81-.75-12.24,1.09-11.24,2.68,0,0,1.84,3.35,11.57,6.88,9.73,3.52,13,1.09,13.33-2.68.34-3.77-3.86-6.12-13.67-6.88ZM94.18,16.62c-.23,2.22-2.43,3.64-8.99,1.57-6.56-2.07-7.81-4.04-7.81-4.04-.68-.94.96-2.02,7.58-1.57,6.62.44,9.44,1.82,9.22,4.04Z"/>
          <path class="cls-1" d="M83.51,10.54c-9.81-.76-12.24,1.09-11.24,2.68,0,0,1.84,3.35,11.57,6.88,9.73,3.52,13,1.09,13.33-2.68.34-3.78-3.86-6.12-13.67-6.88ZM94.18,16.01c-.23,2.22-2.43,3.64-8.99,1.58-6.56-2.07-7.81-4.04-7.81-4.04-.68-.94.96-2.02,7.58-1.58,6.62.44,9.44,1.82,9.22,4.04Z"/>
          <path class="cls-10" d="M47.74,14.35s-5.85-5.36-.12-9.87c5.73-4.51,23.4-2.93,30.71-1.22-5.73-3.05-26.33-5.12-33.03,1.83-2.56,3.05-1.83,7.07,2.44,9.26Z"/>
          <path class="cls-10" d="M84.22,11.52c1.75.08,3.47.25,4.75.47l-.7-.76s-2.24-.32-4.99-.51c.32.25.63.52.93.79Z"/>
          <path class="cls-10" d="M80.85,10.61c-3.46-.09-6.96.18-7.55,1.58-.36.83,2.51,3.4,2.51,3.4l1.14-1.29s-1.7-2.01.88-2.54c1.06-.22,2.62-.3,4.3-.3-.41-.31-.84-.59-1.28-.85Z"/>
          <path class="cls-8" d="M98.61,30.28s-.15,8.29-5.24,12.51c6.98-1.16,7.71-2.03,7.71-2.03,0,0,3.05-6.55,3.05-12.36-2.62,1.6-5.53,1.89-5.53,1.89Z"/>
        </g>
      </g>
    </g>
  </g>
</svg>