<?xml version="1.0" encoding="UTF-8"?>
<svg id="Layer_2" data-name="Layer 2" xmlns="http://www.w3.org/2000/svg" viewBox="0 0 78.19 107.98">
  <defs>
    <style>
      .cls-1 {
        fill: #fdf9fa;
      }

      .cls-1, .cls-2, .cls-3, .cls-4, .cls-5, .cls-6, .cls-7, .cls-8, .cls-9 {
        fill-rule: evenodd;
      }

      .cls-2 {
        fill: #0b4c68;
      }

      .cls-3 {
        fill: #fdf3f4;
      }

      .cls-4 {
        fill: #fff;
      }

      .cls-5 {
        fill: #2b6a8b;
      }

      .cls-6 {
        fill: #f4eae9;
      }

      .cls-7 {
        fill: #00374f;
      }

      .cls-8 {
        fill: #e8dedd;
      }

      .cls-9 {
        fill: #1d5a78;
      }
    </style>
  </defs>
  <g id="Layer_1-2" data-name="Layer 1">
    <g>
      <path class="cls-9" d="M35.19,85.58s-7.7,17.53-8.51,18.88c-.81,1.36-1.8,4.65-5.47,3.13-3.67-1.52-18.77-9.02-20.18-9.85-1.41-.83-1.2-2.55-.4-4.61.8-2.06,9.66-19.79,9.66-19.79,0,0,25.56,10.18,24.9,12.24Z"/>
      <path class="cls-2" d="M35.19,85.58s-7.7,17.53-8.51,18.88c-.81,1.36-1.8,4.65-5.47,3.13-.51-.21-1.25-.54-2.14-.95,2.15,1,2.64-.84,4.18-2.4,1.54-1.56,7.24-11.44,7.28-13.81.04-2.36-3.8-4.25-9.11-6.72-5.31-2.47-10.5-5.58-12.54-2.45-2.03,3.14-4.9,11.26-6.04,14.28-.82,2.19,2.46,4.32,4.31,5.32-3.1-1.54-5.6-2.81-6.13-3.13-1.41-.83-1.2-2.55-.4-4.61.8-2.06,9.66-19.79,9.66-19.79,0,0,25.56,10.18,24.9,12.24Z"/>
      <path class="cls-3" d="M18.29,79.45s-6.19-3.67-7.82-4.34-2.16-2.6-1.69-4.55c.47-1.94,8.13-21.52,8.7-28.68.57-7.15,3.76-18.2,4.64-21.13.88-2.93,3.87-9.88,4.88-11.06,1-1.19,1.09-1.08,1.34-2.15.25-1.07,1.55-7.86,2.79-7.53,1.24.33,12.7,5.82,20.55,9.82,7.85,4,16.48,7.54,19.37,9.38,2.88,1.84,8.03,4.28,7.03,5.75-1,1.47-4.93,4.82-6.04,7.07-1.11,2.26-3.44,7.85-6.05,12.59-2.61,4.74-21.46,30.25-25.47,36.41-4.01,6.16-4.68,7.52-6.93,6.41-2.26-1.11-15.28-8-15.28-8Z"/>
      <path class="cls-6" d="M13.24,76.54c-1.17-.65-2.22-1.21-2.77-1.43-1.64-.66-2.16-2.6-1.69-4.55.47-1.94,8.13-21.52,8.7-28.68.57-7.15,3.76-18.2,4.64-21.13.88-2.93,3.87-9.88,4.88-11.06,1-1.19,1.09-1.08,1.34-2.15.04-.19.12-.54.22-1.01l5.88,2.17s8.33,4.16,7.81,6.93c-4.93-.67-9.21-1.09-11.46,3.06-2.25,4.15-20.82,49.72-18.94,55.26.25.73.73,1.63,1.41,2.58h0ZM73.26,30.23c-.52.64-.96,1.26-1.24,1.81-1.11,2.26-3.44,7.85-6.05,12.59-2.61,4.74-21.46,30.25-25.47,36.41-4.01,6.16-4.68,7.52-6.93,6.41-.97-.47-3.9-2.01-6.94-3.6,5.08-.12,10.94-3.21,16.74-12.2,14.65-22.67,24.19-42.93,22.42-45.62-.67-1.01,2.95.96,7.46,4.2Z"/>
      <path class="cls-6" d="M28.3,7.65l.03-.11c.25-1.07,1.55-7.86,2.79-7.53,1.24.33,12.7,5.82,20.55,9.82,7.85,4,16.48,7.54,19.37,9.38,2.88,1.84,8.03,4.28,7.03,5.75-.81,1.19-3.56,3.63-5.16,5.71-2.79-1.37-5.98-3.3-4.71-2.6,2.03,1.12,5.27-3.95,4.05-5.46-1.22-1.51-32.51-16.79-35.51-18.26-2.99-1.47-4.6,1.52-4.11,3.52.49,1.99,11.43,7.55,11.43,7.55-7.94-2.73-12.79-5.38-15.75-7.77Z"/>
      <path class="cls-8" d="M18.29,79.45s-6.19-3.67-7.82-4.34-2.16-2.6-1.69-4.55c.18-.75,1.44-4.14,2.94-8.43-1.02,4.02-1.6,7.54-.85,8.61,2.02,2.88,10.48,8.04,15.71,10.11,5.23,2.07,9.61,2.41,12.35-.59,2.74-3,18.6-23.23,18.6-23.23h0c-6.46,9.1-14.55,20.22-17.02,24.01-4.01,6.16-4.68,7.52-6.93,6.41-2.26-1.11-15.28-8-15.28-8Z"/>
      <path class="cls-6" d="M28.78,6.4c.42-.48-.18.78,0,0,0,0,33.91,16.72,44.51,23.21-.34.45.2-.4,0,0l-.06.11c-6.26-2.34-19.53-6.7-29.69-12-7.74-4.04-13.45-9.29-14.76-11.32Z"/>
      <path class="cls-5" d="M11,81.67c-.94,1.92-5.44,10.5-5.04,11.68.4,1.18,15.88,9.49,16.74,8.72.87-.77,7.04-11.19,5.97-12.28-1.08-1.09-8.95-6.9-17.67-8.12Z"/>
      <path class="cls-7" d="M6.73,99.34l10.33,5.08s-2.37-7.09-10.33-5.08Z"/>
      <path class="cls-1" d="M30.09,31.4c.47-1.45,4.68-12.56,6.87-12.47,2.19.1,11.25,3.42,10.61,6.06-.63,2.63-27.64,49.65-29.4,48.36-1.77-1.29,1.1-11.52,11.92-41.95Z"/>
      <path class="cls-4" d="M59.9,29.25c1.7,2.24-2.03,7.55-5.81,13.83s-10.56,19.77-12.47,19.39c-1.92-.38,8.41-21.67,9.22-26.74.81-5.07-2.6-9.55-.58-10.52,2.02-.97,9.65,4.04,9.65,4.04Z"/>
    </g>
  </g>
</svg>