<?xml version="1.0" encoding="UTF-8"?>
<svg xmlns="http://www.w3.org/2000/svg" viewBox="0 0 138.45 96.84">
  <defs>
    <style>
      .cls-1, .cls-2, .cls-3 {
        fill: #d3d0b7;
      }

      .cls-1, .cls-4, .cls-5, .cls-6, .cls-7, .cls-8, .cls-3, .cls-9, .cls-10, .cls-11 {
        mix-blend-mode: multiply;
      }

      .cls-1, .cls-12, .cls-11 {
        opacity: .5;
      }

      .cls-13 {
        fill: #b9b7a2;
      }

      .cls-14 {
        fill: #b7b5a0;
      }

      .cls-15 {
        fill: #d0cdb4;
      }

      .cls-16, .cls-7 {
        fill: #779c97;
      }

      .cls-4, .cls-6, .cls-17, .cls-10 {
        fill: #c2c2c2;
      }

      .cls-5 {
        fill: #bd9a7a;
      }

      .cls-5, .cls-6, .cls-18, .cls-9 {
        opacity: .6;
      }

      .cls-19 {
        isolation: isolate;
      }

      .cls-20, .cls-8 {
        fill: #e4e0c5;
      }

      .cls-21 {
        fill: #aaa995;
      }

      .cls-7, .cls-10 {
        opacity: .4;
      }

      .cls-22 {
        fill: #a3a290;
      }

      .cls-18 {
        mix-blend-mode: overlay;
      }

      .cls-23 {
        fill: #e3e3e1;
      }

      .cls-12 {
        fill: #fff;
        mix-blend-mode: screen;
      }
    </style>
  </defs>
  <g class="cls-19">
    <g id="Layer_2" data-name="Layer 2">
      <g id="Layer_1-2" data-name="Layer 1">
        <g>
          <g>
            <g>
              <path class="cls-22" d="M80.24,75.87c.1.53-14.26,19.97-14.83,20.8-.57.83,8.4-1.53,11.82-3.6,3.42-2.08,5.78-3.05,9.76-3.05,3.98,0,17.08-.59,18.3-.81,1.22-.22,29.9-7.64,30.63-7.59.73.05,2.53-1,2.53-1,0,0-5.9-8.51-4.59-11.28,1.3-2.77,2.05-7.61,1.95-8.14-.1-.53-3.66-11.09-3.66-11.09,0,0-33.52,2.68-34.19,2.99-.67.3-17.73,22.77-17.73,22.77Z"/>
              <path class="cls-6" d="M132.15,50.11s-33.52,2.68-34.19,2.99c-.67.3-17.73,22.77-17.73,22.77.1.53-14.26,19.97-14.83,20.8-.57.83,8.4-1.53,11.82-3.6,1.85-1.12,3.39-1.92,5.03-2.41-1.22-2.9-1.6-6.26-.72-8.93.11-.33.45-.47.76-.31,2.83,1.51,5.88,2.22,8.97,2.97,3.01.73,5.96,1.68,8.95,2.47,2.4.64,4.82,1.23,7.23,1.82,1.26-.31,2.99-.75,4.98-1.25,1.05-2.21,1.92-4.56,2.9-6.47,2.29-4.45,4.5-8.87,7.51-12.88,2.66-3.55,4.23-7.11,5.93-11.16.94-2.23,2-4.32,3.65-5.98-.17-.52-.28-.83-.28-.83Z"/>
              <path class="cls-4" d="M130.21,80.13c-5.16.99-10.24,2.25-15.37,3.39-2.19.48-4.24,1.27-6.48,1.6-2.74.42-5.43.34-8.19.42-2.44.07-4.86.07-7.3.07-2.59-.02-5.01.62-7.56.85-1.77.16-3.41,1.22-4.94,2.08-2.29,1.29-4.84,2.09-7.05,3.5-.06.04-.05.16.04.12,8.48-4.93,18.97-6.48,28.68-6.34,9.74.14,18.75-3.39,28.13-5.51.09-.02.14-.21.03-.19Z"/>
              <path class="cls-4" d="M128.61,74.92c-1.88.34-3.7.8-5.55,1.28-2.19.57-4.1,1.8-6.35,2.28-2.02.43-4.21.08-6.26.34-2.32.29-4.55.88-6.9,1.06-4.51.34-8.98.24-13.43,1.21-3.92.85-7.64,2.6-11.43,3.89-.04.01-.07.13,0,.11,1.3-.33,2.61-.41,3.87-.88,2.45-.92,4.88-1.73,7.43-2.32,4.4-1.01,8.98-.89,13.45-1.34,2.38-.24,4.64-.9,6.96-1.44,2.05-.48,4.18-.21,6.27-.4,1.86-.17,3.71-.91,5.45-1.54,2.11-.76,4.33-1.21,6.47-1.9.13-.05.22-.38.02-.34Z"/>
              <path class="cls-4" d="M127.85,72.4c-3.49.9-7.02,1.41-10.56,2.03-3.75.65-7.41,1.8-11.19,2.28-.06,0-.1.12-.02.11,7.28-.37,14.84-1.93,21.76-4.19.09-.03.14-.26.01-.23Z"/>
              <path class="cls-4" d="M99.73,75.27c-2.66.43-5.3.8-7.93,1.43-2.14.5-4.23,1.56-6.36,1.95-.08.02-.19.22-.06.23,1.82.15,3.81-.77,5.58-1.17,2.95-.68,5.78-1.69,8.75-2.3.06-.01.11-.15.02-.14Z"/>
              <path class="cls-4" d="M105.39,71.16c-1.88.22-3.64.53-5.54.62-1.92.1-3.83.95-5.73,1-.06,0-.11.13-.04.14,1.77.25,3.92-.25,5.67-.54,1.02-.17,2.12,0,3.15-.13.84-.1,1.67-.48,2.47-.75.13-.04.22-.36.02-.34Z"/>
              <path class="cls-4" d="M102.5,68.44c-.93.02-1.87.17-2.78.36-.88.17-1.95.61-2.82.6-.08,0-.15.16-.05.18.88.18,1.87-.06,2.76-.14.99-.1,2.05.08,2.92-.44.19-.12.29-.56-.03-.55Z"/>
              <path class="cls-6" d="M133.85,69.34c1.3-2.77,2.05-7.61,1.95-8.14-.1-.53-3.66-11.09-3.66-11.09,0,0-33.52,2.68-34.19,2.99-.67.3-17.73,22.77-17.73,22.77.1.53-14.26,19.97-14.83,20.8-.57.83,8.4-1.53,11.82-3.6,3.42-2.08,5.78-3.05,9.76-3.05,3.98,0,17.08-.59,18.3-.81,1.22-.22,29.9-7.64,30.63-7.59.73.05,2.53-1,2.53-1,0,0-5.9-8.51-4.59-11.28ZM132.08,78.63c-5.76,3.02-12.07,4.6-18.31,6.28-2.07.55-4.3,1.35-6.28.11-1.94-1.21-3.37-3.03-5.17-4.39.2,1.53.86,2.96,1.22,4.47.06.27-.15.57-.42.6-2.93.44-5.95.17-8.86.82-1.77.4-3.66.97-5.48.52-2.95-.72-4.88-1.87-7.84-.17-2.43,1.4-4.72,3.02-7.2,4.32-.47.24-.94-.35-.66-.77,2.27-3.33,4.28-7.24,7.46-9.82,3.64-2.95,8.32-4.22,12.1-6.99.13-.1.28-.12.41-.1,1.61-1.49,3.06-3.21,4.44-4.58.11-.12.36-.17.51-.09,1.59.79,5.68,2.29,6.85.37.95-1.57,1.91-3.06,3.47-4.08.35-.23.77.16.74.51-.27,3.63-.9,7.21-1.41,10.81,3.16-1.27,6.42-2.19,9.7-3.12,3.48-.99,6.78-2.47,10.33-3.21.4-.08.69.32.58.69-.53,1.71.27,3.71-1.57,4.76-1.31.75-2.77,1.17-4.18,1.73,3.21.03,6.37-.91,9.52.37.42.17.45.75.05.96Z"/>
            </g>
            <g>
              <path class="cls-20" d="M25.09,77.77c0,.54-17.62,17.08-18.33,17.8-.71.71,8.54,0,12.28-1.43,3.74-1.42,6.23-1.96,10.15-1.24,3.91.71,16.9,2.49,18.15,2.49s30.79-2.14,31.5-1.96c.71.18,2.67-.53,2.67-.53,0,0-4.27-9.43-2.49-11.92,1.78-2.49,3.38-7.12,3.38-7.65s-1.6-11.57-1.6-11.57c0,0-33.46-3.38-34.17-3.2-.71.18-21.53,19.22-21.53,19.22Z"/>
              <path class="cls-4" d="M73.48,90.94c-5.25.05-10.48.38-15.73.58-2.24.08-4.4.49-6.66.42-2.77-.08-5.4-.64-8.13-1.06-2.41-.37-4.8-.8-7.2-1.25-2.54-.48-5.04-.29-7.58-.52-1.77-.16-3.58.58-5.23,1.16-2.48.85-5.14,1.19-7.57,2.17-.07.03-.07.15.02.12,9.23-3.32,19.82-2.96,29.35-1.08,9.55,1.89,19.06.04,28.67-.36.08,0,.18-.18.06-.18Z"/>
              <path class="cls-4" d="M72.84,85.52c-1.9,0-3.78.12-5.69.26-2.25.16-4.36,1.03-6.66,1.1-2.06.06-4.15-.68-6.22-.8-2.33-.13-4.63.05-6.97-.2-4.5-.47-8.88-1.37-13.43-1.22-4.01.13-7.99,1.19-11.94,1.77-.05,0-.09.11-.03.11,1.34-.09,2.65.07,3.97-.17,2.57-.46,5.12-.83,7.73-.95,4.51-.21,8.99.74,13.47,1.1,2.38.19,4.73-.04,7.1-.15,2.1-.1,4.15.55,6.24.73,1.87.16,3.81-.23,5.64-.54,2.21-.37,4.47-.41,6.7-.71.14-.02.28-.33.08-.33Z"/>
              <path class="cls-4" d="M72.55,82.9c-3.59.26-7.16.13-10.75.1-3.81-.03-7.61.45-11.42.23-.06,0-.11.1-.04.11,7.23.95,14.94.77,22.16-.21.1-.01.18-.23.05-.22Z"/>
              <path class="cls-4" d="M44.38,80.68c-2.7-.07-5.36-.17-8.06-.02-2.19.11-4.44.77-6.61.78-.08,0-.23.18-.11.22,1.77.47,3.89-.07,5.7-.15,3.02-.14,5.99-.62,9.02-.69.07,0,.14-.13.05-.13Z"/>
              <path class="cls-4" d="M50.69,77.65c-1.89-.13-3.67-.13-5.56-.38-1.91-.25-3.94.24-5.82-.05-.05,0-.13.1-.06.13,1.69.56,3.9.46,5.68.48,1.04.01,2.08.38,3.12.44.85.05,1.73-.17,2.56-.29.14-.02.29-.31.08-.33Z"/>
              <path class="cls-4" d="M48.33,74.46c-.92-.15-1.87-.17-2.8-.15-.9.01-2.02.24-2.88.08-.07,0-.17.14-.08.17.83.34,1.85.28,2.74.36.99.08,2,.45,2.95.09.21-.08.38-.5.07-.54Z"/>
              <path class="cls-1" d="M79.01,80.97c1.78-2.49,3.38-7.12,3.38-7.65s-1.6-11.57-1.6-11.57c0,0-33.46-3.38-34.17-3.2-.71.18-21.53,19.22-21.53,19.22,0,.54-17.62,17.08-18.33,17.8-.71.71,8.54,0,12.28-1.43,3.74-1.42,6.23-1.96,10.15-1.24,3.91.71,16.9,2.49,18.15,2.49s30.79-2.14,31.5-1.96c.71.18,2.67-.53,2.67-.53,0,0-4.27-9.43-2.49-11.92ZM75.59,89.8c-6.21,1.93-12.7,2.35-19.15,2.88-2.14.17-4.47.55-6.2-1.02-1.69-1.54-2.76-3.59-4.3-5.25-.07,1.54.31,3.07.39,4.62.01.28-.25.53-.52.52-2.97-.09-5.88-.9-8.86-.79-1.81.07-3.78.29-5.48-.47-2.77-1.24-4.46-2.73-7.69-1.58-2.64.94-5.19,2.11-7.86,2.95-.51.16-.86-.51-.5-.87,2.83-2.87,5.51-6.36,9.1-8.32,4.11-2.25,8.95-2.65,13.16-4.71.15-.07.29-.07.42-.02,1.85-1.18,3.59-2.61,5.19-3.72.14-.09.39-.1.52,0,1.42,1.07,5.18,3.28,6.67,1.6,1.22-1.37,2.43-2.67,4.14-3.39.38-.16.73.29.64.64-.92,3.52-2.18,6.93-3.33,10.38,3.34-.68,6.71-1,10.1-1.33,3.6-.35,7.11-1.22,10.74-1.3.41,0,.62.44.45.79-.82,1.59-.4,3.71-2.4,4.41-1.43.5-2.94.65-4.42.94,3.15.61,6.43.25,9.3,2.08.38.24.31.81-.13.95Z"/>
            </g>
            <path class="cls-16" d="M106.59,45.74s5.52-.72,10.68-1.6c5.16-.89,12.46-.36,13.7-.36s2.49.71,2.49.71c0,0-8.54,14.41-9.26,18.33-.71,3.92-10.32,16.37-10.5,16.91-.18.54-3.74,6.58-3.74,6.58l-.18.72s-24.74-10.5-46.8-7.83l43.6-33.45Z"/>
            <path class="cls-7" d="M130.98,43.78c-1.25,0-8.54-.53-13.7.36-5.16.89-10.68,1.6-10.68,1.6l-43.6,33.45c22.07-2.67,46.8,7.83,46.8,7.83l.18-.72s3.56-6.05,3.74-6.58c.18-.53,9.79-12.99,10.5-16.91.71-3.91,9.26-18.33,9.26-18.33,0,0-1.25-.71-2.49-.71ZM129.48,45.75c-1.16.96-2.44,1.71-3.7,2.5,2.53,1.69-1.31,5.52-2.42,7.34-1.74,2.84-3.47,5.72-4.88,8.74-1.05,2.25-1.97,4.79-3.87,6.49-1.15,1.03-2.39,1.81-2.82,3.39-.25.9-.44,1.82-.66,2.73-.31,1.27-.65,3.2-1.8,4.04-2.37,1.71-6.85-1.49-9.04-2.45-.37-.16-.31-.72,0-.9,1.44-.83,2.94-1.68,4.53-2.19,1.44-.46,3.41-.25,4.21-1.81,1.27-2.47,1.6-5.4,2.04-8.11.34-2.05.34-4.77,1.72-6.44,1.82-2.21,4.3-3.68,6.38-5.62-1.48.57-2.88,1.3-4.2,2.24-.28.2-.68-.01-.76-.31-.64-2.25-1.17-4.54-1.73-6.81-.07-.29.09-.55.36-.64,2.69-.9,13.67-3.96,16.43-3.07.34.11.55.6.23.87Z"/>
            <path class="cls-15" d="M105.88,64.6l1.6,5.69s-3.56,2.85-7.48,3.74c-3.91.89-15.13,4.45-16.91,3.91-1.78-.53-28.11,2.32-28.11,2.32l7.47-11.75,19.75-4.27,23.67.36Z"/>
            <path class="cls-14" d="M66.37,69.23s-6.05,9.43-5.52,8.9c.54-.53,14.24-1.78,16.73-1.78s17.62-3.74,18.69-4.27c1.07-.54,6.76-2.31,6.76-2.31l-6.94-1.96s-5.52.18-6.05.53c-.54.36-5.34,2.67-5.34,2.67,0,0-8.01,2.85-8.54,2.85s-2.67-.89-2.67-.89l-4.45-.54-2.67-3.2Z"/>
            <path class="cls-13" d="M3.74,76.7l-3.74,4.27s8.9,1.24,18.15.17c9.25-1.06,13.7-2.49,14.77-3.2,1.07-.71,9.43-7.29,11.92-8.36,2.49-1.07,6.76-4.1,8.72-3.2,1.96.89,10.09,6.34,14.12,5.93,0,0-4.87-11.62-17.15-12.33-12.28-.72-46.8,16.72-46.8,16.72Z"/>
            <path class="cls-10" d="M23.3,78.95c3.94-.79,7.53-1.92,10.93-4.13,3.16-2.05,6.05-4.55,9.29-6.48,2.79-1.66,6.05-3.44,9.37-3.62,2.72-.14,5.36.71,7.79,1.87,1.91.91,3.74,1.97,5.54,3.07-2.24-3.47-7.19-9.19-15.69-9.68-12.28-.72-46.8,16.72-46.8,16.72l-2.29,2.62c7.03,1.93,14.84,1.03,21.85-.37Z"/>
            <path class="cls-2" d="M4.09,72.08c0,.53-4.09,6.05-4.09,6.05,0,0,15.66,1.42,21.89.89,6.23-.53,10.15-2.49,11.75-4.09,1.6-1.6,10.86-7.65,13.7-8.9,2.85-1.24,4.09-2.13,6.23-1.42,2.14.71,6.41,3.91,6.94,4.45.54.53,6.41,3.02,6.41,3.02,0,0-7.83-12.82-15.84-14.06-8.01-1.25-30.96,10.86-30.96,10.86l-16.02,3.2Z"/>
            <path class="cls-10" d="M20.33,77.01c7.82-1.01,14.46-4.97,20.92-9.3,2.57-1.73,5.37-4.5,8.47-5.22,2.36-.54,4.76-.26,7,.66,2.28.94,4.35,2.2,6.34,3.6-3.03-3.68-7.48-8.05-11.99-8.74-8.01-1.25-30.96,10.86-30.96,10.86l-16.02,3.2c0,.28-1.16,1.97-2.24,3.5,5.85,1.95,12.44,2.23,18.48,1.44Z"/>
            <g>
              <path class="cls-2" d="M21.18,38.97c5.69-6.41,17.97-25.8,17.97-25.8l-10.32,3.03s-5.16,18.68-11.74,26.51c-3.57,4.25-8.02,12.04-11.41,18.83.07-.09.14-.2.2-.32,2.31-4.09,9.61-15.84,15.31-22.25Z"/>
              <path class="cls-3" d="M8.54,56.76c2.16-4.3,4.68-8.42,7.3-12.48-3.32,4.42-7.16,11.23-10.17,17.26.07-.09.14-.2.2-.32.6-1.05,1.52-2.62,2.67-4.46Z"/>
              <path class="cls-3" d="M36.97,13.81c-1.5,3.68-3.99,6.98-6.31,10.16-3.16,4.32-5.94,8.89-8.92,13.33-1.21,1.8-2.42,3.6-3.62,5.4,1.04-1.36,2.07-2.62,3.06-3.73,5.69-6.41,17.97-25.8,17.97-25.8l-2.17.64Z"/>
              <path class="cls-20" d="M77.59,0c-13.17.18-16.73,6.05-20.28,6.58-3.56.53-7.12.18-7.12.18l-11.39,4.98.36,1.42s-12.28,19.4-17.97,25.8c-5.69,6.41-12.99,18.16-15.31,22.25-.06.12-.13.22-.2.32-2.87,5.74-4.97,10.77-5.14,12.32,0,0,12.99,3.03,20.1,2.14,7.12-.89,13.35-4.81,17.26-7.48,3.92-2.67,10.68-10.5,15.66-7.29,4.98,3.2,11.21,10.5,13.35,10.86,0,0,.28.1.77.23l31.26-61.81S90.76-.18,77.59,0Z"/>
            </g>
            <path class="cls-2" d="M128.13,22.42s-5.34-12.99-10.15-14.23c-4.8-1.25-19.04,2.31-19.04,2.31l-31.26,61.81c1.89.53,6.95,1.64,11.33-.06,5.52-2.14,12.81-7.83,16.91-6.41,4.09,1.43,11.57,4.45,11.57,4.45,0,0,3.74-13.7,3.74-16.73s-3.03-6.76.18-10.14c3.2-3.38,16.73-21,16.73-21Z"/>
            <path class="cls-21" d="M60.86,19.4s12.64-4.26,26.88,1.78l6.41-9.96s-9.08-12.28-28.47-4.1l-4.81,12.28Z"/>
            <polygon class="cls-21" points="32.92 27.41 29.01 34.17 45.38 36.13 48.4 29.54 32.92 27.41"/>
            <polygon class="cls-8" points="38.7 11.75 49.12 16.02 50.09 6.76 38.7 11.75"/>
            <g class="cls-11">
              <path class="cls-4" d="M60.17,57.76c-.64-.29-1.26-.52-1.89-.7-.09.03-.19.06-.31.02-.8-.2-1.62-.39-2.45-.54-.96-.11-1.92-.17-2.89-.25-.13,0-.26,0-.39,0-.36.02-.71.07-1.06.11,2.56.59,5.16.79,7.66,1.82,1.4.58,2.76,1.25,4.12,1.91.68.33,1.25.81,1.78,1.34.77.31,1.5.72,2.11,1.24-1.98-2.25-3.9-3.68-6.68-4.97Z"/>
              <path class="cls-4" d="M66.37,57.2c.79.25,1.6.48,2.4.69,0-.05-.03-.1-.1-.14-1.29-.78-2.48-1.8-3.9-2.34-1.29-.49-2.72-.58-4.06-.86-.07-.01-.15.12-.07.15,1.27.42,2.56.72,3.78,1.29.71.33,1.32.78,1.95,1.21Z"/>
              <path class="cls-4" d="M70.61,54.66c-1.88-2.31-4.65-2.67-7.42-3.08-.02,0-.04.03-.02.04,2.57.92,4.88,1.82,7.17,3.33.16.11.4-.14.27-.29Z"/>
              <path class="cls-4" d="M73.08,51.59c-.85-.5-1.16-1.49-2.05-1.97-1.01-.54-2.06-.84-3.14-1.19-.22-.07-.45-.15-.67-.23-.7-.08-1.4-.13-2.09-.12,1.07.22,2.02.75,3.02,1.17,1.19.5,2.44.85,3.29,1.88.52.62.69.8,1.45.87.19.01.4-.29.2-.41Z"/>
              <path class="cls-4" d="M73.53,48.77c-.35-.19-.7-.38-1.08-.49-.04-.01-.11.06-.07.09.31.26.52.63.89.82.21.11.5-.3.26-.42Z"/>
              <path class="cls-4" d="M72.85,25.08c-2.36-.39-4.02-.6-6.4-.27-1.55.22-3.1.43-4.65.56-.48.04-.92.23-1.36.43.96.28,1.95.43,2.94.52.34-.03.68-.06.99-.07,1.25-.05,2.42-.26,3.62-.59,1.63-.45,3.08-.17,4.72-.21.18,0,.39-.33.14-.37Z"/>
            </g>
            <g class="cls-11">
              <path class="cls-17" d="M102.14,61.23c-.08-.02-.14-.06-.2-.11-.89-.18-1.82-.29-2.84-.4-1.21-.12-2.12-.7-3.32-.66-.94.03-1.94.32-2.89.39-1.97.14-3.97.29-5.96.42-1.81.43-3.61.94-5.42,1.43,2.35-.09,6.04-.68,6.64-.75,1.34-.15,2.66-.14,4-.36,1.68-.28,3.61-.74,5.26-.22,1.29.4,2.62.44,3.96.57,1.43.14,2.55.88,3.9,1.16.1.02.21-.06.27-.16-1.12-.45-2.23-.94-3.39-1.3Z"/>
              <path class="cls-17" d="M87.47,57.75c-.79.03-1.56.21-2.35.3-1.05.13-1.98.64-3.07.43-.05,0-.11.08-.05.11.77.31,1.49.26,2.29.12,1.08-.19,2.06-.09,3.12-.47.17-.06.36-.51.06-.5Z"/>
              <path class="cls-17" d="M104.96,58.5c-1.28-.45-2.78-1.12-4.12-1.33-.91-.14-1.67-.11-2.58.09-.16.03-.35.08-.56.12.23.05.44.08.61.12.36.07.74.14,1.11.21,1.09.08,2.05.4,3.15.87.77.34,1.4.53,2.22.4.17-.03.42-.38.17-.47Z"/>
              <path class="cls-17" d="M105.51,55.19c-.62-.14-1.01-.42-1.49-.73-.56-.26-1.13-.51-1.7-.75-.66-.19-1.29-.28-2.02-.37-1.95-.27-4.03-.36-5.99-.5-3.24-.24-8.29-.5-11.06,1.55.11,0,.22,0,.33.02,1.61-.73,4.13-.74,5.77-.77,2.07-.03,4.22,0,6.26.37,1.7.3,3.4.18,5.11.39,2,.25,3.45,1.83,5.48,1.37.06,0,.12-.06.17-.12-.28-.16-.57-.32-.86-.47Z"/>
              <path class="cls-17" d="M92.27,49.24c-.11,0-.19-.03-.27-.07-.75.06-1.51.07-2.27.17-1.13.14-2.44.6-3.57.43-.06,0-.13.11-.06.13,1.07.34,2.37.06,3.48.08,1.43.03,2.57.28,3.9-.38.15-.07.27-.31.26-.47-.48.04-.97.11-1.46.12Z"/>
            </g>
            <path class="cls-21" d="M116.25,19.6c2.61,1.25,4.41,3.19,5.43,5.58.58-.84,1.23-1.8,1.59-2.69-.2-2.31-.85-4.5-2.71-6-3.56-2.86-9.25-3.82-13.69-2.32-.71,1.16-1.43,2.31-2.15,3.47-.05.14-.08.27-.1.41,3.92-.36,8.08-.14,11.64,1.56Z"/>
            <polygon class="cls-23" points="38.79 11.75 48.05 14.77 50.18 6.76 38.79 11.75"/>
            <path class="cls-10" d="M77.59,0c-13.17.18-16.73,6.05-20.28,6.58-3.56.53-7.12.18-7.12.18l-11.39,4.98.36,1.42s-12.28,19.4-17.97,25.8c-5.69,6.41-12.99,18.16-15.31,22.25-.06.12-.13.22-.2.32-2.87,5.74-4.97,10.77-5.14,12.32,0,0,12.99,3.03,20.1,2.14,7.12-.89,13.35-4.81,17.26-7.48,3.92-2.67,10.68-10.5,15.66-7.29,4.98,3.2,11.21,10.5,13.35,10.86,0,0,.28.1.77.23l31.26-61.81S90.76-.18,77.59,0ZM38.79,41.94c-1.32,3.4-4.21,6.37-7.01,8.59-3.06,2.43-6.41,4.42-9.8,6.36-3.31,1.89-6.71,3.77-10.45,4.65-.4.1-.72-.25-.64-.64,1.16-5.92,5.27-10.74,8.88-15.38,4.45-5.71,9.3-11.42,13.24-17.49,1.85-2.84,4.14-5.68,5.29-8.9.4-1.11.97-3.63,2.42-3.89,1.63-.29,5.06.1,6.66,1.56.27-.1.58-.03.65.33.72,4.19,1.95,8.66,1.37,12.94-.59,4.33-3.34,7.83-5.51,11.49-.21.35-.89.35-.95-.12-.44-3.29-1.27-6.41-2.44-9.47-.14,3.4-.44,6.77-1.69,9.98ZM89.58,20.21c-7.25,10.4-12.34,22.15-17.94,33.46-1.42,2.87-2.88,5.79-4.82,8.35-.63.84-1.51,1.49-2.55,1.06-1.67-.67-2.65-3.02-4.25-3.97-2.49-1.48-5.25-2.15-8.02-2.9-.25-.07-.46-.37-.36-.64.65-1.67,1.07-3.4,1.48-5.13-3.96,2.68-6.97,6.54-11.03,9.1-.44.28-.98-.27-.71-.71,4.61-7.65,10.02-15.28,13.11-23.72,2.98-8.1,1.32-16.81,2.39-25.22-.1-.15-.14-.33-.03-.53.04-.07.08-.12.12-.19,0,0,0-.03,0-.04.03-.17.12-.28.24-.33,1.98-2.78,6.08-3.97,9.06-5.19,5.26-2.15,11.12-2.38,16.61-.88,3.4.93,7.86,2.61,9.52,6.03,2.02,4.13-.46,8.08-2.83,11.48Z"/>
            <path class="cls-10" d="M128.13,22.42s-5.34-12.99-10.15-14.23c-4.8-1.25-19.04,2.31-19.04,2.31l-31.26,61.81c1.89.53,6.95,1.64,11.33-.06,5.52-2.14,12.81-7.83,16.91-6.41,4.09,1.43,11.57,4.45,11.57,4.45,0,0,3.74-13.7,3.74-16.73s-3.03-6.76.18-10.14c3.2-3.38,16.73-21,16.73-21ZM105.84,28.74c-1.44,2.45-3.22,5.43-3.33,8.35-.13,3.28,2.48,6.27,3.84,9.12.98,2.05,2.37,4.59,1.91,6.94-.43,2.21-1.28,4.49-2.44,6.44-.75,1.26-1.92,3.05-3.6,2.99-3.09-.12-6.33-.66-9.28-1.57-.28-.09-.43-.36-.36-.64.4-1.67.93-3.31,1.32-4.98-4.57,6.72-11.33,10.77-19.68,11.51-.44.04-.59-.46-.45-.79,1.97-4.6,3.05-9.96,7.15-13.24,1-.79,2.06-1.52,3.02-2.37.51-.44-.79-1.64-.93-2.09-.45-1.5.61-3.3,1.21-4.62,2.49-5.53,5.28-10.97,8.2-16.29,0-.01.01-.03.02-.05,1.58-3.17,3.57-6.22,5.24-9.39-.11-.15-.15-.34-.06-.54.69-1.57,1.26-3.92,2.67-5.17.06-.14.16-.21.29-.23.15-.11.31-.21.48-.29,2.65-1.28,6.08-1.69,8.99-1.8,6.15-.26,10.12,3.8,11.66,9.58.07.26-.09.58-.36.64-3.1.67-7.3-.07-9.97,1.84-2.34,1.68-4.08,4.19-5.52,6.64Z"/>
            <g class="cls-9">
              <path class="cls-4" d="M55.66,10.53c-.53,1.18-1.04,2.38-1.52,3.57-.42,1.64-.78,3.26-1.01,4.94-.52,3.73-.36,7.37-.12,11.11.3,4.7-1.67,9.56-4.01,13.5-2.28,3.84-5.69,6.59-8.64,9.86-.08.09.02.19.11.1,2.92-2.96,5.9-5.5,8.54-8.73,2.53-3.09,3.66-6.99,4.58-10.78.98-4.04.85-8.47,1.19-12.62.17-2.03-.1-4.07.07-6.11.13-1.65.64-3.23.84-4.83Z"/>
              <path class="cls-4" d="M36.91,45.04c-.87,4.39-3.41,7.27-6.79,9.95-3.24,2.58-6.5,4.95-10.21,6.83,0,0,0,0,0,0,.14.02.29.03.43.03,7.33-3.29,16.24-7.93,16.78-16.86,0-.16-.19-.06-.21.04Z"/>
              <path class="cls-4" d="M109.44,47.49c.09-.03.18-.15.14-.25-.9-2.06-1.95-4.86-1.9-7.13.04-2.16.88-4.15,1.7-6.1,1.21-2.88,3.94-5.1,5.16-7.98-1.19.84-2.35,1.7-3.48,2.6-.29.28-.56.56-.82.86-1.68,1.94-2.59,3.55-3.58,5.91-1.08,2.55-.17,5.97,1.06,8.84.56,1.09,1.13,2.18,1.72,3.25Z"/>
            </g>
            <g class="cls-18">
              <path class="cls-12" d="M38.74,19.83c-.83,2.67-1.57,5.55-2.92,7.98-.74,1.34-2.17,2.58-3.17,3.74-1.26,1.47-2.52,2.94-3.77,4.42-3.62,4.29-6.76,8.89-9.95,13.48.25-.28.5-.55.75-.82.72-.92,1.58-1.99,2.55-2.81,1.88-2.07,3.76-4.14,5.64-6.2,3.97-4.38,9.58-9.62,10.78-15.71.01-1.02.1-2.02.2-3.04-.02-.34-.06-.68-.11-1.03Z"/>
              <path class="cls-12" d="M59.35,11.5c-.09,1.31-.3,2.61-.25,3.95.07,2.05-.03,4.09-.08,6.14-.09,3.26-.78,6.54-1.36,9.73-.77,4.22-3.45,7.47-5.72,10.95-2.33,3.58-4.12,7.5-6.27,11.2-.2.35.21.58.44.28,2.68-3.49,5.21-7.11,7.75-10.7,2.52-3.55,4.97-6.68,6.1-10.97.68-2.59,1.07-5.41,1.23-8.17-.51-4.15-1.14-8.28-1.84-12.4Z"/>
              <path class="cls-12" d="M73.79,46.44c1.97-3.88,3.68-7.92,4.74-12.09.03-.1-.09-.07-.12,0-2.8,5.96-7.27,11.26-8.91,17.72,1.42-1.88,2.87-3.74,4.29-5.62Z"/>
              <path class="cls-12" d="M54.81,88.95c-1.3-1.99-3.78-3.24-5.8-4.4-2.69-1.54-5.61-2.63-8.39-4.01-.07-.04-.18.09-.12.15,2.29,2.02,4.6,3.94,6.99,5.85,2.17,1.73,3.74,3.07,6.56,3.39.41.05,1.02-.58.75-.99Z"/>
              <path class="cls-12" d="M101.17,15.55c.05-.26.1-.53.14-.79,0-.07-.09-.04-.11,0-.36,1.21-1.59,3.08-2.15,4.22-.72,1.44-1.51,2.88-2.4,4.23-1.77,2.67-2.95,6.06-4.27,8.98-1.48,3.28-3.07,6.49-4.59,9.75-.54,1.16-1.08,2.63-1.02,3.94.09,1.8.51,2.87-.14,4.54.76-1.52,1.61-2.98,2.48-4.43.01-.78,0-1.56.19-2.27.88-3.56,3.29-7.06,4.72-10.45,1.46-3.48,3.1-6.87,4.48-10.38.57-1.45,1.3-3.03,1.88-4.63.26-.9.52-1.81.8-2.7Z"/>
              <path class="cls-12" d="M123.96,48.91c-1.04,1.39-2.01,2.81-2.82,4.35-.85,1.61-1.95,2.83-2.88,4.37-.8,1.32-1.17,2.86-1.73,4.29-.06.15-.13.3-.2.46.13-.14.25-.28.38-.41.96-1.78,2.08-3.4,3.64-4.36,3.13-1.92,2.31-5.68,3.76-8.67.06-.11-.1-.09-.15-.03Z"/>
            </g>
          </g>
          <g>
            <path class="cls-5" d="M37.37,52.19c-.48-.78-1.27-1.51-1.33-2.61-.15-2.89,2.84-3.82.25-6.61-1.92-2.08-3.75-1.31-4.47,1.16-.06.22-2.59-.41-3.08-.18-1,.46-1.64,1.01-2.06,2.02-.42.98-.12,1.93.5,2.76,1.85,2.49-2.73,2.27-3.67,2.23-.56-.02-1.19.24-1.6.59-1.13.94-3.9,4.4-2.67,6,2.84,3.69,6.67-1.96,9.87-.06,2.47,1.47,6.3-.58,7.89-2.51,1.03-1.24.84-2.05.37-2.81Z"/>
            <path class="cls-5" d="M20.99,64.04c-.34.06-.69.18-1.02.36-.34.08-.67.21-.98.4-.67.43-1.48,1.24-1.36,2.14.12.94,1.23.94,1.95.74.96-.28,1.96-1.08,2.36-2.02.33-.78.07-1.76-.95-1.61ZM18.29,66.26c.05-.2.14-.38.26-.54-.16.35-.22.79-.11,1.12-.15-.09-.24-.27-.16-.58Z"/>
            <path class="cls-5" d="M103.44,27.36c-2.69-1.32-4.24,1.99-6.81,1.34-1.94-.5,1.35-4.32-1.6-5.16-2.09-.6-4.03-.33-5.88.82-.42.26-.89.89-.96,1.39-.11.83-.11.63.1,1.54.14.6-2.22.26-2.45.25-1.16-.03-2.8.68-3.44,1.71-.79,1.29-.17,2.06.37,3.09-.67.45-1.3.94-1.82.94-1.34.04-2.48-.55-3.81-.56-.99,0-1.68-.7-2.57-.05-1.56,1.13-1.51,2.14-.21,3.43,1.74,1.72-1.34,2.28-2.17,2.57-.87.31-1.29,1.01-1.66,1.79-.89,1.87-.18,3.25,1.58,4.11,2.21,1.07,3.66.01,5.13-1.82,2.14-2.68,5.04.32,7.16-1.29.36-.28.83-.66.84-1.18.01-.61.04-.64-.12-1.18-.23-.8,1.9.05,2.09.12,1.55.54,3.3.01,3.86-1.59.1-.28.13-.65.06-.94-.35-1.43,1.49-1.3,2.44-1.13,1.28.24,2.75-.56,3.83-1.09,1.64-.82,3.29-.84,5.04-1.19.56-.11,1.37-.71,1.64-1.22.74-1.36,1.12-3.82-.65-4.68Z"/>
          </g>
        </g>
      </g>
    </g>
  </g>
</svg>