<?xml version="1.0" encoding="UTF-8"?>
<svg xmlns="http://www.w3.org/2000/svg" viewBox="0 0 227.02 92.99">
  <defs>
    <style>
      .cls-1, .cls-2, .cls-3, .cls-4, .cls-5, .cls-6, .cls-7, .cls-8, .cls-9 {
        mix-blend-mode: multiply;
      }

      .cls-1, .cls-4 {
        opacity: .4;
      }

      .cls-1, .cls-7 {
        fill: #cead2b;
      }

      .cls-10 {
        fill: #fcea00;
        stroke: #dfdfdf;
        stroke-linecap: round;
        stroke-linejoin: round;
      }

      .cls-11 {
        fill: #e49e24;
      }

      .cls-12 {
        fill: #f4b31a;
      }

      .cls-13 {
        isolation: isolate;
      }

      .cls-2, .cls-3, .cls-6, .cls-8 {
        opacity: .3;
      }

      .cls-2, .cls-14 {
        fill: #fdcd08;
      }

      .cls-3, .cls-9 {
        fill: #e3a138;
      }

      .cls-4, .cls-5 {
        fill: #c4a139;
      }

      .cls-5, .cls-9 {
        opacity: .2;
      }

      .cls-15 {
        fill: #e7b221;
      }

      .cls-6 {
        fill: #d38c62;
      }

      .cls-16 {
        fill: #ffd76c;
      }

      .cls-7 {
        opacity: .6;
      }

      .cls-17 {
        fill: #ebb21f;
      }

      .cls-8 {
        fill: #b6a037;
      }

      .cls-18 {
        fill: #97762c;
      }
    </style>
  </defs>
  <g class="cls-13">
    <g id="Layer_2" data-name="Layer 2">
      <g id="Layer_1-2" data-name="Layer 1">
        <g>
          <g>
            <g>
              <path class="cls-14" d="M220.18,90.11c-1.69-.28-7.2-.1-9.88.27-5.45.39-12.27-1.65-20.08-2.54-2.86-.33-5.71-.46-8.59-.12-2.82.34-5.46.98-8.32.7-5.67-.56-11.41-1.93-17.06-2.92-6.33-1.14-11.88-3.62-17.09-7.42-2.68-1.96-4.82-3.76-6.55-6.59-.41-.68-.83-1.36-1.31-1.99.22-1.17.91-2.32,1.54-3.25,1.27-1.89,3.38-3.24,5.35-4.25,4.7-2.4,9.65-1.23,14.19.82,2.47,1.13,5.35,1.6,7.97,2.31,2.74.75,5.66.47,8.47.93,12.81,2.07,24.35,8.62,36.19,13.55,6.01,2.51,12.96,3.69,18.56,7.04.97.59,2.52,1.84,3.3,3.14.74.76-1.67,1.48-6.71.33Z"/>
              <path class="cls-4" d="M205.21,84.79c-3.43-1.27-13.7-3.97-18.83-7.78-2.67-1.97-5.43-4.01-8.4-5.46-2.89-1.42-6.07-1.92-9.23-2.55-7.2-1.43-13.67-4.92-20.71-6.97-1.83-.54-3.82-1-5.84-1.26,3.45-.44,6.92.57,10.19,2.04,2.47,1.13,5.35,1.6,7.97,2.31,2.74.75,5.66.47,8.47.93,12.81,2.07,24.35,8.62,36.19,13.55,6.01,2.51,12.96,3.69,18.56,7.04,1.21.72,2.6,1.82,3.3,3.12.25.84-.87-.84-5.35-2-2.13-.55-4.94-.21-8.13-1.31-4.12-1.42-7.22-1.3-8.2-1.66Z"/>
              <path class="cls-9" d="M182.56,73.58c2.45,1.48,4.73,3.18,7.35,4.38,2.18.99,4.62.93,6.84,1.78,2.8,1.08,5.06,3.01,7.76,4.24,2.3,1.04,5.24,1.37,7.7,1.88,2.64.54,5.37.56,7.98,1.22,1.48.36,2.8.92,4.08,1.59-.74-.31-1.62-.62-2.73-.9-2.13-.55-4.94-.21-8.13-1.31-4.12-1.42-7.22-1.3-8.2-1.66-3.43-1.27-13.7-3.97-18.83-7.78-2.34-1.74-4.75-3.52-7.32-4.9,1.23.34,2.41.82,3.5,1.47Z"/>
              <path class="cls-8" d="M215.62,84.95c-2.93-.43-5.64-.94-8.4-2.1-4.37-1.83-8.44-4.27-12.74-6.28-1.82-.84-3.67-1.53-5.54-2.27-2.36-.92-4.41-2.27-6.7-3.29-3.86-1.72-8.23-3.26-12.36-4.27-2.03-.49-4.05-.66-6.12-.88-2.32-.25-4.3-.77-6.47-1.5,1.06.25,2.09.49,3.08.76,2.74.75,5.66.47,8.47.93,12.81,2.07,24.35,8.62,36.19,13.55,6.01,2.51,12.96,3.69,18.56,7.04.4.25.84.54,1.26.86-2.62-1.71-6.52-2.16-9.23-2.55Z"/>
              <path class="cls-4" d="M174.65,79.32c-1.43.26-3.52.11-4.78-.66-.76-.47-1.61-.2-2.46-.37-.84-.17-1.68-.48-2.53-.63-.19-.03-.16-.26,0-.3.56-.11,1.1-.02,1.66-.01.93.02,2.01-.15,2.89-.03.41.06.86.5,1.26.6.61.16,1.2.3,1.79.44.88.19,1.53.06,2.28.55.19.11.06.37-.12.4Z"/>
              <path class="cls-4" d="M155.29,74.96c-.92.77-2.9.07-3.89-.24-.96-.3-1.85-.79-2.78-1.07-.81-.23-1.27-1.38-2.02-1.43-.11,0-.14-.18-.03-.21.4-.15.63-.06,1.03.13.76.4,1.6.63,2.32,1.05,1.63.94,3.67.81,5.35,1.54.09.04.09.17.03.22Z"/>
              <path class="cls-2" d="M173.44,88.37c3.42-.59,6.4-2.45,9.77-3.11,3.98-.79,7.04,1.12,10.2,3.01-1.03-.16-2.09-.31-3.19-.43-2.86-.33-5.71-.46-8.59-.12-2.82.34-5.46.98-8.32.7-.03,0-.07-.01-.11-.01.09-.02.18-.02.24-.04Z"/>
              <path class="cls-9" d="M226.49,90.5c-1.22-1.13-3.38-1.49-4.93-1.77-.98-.2-2.02,0-3.02,0-1.92,0-3.23-.69-4.83-1.61-1.43-.82-2.88-1.33-4.47-1.47-3.98-1.27-7.99-1.95-12.17-2.31-2.98-.27-6.08-.58-8.79-1.94-2.22-1.12-3.97-2.63-5.82-4.29-3.03-2.74-5.82-4.12-9.95-3.81-3.01.22-5.21-.47-7.64-2.21-1.15-.84-2.32-1.66-3.64-2.22-2.15-.91-4.91-1.79-7.27-1.31-1.66.33-3.49,1.75-2.93,3.72.58,2.03,2.62,2.9,4.27,3.96-.31.16-.66.25-.99.31-1.88-.28-3.67-.95-5.5-1.46-1.62-.45-3.48-.96-5.19-.66-2.17.39-3.61,2.4-5.74,2.71-.38.07-.79.07-1.17.05-1.58-1.35-2.95-2.78-4.12-4.7-.41-.68-.83-1.36-1.31-1.99.22-1.17.91-2.32,1.54-3.25,1.27-1.89,3.38-3.24,5.35-4.25,4.7-2.4,9.65-1.23,14.19.82,2.47,1.13,5.35,1.6,7.97,2.31,2.74.75,5.66.47,8.47.93,12.81,2.07,24.35,8.62,36.19,13.55,6.01,2.51,12.96,3.69,18.56,7.04.97.59,2.52,1.84,3.3,3.14.26.27.12.54-.4.71Z"/>
            </g>
            <path class="cls-12" d="M133.29,38.69c1.91,1.58,4.33,2.33,6.55,3.37,2.07.95,4.15,2.1,5.74,3.76,1.34,1.4,2.04,3.06,3.18,4.59,1.03,1.37,2.6,2.82,3.08,4.48.59,2.05,1.24,5.01,1.29,7.15.03,1.37-1.41,2.53-2.13,3.71-.89,1.46-2.18,2.03-3.45,3.11-1.59,1.34-3.4,2.12-4.84,3.7-1.11,1.21-2,2.53-3.36,3.47-1.65,1.15-3.26,2.48-4.76,3.82-.85.75-1.67,1.64-2.56,2.4-.36.49-.72.89-1.03,1.22-1.51,1.48-3.03,2.68-4.3,4.41-1.26,1.69-2.17,3.4-4.2,4.29-3.1,1.36-7.45-.14-10.39-1.42-1.99-.88-3.91-1.86-5.76-2.96-2.05-1.23-4.33-2.16-6.31-3.46-1.81-1.19-3.77-2.19-5.61-3.33-1.7-1.05-3.17-2.5-4.7-3.76-1.89-1.54-3.98-2.51-6.12-3.64-.34-.18-.66-.36-1-.56-1.8-1.53-3.53-3.08-5.5-4.39-.99-.66-1.89-1.42-2.79-2.2-.72-.58-1.85-1.17-2.43-1.89-.75-.92-1.5-1.81-2.53-2.44-.21-.12-.55-.07-.65.17-.38.88-.5,1.79-.58,2.71-.8,2.58-1.57,5.16-2.53,7.66-.33.88-.69,1.75-1.01,2.62-.24.44-.47.89-.73,1.3-.16.27-.33.52-.5.78-.58.69-1.19,1.36-1.84,1.98-2.02,1.94-4.05,3.86-6.21,5.66-2.41,1.97-4.97,4.05-7.77,5.43-1.65.8-3.4,1.03-5.15,1.35-2.19-.56-3.53-1.28-4.67-3.49-.54-1.01-1.01-2.04-1.44-3.07-.51-1.6-1.02-3.17-1.25-4.87-.29-2.23-1.19-4.5-1.74-6.7-.55-2.16-.88-4.41-1.02-6.64-.13-2.17-.28-4.33-.42-6.51-.05-.81-.11-1.62-.07-2.42.02-.61-.02-1.18-.07-1.76-.38-1.59-.9-3.13-1.45-4.75-.92-2.68-1.49-5.31-4.1-6.88-1.76-1.05-3.67-1.82-5.47-2.82-2.41-1.34-4.5-3.15-6.61-4.92-2.02-1.69-4.53-1.99-6.74-3.4-2.27-1.45-3.3-3.13-4.49-5.48-.97-1.88-1.32-4.39-1.57-6.46-.23-2.17-1.47-4.32-1.25-6.53.15-1.41,1.86-.97,2.7-.7,2.76.88,4.3,2.14,6.29,4.13.74.75,2.62,1.82,3.63,2.09,1.11.28,2.4-.12,3.51-.38,2.34-.54,4.64.52,6.7,1.47,2.45,1.12,4.75,2.55,7.1,3.86,1.76,1,4.26,2.24,5.48,3.89.72.97,1.22,2.05,1.93,3.03.89,1.25,2.27,1.94,3.67,2.4,1.24.42,2.28,1.07,3.61,1.31.28.05.53.12.76.22-.26-.46-.52-.94-.75-1.41-1.07-2.1-2.03-4.12-3.57-5.94-1.12-1.29-2.24-2.2-2.87-3.83-.56-1.54-.34-3.31-.19-4.9.2-1.96.61-3.77,1.15-5.68.81-2.86-.04-4.83-1.92-6.98-.85-1-2.3-2.6-1.93-4,.15-.51.73-.78,1.14-1.04.9-.59,1.66-1.35,2.53-1.95,2.88-2.02,5.15.76,7.58,2.35,1.46.95,2.35,2.64,3.7,3.74,1.82,1.49,4.57,1.98,6.82,2.41,4.05.77,8.22.43,12.25,1.42t.03.01c.89.09,1.79.2,2.69.49,1.66.52,3.23,1.38,4.72,2.28,5.44,3.29,10.89,6.91,15.66,11.17,2.5,2.24,5.16,4.56,7.99,6.4,2.86,1.88,5.82,3.26,8.53,5.35,2.65,2.05,5.64,3.68,8.18,5.84.5.41.99.84,1.45,1.27.16-1.19.42-2.42.75-3.72.89-3.52,1.36-7,2.7-10.38.56-1.43,1.26-2.61,2.57-3.46.78-.51,1.75-.67,2.52-1.19.46-.3.9-.66,1.41-.83.27-.1.62-.04.78.22.59.85.5,2.09.54,3.08.07,1.84.13,4.07.58,5.85.54,2.07,1.16,4.27,2.85,5.69Z"/>
            <path class="cls-14" d="M151,65.76c-.89,1.46-2.18,2.03-3.45,3.11-1.59,1.34-3.4,2.12-4.84,3.7-1.11,1.21-2,2.53-3.36,3.47-1.65,1.15-3.26,2.48-4.76,3.82-.85.75-1.67,1.64-2.56,2.4-.36.49-.72.89-1.03,1.22-1.51,1.48-3.03,2.68-4.3,4.41-1.26,1.69-2.17,3.4-4.2,4.29-3.1,1.36-7.45-.14-10.39-1.42-1.99-.88-3.91-1.86-5.76-2.96-2.05-1.23-4.33-2.16-6.31-3.46-1.81-1.19-3.77-2.19-5.61-3.33-1.7-1.05-3.17-2.5-4.7-3.76-1.89-1.54-3.98-2.51-6.12-3.64-.34-.18-.66-.36-1-.56-1.8-1.53-3.53-3.08-5.5-4.39-.99-.66-1.89-1.42-2.79-2.2-.72-.58-1.85-1.17-2.43-1.89-.75-.92-1.5-1.81-2.53-2.44-.21-.12-.55-.07-.65.17-.38.88-.5,1.79-.58,2.71-.8,2.58-1.57,5.16-2.53,7.66-.33.88-.69,1.75-1.01,2.62-.24.44-.47.89-.73,1.3-.16.27-.33.52-.5.78-.58.69-1.19,1.36-1.84,1.98-2.02,1.94-4.05,3.86-6.21,5.66-2.41,1.97-4.97,4.05-7.77,5.43-1.65.8-3.4,1.03-5.15,1.35-1.19-.3-2.11-.67-2.92-1.28,9.67-3.34,10.65-16.97,13.48-25.56.97-2.97,1.93-6,1.6-9.17-.33-3.09-2.36-5.95-3.38-8.84-1.45-4.14-5.94-10.61-5.76-10.54-.26-.46-.52-.94-.75-1.41-1.07-2.1-2.03-4.12-3.57-5.94-1.12-1.29-2.24-2.2-2.87-3.83-.56-1.54-.34-3.31-.19-4.9.2-1.96.61-3.77,1.15-5.68.81-2.86-.04-4.83-1.92-6.98-.85-1-2.3-2.6-1.93-4,.15-.51.73-.78,1.14-1.04.9-.59,1.66-1.35,2.53-1.95,2.88-2.02,5.15.76,7.58,2.35,1.46.95,2.35,2.64,3.7,3.74,1.82,1.49,4.57,1.98,6.82,2.41,4.05.77,8.22.43,12.25,1.42t.03.01c.89.09,1.79.2,2.69.49,1.66.52,3.23,1.38,4.72,2.28,5.44,3.29,10.89,6.91,15.66,11.17,2.5,2.24,5.16,4.56,7.99,6.4,2.86,1.88,5.82,3.26,8.53,5.35,2.65,2.05,5.64,3.68,8.18,5.84.5.41.99.84,1.45,1.27.16-1.19.42-2.42.75-3.72.89-3.52,1.36-7,2.7-10.38.56-1.43,1.26-2.61,2.57-3.46.78-.51,1.75-.67,2.52-1.19.46-.3.9-.66,1.41-.83.27-.1.62-.04.78.22.59.85.5,2.09.54,3.08.07,1.84.13,4.07.58,5.85.54,2.07,1.16,4.27,2.85,5.69,1.91,1.58,4.33,2.33,6.55,3.37,2.07.95,4.15,2.1,5.74,3.76,1.34,1.4,2.04,3.06,3.18,4.59,1.03,1.37,2.6,2.82,3.08,4.48.59,2.05,1.24,5.01,1.29,7.15.03,1.37-1.41,2.53-2.13,3.71Z"/>
            <path class="cls-7" d="M123.32,89.77c-.87,1.25-1.73,2.05-2.85,2.92-1.78,1.4-9.77-2.46-10.38-2.9,1.64-.17,4.11-.87,5.62-1.97,1.11-.81,1.94-1.83,2.75-2.94,1.14-1.54,2.62-1.1,3.99-1.99.67-.44.88-1.57.78-2.29-.06-.34-.11-.68-.17-1.01.14-.17.26-.36.37-.58.72-1.51.48-3.04.28-4.64-.34-2.79-.03-4.88,1.81-6.77-.08,2.51.45,4.77,1.3,6.95.25,1.96.42,3.91.21,5.89-.35,3.15-1.94,6.72-3.71,9.33Z"/>
            <path class="cls-1" d="M88.8,22.36c-2.61-2.05-5.57-3.54-8.28-5.48-1.41-1.02-3.25-2.89-5.24-2.37-1.87.51-3.07-.12-4.83-.44-.74-.14-1.78.1-2.4.5-1,.62-1.63,1.57-1.23,2.8.61,1.83,1.89,3.3,2.65,5.07.7,1.63,1.35,3.27,2.08,4.87-.99-1.31-1.92-2.69-3.12-3.83-2.16-2.07-4.25-4.25-6.42-6.31-3.86-3.66-8.8-4.71-14.02-4.87-2.06-.08-3.66-.28-4.67-2.34-.37-.74-.68-1.65-1.25-2.25-.65-.67-1.9-1.51-2.89-1-.71.36-1.07,1.01-1.26,1.78-.2-.27-.43-.54-.67-.81-.85-1-2.3-2.6-1.93-4,.15-.51.73-.78,1.14-1.04.9-.59,1.66-1.35,2.53-1.95,2.88-2.02,5.15.76,7.58,2.35,1.46.95,2.35,2.64,3.7,3.74,1.82,1.49,4.57,1.98,6.82,2.41,4.05.77,8.22.43,12.25,1.42t.03.01c.89.09,1.79.2,2.69.49,1.66.52,3.23,1.38,4.72,2.28,5.38,3.25,10.75,6.81,15.46,11-1.19-.54-2.35-1.2-3.45-2.04Z"/>
            <path class="cls-1" d="M49.35,28.84c-.52-1.86-.96-4.25-2.11-5.86-1.54-2.16-5.2-4.31-5.87-7.14.4.65.84,1.23,1.39,1.65,2.36,1.83,5.65.69,8.02,2.27,4.06,2.72.78,9.17-.5,13.51-.21-1.5-.52-2.98-.93-4.43Z"/>
            <path class="cls-9" d="M151,65.76c-.89,1.46-2.18,2.03-3.45,3.11-1.59,1.34-3.4,2.12-4.84,3.7-1.11,1.21-2,2.53-3.36,3.47-1.65,1.15-3.26,2.48-4.76,3.82-.85.75-1.67,1.64-2.56,2.4-.36.49-.72.89-1.03,1.22-1.51,1.48-3.03,2.68-4.3,4.41-1.26,1.69-2.17,3.4-4.2,4.29-3.1,1.36-7.45-.14-10.39-1.42-.08-.03-.16-.07-.24-.1h0c4.45-1.63,10.2-4.61,11.25-9.31,1.14-5.12-3.29-7.24-6.03-10.64-2.14-2.68-1.53-5.56-2.11-8.65-.44-2.33-1.82-4.08-3.55-5.66-4.49-4.04-9.96-6.6-15.18-9.53-5.53-3.13-11.19-6.12-16.61-9.4-5.72-3.46-9.99-7.55-13.64-13.12-2.73-4.16-5.57-8.67-10.08-11.09-2.85-1.53-6.09-2.05-8.98-3.5-1.28-.65-2.33-1.46-3.33-2.34-.46-.59-.93-1.15-1.47-1.66-.57-.52-1.29-1.12-2.09-1.67-.08-.07-.16-.13-.24-.2-.89-.76-1.77-1.35-2.66-1.77.61-.47,1.21-.99,1.83-1.42,2.88-2.02,5.15.76,7.58,2.35,1.46.95,2.35,2.64,3.7,3.74,1.82,1.49,4.57,1.98,6.82,2.41,4.05.77,8.22.43,12.25,1.42t.03.01c.89.09,1.79.2,2.69.49,1.66.52,3.23,1.38,4.72,2.28,5.44,3.29,10.89,6.91,15.66,11.17,2.5,2.24,5.16,4.56,7.99,6.4,2.86,1.88,5.82,3.26,8.53,5.35,2.65,2.05,5.64,3.68,8.18,5.84.5.41.99.84,1.45,1.27.16-1.19.42-2.42.75-3.72.89-3.52,1.36-7,2.7-10.38.56-1.43,1.26-2.61,2.57-3.46.78-.51,1.75-.67,2.52-1.19.46-.3.9-.66,1.41-.83.27-.1.62-.04.78.22.59.85.5,2.09.54,3.08.07,1.84.13,4.07.58,5.85.54,2.07,1.16,4.27,2.85,5.69,1.91,1.58,4.33,2.33,6.55,3.37,2.07.95,4.15,2.1,5.74,3.76,1.34,1.4,2.04,3.06,3.18,4.59,1.03,1.37,2.6,2.82,3.08,4.48.59,2.05,1.24,5.01,1.29,7.15.03,1.37-1.41,2.53-2.13,3.71Z"/>
            <path class="cls-18" d="M41.5,2.05c-.84.69-1.68,1.79-2.7,2.23-.8.35-1.41.46-1.99,1.14-.32.42-.26,1-.08,1.64-.81-.97-1.7-2.24-1.4-3.37.15-.51.73-.78,1.14-1.04.9-.59,1.66-1.35,2.53-1.95,2.04-1.42,3.78-.45,5.46.79-1.06-.26-2.01-.22-2.96.55Z"/>
            <path class="cls-16" d="M39.94,16.77c.17-.51,1.04-4.69,1.2-5.2.09.35.14,5.02.28,5.37.82,2.19,3.32,2.51,4.7,4.39,1.55,2.11,2.07,4.64,3.15,7.05,1.11,2.48.97,5.71,2.12,8.17,2.54,5.42,5.57,11.05,9.17,15.85,1.71,2.28,3.57,4.39,5.49,6.47.98,1.06,1.87,2.2,2.77,3.32-.05.04-.08.07-.1.13-.38.88-.5,1.79-.58,2.71-.8,2.58-1.57,5.16-2.53,7.66-.33.88-.69,1.75-1.01,2.62-.24.44-.47.89-.73,1.3-.16.27-.33.52-.5.78-.58.69-1.19,1.36-1.84,1.98-2.02,1.94-4.05,3.86-6.21,5.66-2.41,1.97-4.97,4.05-7.77,5.43-1.65.8-3.4,1.03-5.15,1.35-1.19-.3-2.11-.67-2.92-1.28,9.67-3.34,10.65-16.97,13.48-25.56.97-2.97,1.93-6,1.6-9.17-.33-3.09-2.36-5.95-3.38-8.84-1.45-4.14-2.42-7.47-3.63-10.16-1.67-4.65-5.6-7.31-6.63-10.11-1.21-3.3-2.08-6.46-.97-9.92Z"/>
            <path class="cls-1" d="M54.37,44.8c-1.57-2.21-3.03-4.52-3.81-7.13-.67-2.24-1.1-4.57-1.84-6.79-.71-2.06-1.65-3.89-3.06-5.59-1.77-2.12-3.53-4.12-4.01-6.95-.07-.41-.11-.8-.15-1.19.89,1.98,3.28,2.36,4.61,4.18,1.55,2.11,2.07,4.64,3.15,7.05,1.11,2.48.97,5.71,2.12,8.17,2.19,4.69,4.74,9.52,7.73,13.85-1.7-1.77-3.33-3.6-4.75-5.6Z"/>
            <path class="cls-1" d="M68.14,65.03c-.8,2.58-1.57,5.16-2.53,7.66-.33.88-.69,1.75-1.01,2.62-.24.44-.47.89-.73,1.3-.16.27-.33.52-.5.78-.58.69-1.19,1.36-1.84,1.98-2.02,1.94-4.05,3.86-6.21,5.66-.03.02-.07.04-.09.07-.98-.46-.57-2.28.04-3.34.85-1.47,2.12-2.88,2.59-4.54.48-1.72.54-3.44.6-5.23.08-2.26.71-4.24,1.08-6.44.35-2.02.16-3.88-.18-5.73-.03-.32-.07-.63-.13-.95-.1-.51-.22-1.02-.35-1.53-.17-.77-.32-1.56-.44-2.37-.19-1.24-.38-2.56-.83-3.77-.18-1.46-.41-2.91-.72-4.31,1.15,1.91,2.38,3.76,3.69,5.49,1.71,2.28,3.57,4.39,5.49,6.47.98,1.06,1.87,2.2,2.77,3.32-.05.04-.08.07-.1.13-.38.88-.5,1.79-.58,2.71Z"/>
            <path class="cls-1" d="M68.14,65.03c-.8,2.58-1.57,5.16-2.53,7.66-.33.88-.69,1.75-1.01,2.62-.24.44-.47.89-.73,1.3-.16.27-.33.52-.5.78-.58.69-1.19,1.36-1.84,1.98-1.59,1.54-3.22,3.06-4.91,4.52,1.86-2.85,5.37-4.61,6.22-8.05.27-1.07-.04-2.13-.09-3.18-.06-1.31.14-2.53.58-3.76.5-1.44,1.28-3.14,1.01-4.73-.38-2.15-1.58-3.93-2.42-5.91-.97-2.19-1.82-4.54-2.5-6.84-.11-.35-.19-.69-.28-1.05.47.7.95,1.36,1.44,2.02,1.71,2.28,3.57,4.39,5.49,6.47.98,1.06,1.87,2.2,2.77,3.32-.05.04-.08.07-.1.13-.38.88-.5,1.79-.58,2.71Z"/>
            <path class="cls-16" d="M151,65.75c-.89,1.45-2.19,2.03-3.45,3.1-1.59,1.36-3.4,2.13-4.84,3.72-1.11,1.2-2,2.51-3.36,3.46-1.66,1.16-3.25,2.48-4.76,3.81-.85.76-1.68,1.66-2.58,2.41-.35.47-.71.9-1.02,1.21-1.49,1.5-3.04,2.7-4.3,4.42-2.09,2.81-2.06,3.36-4.19,4.3-1.17.51-2.51.62-3.89.48.69-.18,1.34-.41,2-.63.19-.08.41-.32.64-.71,2.49-2.02,4.44-5.46,5.26-8.41,1.04-3.72-.15-8.14-1.36-11.8.07-1.12.12-2.26,0-3.36.02-.73,0-1.43-.11-2.15-.19-1.2-.65-2.02-1.35-2.99-.99-1.36-.74-2.7-1.26-4.17-.7-2.01-2.09-3.51-3.18-5.22-.04-.13-.92-1.99-.96-2.11-1.15-3.28.09-7.87.29-7.69.15-1.19.42-2.43.75-3.73.9-3.51,1.36-6.99,2.7-10.37.55-1.43,1.26-2.6,2.56-3.46.8-.51,1.74-.67,2.51-1.19.46-.29.91-.65,1.42-.83.27-.1.6-.04.78.21.58.85.49,2.1.53,3.08.08,1.84.13,4.07.6,5.84.53,2.07,1.14,4.27,2.84,5.68,1.91,1.59,4.33,2.34,6.53,3.36,2.08.97,4.17,2.11,5.76,3.77,1.33,1.42,2.03,3.07,3.18,4.59,1.03,1.37,2.59,2.82,3.07,4.5.6,2.05,1.23,5.01,1.3,7.14.04,1.38-1.41,2.54-2.13,3.71Z"/>
            <path class="cls-11" d="M19.42,30.97c-3.62-2.21-7.27-4.25-11.08-6.09-1.34-.64-2.86-1.85-3.87-2.9-.71-.73-1.34-1.43-1.86-2.29-.5-.81-.64-1.79-1.16-2.6-.03-.06.05-.18.11-.1,1.19,1.22,1.8,2.81,3.05,4.04,1.44,1.42,3.29,2.57,5.09,3.51,3.45,1.84,6.81,3.8,9.89,6.2.15.12-.02.33-.18.23Z"/>
            <path class="cls-11" d="M46.79,61.81c-.39-6.24-3.91-11.29-8-15.78-1.84-2.03-3.79-3.82-5.8-5.66-1.1-1.01-2.58-1.72-3.85-2.48-.57-.33-1.25-.52-1.82-.81-.66-.35-1.09-.92-1.75-1.26-.12-.06-.05-.19.06-.17,1.3.39,2.51,1.06,3.83,1.48,1.21.37,2.62,1.27,3.68,2.01,2.47,1.71,4.51,4.04,6.57,6.21,3.87,4.04,8.78,10.45,7.41,16.48-.05.17-.32.2-.33-.01Z"/>
            <g>
              <path class="cls-4" d="M81.58,52.34c-.22-.17-.28-.26-.35-.51-1.35-2.14-1.81-4.78-2.51-7.18-.05-.17.19-.27.27-.1.49,1.22.95,2.47,1.42,3.72.4,1.11,1.02,2.56,1.8,3.45.34.41-.24.92-.63.62Z"/>
              <path class="cls-4" d="M83.74,53.11c-1.85-3.38-3.54-7.12-4.36-10.89-.07-.34.43-.38.5-.07.94,3.78,2.91,7.19,4.59,10.67h0c.16.45-.47.76-.72.29Z"/>
              <path class="cls-4" d="M84.75,47.83c-.2-.58-.4-1.18-.58-1.79.2.76.42,1.53.67,2.27.38,1.04,1.3,2.63,1.08,3.79-.06.32-.5.48-.69.18-1.94-3.04-2.79-6.71-4.2-10-.16-.36.4-.58.57-.23.86,1.95,1.54,4.04,2.37,6.04-.08-.23-.16-.47-.23-.7-.47-1.76-.92-3.5-1.12-5.3-.04-.46.58-.59.76-.2.84,1.8,1.41,3.82,1.97,5.72.11.38-.45.61-.59.23Z"/>
              <path class="cls-4" d="M87.57,48.23c-.55-1.02-.96-2.07-1.38-3.13-.34-.83-.61-1.79-1.07-2.59-.14.01-.32-.12-.28-.31.02-.08.04-.15.06-.23.06-.25.34-.31.51-.12.55.61.8,1.55,1.15,2.31.55,1.26,1.07,2.54,1.51,3.86.11.33-.34.5-.49.21Z"/>
              <path class="cls-4" d="M110.16,73.78c-.92-1.52-1.68-3.15-2.53-4.71-.11-.21.22-.41.34-.21.92,1.54,1.81,3.09,2.64,4.67.14.26-.3.52-.45.25Z"/>
              <path class="cls-4" d="M112.64,77.35c-.95-1.24-1.34-2.76-1.77-4.23-.56-1.94-1.05-3.91-1.49-5.88-.05-.29.39-.34.47-.05.81,3.33,1.6,6.87,3.28,9.89.17.3-.29.51-.48.27Z"/>
              <path class="cls-4" d="M113.2,74.32c-1.05-1.98-1.23-4.24-2.24-6.24-.12-.24.28-.48.42-.23,1.1,1.96,1.41,4.22,2.29,6.27.12.3-.33.47-.47.19Z"/>
              <path class="cls-4" d="M114.35,74.21c-1.46-2.47-2.07-5.42-2.79-8.15-.12-.37.4-.74.61-.36.04.05.06.1.09.14.05.08.06.15.06.22.73,2.67,1.64,5.27,2.5,7.9.09.27-.3.54-.47.25Z"/>
              <path class="cls-4" d="M115.15,73.2c-1.13-2.15-1.58-4.61-2.14-6.96-.1-.43.57-.51.68-.09.58,2.32,1.36,4.54,1.99,6.84.1.35-.35.54-.53.21Z"/>
              <path class="cls-4" d="M115.45,70.5c-.39-.92-.74-1.84-.95-2.82-.01-.01-.02-.01-.03-.02-.16-.38-.18-.82-.28-1.21-.01-.01-.02-.01-.02-.01-.14-.18-.15-.26-.11-.49.05-.32.49-.37.6-.07.21.49.19,1.05.4,1.54.01.03.02.05.02.09.22.95.51,1.88.8,2.82.09.29-.31.47-.44.18Z"/>
              <path class="cls-4" d="M116.89,72.22c-.4-.95-.71-1.93-1.01-2.9-.33-1-.44-2.05-.82-3.02-.17-.45.52-.72.68-.27.39.99.49,2.03.8,3.03.31,1.01.58,2.03.84,3.04.08.3-.38.4-.49.13Z"/>
            </g>
            <path class="cls-4" d="M132.6,74.97c-.13.13-.36-.04-.22-.18,1.42-1.59,1.98-3.32,2.85-5.2.08-.22.36-.07.3.13-.6,2.02-1.45,3.74-2.93,5.25Z"/>
            <path class="cls-4" d="M133.78,67.64c-.14.18-.46,0-.34-.21.4-.67.66-1.39,1.02-2.06.09-.23.5-.14.42.13-.2.81-.58,1.5-1.09,2.15Z"/>
            <path class="cls-4" d="M133.34,60.38c-.08.21-.41.08-.32-.16.18-.43.31-.9.4-1.37.03-.18.32-.14.31.05-.06.52-.19,1-.39,1.48Z"/>
            <path class="cls-4" d="M132.83,78.15c-.17.32-.39.57-.67.82-.1.09-.29-.06-.23-.18.14-.29.33-.55.48-.82.15-.24.56-.09.41.18Z"/>
            <path class="cls-4" d="M133.84,71.88c-.26.53-.55,1.17-1.07,1.48-.08.05-.14-.04-.08-.1.45-.43.71-1.22.98-1.76.35-.71.62-1.47.91-2.2.08-.17.31-.06.26.12-.26.86-.59,1.67-1,2.47Z"/>
            <path class="cls-4" d="M133.83,66.13c-.08.08-.26,0-.19-.14.26-.49.48-1.02.76-1.51.07-.13.24-.05.21.09-.2.54-.39,1.11-.78,1.55Z"/>
            <path class="cls-4" d="M150.95,58.04c-.36-1.92-1.43-3.68-2.59-5.17-.67-.86-1.07-1.84-1.32-2.88-.91-3.82-3.58-5.68-6.91-7.39-.13-.05-.04-.23.08-.19,2.96.94,5.87,2.73,7.02,5.79.3.86.32,1.81.55,2.68.28,1.05,1.14,1.86,1.75,2.7.9,1.24,1.39,2.96,1.6,4.45.03.11-.14.14-.17.03Z"/>
            <g>
              <path class="cls-4" d="M74.76,30.92c-.93-.82-2.19-1.98-3.3-2.58-1.37-.74-1.92-1.59-2.68-2.95-.96-1.63-2.54-2.92-3.64-4.46-1.31-1.83-2.85-3.86-4.55-5.34-3.15-2.73-8.22-1.85-11.63-4.2-.79-.55-1.45-1.26-2.14-1.94-.69-.68-1.76-.72-2.52-1.3-1.22-.92-1.58-2.71-2.19-4-.06-.11.09-.16.16-.1,1.47,1.57,1.84,3.14,4.04,3.94,1.89.69,2.99,2.68,4.94,3.47,3.49,1.41,7.5,1.06,10.49,3.65,1.34,1.17,2.49,2.88,3.46,4.35,1.08,1.61,2.38,3.06,3.64,4.55.42.51.7,1.38,1.01,1.98.55,1.13,1.45,1.33,2.31,2.02.93.75,2.32,1.64,2.89,2.72.08.15-.15.32-.29.19Z"/>
              <path class="cls-17" d="M137.75,73.36c-.89,1.22-1.62,2.52-2.37,3.83-.07.12-.23.05-.2-.09.63-2.13,1.89-4.03,2.93-5.99.9-1.69.36-3.72.22-5.54-.11-1.62-.29-3.22-.59-4.82-1.08-5.72-6.05-9.45-7.41-15.08-.03-.12.16-.16.2-.05,1.1,2.89,3.15,5.82,5.27,8.09,1.86,1.99,2.7,4.87,3.22,7.5.3,1.63.38,3.27.5,4.93.11,1.35.44,2.69.03,4.02-.39,1.25-1.05,2.12-1.79,3.19Z"/>
              <path class="cls-4" d="M70.7,63.22c-1.63-1.22-3.4-1.75-4.82-3.36-1.97-2.24-3.89-4.55-5.78-6.88-3.57-4.45-6.38-9.11-8.62-14.36-1.12-2.61-1.25-5.4-2.13-8.06-.45-1.38-.65-2.78-1.28-4.15-.59-1.27-.52-2.65-1.46-3.78-1.44-1.75-3.93-2.48-5.03-4.49-1.31-2.37-.46-5.13-.54-7.68,0-.2.26-.29.34-.09.34.93-.37,5.01.69,6.75.78,1.28,2.85,2.36,3.87,3.05.72.49,1.67,1.52,2.1,2.31.52.95.74,2,1.02,3.04.31,1.18.93,2.25,1.21,3.45.67,2.85,1.08,5.85,2.1,8.59,1.99,5.39,4.99,10.35,8.57,14.82,1.76,2.2,3.67,4.3,5.39,6.53,1.3,1.66,3.25,2.56,4.47,4.24.04.07-.03.16-.1.09Z"/>
              <path class="cls-15" d="M126.92,83.35c-.37,1.3-.84,2.52-1.51,3.68-.88,1.53-2.15,3.38-3.45,4.57-.66.59-1.33,1.4-2.29,1.39-1.46-.02-2.56-.32-3.95-.65-.08-.01-.11-.15,0-.16,1.15,0,2.32.05,3.46.06,1.32,0,2.54-2.05,3.15-3.03.49-.81,1.16-1.47,1.68-2.27.85-1.35,1.38-2.83,1.82-4.38.46-1.63,1.02-3.01.52-4.72-.31-1.04-.71-2.03-.91-3.08-.27-1.35-.6-2.68-.68-4.04-.06-1.38.19-2.75.05-4.13-.25-2.45-2.5-3.96-2.69-6.42-.18-2.77-1.6-4.27-2.94-6.5-1.21-2.01-1.66-3.71-1.76-6.06-.09-2.26,1.01-4.36,1.68-6.45.01-.03.07-.02.06.01-.59,2.7-.92,5.57-.56,8.3.32,2.62,2.3,4.13,3.47,6.28.52.97.93,1.89,1.2,2.95.21.84.03,1.65.32,2.51.25.79,1.04,1.63,1.48,2.38,1.48,2.46.89,4.99,1.02,7.7.12,2.77,1.63,5.29,1.81,8.01.08,1.33-.62,2.79-.97,4.05Z"/>
            </g>
            <path class="cls-9" d="M118.41,48.66c1.21,2.59,2.93,4.21,5.02,6.09,2.82,2.52,3.62,5.11,2.75,8.81-.46,1.93-1.27,4.32-.58,6.29,1,2.95,4.98,3.99,5.03,7.27.06,3.84-2.19,7.36-4.8,10.03-.83.84-1.73,1.55-2.67,2.21,1.57-1.92,2.76-4.31,3.36-6.45,1.04-3.72-.15-8.14-1.36-11.8.07-1.12.12-2.26,0-3.36.02-.73,0-1.43-.11-2.15-.19-1.2-.65-2.02-1.35-2.99-.99-1.36-.74-2.7-1.26-4.17-.7-2.01-2.09-3.51-3.18-5.22-.04-.13-.92-1.99-.96-2.11-.43-1.22-.52-2.6-.47-3.86.17.48.35.94.57,1.41Z"/>
            <path class="cls-3" d="M151,65.75c-.89,1.45-2.19,2.03-3.45,3.1-1.59,1.36-3.4,2.13-4.84,3.72-1.11,1.2-2,2.51-3.36,3.46-1.66,1.16-3.25,2.48-4.76,3.81-.55.49-1.08,1.03-1.64,1.55.96-1.82,1.9-3.66,3.11-5.34,1-1.38,2.18-2.91,2.32-4.69.14-1.83.23-3.67.27-5.5.07-3.57-.18-7.09-2.04-10.24-2.17-3.66-5.04-6.98-7.51-10.46-3.02-4.2-5.27-8.47-3.35-13.76.71-1.98,1.78-3.84,2.43-5.83.15-.47.31-1.12.18-1.67.06-.02.11-.05.17-.06.27-.1.6-.04.78.21.58.85.49,2.1.53,3.08.08,1.84.13,4.07.6,5.84.53,2.07,1.14,4.27,2.84,5.68,1.91,1.59,4.33,2.34,6.53,3.36,2.08.97,4.17,2.11,5.76,3.77,1.33,1.42,2.03,3.07,3.18,4.59,1.03,1.37,2.59,2.82,3.07,4.5.6,2.05,1.23,5.01,1.3,7.14.04,1.38-1.41,2.54-2.13,3.71Z"/>
            <path class="cls-6" d="M151,65.75c-.39.63-.86,1.1-1.35,1.51.22-.51.48-1,.77-1.47.55-.88,1.17-1.84,1.43-2.85.49-1.86-.35-2.73-1.06-4.33-.77-1.75-.04-3.51-1.42-5-.74-.78-1.63-1.4-2.35-2.17-.97-1.02-1.14-2.23-1.74-3.39-1.71-3.25-4.74-4.24-8.2-4.67-1.3-.15-2.86-.2-4.3-.47-1.77-.54-3.26-1.5-3.97-3.62-.87-2.69-.49-5.02.11-7.65.35-1.67,1.29-5.16.52-7.3.42.84.36,1.93.39,2.82.08,1.84.13,4.07.6,5.84.53,2.07,1.14,4.27,2.84,5.68,1.91,1.59,4.33,2.34,6.53,3.36,2.08.97,4.17,2.11,5.76,3.77,1.33,1.42,2.03,3.07,3.18,4.59,1.03,1.37,2.59,2.82,3.07,4.5.6,2.05,1.23,5.01,1.3,7.14.04,1.38-1.41,2.54-2.13,3.71Z"/>
            <path class="cls-4" d="M117.86,48.66c.48,3.84,2.91,6.82,4.35,10.3-.41-.47-.83-.93-1.3-1.37-2-1.94-4.69-4.13-5.53-6.91-.61-2.02-.22-4.1-1.52-5.88-1.51-2.06-4.27-3.73-6.34-5.16-2.83-1.99-5.72-3.89-8.6-5.83-5.86-3.92-11.76-7.83-17.19-12.36-2.26-1.9-4.6-3.97-7.31-5.2-2.72-1.23-5.6-1.85-8.56-2.15-3.75-.4-7.52-.47-11.24-1.21-2.88-.56-6.13-1.1-8.58-2.89-2.06-1.52-2.95-4.22-5.17-5.51-1.47-.86-3.66.06-4.99.79-.1.05-.18.12-.27.18-.29-.58-.46-1.19-.3-1.77.15-.51.73-.78,1.14-1.04.9-.59,1.66-1.35,2.53-1.95,2.88-2.02,5.15.76,7.58,2.35,1.46.95,2.35,2.64,3.7,3.74,1.82,1.49,4.57,1.98,6.82,2.41,4.05.77,8.22.43,12.25,1.42t.03.01c.89.09,1.79.2,2.69.49,1.66.52,3.23,1.38,4.72,2.28,5.44,3.29,10.89,6.91,15.66,11.17,2.5,2.24,5.16,4.56,7.99,6.4,2.86,1.88,5.82,3.26,8.53,5.35,2.65,2.05,5.64,3.68,8.18,5.84.38.32.74.63,1.08.95-.39,1.85-.6,3.7-.37,5.54Z"/>
            <path class="cls-5" d="M47.33,83.58c-.86,1.61-1.84,3.29-3.23,4.47-1.17,1.01-2.55,1.52-3.89,2.15-3.04-4.23-2.92-10.11-2-15.05.52-2.9,1.13-5.82,2.14-8.59.85-2.32,1.77-4.61,2.13-7.08.62-4.31-2.11-8.48-4.52-11.8-1.34-1.83-2.94-3.52-4.75-4.86-2-1.51-4.35-2.39-6.36-3.88-3.89-2.88-7.13-6.78-12.02-7.99-2.35-.59-5.11-.79-7.19-2.12-2.7-1.73-4.13-4.65-5.13-7.61-.58-1.75-.68-5.16-2.04-6.87.59-.41,1.66-.12,2.28.06,2.76.88,4.3,2.14,6.29,4.13.74.75,2.62,1.82,3.63,2.09,1.11.28,2.4-.12,3.51-.38,2.34-.54,4.64.52,6.7,1.47,2.45,1.12,4.75,2.55,7.1,3.86,1.76,1,4.26,2.24,5.48,3.89.72.97,1.22,2.05,1.93,3.03.89,1.25,2.27,1.94,3.67,2.4,1.24.42,2.28,1.07,3.61,1.31.24.03.48.11.69.21.85,1.01,1.6,2.05,2.24,3.17,1.89,3.31,3.3,6.86,5.12,10.19.37.68.79,1.41,1.17,2.15.74,2.79,1.3,5.51.59,8.6-.8,3.54-2.2,6.9-3.12,10.42-1.11,4.2-1.95,8.76-4,12.64Z"/>
            <path class="cls-5" d="M51.33,70.94c-1.08,4.09-1.91,8.53-3.85,12.33.18-4.2-.37-8.41-.33-12.64.05-4.76.52-9.59-1.14-14.17-1.61-4.37-4.39-8.65-7.36-12.21-1.61-1.92-3.38-3.77-5.48-5.14-2.17-1.41-4.57-2.41-6.73-3.87-4.36-2.94-8.35-6.14-13.25-8.18-2.63-1.11-5.79-2.23-7.83-4.32-1.23-1.28-2.17-2.75-3.02-4.29-.24-.44-.5-.94-.74-1.45-.26-1.02-.6-1.98-1.14-2.66.59-.41,1.66-.12,2.28.06,2.76.88,4.3,2.14,6.29,4.13.74.75,2.62,1.82,3.63,2.09,1.11.28,2.4-.12,3.51-.38,2.34-.54,4.64.52,6.7,1.47,2.45,1.12,4.75,2.55,7.1,3.86,1.76,1,4.26,2.24,5.48,3.89.72.97,1.22,2.05,1.93,3.03.89,1.25,2.27,1.94,3.67,2.4,1.24.42,2.28,1.07,3.61,1.31.24.03.48.11.69.21.85,1.01,1.6,2.05,2.24,3.17,1.89,3.31,3.3,6.86,5.12,10.19.37.68.79,1.41,1.17,2.15.74,2.79,1.3,5.51.59,8.6-.8,3.54-2.2,6.9-3.12,10.42Z"/>
            <path class="cls-5" d="M51.05,56.16c.24-2.41.27-4.27-.53-6.58-.7-2.02-1.51-4.07-2.68-5.87-1.89-2.95-4.69-6.55-8.54-6.51-1.58,0-4,.09-4.4-1.9-.14-.76-.15-1.51-.25-2.26-.19-1.28-.67-2.4-1.65-3.27-1.43-1.26-3.07-2.15-4.7-3.11-1.95-1.15-3.73-2.45-5.82-3.37-1.32-.6-2.91-1.1-4.38-.83-2.1.4-4.81,2.22-6.84.82-1.97-1.35-2.72-4.27-4.07-6.43.61.49,1.18,1.05,1.83,1.68.74.75,2.62,1.82,3.63,2.09,1.11.28,2.4-.12,3.51-.38,2.34-.54,4.64.52,6.7,1.47,2.45,1.12,4.75,2.55,7.1,3.86,1.76,1,4.26,2.24,5.48,3.89.72.97,1.22,2.05,1.93,3.03.89,1.25,2.27,1.94,3.67,2.4,1.24.42,2.28,1.07,3.61,1.31.24.03.48.11.69.21.85,1.01,1.6,2.05,2.24,3.17,1.89,3.31,3.3,6.86,5.12,10.19.37.68.79,1.41,1.17,2.15.74,2.79,1.3,5.51.59,8.6-.36,1.62-.86,3.21-1.37,4.78-1.4-2.84-2.36-5.82-2.03-9.14Z"/>
          </g>
          <g>
            <path class="cls-10" d="M173,87.25c-1.8.06-3.48-.32-5.2-.77-2.17-.58-4.45-.6-6.64-1.21-3.95-1.1-8.07-1.54-12-2.62-.65-.18-1.31-.24-1.95-.43-.89-.26-1.4-.72-2.25-1.19-1.54-.87-2.73-2.18-4.07-3.3-.14-.12,0-.37.18-.28,1.19.59,2.35,1.39,3.43,2.16,1.55,1.1,3.02,1.52,4.82,1.98,3.53.92,7.22,1.23,10.74,2.22,1.77.49,3.46.91,5.26,1.13,1.99.25,3.89,1,5.86,1.15,2.32.21,4.42-.13,6.61-.92,1.45-.53,2.9-1.22,4.42-1.57.15-.03.22.2.09.27-2.6,1.92-6.05,3.26-9.29,3.36Z"/>
            <path class="cls-10" d="M221.81,89.3c-1.01.12-1.98-.25-2.97-.16-1.26.16-2.25.16-3.48-.13-1.12-.27-2.16-.91-3.25-1.27-1.39-.44-2.77-.91-4.16-1.35-1.45-.49-2.92-.93-4.39-1.3-1.55-.39-2.96.25-4.48.25-2.38-.01-5.12-.43-7.36-1.23-.16-.06-.08-.3.07-.26,1.14.19,2.33.21,3.49.29,1.77.12,3.78.56,5.49.04,2.1-.62,4.27.38,6.26.96,2.41.69,5.2,1.5,7.37,2.78,1.36.8,2.85.84,4.36.68,1.02-.09,2.04.19,3.06.28.24.02.23.4,0,.43Z"/>
            <path class="cls-10" d="M126.74,57.54c-1.18-1.53-2.47-2.91-3.84-4.27-.98-1-2.14-1.71-3.02-2.81-1.81-2.28-.95-5.76-.26-8.28.75-2.77,2.12-5.76,1.99-8.65-.1-2.39,1.39-5.35,3.42-6.56.12-.07.23.08.12.17-1.24,1.02-1.69,2.1-2.33,3.49-.68,1.52-.33,3.11-.73,4.64-.25.96-.38,2-.63,2.98-.35,1.37-.84,2.65-1.05,4.06-.55,3.58-1.64,6.5,1.65,9.2,2,1.6,3.79,3.56,4.87,5.9.07.13-.12.24-.21.13Z"/>
            <path class="cls-10" d="M93.3,76.83c1.26,1.04,2.49,2.12,3.81,3.1,1.47,1.08,3.19,1.77,4.66,2.83,1.53,1.11,3.04,2.23,4.61,3.33.61.44,1.22.9,1.86,1.33.74.5,1.53.67,2.24,1.17.1.07,0,.2-.08.16-1.19-.56-2.37-.63-3.53-1.35-1.57-.99-3.35-1.87-4.75-3.09-1.36-1.17-3.11-1.88-4.63-2.84-1.56-1.01-3.08-2.14-4.43-3.43-1.3-1.25-2.71-2.44-4.06-3.65-1.53-1.38-3.51-1.85-5.25-2.86-1.49-.86-3.09-1.68-4.35-2.87-1.38-1.31-2.18-3.07-3.64-4.34-1.5-1.29-3.27-2.1-4.87-3.18-1.63-1.1-3.16-2.35-4.64-3.63-2.68-2.26-4.54-5.37-6.72-8.1-1.32-1.64-2.22-3.51-3.53-5.11-1.02-1.25-1.93-2.61-2.58-4.08-1.32-3.04-1.2-6.64-1.67-9.84-.02-.16.21-.22.26-.07.49,1.12.54,2.29.75,3.49.36,2.02.83,4.16,1.5,6.08.56,1.61,1.88,3.08,2.95,4.37,1.31,1.59,2.22,3.47,3.52,5.08,2.28,2.83,4.18,5.93,7.1,8.14,1.43,1.08,2.75,2.23,4.23,3.23,1.63,1.1,3.32,1.95,4.84,3.23,1.16.99,2.01,2.31,2.9,3.53,1.2,1.61,3.69,2.83,5.47,3.64,1.37.62,2.7,1.16,3.93,2.05,1.47,1.06,2.66,2.52,4.08,3.67Z"/>
            <path class="cls-10" d="M75.57,36.51c-2.99-1.81-5.63-3.63-7.85-6.36-2.4-2.94-4.42-6.07-6.57-9.22-.49-.71-.9-1.45-1.39-2.16-.64-.89-1.63-1.4-2.47-2.02-1.44-1.08-2.83-2.28-4.74-2.41-.13,0-.13-.22-.01-.22,2.96-.12,4.81,1.62,7.05,3.23,1.35.98,2.15,2.92,3.12,4.23,1.24,1.68,2.24,3.51,3.46,5.18,2.38,3.26,5.32,6.21,8.65,8.49,3.35,2.29,6.99,4.08,10.49,6,.07.05.03.16-.07.12-3.53-1.11-6.52-2.94-9.67-4.86Z"/>
            <path class="cls-10" d="M114.37,62.42c-1.16-1.39-2.25-3.03-3.22-4.57-1.43-2.29-3.73-3.5-6-4.78-1.5-.86-3.12-1.74-4.51-2.75-1.64-1.19-3.33-2.45-5.14-3.36-.06-.02-.02-.13.04-.09,3.84,1.64,7.33,4.21,10.98,6.24,3.8,2.1,6.35,5.21,8.31,9.05.14.28-.28.47-.44.26Z"/>
            <path class="cls-10" d="M45.41,87.96c1.38-1.09,2.29-2.24,2.96-3.89.58-1.39.94-2.91,1.36-4.35.51-1.71,1.29-3.29,1.73-5.03.63-2.63.98-5.37,1.77-7.99.93-3.13,1.74-6.13,1.82-9.43,0-.09.15-.1.17-.02.72,2.76.18,5.86-.63,8.52-1.04,3.41-1.49,6.99-2.48,10.41-.51,1.71-1.3,3.28-1.78,5-.43,1.52-.88,3.26-1.72,4.6-1.33,2.2-4.29,4.75-6.96,4.96-.13.02-.2-.17-.07-.21,1.36-.51,2.68-1.67,3.82-2.57Z"/>
            <path class="cls-10" d="M33.48,72.31c-1.9-2.83-1.17-6.45-1.46-9.67-.13-1.51-.44-2.95-.41-4.48.05-1.92-.63-3.96-1.03-5.83-.32-1.63-.38-3.43-.94-4.98-.65-1.85-2.68-3.24-4.4-3.99-.43-.19-.97-.44-1.38-.71-.8-.56-1.71-.61-2.5-1.11-1.39-.88-2.88-1.43-4.2-2.44-.02-.02.02-.06.04-.04,1.56,1.2,3.39,1.96,5.31,2.43,1.35.34,2.6,1.23,3.85,1.84,2.29,1.1,4.08,3.32,4.27,5.85.16,1.95.67,4.13,1.25,5.99.55,1.7.45,3.09.55,4.87.11,1.81.51,3.52.48,5.37-.04,2.17-.27,4.81.68,6.83.04.07-.08.14-.13.08Z"/>
            <path class="cls-10" d="M38.42,25.4c-1.39-2.35-.74-5.04-.04-7.52.42-1.5.69-3.16.85-4.72.16-1.62-.26-2.9-.66-4.42-.02-.09.12-.14.17-.07,1.65,2.14,1.48,4.27.86,6.85-.39,1.63-.8,3.25-1.24,4.85-.44,1.62.09,3.35.25,4.95.02.11-.15.18-.21.08Z"/>
          </g>
        </g>
      </g>
    </g>
  </g>
</svg>