<?xml version="1.0" encoding="UTF-8"?>
<svg xmlns="http://www.w3.org/2000/svg" viewBox="0 0 102.4 144.34">
  <defs>
    <style>
      .cls-1 {
        fill: #e2b700;
      }

      .cls-2 {
        fill: #b48164;
      }

      .cls-3 {
        fill: #ffdd4d;
      }

      .cls-4 {
        fill: #a86349;
      }

      .cls-5 {
        fill: #7c6400;
      }

      .cls-6 {
        fill: #848484;
      }

      .cls-7 {
        fill: #fff;
      }

      .cls-8 {
        fill: #5b5b5b;
      }

      .cls-9 {
        fill: #ee8482;
        opacity: .37;
      }

      .cls-9, .cls-10, .cls-11 {
        mix-blend-mode: multiply;
      }

      .cls-12 {
        fill: #4f2e24;
      }

      .cls-13 {
        fill: #d59776;
      }

      .cls-14 {
        fill: #33262c;
      }

      .cls-15 {
        fill: #e97571;
      }

      .cls-16 {
        isolation: isolate;
      }

      .cls-10 {
        opacity: .24;
      }

      .cls-10, .cls-11 {
        fill: #5a2478;
      }

      .cls-17 {
        fill: #0e2e2c;
      }

      .cls-18 {
        fill: #0a0d0b;
      }

      .cls-19 {
        fill: #e2d8d8;
      }

      .cls-20 {
        fill: #fdcd08;
      }

      .cls-21 {
        fill: #8d543f;
      }

      .cls-11 {
        opacity: .17;
      }

      .cls-22 {
        fill: #313a3a;
      }

      .cls-23 {
        fill: #64372a;
      }
    </style>
  </defs>
  <g class="cls-16">
    <g id="Layer_2" data-name="Layer 2">
      <g id="Layer_1-2" data-name="Layer 1">
        <g>
          <path class="cls-7" d="M28.05,144.34c-6.66-.13-13.22-1.99-18.96-5.37-1.08-.63-2.17-1.41-2.86-2.74-.8-1.54-.67-3.13-.59-4.08.42-5,.98-10.25,1.7-16.05.35-2.78.74-5.73,1.28-9.56l.33-2.36c.44-3.04.88-6.07,1.34-9.1,0,0,.36-2.36.36-2.36-.12-.04-.23-.09-.35-.14-.65-.27-1.3-.55-1.95-.87-.38-.19-1.27-.62-1.87-1.59-.83-1.35-.54-2.72-.44-3.24,1.59-7.74,3.43-15.55,5.46-23.22l.56-2.17c.18-.7.35-1.35.54-2,.42-1.5.87-2.83,1.44-4.3.46-1.19,1.21-2.6,2.17-3.95-.83-.41-1.59-.88-2.26-1.41-.76.16-1.54.24-2.31.24-1.91,0-3.74-.49-5.28-1.42-3.19-1.93-4.94-5.71-4.25-9.19.23-1.15.74-2.23,1.46-3.17-.59-1.88-1.14-3.8-1.65-5.75-.44-.19-.83-.47-1.15-.83-.6-.69-.87-1.58-.77-2.52-.22-7.92,1.21-13.68,4.48-18.12C8.06,4.21,11.43,2.43,16.41.85c1.67-.53,3.99-.85,6.21-.85,3.42,0,8.36.71,12.46,4.07,1.53,1.26,3.53,3.06,5.25,5.13.59-.2,1.18-.39,1.77-.58,2.39-.75,6.92-2,10.42-2,1.31,0,2.39.17,3.29.53.11.04.22.08.32.13.12.05.24.11.35.18.84.47,1.47,1.21,1.77,2.08.26.74.65,2.69-1.47,4.59-1.44,1.3-3.13,2.13-4.62,2.87-3.18,1.57-6.53,3.19-9.98,4.82.05.23.09.47.13.7.04.28.08.56.11.84.07.57.14,1.16.28,1.45.15.32.6.74,1.08,1.18.5.47,1.06,1,1.58,1.66,1.27,1.65,1.97,3.75,2.06,6.26.11,2.9-.63,5.85-2.06,8.5,2.26-.77,4.57-1.62,7.24-2.73.16-.07.47-.25.87-.5-.41-.43-.78-.87-1.13-1.29-.3-.37-.92-1.14-1.11-2.26-.35-2.06.97-4.1,3.04-4.79.18-1.13.56-2.24,1.13-3.24.75-1.3,1.71-2.25,2.88-2.81.72-.35,1.53-.54,2.33-.54,1.1,0,2.12.34,2.95.97.79.6,1.27,1.34,1.57,2.04.43-.12.94-.22,1.5-.22,1.54,0,2.85.71,3.59,1.96.68,1.14.74,2.49.19,4.01-.42,1.16-.96,2.26-1.61,3.3.38.33.7.73.93,1.19.29.16.56.35.8.58.91.15,1.85.27,2.83.4,2.26.29,4.61.59,6.94,1.37,1.03.35,2.34.89,3.37,2.05.24.27.45.58.65.92.23.3.42.6.57.91.03.07.07.13.1.2.31.12.58.22.85.34l.33.14c.33.15.64.29.94.45.15.07.25.12.34.17,1.69.9,3.1,2,4.2,3.28,1.6,1.85,2.56,4.24,2.66,6.6.02.15.03.29.04.41,1.48.4,2.86,1.11,4.05,2.09,2.18,1.79,3.51,4.38,3.76,7.31.01.08.02.17.03.25,0,0,0,.02,0,.03.27,1.1.26,2.28-.04,3.44-.47,1.83-1.64,3.56-3.21,4.76-.28.21-.57.41-.87.6-1.91,1.18-4,1.69-5.97,2.12-7.45,1.6-15.22,2.58-23.09,2.92-.91.04-1.82.07-2.73.07h-.39c-.77,0-1.49-.04-2.18-.1-.38-.03-.75-.07-1.12-.12-.78-.1-1.55-.24-2.27-.42-1.65-.41-3.17-1.04-4.51-1.88-.36-.23-.71-.47-1.05-.72-.7-.53-1.33-1.13-1.88-1.78-.29-.34-.56-.7-.8-1.06-2.21-3.34-2.26-7.78-.11-10.8-.07-.22-.14-.44-.2-.67-1.19.57-2.41,1.1-3.65,1.59.14.61.28,1.21.41,1.79,1.6,7.25,3.26,14.75,3.72,22.4.05.89-.29,1.76-.94,2.37-.34.32-.7.62-1.09.92.64,6.12,1.89,16.3,2.86,24.02.7,5.61,1.38,10.92,1.88,14.74,1.45,1.06,3.62,2.8,2.9,5.63-.52,2.02-2.27,2.9-2.93,3.23-4.21,2.12-8.94,3.29-13.69,3.41-.07,0-.27,0-.3,0-.22,0-.38,0-.55,0-.55,0-1.1-.01-1.65-.04-.84-.04-2.82-.15-4.35-1.53-.34-.31-.64-.66-.9-1.06-.3-.46-.5-.92-.63-1.28.42,1.27.41,2.66-.04,3.83-.44,1.15-1.29,2.05-2.38,2.52-.83.36-1.61.4-2.13.4h-.27ZM31.43,132.18c-.18.69-.45,1.73-.31,2.19.07.22.31.59.55.95.31.47.67,1.01.96,1.67.05.12.1.23.15.35-.13-.38-.24-.76-.33-1.15-.34-1.39-.66-2.78-.97-4.18l-.04.17Z"/>
          <g>
            <path class="cls-2" d="M34.75,49.08c7.24-2.52,11.93-3.67,19-6.62.91-.38,4.22-2.57,4.96-3.22.7-.6,1.3-1.45,2.21-1.59.17-.03.36-.02.52.06.34.17.44.63.33.99-.12.36-.39.64-.66.91,1.24-1.09,3.24-3.47,4.3-2.2.76.91-.87,2.27-1.85,2.95.71-.61,1.47-1.16,2.27-1.64.22-.13.46-.27.71-.24.4.04.66.5.62.9-.03.4-.28.76-.53,1.08-.47.61-1,1.17-1.58,1.68.73-.56,1.46-1.11,2.19-1.67.27-.21.6-.43.94-.35.64.15.56,1.09.27,1.68-1.14,2.35-3.12,4.16-5.13,5.83-2.85,2.37-5.83,4.57-8.93,6.6-5.24,3.42-10.91,6.36-17.05,7.57-.42.08-.93.14-1.23-.17-.15-.15-.22-.36-.28-.57-1.16-3.77-1.63-7.75-1.06-11.96Z"/>
            <g>
              <path class="cls-22" d="M60.84,41.32c.27-.66-.21-1.42-.83-1.78-.62-.36-1.35-.47-2.01-.73-1.37-.53-2.41-1.66-3.33-2.8-.21-.26-.43-.55-.49-.88-.11-.67.48-1.29,1.13-1.46s1.35,0,2.01.15c-.37-1.58-.13-3.3.68-4.72.38-.66.89-1.27,1.58-1.6.68-.33,1.56-.34,2.16.13.59.45.82,1.23.94,1.97.16,1.01.16,2.04.17,3.07.65-1.02,1.6-1.85,2.7-2.35.71-.33,1.71-.43,2.11.24.26.43.12.98-.05,1.46-.46,1.29-1.12,2.51-1.94,3.61-.31.41-.64.82-.8,1.32-.3.97.2,2.04.97,2.69s1.78.94,2.77,1.16c3.56.78,7.29.77,10.74,1.93.77.26,1.54.59,2.08,1.2.54.61.76,1.55.88,2.31,2.65.76,5.28,1.97,7.08,4.06s2.6,5.21,1.38,7.69c2.05-.18,4.15.47,5.74,1.77,1.59,1.3,2.64,3.24,2.71,5.75.61,1.94-.47,4.1-2.09,5.33-1.62,1.23-3.66,1.74-5.65,2.16-7.43,1.59-15,2.53-22.59,2.86-2.63.11-5.29.15-7.84-.48-2.55-.63-5.01-2-6.46-4.19-1.45-2.19-1.69-5.27-.16-7.41.27-.37.59-.73.67-1.18.08-.44-.08-.89-.22-1.32-1.86-5.6-.13-12.23,4.23-16.2.59-.54,1.24-1.05,1.64-1.75.4-.7.48-1.66.09-2Z"/>
              <path class="cls-11" d="M59.14,39.17c.3.1.6.21.87.37.62.36,1.1,1.12.83,1.78.25.22.31.68.22,1.16,1.48-.9,2.84-1.91,4.1-3.02-.32.22-.64.47-.95.79.32-.32.63-.57.95-.79.09-.08.19-.17.28-.25-.47-.56-.74-1.29-.63-1.99-1.67,1.13-3.57,1.85-5.66,1.95Z"/>
              <path class="cls-11" d="M69.27,40.92c-.22-.04-.44-.09-.66-.14-.99-.22-1.99-.51-2.77-1.16-.13-.11-.25-.23-.36-.37-.11.06-.21.13-.32.2-1.27,1.12-2.62,2.12-4.1,3.02-.05.29-.16.58-.3.84-.4.7-1.05,1.21-1.64,1.75-4.03,3.67-5.81,9.61-4.59,14.91,5.78-3.53,10.38-9.16,14.79-14.62,1.11-1.11-.22-2.92-.05-4.44Z"/>
              <path class="cls-11" d="M87.05,48.28c-1.38-.89-2.95-1.52-4.53-1.99-1.08,5.31-3.77,8.61-7.88,11.7,2.97,2.16,9.36-.34,12.41-9.71Z"/>
              <path class="cls-11" d="M70.89,66.21c0-1.18.3-2.47-.09-3.65-4.75,2.56-12.07,4.94-15.68-.17,0,.07,0,.14-.02.21-.08.45-.41.81-.67,1.18-1.53,2.14-1.29,5.22.16,7.41,1.45,2.19,3.91,3.56,6.46,4.19,2.55.63,5.22.59,7.84.48,7.59-.33,15.16-1.27,22.59-2.86,1.99-.43,4.03-.93,5.65-2.16,1.62-1.23,2.7-3.39,2.09-5.33,0-.11-.01-.21-.02-.32-8.02,3.51-19.49-1.03-28.31,1.03Z"/>
              <path class="cls-17" d="M82.5,46.25c-.04-.43-.12-.86-.28-1.15-.18-.38-.47-.71-.78-.99-.09-.04-.18.09-.11.16.22.23.48.54.56.74.2.43.19.74.17,1.23-.05.53-.02,1.07-.18,1.6-.49,1.63-.97,2.7-1.83,4.15-1.02,1.62-2.39,3-3.99,4.42-.61.53-1.24,1.02-1.85,1.54-.09.07-.14.17-.14.28,0,.13.07.24.18.31.08.05.18.06.28.04.04-.01.07-.03.11-.05,0,0,0,0,0,0,.21-.15.42-.29.62-.45.47-.35,1.78-1.36,2.46-2.03,1.96-1.75,3.56-3.93,4.4-6.44.23-.64.42-1.34.46-1.76.05-.58-.05-1.19-.08-1.59Z"/>
              <path class="cls-17" d="M80.42,53.77c-1.07,1.77-2.05,3.15-3.73,4.45-.19.18-.17.06-.28.3-.08.26.23.49.46.35.78-.56,1.55-1.15,2.15-1.9.73-.94,1.43-1.94,1.96-3,.06-.31-.41-.47-.56-.19Z"/>
              <path class="cls-17" d="M63.82,65.41c-.12-.32-.51-.1-.86-.11-.59.05-1.19.12-1.78.09-2.31.02-4.72-1.39-5.55-3.25-.25-.63-.52-1.26-.71-1.92-.12-.37-.15-.8-.34-1.14-.07-.04-.17.03-.14.11.35,1.27.48,2.62,1.09,3.81,1.25,2.14,3.84,3.27,6.26,3.01.7-.09,1.05-.13,1.66-.26.19-.03.42-.1.36-.34Z"/>
              <path class="cls-17" d="M67.91,63.93c-.25.07-.51.14-.77.21-.63.21-1.53.31-2.02.48-.22.15-.04.53.22.45.93-.17,1.87-.34,2.74-.71.12-.07.19-.02.24-.22.02-.25-.23-.28-.42-.2Z"/>
              <path class="cls-17" d="M91.32,55.26c-.09-.1-.28-.03-.27.11-.06.65-.17,1.35-.41,2.06-.32.79-.97,1.9-1.59,2.72-.92,1.19-2.6,2.98-3.82,3.86-.54.46-1.77,1.24-2.36,1.68-.12.14,0,.38.18.37.29-.08.81-.44,1.22-.66,1.57-1.01,2.88-2.14,4.18-3.64,1.28-1.44,2.4-3.13,2.76-5.04.06-.36.12-.71.15-1.07,0-.13.07-.28-.03-.38Z"/>
              <path class="cls-17" d="M92.11,59.33c-.02-.09-.13-.13-.21-.09-.07.05-.1.14-.16.21-1.13,1.69-2.56,3.11-4.17,4.52-.5.48-1.1.87-1.61,1.34-.08.16.15.31.27.18,1.34-1.02,2.58-2.16,3.77-3.35.56-.57,1.05-1.2,1.52-1.84.2-.28.39-.56.56-.86.02-.04.03-.08.02-.12Z"/>
            </g>
            <g>
              <g>
                <path class="cls-20" d="M52.15,130.87c-.5-3.86-1.26-9.75-2.05-16.01-5.93,2.13-12.37,2.81-18.62,1.97,1.17,6.24,2.37,12.48,3.88,18.65.2.81.43,1.66,1.04,2.22.66.6,1.62.71,2.51.76,5.05.27,10.16-.79,14.67-3.06.58-.29,1.21-.67,1.37-1.3.31-1.21-1.21-2-2.8-3.23Z"/>
                <path class="cls-6" d="M50.11,114.86c-1.69-13.5-3.52-28.76-3.26-29.43-6.16,3.12-12.97,4.94-19.86,5.29.12,2.75.63,5.47,1.14,8.17,1.02,5.43,2.04,10.87,3.06,16.3.1.54.2,1.09.31,1.63,6.24.85,12.69.17,18.62-1.97Z"/>
              </g>
              <g>
                <path class="cls-6" d="M31.81,118.91c2.65-10.11,5.3-20.21,7.94-30.32-8.29.8-16.7.31-25.44.12-1.42,9.24-2.83,18.48-3.99,27.75,6.9,2.25,14.26,3.1,21.49,2.45Z"/>
                <path class="cls-20" d="M31.81,118.91c-7.23.64-14.59-.2-21.49-2.45-.66,5.3-1.24,10.61-1.69,15.93-.07.83-.13,1.71.26,2.44.36.69,1.05,1.15,1.73,1.54,5.28,3.11,11.37,4.84,17.5,4.96.38,0,.78,0,1.14-.15,1.03-.45,1.12-1.94.66-2.96-.47-1.03-1.3-1.87-1.64-2.95-.39-1.25-.06-2.59.27-3.86,1.09-4.17,2.18-8.34,3.28-12.51Z"/>
              </g>
              <path class="cls-11" d="M38.5,97.51c1.55-2.14,2.55-2.93,3.83-5.19-4.55,3.45-7.81,5.53-13.24,6.13.2,1.24-1.2-.79-.97.44,1.02,5.43,2.04,10.87,3.06,16.3.1.54.2,1.09.31,1.63,1.17,6.24,2.37,12.48,3.88,18.65.2.81.43,1.66,1.04,2.22.66.6,1.62.71,2.51.76.7.04,1.41.05,2.11.03-1.82-6.9-2.7-14.11-2.98-21.34-.26-6.6-.02-13.22.46-19.64Z"/>
              <g>
                <path class="cls-6" d="M13.28,95.49c-1.06,6.98-2.08,13.97-2.95,20.97,6.9,2.25,14.26,3.1,21.49,2.45,2.27-8.66,3.72-17.08,5.99-25.74-8.15,2.47-15.96,2.79-24.52,2.32Z"/>
                <path class="cls-11" d="M29.05,94.98c.16-.02.33-.05.49-.07.34-.05.67-.1,1.01-.15.15-.02.3-.05.46-.07.41-.07.82-.14,1.23-.21.07-.01.14-.03.22-.04.49-.09.97-.19,1.45-.29.11-.02.21-.05.32-.07.37-.08.75-.17,1.12-.26.15-.04.3-.07.45-.11.33-.08.67-.17,1-.26.15-.04.3-.08.46-.12.37-.1.75-.21,1.12-.32.08-.02.16-.05.24-.07,0,0,0,0,0,0,2.9-.88,5.74-2,8.5-3.41-.24-2.38-.35-3.9-.27-4.1-2.63,1.33-5.37,2.42-8.19,3.27-7.93.66-15.99.2-24.35.02-.35,2.26-.69,4.52-1.03,6.78,4.74.26,9.5.2,14.19-.32,0,0,0,0,0,0,.04,0,.08,0,.11-.01.14-.02.28-.03.43-.05.35-.04.7-.08,1.04-.13Z"/>
                <path class="cls-20" d="M31.81,118.91c-7.23.64-14.59-.2-21.49-2.45-.66,5.3-1.24,10.61-1.69,15.93-.07.83-.13,1.71.26,2.44.36.69,1.05,1.15,1.73,1.54,5.28,3.11,11.37,4.84,17.5,4.96.38,0,.78,0,1.14-.15,1.03-.45,1.12-1.94.66-2.96-.47-1.03-1.3-1.87-1.64-2.95-.39-1.25-.06-2.59.27-3.86,1.09-4.17,2.18-8.34,3.28-12.51Z"/>
              </g>
              <path class="cls-20" d="M21.21,50.2c-1.78,1.38-3.54,3.97-4.36,6.07-1.2,3.07-1.59,4.95-2.44,8.14-2.02,7.64-3.83,15.33-5.42,23.06-.07.35-.14.75.05,1.05.14.23.39.36.63.47,8.16,3.96,17.64,4.29,26.65,3.18,4.67-.58,9.5-1.6,12.94-4.83-.45-7.41-2.06-14.69-3.66-21.94-.76-3.43-1.71-7.25-2.77-10.6-.86-2.73-2.77-7.6-3.09-7.55-7.08,1.11-8.28,1.64-11.24,1.79-3.4.18-4.48-1.05-7.3,1.14Z"/>
              <path class="cls-11" d="M21.57,49.93c-.12.08-.24.17-.36.26-1.78,1.38-3.54,3.97-4.36,6.07-1.2,3.07-1.59,4.95-2.44,8.14-2.02,7.64-3.83,15.33-5.42,23.06-.07.35-.14.75.05,1.05.14.23.39.36.63.47,2.57,1.25,5.27,2.13,8.04,2.73-2.44-13.62-2.41-34.42,3.85-41.79Z"/>
              <path class="cls-11" d="M65.48,39.26s-.03-.03-.04-.05c-.09.08-.19.17-.28.25.11-.07.21-.14.32-.2Z"/>
              <path class="cls-8" d="M42.34,92.32c-.18.05-.33.21-.5.3-1.03.76-2.39,1.51-3.32,1.99-.54.32-.82.45-1.22.77-.14.17-.11.42-.2.62-.54,1.74-1,3.49-1.43,5.26-.36,1.4-.8,2.79-1.14,4.2-.45,1.65-.76,3.34-1.16,5.01-.45,1.73-.77,3.48-1.17,5.22-.22.96-.54,1.9-.76,2.86-.02.08.03.18.11.2.08.02.18-.03.2-.11.28-1.09.65-2.14.94-3.22.44-1.74.88-3.48,1.35-5.21.48-2.17.99-4.34,1.59-6.48.74-2.56,1.27-5.18,2.08-7.72.02-.07.03-.14.05-.22,0,0,0,0,0,0,.26-.15,1.02-.69,1.25-.83,1-.59,1.97-1.21,2.87-1.93.18-.16.46-.32.58-.5.03-.09-.05-.19-.15-.19Z"/>
              <path class="cls-2" d="M21.8,48.23l-.59,2.69s6.06,4.6,14.58,1.07l-.55-4.68-13.44.92Z"/>
              <g>
                <path class="cls-5" d="M32.51,16.46c4.32-1.76,8.72-3.38,13.18-4.85,2.51-.83,5.09-1.62,7.75-1.78.78-.05,1.76.07,1.98.7.17.48-.22.99-.64,1.36-1.12,1.01-2.54,1.72-3.95,2.41-5.11,2.52-10.24,5-15.52,7.43-.49-1.94-1.47-3.78-2.81-5.27Z"/>
                <path class="cls-13" d="M27.99,13.13c-6.86-.45-14.11,3.11-16.99,9.36-1.96,4.23-1.8,9.17-.74,13.71-2.34-.36-4.72,1.5-5.18,3.83-.46,2.33.82,4.81,2.85,6.04,2.03,1.23,4.65,1.27,6.85.39,1.84,2.17,4.78,3.06,7.6,3.42,5.11.66,10.53-.13,14.86-2.93,4.33-2.8,7.38-7.77,7.18-12.92-.06-1.61-.45-3.26-1.44-4.54-.92-1.19-2.32-2.01-2.98-3.36-.47-.97-.5-2.09-.66-3.16-.43-2.84-1.91-5.5-4.09-7.36-2.18-1.86-5.04-2.91-7.25-2.48Z"/>
                <path class="cls-12" d="M4,26.31c.81,3.62,1.81,7.19,2.99,10.7,1.2-.49,2.53-.67,3.82-.51-.41-4.21-.5-8.46-.28-12.68,0-.12.01-.25-.05-.36-.12-.2-.4-.21-.64-.19-2.09.19-4.13.93-5.84,3.04Z"/>
                <g>
                  <path class="cls-23" d="M33.03,21.03s0-.06,0,0h0Z"/>
                  <path class="cls-12" d="M39.18,20.07c-.14-.77-.38-1.56-.82-2.21-.82-1.12-2.02-1.92-3.24-2.53-.71-.3-1.49-.29-2.25-.33-1.49-.09-2.98.07-4.45.36-.95.18-1.91.3-2.84.53-1.82.48-3.63.97-5.41,1.56-1.13.41-2.24.86-3.34,1.34-1.06.5-2.1,1.06-3.15,1.58-1.3.65-2.52,1.44-3.72,2.26-.21.12-.42.24-.63.36-.11.05-.2.14-.23.26-.04.13,0,.25.08.34.03.06.08.12.16.14.81.13,1.6.34,2.41.46.96.12,1.67.14,2.47.27,1.86.24,4.25.41,6.39.08.56-.18,3.14-.29,2.23-1.33-.13-.13-.3-.27-.48-.4,2.51.49,4.93.12,7.24-.22.85-.12,1.69-.27,2.53-.46.43-.11.9-.18,1.24-.47.34-.26.39-.78.21-1.15-.13-.2-.26-.33-.39-.45.18.05.35.1.47.14,1.42.41,2.89.66,4.38.65.58.03,1.28.04,1.15-.77Z"/>
                  <polygon class="cls-23" points="33.01 21.08 33.01 21.08 33.01 21.08 33.01 21.08 33.01 21.08"/>
                  <path class="cls-23" d="M32.99,21.1s0,0,0,0c0,0,0,0,0,0,0,0,0,.01-.01.02,0,0,0,0,0,0Z"/>
                  <path class="cls-23" d="M33.02,21.04s0,0,0,0c0,0,0,0,0,0,0,0,0,0,0,0,0,0,0,0,0,0Z"/>
                </g>
                <path class="cls-10" d="M35.11,15.33c-.12-.05-.25-.09-.37-.12-2.1-1.61-4.7-2.47-6.75-2.07-6.55-.43-13.46,2.8-16.58,8.53-.49.31-.98.64-1.47.97-.21.12-.42.24-.63.36-.11.05-.2.14-.23.26-.01.04-.01.08-.01.11-1.82.3-3.58,1.09-5.07,2.95.14.61.29,1.22.44,1.83,10.98-4.31,21.97-8.19,33.29-11-.75-.75-1.67-1.33-2.62-1.81Z"/>
                <path class="cls-20" d="M3.03,27.47c11.87-5.66,24.3-10.16,37.03-13.39-1.53-2.86-4.39-5.63-6.88-7.68-5.37-4.41-13.07-3.57-15.86-2.68-4.45,1.42-7.23,2.8-10.4,7.11-3.34,4.54-4.1,10.41-3.88,16.65Z"/>
                <path class="cls-3" d="M3.01,27.47c6.67-3.3,13.58-6.14,20.5-8.85,6.45-2.53,12.9-5.05,19.5-7.12,3.93-1.23,9.73-2.57,11.95-1.45-1.82-.43-9.07,2-13.51,3.71-12.21,4.68-25.04,7.63-36.78,13.43-.57.28-1.75,1-1.66.28Z"/>
                <g>
                  <path class="cls-1" d="M11.75,40.88s.01.03,0,0h0Z"/>
                  <path class="cls-4" d="M11.75,40.87s0,0,0-.02c-.09-.19-.19-.37-.3-.55-.31-.41-.35-.57-.81-.9-.53-.34-1.17-.63-1.81-.56-.54.07-.86.3-1.34.82-.31.32.16.8.49.48.36-.36.33-.33.65-.43.03,0,.03,0,.03,0,0,0,.01,0,.02,0,.38-.03.32-.03.57.02,1.02.28,1.12.31,1.53.7.34.29.45.52.63.72.18.16.45-.08.34-.28Z"/>
                  <path class="cls-1" d="M11.74,40.86s0,0,0,0c0,0,0,0,0,.01,0,0,0-.01,0-.02Z"/>
                </g>
                <path class="cls-18" d="M23.85,30.72c-.11-.76.3-1.44.92-1.53.62-.09,1.21.45,1.32,1.21.11.76-.3,1.44-.92,1.53s-1.21-.45-1.32-1.21Z"/>
                <path class="cls-18" d="M34.33,27.63c-.11-.76.3-1.44.92-1.53s1.21.45,1.33,1.21c.11.76-.3,1.44-.92,1.53-.62.09-1.21-.45-1.32-1.21Z"/>
                <path class="cls-9" d="M33.37,30.58c-.3-.36-.82-.5-1.29-.43-.47.08-.89.34-1.23.67-.23.22-.43.48-.47.79-.06.46.29.91.73,1.07.44.16.93.09,1.37-.06.41-.14.81-.37,1.04-.74.22-.37.19-.9-.15-1.3Z"/>
                <g>
                  <path class="cls-4" d="M33.05,32.48c-.09.05,0,0,0,0h0Z"/>
                  <path class="cls-4" d="M33.82,30.99c-.09-.29-.25-.57-.5-.74-.13-.08-.27-.14-.41-.2-.17-.04-.35-.04-.53-.02-.15.01-.3.03-.45.07-.03,0-.05.03-.06.07-.01.05.05.1.1.09.24-.07.65-.03.79.04.02,0,.04.02.06.03,0,0-.02,0,0,0,0,0,.02,0,.03.01.09.05.32.18.3.18.15.13.19.22.3.44.16.34-.06.73-.24.99-.09.12-.2.23-.3.34-.05.05-.06.13,0,.18.14,0,.17,0,.17,0,.12-.07.22-.15.31-.24.33-.32.56-.78.46-1.25Z"/>
                  <path class="cls-4" d="M33.05,32.48s0,0,.01,0c0,0,0,0,0,0,0,0,0,0,0,0,0,0,0,0,0,0Z"/>
                </g>
                <path class="cls-21" d="M31.36,32.38s-.07-.02-.12-.02c-.1-.04-.2-.06-.31-.05-.12.03-.19.16-.12.26.17.23.53.32.8.22.19-.15-.11-.37-.26-.41Z"/>
                <g>
                  <g>
                    <path class="cls-19" d="M26.19,6.47c-.34.61-.64,1.33-.95,2.25-.01.04.03.07.07.05.17-.12.37-.2.46-.18.13.05.21.23.33.4.01.01.03.02.04,0,.21-.51.73-2.47,1-2.54.01,0,.03,0,.04,0-.24-.08-.44-.11-.72-.07-.09.01-.18.05-.27.1Z"/>
                    <path class="cls-7" d="M30.95,7.59c-.29-.7-.67-1.23-.76-1.21-.05,0-.07.06-.09.11-.06.2-.08.36-.14.52-.71-.48-1.53-1.09-2.31-1.39-.22-.08-.45-.16-.67-.1-.29.07-.47.34-.62.6-.04.07-.12.28-.16.35.08-.05.18-.09.27-.1.28-.04.48,0,.72.07.44-.03,1.97.97,2.43,1.19-.15.11-.28.16-.46.3-.02.01-.04.03-.04.05-.02.06.06.1.12.11.5.1,1.02.07,1.5-.09.11-.04.23-.1.26-.21.01-.07-.01-.13-.04-.2Z"/>
                  </g>
                  <g>
                    <path class="cls-19" d="M32.93,9.54c-.42-.56-.95-1.13-1.66-1.79-.03-.03-.08,0-.07.04.04.21.05.39-.01.46-.1.1-.4.13-.52.12-.02,0-.03.02-.02.03.37.4,1.95,1.73,1.91,2.01,0,.01,0,.03-.01.04.17-.18.28-.36.36-.63.03-.09.03-.19.02-.28Z"/>
                    <path class="cls-7" d="M29.84,13.32c.76.03,1.5,0,1.52-.1.02-.06-.32-.32-.32-.32,0,0,1.35-.73,2.11-1.53.16-.17.36-.44.4-.66.05-.29-.3-.72-.47-.96-.05-.07-.1-.14-.15-.21.01.1,0,.2-.02.28-.08.27-.19.44-.36.63-.15.41-1.66,1.48-2.05,1.8-.03-.19-.07-.41-.12-.62,0-.02-.01-.05-.03-.06-.05-.04-.12,0-.15.06-.21.39-.43.95-.53,1.26-.03.11-.12.31-.02.38.05.04.13.05.19.05Z"/>
                  </g>
                  <g>
                    <path class="cls-19" d="M26.48,14.14c.7.04,2.11-.17,3.05-.39.04,0,.05-.06.02-.08-.19-.1-.51-.21-.53-.3-.01-.14.17-.45.26-.53.01-.01,0-.04-.01-.03-.6.18-3.05.49-3.24.28,0,0-.02-.02-.02-.03.03.25.13.67.28.9.05.08.12.14.21.2Z"/>
                    <path class="cls-7" d="M25.4,9.14c-.51.56-.82,1.13-.77,1.21.03.04.09.04.14.03.21-.04.24-.04.42-.06-.12.85-.21,1.83-.14,2.67.02.23.08.69.23.87.19.23.64.23.94.25.08,0,.17.01.25.02-.08-.05-.15-.12-.21-.2-.15-.23-.25-.65-.28-.9-.22-.38-.06-2.22-.06-2.72.16.09.36.21.56.3.02.01.04.02.07.02.06-.01.07-.1.05-.16-.12-.49-.38-.95-.73-1.32-.08-.08-.19-.17-.3-.14-.07.02-.12.07-.16.12Z"/>
                  </g>
                </g>
                <g>
                  <path class="cls-14" d="M34.55,35.24c-.9,0-1.77.26-2.65.45-.88.19-1.8.32-2.67.07-.79-.23-1.49-.75-2.3-.86-.81-.11-1.66.25-2.15.91-.49.65-.6,1.57-.27,2.32.2.46.54.84.92,1.17.03.03.07.06.1.09,1.46-.75,3.07-1.22,4.7-1.14,1.59.07,3.19.72,4.27,1.88.03-.01.06-.03.1-.04.7-.33,1.58-1.2,1.9-1.9.99-2.21-1.04-2.94-1.94-2.94Z"/>
                  <path class="cls-15" d="M30.23,38.24c-1.63-.08-3.25.4-4.7,1.14,1.21,1.02,2.77,1.58,4.34,1.68,1.59.1,3.18-.27,4.62-.94-1.08-1.16-2.67-1.81-4.27-1.88Z"/>
                </g>
              </g>
              <path class="cls-2" d="M37.88,48.81c-4.17,1.36-8.34,1.91-8.78,2.95-.48,1.12,2.12,10.32,4.58,12.02,4.09-.64,8.14-1.66,12.02-3.1-3.23-3.35-5.21-7.81-6.48-12.32-.45.15-.89.29-1.34.44Z"/>
              <path class="cls-13" d="M68.24,42.14c-.52-.24-1.11.14-1.55.5-.53.42-1.06.84-1.59,1.27.95-.81,1.72-1.83,2.24-2.97.21-.46.31-1.12-.13-1.36-.36-.19-.79.08-1.1.35-.9.76-1.75,1.56-2.56,2.41.75-.77,1.37-1.65,1.83-2.61.27-.56.38-1.41-.2-1.63-.4-.15-.81.15-1.13.43-1.21,1.06-2.02,1.82-3.23,2.88.29-.33.07-.92-.09-1.17-.56-.86-2.11-1.28-2.24-1.26.04.96-.61,1.77-1.34,2.4-.73.63-1.63,1.01-2.51,1.38-5.05,2.1-10.21,3.91-15.4,5.62,1.27,4.51,3.26,8.96,6.48,12.32,2.44-.9,4.81-1.96,7.1-3.19,5.94-3.2,11.29-7.57,15.31-12.99.27-.37.55-.76.63-1.21.08-.45-.09-.98-.51-1.17Z"/>
              <path class="cls-3" d="M43.52,62.45c-2.48-4.45-4.08-9.39-4.7-14.45-1.98.7-4.05,1.16-6.14,1.36-2.63.26-5.43.14-7.75,1.41-2.08,1.13-3.52,3.36-3.7,5.71-.19,2.36.89,4.78,2.76,6.22,1.3,1,2.9,1.52,4.5,1.87,4.92,1.06,10.29.49,15.03-2.12Z"/>
            </g>
          </g>
        </g>
      </g>
    </g>
  </g>
</svg>