<?xml version="1.0" encoding="UTF-8"?>
<svg xmlns="http://www.w3.org/2000/svg" viewBox="0 0 90.18 144.34">
  <defs>
    <style>
      .cls-1 {
        fill: #e2b700;
      }

      .cls-2 {
        fill: #b48164;
      }

      .cls-3 {
        fill: #ffdd4d;
      }

      .cls-4 {
        fill: #a86349;
      }

      .cls-5 {
        fill: #7c6400;
      }

      .cls-6 {
        fill: #848484;
      }

      .cls-7 {
        fill: #fff;
      }

      .cls-8 {
        fill: #5b5b5b;
      }

      .cls-9 {
        fill: #ee8482;
        opacity: .37;
      }

      .cls-9, .cls-10, .cls-11 {
        mix-blend-mode: multiply;
      }

      .cls-12 {
        fill: #4f2e24;
      }

      .cls-13 {
        fill: #d59776;
      }

      .cls-14 {
        fill: #33262c;
      }

      .cls-15 {
        fill: #e97571;
      }

      .cls-16 {
        isolation: isolate;
      }

      .cls-10 {
        opacity: .24;
      }

      .cls-10, .cls-11 {
        fill: #5a2478;
      }

      .cls-17 {
        fill: #0e2e2c;
      }

      .cls-18 {
        fill: #0a0d0b;
      }

      .cls-19 {
        fill: #e2d8d8;
      }

      .cls-20 {
        fill: #fdcd08;
      }

      .cls-21 {
        fill: #8d543f;
      }

      .cls-11 {
        opacity: .17;
      }

      .cls-22 {
        fill: #313a3a;
      }

      .cls-23 {
        fill: #64372a;
      }
    </style>
  </defs>
  <g class="cls-16">
    <g id="Layer_2" data-name="Layer 2">
      <g id="Layer_1-2" data-name="Layer 1">
        <g>
          <path class="cls-7" d="M28.06,144.34c-6.67-.13-13.23-1.99-18.97-5.38-1.08-.63-2.17-1.41-2.86-2.74-.8-1.54-.67-3.13-.58-4.08.42-5,.98-10.25,1.7-16.05.35-2.78.74-5.73,1.28-9.56l.33-2.36c.44-3.04.88-6.07,1.34-9.1,0-.03.36-2.36.36-2.36-.12-.04-.23-.09-.34-.14-.66-.27-1.31-.56-1.95-.87-.38-.19-1.27-.62-1.87-1.6-.39-.63-.58-1.34-.57-2.12,0-.08,0-.17.01-.25.02-.34.07-.6.11-.8,1.6-7.8,3.44-15.62,5.47-23.28l.42-1.6c.33-1.28.61-2.38.97-3.56.1-.34.21-.68.33-1.04.16-.48.35-1,.54-1.53,0,0,.19-.52.27-.73.13-.32.27-.66.43-1,.16-.33.32-.66.51-.99.38-.68.79-1.34,1.23-1.96-.83-.41-1.59-.88-2.26-1.41-.76.16-1.54.24-2.31.24-1.91,0-3.74-.49-5.28-1.42-3.19-1.93-4.94-5.71-4.24-9.19.23-1.15.74-2.23,1.46-3.17-.59-1.88-1.14-3.8-1.65-5.75-.44-.19-.83-.47-1.15-.83-.6-.69-.87-1.58-.77-2.52-.22-7.92,1.21-13.68,4.48-18.12C8.08,4.18,11.32,2.47,16.41.85c.8-.26,3.01-.85,6.21-.85,3.42,0,8.36.71,12.46,4.08,1.53,1.25,3.53,3.05,5.25,5.13.59-.2,1.18-.39,1.78-.58,2.39-.75,6.91-2,10.42-2,1.31,0,2.38.17,3.29.53.12.04.23.09.35.14.1.04.2.09.29.15.86.47,1.5,1.21,1.81,2.1.26.74.65,2.68-1.47,4.58-1.44,1.3-3.14,2.13-4.63,2.87-3.22,1.59-6.57,3.21-9.98,4.82.05.24.09.47.13.71.04.28.08.56.11.84.07.57.14,1.16.28,1.45.15.32.6.74,1.08,1.18.5.47,1.06,1,1.58,1.66,1.27,1.65,1.97,3.75,2.06,6.26.21,5.46-2.62,11.07-7.29,14.66.92.51,2.38,1.44,3.82,2.92,1.52.38,2.94.76,4.31,1.12,4.06,1.07,7.57,2,12.38,2.84.09.01.41.04,1,.05-.11-.58-.19-1.15-.25-1.7-.05-.47-.16-1.46.28-2.5.65-1.54,2.22-2.53,3.99-2.53.39,0,.78.05,1.15.14.76-.86,1.68-1.58,2.7-2.12,1.09-.57,2.18-.86,3.25-.86.23,0,.46.01.69.04,1.93.23,3.58,1.49,4.21,3.22.34.92.34,1.81.23,2.56,2.08.61,3.42,2.25,3.36,4.22-.04,1.32-.72,2.49-2,3.48-.98.75-2.03,1.39-3.14,1.92.14.48.19.99.14,1.5.16.29.28.6.36.92.68.62,1.41,1.22,2.16,1.85,1.75,1.46,3.57,2.98,5.11,4.9.68.85,1.5,2.02,1.73,3.55.05.36.07.73.05,1.12.03.38.03.73,0,1.08,0,.07-.02.15-.03.22.18.24.36.49.54.74.06.08.13.19.21.3.19.29.37.58.55.88l.18.31c.24.42.45.82.64,1.24,0,.01.02.04.02.04.57,1.25.95,2.52,1.13,3.78.34,2.42-.13,4.95-1.31,7-.06.14-.13.26-.2.37,1.02,1.14,1.82,2.48,2.29,3.94.87,2.68.6,5.57-.77,8.18-.04.09-.08.17-.13.26,0,0,0,0,0,0-.1.29-.22.57-.35.84-1.21,2.41-3.82,4.06-6.8,4.31-.29.02-.58.04-.86.04-.38,0-.76-.02-1.14-.06-.02,0-.11-.01-.13-.01-.64-.07-1.23-.18-1.82-.32-1.19-.29-2.31-.69-3.27-1.05-7.14-2.67-14.21-6.03-21.03-9.98-.81-.47-1.68-.98-2.57-1.56.67,5.8,1.55,12.97,2.28,18.75.7,5.61,1.38,10.92,1.88,14.74,1.45,1.06,3.62,2.79,2.9,5.62-.52,2.02-2.26,2.9-2.92,3.23-4.26,2.14-9.05,3.32-13.86,3.41-.02,0-.04,0-.06,0,0,0-.42,0-.63,0-.55,0-1.09-.01-1.64-.04-.85-.05-2.83-.15-4.35-1.53-.33-.3-.64-.66-.9-1.06-.3-.45-.49-.91-.63-1.27.42,1.27.41,2.66-.04,3.82-.44,1.15-1.29,2.05-2.38,2.52-.83.36-1.62.4-2.14.4h-.25ZM31.43,132.18c-.18.69-.45,1.73-.31,2.19.07.22.31.59.55.94.31.47.67,1.01.96,1.67.05.11.1.23.14.34-.13-.37-.24-.76-.33-1.13-.34-1.39-.66-2.79-.98-4.18l-.04.17Z"/>
          <g>
            <path class="cls-2" d="M40.55,53.75c7.45,1.78,12.02,3.34,19.57,4.66.97.17,4.94.1,5.91-.03.91-.13,1.87-.52,2.72-.15.16.07.31.17.41.33.2.32.03.77-.26,1.01-.29.24-.68.33-1.04.41,1.63-.25,4.6-1.18,4.81.46.15,1.18-1.95,1.44-3.15,1.49.93-.13,1.86-.18,2.8-.16.25,0,.53.02.73.18.32.25.29.78.04,1.1-.25.32-.64.49-1.02.62-.73.26-1.48.45-2.24.56.91-.08,1.83-.15,2.74-.23.34-.03.74-.04.98.21.45.47-.12,1.22-.68,1.56-2.22,1.36-4.87,1.82-7.46,2.14-3.67.46-7.38.71-11.08.74-6.26.06-12.62-.53-18.44-2.81-.4-.16-.85-.38-.95-.81-.05-.21.01-.43.07-.63,1.06-3.8,2.8-7.41,5.55-10.65Z"/>
            <g>
              <path class="cls-22" d="M66.71,61.27c.58-.42.59-1.31.26-1.95-.32-.64-.88-1.12-1.3-1.7-.87-1.18-1.13-2.69-1.29-4.15-.04-.34-.07-.69.06-1.01.26-.62,1.1-.83,1.74-.62s1.14.72,1.61,1.21c.54-1.54,1.68-2.85,3.12-3.6.67-.35,1.44-.59,2.19-.5.76.09,1.49.56,1.76,1.27.26.7.03,1.48-.27,2.16-.42.94-.97,1.81-1.52,2.68,1.1-.51,2.34-.69,3.54-.53.77.11,1.68.56,1.65,1.34-.02.5-.43.89-.83,1.2-1.09.84-2.3,1.51-3.58,2-.48.18-.99.35-1.38.68-.77.65-.94,1.83-.63,2.79s.99,1.75,1.71,2.47c2.57,2.58,5.72,4.57,8.01,7.41.51.63.98,1.33,1.11,2.13.12.8-.19,1.72-.5,2.42,1.82,2.07,3.38,4.5,3.77,7.24.39,2.73-.62,5.79-2.98,7.22,1.82.95,3.24,2.64,3.88,4.59.64,1.95.48,4.15-.81,6.31-.53,1.96-2.61,3.2-4.63,3.36-2.03.17-4.02-.51-5.93-1.22-7.12-2.66-14-5.95-20.57-9.76-2.27-1.32-4.54-2.72-6.35-4.63-1.81-1.9-3.15-4.38-3.19-7.01-.04-2.63,1.42-5.35,3.86-6.33.42-.17.89-.3,1.2-.63.31-.33.41-.79.52-1.23,1.45-5.72,6.48-10.37,12.29-11.37.79-.14,1.62-.22,2.33-.59.71-.37,1.3-1.14,1.15-1.64Z"/>
              <path class="cls-11" d="M66.44,58.54c.2.24.39.49.53.78.32.64.32,1.54-.26,1.95.09.32-.11.74-.44,1.1,1.73.04,3.42-.08,5.08-.34-.39,0-.79.06-1.23.15.44-.1.84-.14,1.23-.15.12-.02.25-.04.37-.06-.09-.73.07-1.49.54-2.02-2.01.05-4-.36-5.82-1.41Z"/>
              <path class="cls-11" d="M74.02,65.48c-.16-.15-.32-.31-.48-.47-.71-.72-1.4-1.51-1.71-2.47-.05-.16-.08-.33-.11-.5-.12,0-.25,0-.38,0-1.67.26-3.35.37-5.08.34-.2.21-.44.41-.71.54-.71.37-1.54.45-2.33.59-5.38.92-10.07,4.96-11.9,10.09,6.78.14,13.68-2.13,20.34-4.34,1.53-.34,1.39-2.58,2.35-3.77Z"/>
              <path class="cls-11" d="M85.04,81.25c-.68-1.49-1.66-2.87-2.74-4.12-3.77,3.89-7.81,5.23-12.95,5.61,1.34,3.42,8.07,4.76,15.69-1.49Z"/>
              <path class="cls-11" d="M61.76,87.65c.64-.99,1.59-1.92,1.89-3.13-5.38-.41-12.83-2.35-13.11-8.6-.04.06-.08.11-.13.17-.31.33-.78.46-1.2.63-2.44.98-3.9,3.7-3.86,6.33.04,2.63,1.38,5.11,3.19,7.01,1.81,1.9,4.08,3.31,6.35,4.63,6.57,3.81,13.45,7.1,20.57,9.76,1.91.71,3.9,1.39,5.93,1.22,2.03-.17,4.1-1.4,4.63-3.36.06-.09.11-.18.16-.28-8.65-1.36-15.86-11.37-24.4-14.39Z"/>
              <path class="cls-17" d="M82.29,77.1c.2-.38.36-.79.38-1.12.05-.42-.02-.85-.12-1.25-.06-.09-.2-.03-.17.08.06.31.11.71.07.92-.07.47-.24.73-.52,1.12-.33.42-.59.89-1.02,1.25-1.29,1.11-2.27,1.75-3.77,2.51-1.73.81-3.63,1.24-5.75,1.57-.79.12-1.59.19-2.39.3-.11,0-.21.07-.27.16-.07.11-.07.24-.02.36.04.09.12.15.21.18.04.01.08.02.12.01,0,0,0,0,0,0,.26-.02.51-.02.77-.05.59-.04,2.23-.19,3.17-.39,2.59-.41,5.12-1.39,7.17-3.05.54-.41,1.08-.9,1.34-1.23.35-.46.6-1.03.79-1.39Z"/>
              <path class="cls-17" d="M76.49,82.31c-1.86.91-3.43,1.55-5.54,1.74-.26.05-.18-.04-.4.1-.21.17-.07.54.2.54.96-.05,1.93-.13,2.84-.45,1.12-.4,2.25-.87,3.27-1.47.22-.23-.09-.62-.36-.46Z"/>
              <path class="cls-17" d="M56.24,83.17c.07-.33-.38-.37-.66-.56-.52-.28-1.06-.54-1.55-.88-1.96-1.23-3.23-3.71-2.92-5.72.13-.67.24-1.34.44-1.99.1-.38.3-.75.33-1.14-.04-.07-.16-.07-.18.02-.39,1.26-1,2.47-1.14,3.79-.1,2.47,1.47,4.82,3.65,5.91.63.3.96.46,1.54.67.17.08.4.14.48-.09Z"/>
              <path class="cls-17" d="M60.48,84.12c-.25-.08-.51-.16-.76-.24-.64-.16-1.46-.56-1.96-.69-.27,0-.31.42-.05.5.87.36,1.76.72,2.7.88.13,0,.18.08.32-.05.16-.2-.04-.37-.24-.39Z"/>
              <path class="cls-17" d="M84.87,89.44c-.03-.13-.22-.17-.29-.05-.4.51-.87,1.05-1.46,1.51-.7.49-1.84,1.08-2.81,1.44-1.42.51-3.79,1.11-5.3,1.19-.7.1-2.16.09-2.89.14-.18.05-.21.32-.05.41.28.09.92.07,1.38.09,1.86,0,3.58-.25,5.49-.81,1.85-.52,3.71-1.34,5.04-2.76.24-.27.49-.54.71-.82.06-.11.21-.2.19-.34Z"/>
              <path class="cls-17" d="M83.35,93.29c.03-.09-.04-.18-.13-.19-.09,0-.16.07-.25.09-1.86.81-3.83,1.24-5.94,1.56-.68.13-1.4.14-2.08.27-.15.09-.04.34.13.3,1.68-.14,3.34-.43,4.98-.79.78-.17,1.53-.44,2.27-.73.32-.12.63-.27.93-.43.04-.02.07-.05.08-.09Z"/>
            </g>
            <g>
              <g>
                <path class="cls-20" d="M52.15,130.87c-.5-3.86-1.26-9.75-2.05-16.01-5.93,2.13-12.37,2.81-18.62,1.97,1.17,6.24,2.37,12.48,3.88,18.65.2.81.43,1.66,1.04,2.22.66.6,1.62.71,2.51.76,5.05.27,10.16-.79,14.67-3.06.58-.29,1.21-.67,1.37-1.3.31-1.21-1.21-2-2.8-3.23Z"/>
                <path class="cls-6" d="M50.11,114.86c-1.69-13.5-3.52-28.76-3.26-29.43-6.16,3.12-12.97,4.94-19.86,5.29.12,2.75.63,5.47,1.14,8.17,1.02,5.43,2.04,10.87,3.06,16.3.1.54.2,1.09.31,1.63,6.24.85,12.69.17,18.62-1.97Z"/>
              </g>
              <g>
                <path class="cls-6" d="M31.81,118.91c2.65-10.11,5.3-20.21,7.94-30.32-8.29.8-16.7.31-25.44.12-1.42,9.24-2.83,18.48-3.99,27.75,6.9,2.25,14.26,3.1,21.49,2.45Z"/>
                <path class="cls-20" d="M31.81,118.91c-7.23.64-14.59-.2-21.49-2.45-.66,5.3-1.24,10.61-1.69,15.93-.07.83-.13,1.71.26,2.44.36.69,1.05,1.15,1.73,1.54,5.28,3.11,11.37,4.84,17.5,4.96.38,0,.78,0,1.14-.15,1.03-.45,1.12-1.94.66-2.96-.47-1.03-1.3-1.87-1.64-2.95-.39-1.25-.06-2.59.27-3.86,1.09-4.17,2.18-8.34,3.28-12.51Z"/>
              </g>
              <path class="cls-11" d="M38.5,97.51c1.55-2.14,2.55-2.93,3.83-5.19-4.55,3.45-7.81,5.53-13.24,6.13.2,1.24-1.2-.79-.97.44,1.02,5.43,2.04,10.87,3.06,16.3.1.54.2,1.09.31,1.63,1.17,6.24,2.37,12.48,3.88,18.65.2.81.43,1.66,1.04,2.22.66.6,1.62.71,2.51.76.7.04,1.41.05,2.11.03-1.82-6.9-2.7-14.11-2.98-21.34-.26-6.6-.02-13.22.46-19.64Z"/>
              <g>
                <path class="cls-6" d="M13.28,95.49c-1.06,6.98-2.08,13.97-2.95,20.97,6.9,2.25,14.26,3.1,21.49,2.45,2.27-8.66,3.72-17.08,5.99-25.74-8.15,2.47-15.96,2.79-24.52,2.32Z"/>
                <path class="cls-11" d="M29.05,94.98c.16-.02.33-.05.49-.07.34-.05.67-.1,1.01-.15.15-.02.3-.05.46-.07.41-.07.82-.14,1.23-.21.07-.01.14-.03.22-.04.49-.09.97-.19,1.45-.29.11-.02.21-.05.32-.07.37-.08.75-.17,1.12-.26.15-.04.3-.07.45-.11.33-.08.67-.17,1-.26.15-.04.3-.08.46-.12.37-.1.75-.21,1.12-.32.08-.02.16-.05.24-.07,0,0,0,0,0,0,2.9-.88,5.74-2,8.5-3.41-.24-2.38-.35-3.9-.27-4.1-2.63,1.33-5.37,2.42-8.19,3.27-7.93.66-15.99.2-24.35.02-.35,2.26-.69,4.52-1.03,6.78,4.74.26,9.5.2,14.19-.32,0,0,0,0,0,0,.04,0,.08,0,.11-.01.14-.02.28-.03.43-.05.35-.04.7-.08,1.04-.13Z"/>
                <path class="cls-20" d="M31.81,118.91c-7.23.64-14.59-.2-21.49-2.45-.66,5.3-1.24,10.61-1.69,15.93-.07.83-.13,1.71.26,2.44.36.69,1.05,1.15,1.73,1.54,5.28,3.11,11.37,4.84,17.5,4.96.38,0,.78,0,1.14-.15,1.03-.45,1.12-1.94.66-2.96-.47-1.03-1.3-1.87-1.64-2.95-.39-1.25-.06-2.59.27-3.86,1.09-4.17,2.18-8.34,3.28-12.51Z"/>
              </g>
              <path class="cls-20" d="M21.21,50.2c-1.78,1.38-3.54,3.97-4.36,6.07-1.2,3.07-1.59,4.95-2.44,8.14-2.02,7.64-3.83,15.33-5.42,23.06-.07.35-.14.75.05,1.05.14.23.39.36.63.47,8.16,3.96,17.64,4.29,26.65,3.18,4.67-.58,9.5-1.6,12.94-4.83-.45-7.41-2.06-14.69-3.66-21.94-1.35-6.11-.92-8.09-2.77-10.6-1.73-2.35-3.94-3.51-4.78-3.94-2.48-1.26-2.47-.32-9.56-1.82-1.41-.3-3.64-1.7-7.3,1.14Z"/>
              <path class="cls-11" d="M21.57,49.93c-.12.08-.24.17-.36.26-1.78,1.38-3.54,3.97-4.36,6.07-1.2,3.07-1.59,4.95-2.44,8.14-2.02,7.64-3.83,15.33-5.42,23.06-.07.35-.14.75.05,1.05.14.23.39.36.63.47,2.57,1.25,5.27,2.13,8.04,2.73-2.44-13.62-2.41-34.42,3.85-41.79Z"/>
              <path class="cls-11" d="M65.48,39.26s-.03-.03-.04-.05c-.09.08-.19.17-.28.25.11-.07.21-.14.32-.2Z"/>
              <path class="cls-8" d="M42.34,92.32c-.18.05-.33.21-.5.3-1.03.76-2.39,1.51-3.32,1.99-.54.32-.82.45-1.22.77-.14.17-.11.42-.2.62-.54,1.74-1,3.49-1.43,5.26-.36,1.4-.8,2.79-1.14,4.2-.45,1.65-.76,3.34-1.16,5.01-.45,1.73-.77,3.48-1.17,5.22-.22.96-.54,1.9-.76,2.86-.02.08.03.18.11.2.08.02.18-.03.2-.11.28-1.09.65-2.14.94-3.22.44-1.74.88-3.48,1.35-5.21.48-2.17.99-4.34,1.59-6.48.74-2.56,1.27-5.18,2.08-7.72.02-.07.03-.14.05-.22,0,0,0,0,0,0,.26-.15,1.02-.69,1.25-.83,1-.59,1.97-1.21,2.87-1.93.18-.16.46-.32.58-.5.03-.09-.05-.19-.15-.19Z"/>
              <path class="cls-2" d="M21.8,48.23l-.59,2.69s6.06,4.6,14.58,1.07l-.55-4.68-13.44.92Z"/>
              <g>
                <path class="cls-5" d="M32.51,16.46c4.32-1.76,8.72-3.38,13.18-4.85,2.51-.83,5.09-1.62,7.75-1.78.78-.05,1.76.07,1.98.7.17.48-.22.99-.64,1.36-1.12,1.01-2.54,1.72-3.95,2.41-5.11,2.52-10.24,5-15.52,7.43-.49-1.94-1.47-3.78-2.81-5.27Z"/>
                <path class="cls-13" d="M27.99,13.13c-6.86-.45-14.11,3.11-16.99,9.36-1.96,4.23-1.8,9.17-.74,13.71-2.34-.36-4.72,1.5-5.18,3.83-.46,2.33.82,4.81,2.85,6.04,2.03,1.23,4.65,1.27,6.85.39,1.84,2.17,4.78,3.06,7.6,3.42,5.11.66,10.53-.13,14.86-2.93,4.33-2.8,7.38-7.77,7.18-12.92-.06-1.61-.45-3.26-1.44-4.54-.92-1.19-2.32-2.01-2.98-3.36-.47-.97-.5-2.09-.66-3.16-.43-2.84-1.91-5.5-4.09-7.36-2.18-1.86-5.04-2.91-7.25-2.48Z"/>
                <path class="cls-12" d="M4,26.31c.81,3.62,1.81,7.19,2.99,10.7,1.2-.49,2.53-.67,3.82-.51-.41-4.21-.5-8.46-.28-12.68,0-.12.01-.25-.05-.36-.12-.2-.4-.21-.64-.19-2.09.19-4.13.93-5.84,3.04Z"/>
                <g>
                  <path class="cls-23" d="M33.03,21.03s0-.06,0,0h0Z"/>
                  <path class="cls-12" d="M39.18,20.07c-.14-.77-.38-1.56-.82-2.21-.82-1.12-2.02-1.92-3.24-2.53-.71-.3-1.49-.29-2.25-.33-1.49-.09-2.98.07-4.45.36-.95.18-1.91.3-2.84.53-1.82.48-3.63.97-5.41,1.56-1.13.41-2.24.86-3.34,1.34-1.06.5-2.1,1.06-3.15,1.58-1.3.65-2.52,1.44-3.72,2.26-.21.12-.42.24-.63.36-.11.05-.2.14-.23.26-.04.13,0,.25.08.34.03.06.08.12.16.14.81.13,1.6.34,2.41.46.96.12,1.67.14,2.47.27,1.86.24,4.25.41,6.39.08.56-.18,3.14-.29,2.23-1.33-.13-.13-.3-.27-.48-.4,2.51.49,4.93.12,7.24-.22.85-.12,1.69-.27,2.53-.46.43-.11.9-.18,1.24-.47.34-.26.39-.78.21-1.15-.13-.2-.26-.33-.39-.45.18.05.35.1.47.14,1.42.41,2.89.66,4.38.65.58.03,1.28.04,1.15-.77Z"/>
                  <polygon class="cls-23" points="33.01 21.08 33.01 21.08 33.01 21.08 33.01 21.08 33.01 21.08"/>
                  <path class="cls-23" d="M32.99,21.11s0,0,0,0c0,0,0,0,0,0,0,0,0,.01-.01.02,0,0,0,0,0,0Z"/>
                  <path class="cls-23" d="M33.02,21.04s0,0,0,0c0,0,0,0,0,0,0,0,0,0,0,0,0,0,0,0,0,0Z"/>
                </g>
                <path class="cls-10" d="M35.11,15.33c-.12-.05-.25-.09-.37-.12-2.1-1.61-4.7-2.47-6.75-2.07-6.55-.43-13.46,2.8-16.58,8.53-.49.31-.98.64-1.47.97-.21.12-.42.24-.63.36-.11.05-.2.14-.23.26-.01.04-.01.08-.01.11-1.82.3-3.58,1.09-5.07,2.95.14.61.29,1.22.44,1.83,10.98-4.31,21.97-8.19,33.29-11-.75-.75-1.67-1.33-2.62-1.81Z"/>
                <path class="cls-20" d="M3.03,27.47c11.87-5.66,24.3-10.16,37.03-13.39-1.53-2.86-4.39-5.63-6.88-7.68-5.37-4.41-13.07-3.57-15.86-2.68-4.45,1.42-7.23,2.8-10.4,7.11-3.34,4.54-4.1,10.41-3.88,16.65Z"/>
                <path class="cls-3" d="M3.01,27.47c6.67-3.3,13.58-6.14,20.5-8.85,6.45-2.53,12.9-5.05,19.5-7.12,3.93-1.23,9.73-2.57,11.95-1.45-1.82-.43-9.07,2-13.51,3.71-12.21,4.68-25.04,7.63-36.78,13.43-.57.28-1.75,1-1.66.28Z"/>
                <g>
                  <path class="cls-1" d="M11.75,40.88s.01.03,0,0h0Z"/>
                  <path class="cls-4" d="M11.75,40.87s0,0,0-.02c-.09-.19-.19-.37-.3-.55-.31-.41-.35-.57-.81-.9-.53-.34-1.17-.63-1.81-.56-.54.07-.86.3-1.34.82-.31.32.16.8.49.48.36-.36.33-.33.65-.43.03,0,.03,0,.03,0,0,0,.01,0,.02,0,.38-.03.32-.03.57.02,1.02.28,1.12.31,1.53.7.34.29.45.52.63.72.18.16.45-.08.34-.28Z"/>
                  <path class="cls-1" d="M11.74,40.86s0,0,0,0c0,0,0,0,0,.01,0,0,0-.01,0-.02Z"/>
                </g>
                <path class="cls-18" d="M23.85,30.73c-.11-.76.3-1.44.92-1.53.62-.09,1.21.45,1.32,1.21.11.76-.3,1.44-.92,1.53s-1.21-.45-1.32-1.21Z"/>
                <path class="cls-18" d="M34.33,27.63c-.11-.76.3-1.44.92-1.53s1.21.45,1.33,1.21c.11.76-.3,1.44-.92,1.53-.62.09-1.21-.45-1.32-1.21Z"/>
                <path class="cls-9" d="M33.37,30.58c-.3-.36-.82-.5-1.29-.43-.47.08-.89.34-1.23.67-.23.22-.43.48-.47.79-.06.46.29.91.73,1.07.44.16.93.09,1.37-.06.41-.14.81-.37,1.04-.74.22-.37.19-.9-.15-1.3Z"/>
                <g>
                  <path class="cls-4" d="M33.05,32.48c-.09.05,0,0,0,0h0Z"/>
                  <path class="cls-4" d="M33.82,30.99c-.09-.29-.25-.57-.5-.74-.13-.08-.27-.14-.41-.2-.17-.04-.35-.04-.53-.02-.15.01-.3.03-.45.07-.03,0-.05.03-.06.07-.01.05.05.1.1.09.24-.07.65-.03.79.04.02,0,.04.02.06.03,0,0-.02,0,0,0,0,0,.02,0,.03.01.09.05.32.18.3.18.15.13.19.22.3.44.16.34-.06.73-.24.99-.09.12-.2.23-.3.34-.05.05-.06.13,0,.18.14,0,.17,0,.17,0,.12-.07.22-.15.31-.24.33-.32.56-.78.46-1.25Z"/>
                  <path class="cls-4" d="M33.05,32.48s0,0,.01,0c0,0,0,0,0,0,0,0,0,0,0,0,0,0,0,0,0,0Z"/>
                </g>
                <path class="cls-21" d="M31.36,32.38s-.07-.02-.12-.02c-.1-.04-.2-.06-.31-.05-.12.03-.19.16-.12.26.17.23.53.32.8.22.19-.15-.11-.37-.26-.41Z"/>
                <g>
                  <g>
                    <path class="cls-19" d="M26.19,6.47c-.34.61-.64,1.33-.95,2.25-.01.04.03.07.07.05.17-.12.37-.2.46-.18.13.05.21.23.33.4.01.01.03.02.04,0,.21-.51.73-2.47,1-2.54.01,0,.03,0,.04,0-.24-.08-.44-.11-.72-.07-.09.01-.18.05-.27.1Z"/>
                    <path class="cls-7" d="M30.95,7.59c-.29-.7-.67-1.23-.76-1.21-.05,0-.07.06-.09.11-.06.2-.08.36-.14.52-.71-.48-1.53-1.09-2.31-1.39-.22-.08-.45-.16-.67-.1-.29.07-.47.34-.62.6-.04.07-.12.28-.16.35.08-.05.18-.09.27-.1.28-.04.48,0,.72.07.44-.03,1.97.97,2.43,1.19-.15.11-.28.16-.46.3-.02.01-.04.03-.04.05-.02.06.06.1.12.11.5.1,1.02.07,1.5-.09.11-.04.23-.1.26-.21.01-.07-.01-.13-.04-.2Z"/>
                  </g>
                  <g>
                    <path class="cls-19" d="M32.93,9.54c-.42-.56-.95-1.13-1.66-1.79-.03-.03-.08,0-.07.04.04.21.05.39-.01.46-.1.1-.4.13-.52.12-.02,0-.03.02-.02.03.37.4,1.95,1.73,1.91,2.01,0,.01,0,.03-.01.04.17-.18.28-.36.36-.63.03-.09.03-.19.02-.28Z"/>
                    <path class="cls-7" d="M29.84,13.32c.76.03,1.5,0,1.52-.1.02-.06-.32-.32-.32-.32,0,0,1.35-.73,2.11-1.53.16-.17.36-.44.4-.66.05-.29-.3-.72-.47-.96-.05-.07-.1-.14-.15-.21.01.1,0,.2-.02.28-.08.27-.19.44-.36.63-.15.41-1.66,1.48-2.05,1.8-.03-.19-.07-.41-.12-.62,0-.02-.01-.05-.03-.06-.05-.04-.12,0-.15.06-.21.39-.43.95-.53,1.26-.03.11-.12.31-.02.38.05.04.13.05.19.05Z"/>
                  </g>
                  <g>
                    <path class="cls-19" d="M26.48,14.14c.7.04,2.11-.17,3.05-.39.04,0,.05-.06.02-.08-.19-.1-.51-.21-.53-.3-.01-.14.17-.45.26-.53.01-.01,0-.04-.01-.03-.6.18-3.05.49-3.24.28,0,0-.02-.02-.02-.03.03.25.13.67.28.9.05.08.12.14.21.2Z"/>
                    <path class="cls-7" d="M25.4,9.14c-.51.56-.82,1.13-.77,1.21.03.04.09.04.14.03.21-.04.24-.04.42-.06-.12.85-.21,1.83-.14,2.67.02.23.08.69.23.87.19.23.64.23.94.25.08,0,.17.01.25.02-.08-.05-.15-.12-.21-.2-.15-.23-.25-.65-.28-.9-.22-.38-.06-2.22-.06-2.72.16.09.36.21.56.3.02.01.04.02.07.02.06-.01.07-.1.05-.16-.12-.49-.38-.95-.73-1.32-.08-.08-.19-.17-.3-.14-.07.02-.12.07-.16.12Z"/>
                  </g>
                </g>
                <g>
                  <path class="cls-14" d="M34.55,35.24c-.9,0-1.77.26-2.65.45-.88.19-1.8.32-2.67.07-.79-.23-1.49-.75-2.3-.86-.81-.11-1.66.25-2.15.91-.49.65-.6,1.57-.27,2.32.2.46.54.84.92,1.17.03.03.07.06.1.09,1.46-.75,3.07-1.22,4.7-1.14,1.59.07,3.19.72,4.27,1.88.03-.01.06-.03.1-.04.7-.33,1.58-1.2,1.9-1.9.99-2.21-1.04-2.94-1.94-2.94Z"/>
                  <path class="cls-15" d="M30.23,38.24c-1.63-.08-3.25.4-4.7,1.14,1.21,1.02,2.77,1.58,4.34,1.68,1.59.1,3.18-.27,4.62-.94-1.08-1.16-2.67-1.81-4.27-1.88Z"/>
                </g>
              </g>
            </g>
            <g>
              <path class="cls-2" d="M43.33,55.21c-4.25-1.1-8.06-2.88-8.99-2.25-1.01.69-3.78,9.84-2.62,12.6,3.8,1.66,7.75,2.98,11.8,3.87-.91-4.56-.18-9.39,1.17-13.87-.45-.12-.91-.23-1.36-.35Z"/>
              <path class="cls-13" d="M72.5,65.94c-.31-.48-1.01-.48-1.58-.42-.67.07-1.35.14-2.02.21,1.24-.17,2.44-.62,3.48-1.3.42-.27.87-.78.62-1.21-.2-.36-.71-.36-1.12-.3-1.16.15-2.32.37-3.46.65,1.04-.24,2.04-.65,2.95-1.21.53-.32,1.08-.98.71-1.48-.25-.34-.76-.31-1.18-.25-1.59.24-2.69.45-4.28.69.42-.12.56-.73.56-1.04,0-1.03-1.09-2.22-1.21-2.27-.48.83-1.47,1.16-2.42,1.3-.95.14-1.92-.02-2.86-.19-5.38-.95-10.71-2.2-16-3.56-1.36,4.48-2.09,9.3-1.17,13.87,2.54.56,5.11.95,7.7,1.14,6.73.51,13.59-.3,19.9-2.69.43-.16.87-.34,1.18-.68.31-.34.45-.87.2-1.26Z"/>
              <path class="cls-3" d="M40.73,69.74c.31-5.09,1.62-10.11,3.83-14.71-2.05-.48-4.03-1.21-5.9-2.16-2.36-1.2-4.65-2.81-7.29-2.99-2.36-.16-4.77.93-6.2,2.82-1.43,1.89-1.83,4.51-1.03,6.73.55,1.54,1.62,2.84,2.78,4,3.58,3.54,8.41,5.96,13.8,6.31Z"/>
            </g>
          </g>
        </g>
      </g>
    </g>
  </g>
</svg>