<?xml version="1.0" encoding="UTF-8"?>
<svg id="Layer_2" data-name="Layer 2" xmlns="http://www.w3.org/2000/svg" viewBox="0 0 77.08 112.94">
  <defs>
    <style>
      .cls-1 {
        fill: #9dddf4;
      }

      .cls-2 {
        fill: #7c7c7b;
      }

      .cls-3 {
        fill: #8e8d8b;
      }

      .cls-4 {
        fill: #92cfe0;
      }

      .cls-5 {
        fill: #c4e8f2;
      }
    </style>
  </defs>
  <g id="Layer_1-2" data-name="Layer 1">
    <g>
      <path class="cls-1" d="M1.11,89.07c.64,2.55,1.69,4.97,2.92,7.29,8.94,16.76,49.1,24.53,65.95,5.32,1.73-1.98,3.01-4.31,4.05-6.72,4.79-11.12,4.08-24.87-3.26-34.51-4.1-5.38-10.14-9.55-12.25-15.98-2.02-6.15,0-13.27-2.86-19.07-2.19-4.43-7.28-7.19-12.18-6.8-4.77-1.17-10.24.74-13.11,4.76-3.76,5.27-2.9,12.62-5.88,18.36-3.11,6-9.75,9.16-14.65,13.81C1.07,63.86-1.83,77.32,1.11,89.07Z"/>
      <path class="cls-4" d="M1.24,88.78c.64,2.55,1.69,4.97,2.92,7.29,2.89,5.41,9.03,9.88,16.59,12.81-2.94-2.2-5.28-4.73-6.76-7.5-1.24-2.32-2.28-4.74-2.92-7.29-2.95-11.75-.04-25.21,8.75-33.54,4.91-4.65,11.54-7.81,14.65-13.81,2.98-5.74,2.12-13.1,5.88-18.36,2.87-4.02,8.34-5.93,13.11-4.76.48-.04.97-.04,1.45-.02-2.5-3.54-6.96-5.64-11.28-5.3-4.77-1.17-10.24.74-13.11,4.76-3.76,5.27-2.9,12.62-5.88,18.36-3.11,6-9.75,9.16-14.65,13.81C1.2,63.57-1.7,77.03,1.24,88.78Z"/>
      <g>
        <path class="cls-2" d="M45.26,57.27c-.18,2.08-.46,4.39-2.03,5.76-.42.37-.96.66-1.52.59-1.16-.15-1.53-1.62-1.63-2.78-.52-5.81-1.03-11.62-1.55-17.43-.12-1.33-.15-2.87.85-3.75.57-.49,1.35-.65,2.09-.76,1.5-.21,3.13-.26,4.39.57,1.79,1.19.39,6.13.23,7.99-.28,3.27-.56,6.54-.84,9.81Z"/>
        <path class="cls-2" d="M45.4,57.08c-.82-1-1.89-2.12-3.16-1.89-.91.16-1.55.97-2.08,1.73-3.47,4.95-6.49,10.22-9.03,15.7.22.01.43.02.65.03,2.22-4.32,4.89-8.41,7.95-12.19.67-.83,1.45-1.7,2.51-1.9,1.14-.21,2.26.44,3.2,1.13,3.66,2.71,6.93,7.84,11.31,9.33-1.25-1.88-3.47-3.38-5.07-4.99-2.2-2.22-4.3-4.54-6.28-6.95Z"/>
        <path class="cls-2" d="M59.7,63.16c.25,1.32.69,2.59,1,3.9.27,1.1,1.67,4.36-.68,4.24-1.81-.1-5.94-5.95-4.58-7.56h-.84c1.56,1.79,2.7,5.38,2.27,7.84-.74,4.17-3.87,3.87-5.85,1.92-.59-.58-3.04-3.55-2.16-4.6-.39-.05-.79-.1-1.18-.15.53,1.2.89,2.45.83,3.78.02.45-.04.89-.18,1.32-.05,1.36-.94,2.13-2.67,2.29-.76-.71-1.91.46-1.13,1.13,1.54,1.34,3.38.87,4.48-.8,1.65-2.51,1.12-5.91-.02-8.48-.19-.42-.89-.5-1.18-.15-1.62,1.96.1,4.17,1.47,5.85,1.35,1.67,3.51,3.14,5.77,2.51,5.39-1.51,2.98-10.4.4-13.29-.2-.22-.64-.24-.84,0-2.31,2.81,2.61,8.61,5.42,9.27,4.3,1.01.47-7.68-.29-9.02,0-.02-.03,0-.03.01h0Z"/>
        <path class="cls-3" d="M24.48,41.51c5.04,1.55,10.94,1.83,16.33,2.48v.02c.08,0,.16,0,.25,0,.31.04.62.08.93.12v-.08c5.44.23,11.3.89,16.53.17,3.29-.45,2.17-1.64,1.55-4.39-.63-2.79-.63-5.71-.63-8.56,0-4.68,0-9.35,0-14.03,0-1.7,0-3.43-.56-5.04-1.09-3.16-4.17-5.29-7.4-6.15-.43-.11-.85-.2-1.28-.28-.09-.72-.24-1.47-.4-2.23-.15-.77-.37-1.57-.93-2.11-.56-.54-1.36-.73-2.11-.89-1.91-.41-3.89-.78-5.81-.39-.54.11-1.09.29-1.49.67-.5.48-.69,1.2-.83,1.88-.15.73-.28,1.46-.39,2.2-.24.01-.48.03-.72.05-3.32.32-6.71,1.94-8.29,4.88-.8,1.5-1.09,3.21-1.36,4.88-.75,4.62-1.49,9.23-2.24,13.85-.46,2.81-.93,5.69-1.99,8.34-1.05,2.62-2.35,3.61.83,4.58Z"/>
        <path class="cls-2" d="M24.48,41.51c1.72.53,3.53.9,5.39,1.2-.4-1.33-.48-2.67.19-3.86.42-.75,1.1-1.34,1.5-2.11.48-.93.48-2.03.45-3.08-.11-3.26-.5-6.52-.36-9.77s.86-6.59,2.76-9.24c1.87-2.61,4.73-4.35,7.72-5.49,4.45-1.7,9.48-2.16,14.01-.76-1.34-1.09-2.97-1.88-4.64-2.32-.43-.11-.85-.2-1.28-.28-.09-.72-.24-1.47-.4-2.23-.15-.77-.37-1.57-.93-2.11-.56-.54-1.36-.73-2.11-.89-1.91-.41-3.89-.78-5.81-.39-.54.11-1.09.29-1.49.67-.5.48-.69,1.2-.83,1.88-.15.73-.28,1.46-.39,2.2-.24.01-.48.03-.72.05-3.32.32-6.71,1.94-8.29,4.88-.8,1.5-1.09,3.21-1.36,4.88-.75,4.62-1.49,9.23-2.24,13.85-.46,2.81-.93,5.69-1.99,8.34-1.05,2.62-2.35,3.61.83,4.58Z"/>
        <path class="cls-2" d="M38.54,75.67c-1.04.71-3.11,1.97-4.47,1.71-1.75-.34-2.99-1.81-2.49-3.55.1-.37,2.29-3.22,2.75-2.41.16.27-1.3,1.8-1.44,1.92-1.27,1.1-3.11,1.43-4.69.76-2.51-1.07-2.61-4.88-2.1-7.01.32-1.31.91-3.08,1.94-4.02.23-.71.64-.85,1.25-.41.88,0,1.01.24.38.76-.48,1.03-1.28.94-2.41-.27-1.45.09-2.16-.42-2.15-1.52-1.04-3.05,1.39-6.79,3.56-8.67.69-.6-.34-1.66-1.01-1.01-2.82,2.73-6.32,10.37-1.45,13.01,3.16,1.71,6.83-3.51,3.87-4.18-1.78-.41-3.28,2.39-3.89,3.6-1.16,2.32-1.79,5.35-.66,7.81,2.35,5.13,7.79,2.89,9.65-1.21.09-.19-.01-.47-.26-.45-2.75.18-5.29,3.38-3.76,6.1,1.64,2.89,5.77.89,7.64-.6.2-.16-.06-.49-.27-.35h0Z"/>
      </g>
      <path class="cls-5" d="M29.84,99.33c5.83.38,11.66.77,17.48,1.15-4.2-2.26-8.46-4.4-12.78-6.4,1.71-4.07,3.73-8.02,6.03-11.78-2.79,2.71-5.84,5.15-9.09,7.28-.58-3.81-1.44-7.57-2.56-11.26-1.13,3.59-2.26,7.18-3.39,10.77-5.16-3.48-10.31-6.96-15.47-10.44,3.64,3.96,7.27,7.92,10.91,11.88-2.79,1.27-5.77,2.13-8.8,2.57,3.45.58,6.9,1.15,10.35,1.73-1.45,1.67-3.28,3.02-5.31,3.9,2.17-.24,4.33-.49,6.5-.73.39-.04,1.23,7.14,2.23,7.5,1.77.64,3.4-5.03,3.92-6.17Z"/>
    </g>
  </g>
</svg>