<?xml version="1.0" encoding="UTF-8"?>
<svg xmlns="http://www.w3.org/2000/svg" viewBox="0 0 103.06 129.67">
  <defs>
    <style>
      .cls-1, .cls-2, .cls-3, .cls-4 {
        fill: #4f893f;
      }

      .cls-5, .cls-6, .cls-7 {
        opacity: .2;
      }

      .cls-5, .cls-2, .cls-8, .cls-9, .cls-10, .cls-11, .cls-4, .cls-12, .cls-13, .cls-7, .cls-14 {
        mix-blend-mode: multiply;
      }

      .cls-5, .cls-11, .cls-15 {
        fill: #467135;
      }

      .cls-16 {
        fill: #1f3c1b;
      }

      .cls-17 {
        fill: #1c2c16;
      }

      .cls-6, .cls-18 {
        mix-blend-mode: screen;
      }

      .cls-6, .cls-19 {
        fill: #a1c73a;
      }

      .cls-18, .cls-10, .cls-3, .cls-14, .cls-19, .cls-20 {
        opacity: .5;
      }

      .cls-2 {
        opacity: .4;
      }

      .cls-21 {
        fill: #183018;
      }

      .cls-22, .cls-7, .cls-14 {
        fill: #346531;
      }

      .cls-23 {
        isolation: isolate;
      }

      .cls-24 {
        fill: #315528;
      }

      .cls-8 {
        fill: #19381b;
      }

      .cls-8, .cls-9, .cls-11, .cls-12, .cls-13 {
        opacity: .3;
      }

      .cls-25 {
        fill: #142916;
      }

      .cls-9, .cls-10, .cls-26 {
        fill: #395628;
      }

      .cls-27 {
        fill: #1f552a;
      }

      .cls-28 {
        fill: #0e7a3d;
      }

      .cls-4 {
        opacity: .7;
      }

      .cls-12 {
        fill: #6d9b40;
      }

      .cls-13 {
        fill: #547a38;
      }

      .cls-29 {
        fill: #142615;
      }
    </style>
  </defs>
  <g class="cls-23">
    <g id="Layer_2" data-name="Layer 2">
      <g id="Layer_1-2" data-name="Layer 1">
        <g>
          <g>
            <g>
              <path class="cls-22" d="M52.61,78.14c-3.93-8.11-8.07-16.14-11.71-24.4-2.73-6.18-5.19-12.55-6.69-19.15,1.11-.57,2.27-1.06,3.53-1.43,2.93-.86,5.88-.79,8.84-.93.52-2.76,2.12-5.26,3.6-7.6,1.64-2.56,3.6-4.04,6.32-5.33,5.86-2.8,11.78-1.72,17.2,1.42,5.62,3.26,12.73,7.29,14.14,14.19.52,2.5-.88,5.98-1.53,8.4-1.02,3.79-1.1,7.89-1.68,11.76-.27,1.79-.49,3.49-.5,5.31,0,2.53,1.72,3.94,3.25,5.66.8.88,1.86,2.31,2.11,3.5.3,1.42-.77,3.46-.97,4.94-.26,1.96.1,3.16,1.24,4.81,1.34,1.93,2.9,2.07,5.01,2.62,2.45.64,5.49,2.04,7.07,4.06,1.59,2,1.35,5.01.73,7.26-.36,1.33-.37,1.96-1.34,3.07-1.37,1.57-2.39,3.42-3.83,4.97-1.65,1.79-4.59,3.13-7.04,3.36-1.27.11-3.64.16-4.31,1.49-.71,1.38-2.23,2.67-3.43,3.62-1.43,1.16-2.81,1.55-4.11,1.42-.27.2-.52.38-.77.57-1.38.97-2.83,1.68-4.38,2.15-8.21-11.06-14.79-23.38-20.77-35.73Z"/>
              <path class="cls-7" d="M52.61,78.14c-3.93-8.11-8.07-16.14-11.71-24.4-2.73-6.18-5.19-12.55-6.69-19.15,1.11-.57,2.27-1.06,3.53-1.43,2.93-.86,5.88-.79,8.84-.93.52-2.76,2.12-5.26,3.6-7.6,1.64-2.56,3.6-4.04,6.32-5.33.65-.31,1.3-.57,1.95-.79.77,1.44,2.61,2.55,3.64,3.61.97,1,1.95,2.33,1.17,3.77-.67,1.21-1.88,1.89-2.79,2.89-2.06,2.27-.94,5,1.24,6.74,1.71,1.38,3.78,2.4,5.17,4.11,1.14,1.42,2,3.04,2.4,4.84.79,3.53.23,7.14.17,10.72-.07,3.43.54,6.81,1.11,10.19.58,3.36,1.24,6.98,2.97,9.98,1.25,2.14,3.57,4.77,6.31,3.67,2.63-1.04,4.43-4.4,4.48-7.11.08-3.8-2.17-6.88-2.98-10.49-1.02-4.44,2.13-8.54,3.99-12.42-.23,2.02-.4,4.07-.7,6.03-.27,1.79-.49,3.49-.5,5.31,0,2.53,1.72,3.94,3.25,5.66.8.88,1.86,2.31,2.11,3.5.3,1.42-.77,3.46-.97,4.94-.26,1.96.1,3.16,1.24,4.81,1.34,1.93,2.9,2.07,5.01,2.62,2.45.64,5.49,2.04,7.07,4.06,1.59,2,1.35,5.01.73,7.26-.36,1.33-.37,1.96-1.34,3.07-1.37,1.57-2.39,3.42-3.83,4.97-1.65,1.79-4.59,3.13-7.04,3.36-1.27.11-3.64.16-4.31,1.49-.71,1.38-2.23,2.67-3.43,3.62-1.43,1.16-2.81,1.55-4.11,1.42-.27.2-.52.38-.77.57-1.38.97-2.83,1.68-4.38,2.15-8.21-11.06-14.79-23.38-20.77-35.73Z"/>
              <path class="cls-14" d="M52.61,78.14c-3.93-8.11-8.07-16.14-11.71-24.4-2.73-6.18-5.19-12.55-6.69-19.15,1.11-.57,2.27-1.06,3.53-1.43,2.93-.86,5.88-.79,8.84-.93.52-2.76,2.12-5.26,3.6-7.6.58-.91,1.21-1.68,1.9-2.35.02,1.84-.78,3.65-.85,5.54-.09,2.57,1.66,3.74,3.3,5.42,3.02,3.08,4.28,6.81,4.92,10.97.49,3.25,1.37,6.13,2.99,9,1.39,2.42,1.68,5.01,2.6,7.64.76,2.12,1.38,6.38,2.08,8.53,1.51,4.61,4.99,6.54,6.68,11.08,1.31,3.51,2.59,7.95,5.69,10.35,1.52,1.19,2.98,1.35,4.82,1.71,1.92.36,3.21,1.61,4.96,2.29,2.74,1.04,6.5.16,8.49-2.02,2.42-2.63,1.35-5.79-1.19-7.86-1.15-.95-2.52-2.14-3.61-3.49.55.15,1.15.28,1.79.45,2.45.64,5.49,2.04,7.07,4.06,1.59,2,1.35,5.01.73,7.26-.36,1.33-.37,1.96-1.34,3.07-1.37,1.57-2.39,3.42-3.83,4.97-1.65,1.79-4.59,3.13-7.04,3.36-1.27.11-3.64.16-4.31,1.49-.71,1.38-2.23,2.67-3.43,3.62-1.43,1.16-2.81,1.55-4.11,1.42-.27.2-.52.38-.77.57-1.38.97-2.83,1.68-4.38,2.15-8.21-11.06-14.79-23.38-20.77-35.73Z"/>
              <path class="cls-14" d="M60.95,94.34c3.43-3.65,7.76-5.96,12.32-7.96.37.64.75,1.26,1.17,1.87.62,1.23,1.43,2.36,2.31,3.44.64.82,1.28,1.59,2.15,2.18.92.63,1.95,1.16,2.77,1.92,1.68,1.57,1.28,3.33,2.23,5.17.62,1.23,1.63,1.44,2.87.97.38-.14.71-.49,1.11-.6.8-.18,1.45.37,2.1.66.82.36,1.68.58,2.58.6,1.95,0,3.64-.79,5.29-1.78-.14.16-.28.32-.43.47-1.65,1.79-4.59,3.13-7.04,3.36-1.27.11-3.64.16-4.31,1.49-.71,1.38-2.23,2.67-3.43,3.62-1.43,1.16-2.81,1.55-4.11,1.42-.27.2-.52.38-.77.57-1.38.97-2.83,1.68-4.38,2.15-4.58-6.2-8.68-12.78-12.43-19.54Z"/>
            </g>
            <g>
              <path class="cls-1" d="M1.38,65.48c-1.76-3.94-1.55-7.13-.93-11.31.46-3.14,1.39-6.88,4.24-8.79,3.29-2.23,6.1-2.81,10.09-2.74,1.85.01,3.69.6,5.53.56,1-.02,1.95-.48,2.93-.37l.06.72c1.21-2.78,4.56-4.91,6.96-6.55,1.11-.77,2.2-1.46,3.36-2.09,1.53,6.74,4.07,13.26,6.87,19.56,3.78,8.44,7.98,16.7,12.03,24.98,5.85,11.98,12.28,23.88,20.21,34.62-.91.23-1.85.4-2.82.48-2.54.22-4.91.52-7.35-.18.44.64.88,1.26,1.31,1.84.67.89,1.96,1.65,2.13,2.85.47,3.35-2.69,6.45-5.22,8.21-1.81,1.25-5.18,2.88-7.46,2.29-.05-.01-.1-.03-.17-.04-3.16.13-5.13-3.33-5.77-5.87-.98-3.9-4.5-7.31-6.77-10.62-.45-.66-.91-1.3-1.36-1.97-2.3-2.54-4.56-4.79-5.58-8.36-.55-1.92-.77-3.73-1.18-5.67-.52-2.35-2.31-3.87-4.09-5.31-.33-.28-.64-.54-.98-.81-.62-.43-1.23-.85-1.85-1.27-1.55-1.03-3.19-1.94-4.7-3.02-1.68-1.19-3.26-2.58-5.12-3.5-3.72-1.85-6.38-3.67-8.78-7.13-2.33-3.36-3.95-6.77-5.59-10.5Z"/>
              <path class="cls-28" d="M24.48,88.73c1.71,1.18,3.66,2,5.39,3.2,2.07,1.43,4.09,2.96,6.12,4.46,2.93,2.19,4.9,4.94,6.21,8.35.04.12-.22.04-.24-.03-2.31-3.9-5.16-6.79-8.83-9.41-1.87-1.33-3.62-2.8-5.48-4.11-1.11-.77-2.35-1.44-3.29-2.39-.1-.11.07-.12.13-.07Z"/>
              <path class="cls-2" d="M5.18,73.13c.63.82,1.24,1.64,2.01,2.33,1.19,1.06,2.43,1.46,3.89,2.02,2.05.77,3.53,2.45,5.22,3.77,1.83,1.42,3.81,2.6,5.96,3.44,3.45,1.35,6.21,3.17,8.89,5.73.91.87,4.31,5.12,5.96,4.22,1.25-.69.02-2.55-.48-3.3-3.41-5.32-5.31-11.44-8.68-16.79-2.4-3.79-6.28-6.14-9.17-9.51-1.59-1.88-2.77-4.15-2.79-6.66,0-2.4.8-4.76.44-7.17-.27-1.86-1.32-3.22-3.38-3.02-2.44.23-4.24-2.13-3.42-3.98.14-.31.42-.76.6-1.22,1.39-.28,2.86-.37,4.54-.33,1.85.01,3.69.6,5.53.56,1-.02,1.91-.54,2.89-.42,1.19-2.78,4.66-4.14,7.06-5.78,1.11-.77,2.2-1.46,3.36-2.09,1.53,6.74,4.07,13.26,6.87,19.56,3.78,8.44,7.98,16.7,12.03,24.98,5.85,11.98,12.28,23.88,20.21,34.62-.91.23-1.85.4-2.82.48-2.54.22-4.91.52-7.35-.18.44.64.88,1.26,1.31,1.84.67.89,1.96,1.65,2.13,2.85.47,3.35-2.69,6.45-5.22,8.21-1.81,1.25-5.18,2.88-7.46,2.29-.05-.01-.1-.03-.17-.04-3.16.13-5.13-3.33-5.77-5.87-.98-3.9-4.5-7.31-6.77-10.62-.45-.66-.91-1.3-1.36-1.97-2.3-2.54-4.56-4.79-5.58-8.36-.55-1.92-.77-3.73-1.18-5.67-.52-2.35-2.31-3.87-4.09-5.31-.33-.28-.64-.54-.98-.81-.62-.43-1.23-.85-1.85-1.27-1.55-1.03-3.19-1.94-4.7-3.02-1.68-1.19-3.26-2.58-5.12-3.5-3.72-1.85-6.38-3.67-8.78-7.13-.66-.93-1.24-1.89-1.79-2.84Z"/>
              <path class="cls-4" d="M47.38,123.63c-.9-3.56-3.89-6.71-6.14-9.75,1.18.85,2.28,1.82,3.07,3.11.73,1.19,1.22,2.52,2.04,3.66.37.55.82,1.04,1.26,1.56.18.46.36.92.55,1.37,1.45,3.41,4.48,1.27,6.04-.68,4.19-5.26-1.32-12.33-3.93-17.01-1.66-3-3.76-5.65-5.87-8.34-7.02-8.93-13.21-22.27-14.87-26.31-2.97-7.23-13.64-13.02-10.43-21.92.37-1.03,2.67-5.96,4.2-5.77,1.21-2.78,4.56-4.91,6.96-6.55,1.11-.77,2.2-1.46,3.36-2.09,1.53,6.74,4.07,13.26,6.87,19.56,3.78,8.44,7.98,16.7,12.03,24.98,5.85,11.98,12.28,23.88,20.21,34.62-.91.23-1.85.4-2.82.48-2.54.22-4.91.52-7.35-.18.44.64.88,1.26,1.31,1.84.67.89,1.96,1.65,2.13,2.85.47,3.35-2.69,6.45-5.22,8.21-1.81,1.25-5.18,2.88-7.46,2.29-.05-.01-.1-.03-.17-.04-3.16.13-5.13-3.33-5.77-5.87Z"/>
              <path class="cls-4" d="M51.18,128.31c1.36.3,2.25-.18,3.29-1.05,1.31-1.1,2.84-1.61,4.35-2.34.91-.43,1.92-.94,2.41-1.85.7-1.27.44-2.66-.08-3.94-.7-1.75-2.78-2.6-3.93-4-4.13-5.01-3.6-8.15-7-11.51-1.17-1.16-5.74-7.3-6.37-8.86-.4-.99,2.65,2.4,2.18,1.43-.81-1.64-1.85-3.24-2.38-5-1.39-4.69,2.43-8.11,4.28-12.02.69-1.47,1.46-3.04,2.16-4.69.81,1.66,1.63,3.31,2.44,4.95,5.85,11.98,12.28,23.88,20.21,34.62-.91.23-1.85.4-2.82.48-2.54.22-4.91.52-7.35-.18.44.64.88,1.26,1.31,1.84.67.89,1.96,1.65,2.13,2.85.47,3.35-2.69,6.45-5.22,8.21-1.81,1.25-5.18,2.88-7.46,2.29-.05-.01-.1-.03-.17-.04-1.72.07-3.08-.92-4.08-2.26.65.5,1.36.89,2.11,1.07Z"/>
              <path class="cls-4" d="M64.01,122.57c.03-2.05.64-3.67-1.17-5.1-.85-.65-2.6-2.28-5.65-5.21,1.69.19,3.36.15,4.99.8,1.18.47,2.27,1.06,3.35,1.73-.98-.03-1.98-.14-2.96-.43.44.64.88,1.26,1.31,1.84.67.89,1.96,1.65,2.13,2.85.38,2.76-1.71,5.37-3.87,7.18,1.02-1.01,1.86-2.21,1.88-3.66Z"/>
              <path class="cls-4" d="M35.76,98.15c-1.03-.92-2.31-.28-2.92.72-.11-.61-.21-1.22-.36-1.86-.48-2.16-2.03-3.61-3.66-4.96.54.27,1.07.54,1.57.82,2.58,1.38,5.06,2.78,7.08,4.94,2.96,3.17,5.07,7.18,5.84,11.44-.21-.35-.44-.7-.7-1.07-.93-1.31-1.22-2.83-1.96-4.23-.71-1.37-1.71-2.19-2.8-3.24-.79-.79-1.23-1.83-2.09-2.57Z"/>
            </g>
            <g>
              <path class="cls-26" d="M11.99,43.49c.43-.04.87-.12,1.33-.24-.03,0-.07,0-.09-.01-1.03-.14-2.76-.2-3.41-1.15-.23-.33.31-.41.53-.4,2.67.17,5.85-.6,8-2.35-1.38-.04-2.73-.53-4.05-1.68-.11-.09-.04-.48.13-.47,1.33,0,2.64.3,3.98.25,1.8-.06,3.57-.87,5.18-1.62,1.83-.82,3.48-2.02,5.28-2.9-.94-2.01-1.75-4.1-2.37-6.15-.5-1.69.03-3.86.21-5.55.22-2.05.57-4.17,1.15-6.15.95-3.31,4.55-6.26,7.03-8.43,2.05-1.79,4.94-2.94,8.27-3.89.98-.74,2.03-1.44,3.12-1.96.77-.38,1.28-.91,2.15-.76.99.16,1.6,2.46,1.93,3.14.55,1.14.84,2.51,1.14,3.73.24,1,.79,2.09.82,3.1.04,1.36-1.01,3.01-1.8,4.05-.03.05-.06.09-.08.1-.06.06-.1.1-.15.1-2.65.3-5.56-.99-8.06-1.75-.75-.24-1.53-.46-2.3-.7-.26-.07-.76-.2-1.04-.1-.28.1.82,1.86,1.27,2.39.68.82-.08.94-.73,1.17-.75.28-2.49.41-3.39.37.19,1.18.03,2.45-.4,3.52-.44,1.1-1.4,2.05-1.89,3.18-.56,1.25-1.04,2.52-1.71,3.74-1.14,2.03-.33,2.67,1.95,4.8.63.59,3.23-1.45,3.89-1.89,2.3-1.53,5.01-3.92,6.47-5.88.42-.57.47-1.46.89-1.1.85.74,1.91,2.39,2.21,3.4,1.38-1.32,1.75-2.76,2.46-4.62.08-.22.5-.87.8-.51,3.5,4.09-.74,11.76-5.88,11.79-.53.06-1.1.08-1.63.09-1.59-.19-3.2-.26-4.82.02-2.73.46-5.67,1.79-8.06,3.2-2.48,1.46-5.13,3.9-6.56,6.76-1.92,1.17-4.01,1.91-6.3,2.18-1.56.2-4.47.67-5.81-.43-.26-.2.22-.35.34-.37Z"/>
              <path class="cls-9" d="M11.99,43.49c.43-.04.87-.12,1.33-.24-.03,0-.07,0-.09-.01-1.03-.14-2.76-.2-3.41-1.15-.23-.33.31-.41.53-.4,2.67.17,5.85-.6,8-2.35-1.36-.03-2.69-.51-4-1.63,2.39,1.44,6.35,1.12,8.65.33,2.08-.7,4.42-2.13,5.42-4.16.15-.31.2-.58.2-.82.09-.05.17-.09.25-.13-.47-.97-.89-1.97-1.28-2.96-.26-2.12-.33-4.2.45-6.28.69-1.77,1.53-3.48,1.75-5.39.22-2-.23-4.2.87-5.99,1.03-1.69,2.53-3.04,4.14-4.15,1.5-1.05,3.1-1.85,4.71-2.7,1.03-.54,2.36-1.26,3.53-.71.49.24.93.5,1.45.63.97.24,1.69-.93,1.95-1.69.28-.79.44-1.68.87-2.41.29-.49.7-.9,1.13-1.25.99.18,1.6,2.46,1.93,3.14.55,1.14.84,2.51,1.14,3.73.24,1,.79,2.09.82,3.1.04,1.36-1.01,3.01-1.8,4.05-.03.05-.06.09-.08.1-.06.06-.1.1-.15.1-2.65.3-5.56-.99-8.06-1.75-.75-.24-1.53-.46-2.3-.7-.26-.07-.76-.2-1.04-.1-.28.1.82,1.86,1.27,2.39.68.82-.08.94-.73,1.17-.75.28-2.49.41-3.39.37.19,1.18.03,2.45-.4,3.52-.44,1.1-1.4,2.05-1.89,3.18-.56,1.25-1.04,2.52-1.71,3.74-1.14,2.03-.33,2.67,1.95,4.8.63.59,3.23-1.45,3.89-1.89,2.3-1.53,5.01-3.92,6.47-5.88.42-.57.47-1.46.89-1.1.85.74,1.91,2.39,2.21,3.4,1.38-1.32,1.75-2.76,2.46-4.62.08-.22.5-.87.8-.51,3.5,4.09-.74,11.76-5.88,11.79-.53.06-1.1.08-1.63.09-1.59-.19-3.2-.26-4.82.02-2.73.46-5.67,1.79-8.06,3.2-2.48,1.46-5.13,3.9-6.56,6.76-1.92,1.17-4.01,1.91-6.3,2.18-1.56.2-4.47.67-5.81-.43-.26-.2.22-.35.34-.37Z"/>
              <path class="cls-9" d="M11.99,43.49c.43-.04.87-.12,1.33-.24-.03,0-.07,0-.09-.01-.72-.1-1.78-.16-2.59-.52.06,0,.13,0,.21,0,1.44-.23,2.79-.61,4.26-.74,1.4-.12,2.67-.37,3.85-1.15.47-.32.73-.9,1.23-1.18.56-.26,1.15-.42,1.75-.46.63-.08,1.26-.37,1.81-.67,2.8-1.55,6.56-2.93,8.55-5.57.37-.5.29-1.19-.11-1.64-.77-.83-2.47-1.93-2.66-3.07-.17-1.04.46-2.17,1.13-2.9.83-.86,1.54-1.69,2-2.8.89-2.1,1.37-4.4,1.28-6.69-.13-3.61,3.71-.32,4.04-2.38.24-1.5-.39-2.88-.57-4.32.16-3.1,4.61.24,5.93.77,1.01.41,2.21.24,3.12-.33,1.33-.84,1.61-2.01,1.52-3.52,0-.15-.02-.3-.03-.46,1.22.43,2.41.96,3.61,1.52.26.93.73,1.92.76,2.86.04,1.36-1.01,3.01-1.8,4.05-.03.05-.06.09-.08.1-.06.06-.1.1-.15.1-2.65.3-5.56-.99-8.06-1.75-.75-.24-1.53-.46-2.3-.7-.26-.07-.76-.2-1.04-.1-.28.1.82,1.86,1.27,2.39.68.82-.08.94-.73,1.17-.75.28-2.49.41-3.39.37.19,1.18.03,2.45-.4,3.52-.44,1.1-1.4,2.05-1.89,3.18-.56,1.25-1.04,2.52-1.71,3.74-1.14,2.03-.33,2.67,1.95,4.8.09.09.21.11.36.11,2.04,1.21,5.84-1.21,7.3-2.46,2.02-1.77,3.54-4.13,3.43-6.59.06,0,.1.03.16.08.85.74,1.91,2.39,2.21,3.4,1.38-1.32,1.75-2.76,2.46-4.62.08-.22.5-.87.8-.51,3.5,4.09-.74,11.76-5.88,11.79-.53.06-1.1.08-1.63.09-1.59-.19-3.2-.26-4.82.02-2.73.46-5.67,1.79-8.06,3.2-2.48,1.46-5.13,3.9-6.56,6.76-1.92,1.17-4.01,1.91-6.3,2.18-1.56.2-4.47.67-5.81-.43-.26-.2.22-.35.34-.37Z"/>
              <path class="cls-10" d="M33.79,30.66c-1.12-.33-2.13-.94-2.81-1.99-1.24-1.93.9-3.73,1.75-5.36.79-1.5,1.45-3.07,2.21-4.6.4-.81.75-1.45.67-2.39-.02-.23-.86-1.93.17-1.73.42.07.83.2,1.24.27.62.13,1.24.24,1.76-.19.95-.76-.46-2.36-.67-3.14-.54-2.19,3.44.37,3.82.64.32.2.63.38.95.55-.22-.07-.43-.14-.65-.21-.75-.24-1.53-.46-2.3-.7-.26-.07-.76-.2-1.04-.1-.28.1.82,1.86,1.27,2.39.68.82-.08.94-.73,1.17-.75.28-2.49.41-3.39.37.19,1.18.03,2.45-.4,3.52-.44,1.1-1.4,2.05-1.89,3.18-.56,1.25-1.04,2.52-1.71,3.74-1.1,1.97-.37,2.64,1.75,4.61Z"/>
              <path class="cls-12" d="M50.01,12.14c1.01-1.02,1.72-2.39,1.95-3.82.2.56.35,1.13.37,1.67.04,1.36-1.01,3.01-1.8,4.05-.03.05-.06.09-.08.1-.06.06-.1.1-.15.1-1.57.18-3.23-.21-4.84-.69,1.65.24,3.3-.14,4.55-1.42Z"/>
              <path class="cls-13" d="M10.65,42.72c.61.21,1.3.24,1.95.18,1.79-.15,3.57-.4,5.37-.44,2.04-.03,3.46-.7,5.12-1.88.92-.65,1.85-1.18,2.81-1.58-.84.95-1.58,1.99-2.15,3.11-1.31.8-2.71,1.39-4.2,1.78-1.63.37-3.61.6-5.13.64-1.14.06-3.75-.57-2.54-1.02.05,0,.09-.02.12-.02.43-.04.87-.12,1.33-.24-.03,0-.07,0-.09-.01-.72-.1-1.78-.16-2.59-.52Z"/>
              <path class="cls-13" d="M33.64,33.36c1.47-1.11,3.08-2.02,4.89-2.46,1.71-.39,3.45-.47,5.16-.79,2.69-.49,5.29-1.55,6.52-4.18.76-1.61,1.04-3.32.95-5.05,2.63,4.2-1.45,11.14-6.34,11.17-.53.06-1.1.08-1.63.09-1.59-.19-3.2-.26-4.82.02-1.81.3-3.69,1-5.46,1.83.23-.22.47-.43.74-.62Z"/>
              <path class="cls-17" d="M47.07,2.41c0-.83.26-2.2,1.11-2.41.09,0,.17.01.26.03.99.16,1.6,2.46,1.93,3.14.55,1.14.84,2.51,1.14,3.73.24,1,.79,2.09.82,3.1.04,1.36-1.01,3.01-1.8,4.05-.03.05-.06.09-.08.1-.06.06-.1.1-.15.1-.16.02-.31.03-.47.04-.48,0-1.55-3.76-1.95-5.59-.38-1.78-.74-3.81-.8-6.29Z"/>
              <path class="cls-8" d="M48,9.3c.71.72,1.49-.11,1.78-1.11.67-2.25-.03-4.93-1.1-6.95-.29-.53-.61-.83-.93-.98.13-.13.26-.22.43-.26.09,0,.17.01.26.03.99.16,1.6,2.46,1.93,3.14.55,1.14.84,2.51,1.14,3.73.24,1,.79,2.09.82,3.1.04,1.36-1.01,3.01-1.8,4.05-.03.05-.06.09-.08.1-.06.06-.1.1-.15.1-.16.02-.31.03-.47.04-.44-.01-1.35-3.05-1.82-4.99Z"/>
              <path class="cls-8" d="M51.19,9.98c.24-2.38-.21-4.86-.95-7.13t-.01-.01c.06.14.11.25.15.33.55,1.14.84,2.51,1.14,3.73.24,1,.79,2.09.82,3.1.04,1.36-1.01,3.01-1.8,4.05-.03.05-.06.09-.08.1-.06.06-.1.1-.15.1-.16.02-.31.03-.47.04-.17,0-.45-.56-.74-1.34,1.3-.1,2-1.87,2.11-2.97Z"/>
              <path class="cls-25" d="M32.32,14.72c-.21-2.26.3-5.42,2.34-6.8.05-.04.18.04.13.09-1.87,1.65-2.19,4.46-2.31,6.77.01.06-.14-.01-.16-.06Z"/>
              <path class="cls-25" d="M31.44,12.85c.03-.07.24.02.23.1-.15,1-.12,2.04.15,3.03.02.1-.16.02-.18-.03-.43-1.01-.46-2.04-.2-3.1Z"/>
              <path class="cls-25" d="M46.38,1.99c.02-.06.18,0,.18.07-.44,2.28,0,4.62.33,6.89.02.08-.17,0-.19-.05-.46-2.24-.9-4.67-.32-6.91Z"/>
            </g>
            <g>
              <path class="cls-6" d="M39.62,27.69c1.71-1.52,4.06-2.64,5-4.87.02-.05.16-.12.13-.04-.61,2.28-3.21,3.79-5.03,5-.11.07-.21,0-.1-.09Z"/>
              <path class="cls-6" d="M32.18,8.99c1.7-1.65,3.73-3.04,5.86-4.06,1.34-.64,2.65-1.08,4.09-1.43,1.73-.42,2.76-1.45,4.09-2.48.07-.05.29-.08.16.06-.68.8-1.17,1.54-2.12,2.06-1.12.63-2.38.89-3.62,1.18-1.59.37-3.36,1.24-4.72,2.1-1.28.83-2.6,1.55-3.7,2.58-.02.02-.06.02-.04-.02Z"/>
              <path class="cls-6" d="M26.36,23.85c.14-1.5.41-2.98.65-4.45.25-1.5.74-3.04,1.2-4.47.38-1.19,1.2-1.92,1.79-2.96,0-.02.1-.06.08-.02-.34.86-.91,1.62-1.27,2.52-.51,1.35-.74,2.86-1.1,4.27-.37,1.49-.68,3.08-.89,4.6-.23,1.61-.07,3.02.22,4.62,0,.03-.06.07-.09.04-.3-1.39-.71-2.73-.61-4.16Z"/>
              <path class="cls-6" d="M16.39,37.75c4.24.16,8.52-1.31,11.64-4.24,0,0,.08-.04.06,0-.31.61-.91,1.01-1.43,1.38-1.05.74-2.06,1.49-3.24,2.01-2.14.96-4.81,1.39-7.12.97-.09-.02.04-.11.09-.11Z"/>
            </g>
            <g>
              <path class="cls-15" d="M58.86,113.91c3.19,1.85,7.7,4.97,11.56,4.13,1.27-.28,2.56-.47,3.79-.9,1.22-.42,2.46-1.68,3.5-2.4,1.75-1.2,4.54-2.96,5.35-5.06.91-2.38.13-5.84-.57-8.22-.99-3.24-2.1-5.57-4.63-8-2.93-2.84-3.6-6.21-5-9.93-1.22-3.18-2.17-6.12-3.97-9.04-2.06-3.32-3.94-7.15-5.15-10.87-1.11-3.46-1.63-7.07-2.62-10.56-.62-2.22-1.25-4.43-1.61-6.71-.25-1.52-.41-3.16-1.02-4.59-1.24-2.93-3.26-6.07-5.74-8.07-1.84-1.49-3.79-2.87-6.2-3.03-1.02-.27-2.13-.22-3.14.03-.32.08-.65.14-.98.18-.33.02-.63.05-.93.07-.15,0-.3.03-.44.06-1.23.07-2.46.13-3.57.55-2.19.85-4.62,1.1-6.67,2.28-2.19,1.27-3.6,2.64-5.4,4.37-1.88,1.81-3.27,3.47-4.15,5.98-.88,2.43-1.02,4.86-1.19,7.42-.31,4.76,1.96,8.97,5.08,12.5,3.94,4.46,6.05,10.01,8.83,15.19,1.21,2.25,2.65,4.54,4.11,6.64,1.87,2.67,3.47,5.46,5.23,8.19,2.89,4.44,7.24,7.81,9.59,12.64,1.28,2.6,3.37,5.65,5.94,7.13Z"/>
              <path class="cls-5" d="M43.34,94.14c-1.77-2.72-3.37-5.51-5.23-8.19-1.45-2.1-2.9-4.39-4.11-6.64-2.78-5.18-4.89-10.73-8.83-15.19-2.28-2.58-4.09-5.51-4.8-8.76.48.62,1.03,1.23,1.69,1.82,1.39,1.25,2.9,2.18,4.5,3.11,2.04,1.18,4.02,2.47,6.06,3.65,2.09,1.2,4.3,2.21,6.34,3.46,2.22,1.37,3.71,3.15,4.91,5.45,1.07,2.05,1.92,4.24,3.17,6.2,1.18,1.83,2.6,3.24,4.21,4.69,1.78,1.59,3.54,3.25,4.27,5.58.66,2.1.93,4.29,1.35,6.44.7,3.58,1.64,7.66,4.76,9.94,1.97,1.44,4.59,2.19,6.79.76,2.09-1.35,3.26-3.84,3.23-6.3-.01-4.04-2.04-7.11-5.06-9.64-1.72-1.43-2.6-2.69-2.44-4.96.15-1.88.43-3.78.04-5.64-.69-3.31-2.96-5.56-4.59-8.39-1.11-1.97-1.81-3.82-1.4-6.1.25-1.43.74-2.85.82-4.3.11-1.49-.11-3.03-.89-4.32-1.07-1.78-3.06-3.15-3.72-5.16-1.25-3.84.97-7.52.38-11.35-.48-3-2.43-5.75-5.02-7.31-2.19-1.32-4.59-1.92-7.07-2.14.24-.05.48-.08.71-.14,1.01-.26,2.12-.3,3.14-.03,2.41.16,4.36,1.54,6.2,3.03,2.48,2,4.51,5.13,5.74,8.07.61,1.44.77,3.07,1.02,4.59.35,2.28.98,4.49,1.61,6.71,1,3.49,1.52,7.1,2.62,10.56,1.21,3.72,3.1,7.55,5.15,10.87,1.8,2.93,2.75,5.86,3.97,9.04,1.39,3.71,2.07,7.09,5,9.93,2.53,2.43,3.65,4.76,4.63,8,.71,2.38,1.49,5.84.57,8.22-.81,2.09-3.6,3.86-5.35,5.06-1.04.72-2.29,1.98-3.5,2.4-1.23.42-2.52.61-3.79.9-3.86.84-8.37-2.27-11.56-4.13-2.57-1.48-4.65-4.53-5.94-7.13-2.36-4.83-6.7-8.19-9.59-12.64Z"/>
              <path class="cls-11" d="M43.34,94.14c-1.3-2-2.52-4.06-3.82-6.06,1.9,2.43,3.66,4.99,5.62,7.38,2.38,2.89,5.05,5.44,7.34,8.42,1.89,2.49,3.9,5.28,6.67,6.86,2,1.14,4.29,1.64,6.47,1.33,1.2-.02,2.39-.22,3.5-.57,5.08-1.66,10.24-7.53,7.15-13.06-1.15-2.05-3-3.58-4.15-5.61-1.05-1.87-1.05-3.66-.96-5.75.14-3.64-.51-7.09-1.69-10.54-.31-.92-.65-1.85-1.02-2.76.16.24.3.49.45.72,1.8,2.93,2.75,5.86,3.97,9.04,1.39,3.71,2.07,7.09,5,9.93,2.53,2.43,3.65,4.76,4.63,8,.71,2.38,1.49,5.84.57,8.22-.81,2.09-3.6,3.86-5.35,5.06-1.04.72-2.29,1.98-3.5,2.4-1.23.42-2.52.61-3.79.9-3.86.84-8.37-2.27-11.56-4.13-2.57-1.48-4.65-4.53-5.94-7.13-2.36-4.83-6.7-8.19-9.59-12.64Z"/>
              <path class="cls-11" d="M59.79,113.94c1.33.3,2.7.35,4.03.66,1.02.25,2.02.67,3.07.75.71.05,1.44-.16,2.11-.35,1.44-.4,2.92-.09,4.36-.37,2.21-.42,4.27-1.54,5.71-3.29,1.22-1.48,2.65-3.83,2.28-5.84-.22-1.25-.84-2.4-.91-3.67-.05-1.16.09-2.38-.18-3.51-.38-1.6-1.14-3.03-1.98-4.43,2.23,2.28,3.26,4.52,4.21,7.58.71,2.38,1.49,5.84.57,8.22-.81,2.09-3.6,3.86-5.35,5.06-1.04.72-2.29,1.98-3.5,2.4-1.23.42-2.52.61-3.79.9-3.86.84-8.37-2.27-11.56-4.13-.34-.19-.65-.4-.95-.64.61.28,1.24.51,1.88.66Z"/>
            </g>
            <g>
              <path class="cls-16" d="M69.9,35.51c-.07-.24-.09-.46-.05-.67.1-.39.45-.59.67-.9.21-.34.68-.56,1.07-.71.64-.3,1.5-.06,1.53.71,0,.89,1.03,1.37.94,2.37-.09.82-1.18,1.37-1.52,2.09-.33.69-1.39.25-1.72-.19-.57-.78-.97-1.73-.91-2.7Z"/>
              <path class="cls-29" d="M70.55,36.37c-.05-.16-.07-.32-.04-.48.08-.29.32-.43.47-.64.17-.24.51-.41.75-.51.48-.21,1.1-.05,1.1.52,0,.63.76.97.68,1.69-.06.59-.84.98-1.07,1.49-.24.49-1.01.19-1.25-.13-.4-.57-.67-1.25-.65-1.95Z"/>
              <path class="cls-29" d="M70.6,71.18c2,1.37,4.03,2.58,5.9,4.15,1.02.87,1.96,1.5,3.31,1.71,3.3.51,3.07-2.35,3.53-4.68.19-.89-.03-1.83.15-2.69.16-.73.39-1.41.04-2.14-.44-.91-.96-1.9-1.18-2.91-.18-.77-.2-1.76-.67-2.44-.95-1.35-.54-3.15-1.13-4.58,0-.3-.03-.59-.14-.78-.82-1.25-2.27-1.54-2.85-3.07-.92-2.42-2.89-1.82-4.76-.92-1.41.66-1.35,2.28-2.26,3.29-1.24,1.38-1.41,2.46-1.57,4.28-.18,1.97-.78,4.2-.26,6.17.37,1.33.63,3.77,1.88,4.62Z"/>
              <path class="cls-16" d="M68.72,66.56c-.51-1.97.09-4.2.26-6.17.16-1.82.33-2.9,1.57-4.28.91-1.01.85-2.63,2.26-3.29,1.88-.9,3.84-1.5,4.76.92.58,1.53,2.02,1.82,2.85,3.07.11.19.14.48.14.78.59,1.44.18,3.24,1.13,4.58.46.68.49,1.67.67,2.44.22,1.01.74,2,1.18,2.91.35.73.12,1.41-.04,2.14-.18.87.03,1.8-.15,2.69-.32,1.59-.31,3.42-1.32,4.26.62-.79.65-2.16.89-3.38.15-.76-.03-1.55.13-2.29.13-.61.32-1.2.04-1.81-.38-.79-.83-1.61-1.02-2.47-.15-.66-.18-1.51-.58-2.08-.8-1.15-.44-2.68-.94-3.91,0-.25-.03-.49-.12-.64-.7-1.08-1.93-1.32-2.42-2.62-.79-2.07-2.45-1.54-4.06-.79-1.18.56-1.14,1.94-1.91,2.8-1.06,1.17-1.19,2.08-1.34,3.62-.15,1.7-.67,3.57-.22,5.27.28,1.01.49,2.76,1.29,3.65-.4-.26-.78-.53-1.18-.79-1.25-.85-1.51-3.29-1.88-4.62Z"/>
              <path class="cls-16" d="M83.38,87.81c.57.29,1.19.61,1.82.74.89.2,1.76-.28,2.62-.16,1.65.23,2.36-.59,1.88-2.15-.26-.85-.53-1.77-1.03-2.53-.33-.51-.28-1.28-.8-1.64-.29-.23-.63-.44-.98-.58-.44-.28-.94-.44-1.44-.43-1.62.03-1.81,1.32-2.29,2.68-.52,1.45-1.69,3.07.23,4.07Z"/>
              <path class="cls-29" d="M83.51,86.98c.5.26,1.01.52,1.54.64.75.16,1.48-.25,2.23-.15,1.39.2,1.98-.49,1.58-1.82-.22-.72-.44-1.5-.87-2.15-.28-.42-.24-1.09-.67-1.4-.24-.19-.54-.36-.84-.47-.37-.23-.79-.38-1.23-.37-1.38.03-1.54,1.13-1.94,2.27-.44,1.25-1.44,2.61.2,3.46Z"/>
              <path class="cls-24" d="M55.87,85.89c1.11.39,2.86.89,4.02.68.77-.15,2.26-.99,1.67-2.02-.33-.62-.87-.96-1.3-1.5-.57-.7-.73-1.39-1.04-2.18.04-.97-.06-1.9-1.08-2.31-1.05-.43-2.33.06-2.88,1.04-.33.61-.92,1.17-1.04,1.9-.13.8-.04,1.84-.27,2.59-.44,1.38.98,1.47,1.92,1.8Z"/>
              <path class="cls-21" d="M56.22,85.71c.79.25,2.07.54,2.89.35.54-.13,1.57-.78,1.12-1.49-.26-.43-.64-.67-.98-1.02-.43-.47-.57-.96-.82-1.52,0-.69-.11-1.33-.86-1.6-.76-.26-1.65.13-2.01.84-.21.45-.63.87-.68,1.38-.05.57.04,1.32-.09,1.85-.26,1,.74,1.02,1.42,1.21Z"/>
              <path class="cls-27" d="M43.95,106.79c-.37-.59-.54-1.33-.71-2.01-.11-.52-.44-1.32-.28-1.85.13-.45.85-.35,1.18-.23.33.1.54.3.73.59.19.28.45.49.7.73.38.14.57.37.85.71.49.59,1.1,1.06,1.6,1.64.61.7-1.23,1.5-1.67,1.61-1.24.28-1.72-.15-2.41-1.2Z"/>
              <path class="cls-21" d="M44.8,106.52c-.25-.4-.37-.9-.49-1.35-.07-.36-.28-.9-.19-1.25.1-.31.58-.23.8-.16.22.06.37.21.49.4.15.18.31.33.48.49.24.1.37.26.57.48.34.39.75.72,1.08,1.11.42.49-.84,1.04-1.13,1.1-.83.2-1.16-.08-1.62-.82Z"/>
            </g>
            <g class="cls-18">
              <path class="cls-3" d="M24.1,53.39c-.58-.93-1.02-1.78-1.16-2.88-.16-1.24.22-2.54.31-3.76.12-1.38.08-2.65.61-3.97.43-1.14,1.34-2.14,2.12-3.07,1.76-2.12,3.7-4.35,6.26-5.52,1.23-.57,2.52-.98,3.85-1.25,1.08-.22,2.22,0,3.29-.22.07-.02,0,.08-.05.1-2.49.67-5.04.54-7.36,1.95-2.79,1.7-4.93,4.18-6.81,6.81-.81,1.16-1,2.52-1.08,3.9-.07,1.18-.21,2.33-.32,3.52-.28,2.95,1.92,5.15,3.99,6.93.85.72,1.79,1.33,2.58,2.12,1.01.99,1.66,2.23,2.76,3.16,1.9,1.62,4.85,1.59,6.62,3.33,1.72,1.68,3.54,3.86,4.45,6.1.96,2.39,2.54,4.53,4.04,6.62.05.07-.13.19-.19.13-1.94-1.57-3.37-4.17-4.36-6.43-.62-1.42-1.53-2.62-2.58-3.75-1.06-1.13-1.87-2.4-3.34-3.05-1.37-.61-2.8-1.06-4.16-1.72-1.23-.61-2.09-1.45-2.91-2.55-1.85-2.49-4.86-3.85-6.56-6.49Z"/>
              <path class="cls-19" d="M1.65,63.78c-.25-1.4-.7-2.77-.83-4.19-.12-1.47.78-2.7,1.05-4.13.45-2.5-.98-5.08.6-7.27,1.43-1.97,3.79-3.73,6.27-3.98.14-.02,0,.14-.06.16-2.64.57-6.4,2.99-6.29,6.03.04,1.07.32,2.11.38,3.17.05,1.13-.25,2.26-.69,3.29-.5,1.26-.71,2.39-.37,3.74.28,1.08.49,2.18.66,3.27.18,1.26.92,2.45,1.37,3.61.49,1.23,1.15,2.38,1.69,3.6.03.09-.2.23-.25.15-1.37-2.25-3.03-4.86-3.53-7.45Z"/>
              <path class="cls-19" d="M64.27,18.79c2.34-.09,4.27.29,6.38,1.21,2.5,1.11,4.71,2.86,7.22,3.88,2.37.95,4.09,3.29,5.65,5.2.88,1.07,1.83,1.6,2.36,2.93.41.99.88,2.24.56,3.3,0,.05-.17.14-.17.07.12-1.06-.67-2.46-1.11-3.41-.5-1.03-1.55-1.64-2.32-2.46-1.72-1.84-3.24-4-5.59-5.09-2.19-1.01-4.11-2.55-6.25-3.63-1.08-.54-2.22-1.19-3.43-1.34-1.12-.14-2.26-.34-3.38-.52-.09-.01.05-.14.09-.13Z"/>
              <path class="cls-19" d="M84.84,42.28c.59-1.71,1.51-3.5,1.57-5.35-.01-.04.11-.11.12-.05.23,1.82-.51,3.78-1.4,5.35-.04.08-.34.21-.28.06Z"/>
              <path class="cls-3" d="M59.86,100.83c-.11-.97-1.12-1.55-1.35-2.46-.29-1.01-.19-2.06-.48-3.07-.27-.92-.48-1.93-.51-2.88-.05-1.08-.42-2.07-.55-3.14,0-.08.17-.17.19-.1.16.84.63,1.49.62,2.35.02.7.27,1.59.45,2.28.2.81.46,1.6.57,2.41.14.96.11,1.71.65,2.56.37.61.8,1.06,1,1.76.15.57.08.92.38,1.47.21.37.5.75.76,1.08.96,1.39,3.56,3.12,5.3,2.59.08-.02.03.06,0,.09-1.37.69-2.58.1-3.84-.6-1.65-.91-2.96-2.47-3.2-4.35Z"/>
              <path class="cls-19" d="M34.79,101.9c0-.08.19-.2.2-.1.35,1.7.65,3.38,2.08,4.5,1.18.89,1.98,2.31,2.88,3.46.53.69,1.32,1.07,1.81,1.8.45.68.78,1.43,1.23,2.1,1,1.5,2.1,2.75,2.88,4.38.02.04-.07.09-.1.07-.89-1.56-2.01-2.82-3.08-4.25-.49-.65-.85-1.39-1.33-2.06-.6-.82-1.52-1.31-2.16-2.1-.53-.63-1.05-1.21-1.53-1.87-.45-.65-1.11-1.05-1.65-1.61-1.07-1.16-1.04-2.85-1.23-4.32Z"/>
              <path class="cls-3" d="M41.97,32.05c.29.04.67-.03.96-.04.28,0,.59.08.85.11.28.02.54.04.83.04.27.03.48.2.72.33.1.05-.1.15-.15.15-.33-.04-.63-.17-.96-.18-.29.01-.59-.01-.86-.04-.28-.03-.53-.09-.8-.12-.24-.01-.49-.04-.7-.13-.05-.03.06-.11.1-.11Z"/>
            </g>
          </g>
          <g class="cls-20">
            <path class="cls-29" d="M38.93,95.59c-.04-.16.07-.49.2-.33.04.06.07.11.1.18.05.1.02.33-.1.37l-.12.06c-.13.05-.11-.16-.07-.28Z"/>
            <path class="cls-29" d="M38.55,105.33c.2-.11.31.05.4.2.04.08,0,.52-.14.39-.07-.06-.15-.19-.24-.15-.17.07-.14-.38-.01-.44Z"/>
            <path class="cls-29" d="M47.65,110.51c.17-.13.2.33.06.4-.17.13-.18-.32-.06-.4Z"/>
            <path class="cls-29" d="M50.36,119.33c-.08-.14.04-.6.19-.42.09.13.17.21.17.39,0,.08,0,.25-.11.26-.13.01-.17-.14-.25-.23Z"/>
            <path class="cls-29" d="M52.61,125.57c.07.1.13.19.19.31.02.05-.02.33-.12.25-.08-.07-.14-.16-.21-.25-.06-.11.05-.45.14-.31Z"/>
            <path class="cls-29" d="M59.73,122.85s.02,0,.04.01c.01-.06.05-.1.1-.06.03.04.08.08.1.14.04.09.01.21-.06.29-.06.06-.16.03-.24.02-.17-.02-.09-.44.06-.4Z"/>
            <path class="cls-29" d="M48.99,113.03c0-.1.05-.29.14-.21.21.17.14.44-.06.59-.14.12-.19-.26-.07-.38Z"/>
            <path class="cls-29" d="M43.85,114.61s.07.09.09.14c.05.06-.02.36-.11.24-.04-.03-.07-.07-.12-.11-.08-.1.07-.4.13-.28Z"/>
            <path class="cls-29" d="M67.33,113.62q.05.09.13.04c.13-.06.08.28.03.34-.15.13-.21.13-.32-.02-.09-.13.06-.51.16-.36Z"/>
            <path class="cls-29" d="M76.69,110.87c.17.01.3-.04.45-.12.15-.07.12.33.04.4-.17.14-.32.2-.53.18-.17,0-.11-.49.05-.46Z"/>
            <path class="cls-29" d="M77,101.78c.01-.16-.11-.33-.18-.46-.04-.08,0-.39.12-.27.2.22.3.46.28.76-.02.26-.25.23-.23-.03Z"/>
            <path class="cls-29" d="M73.5,91.87c.09-.19-.02-.3-.1-.48-.03-.04.02-.32.11-.24.31.25.3.62.13.95-.11.25-.23-.09-.15-.23Z"/>
            <path class="cls-29" d="M71.06,106.58c-.04-.07-.08-.15-.13-.24-.02-.06.02-.36.1-.27.18.18.34.38.49.61.04.08.05.44-.11.41-.17-.03-.26-.07-.35-.22-.05-.06-.04-.2,0-.29Z"/>
            <path class="cls-29" d="M56.17,106.7s.08-.04.14-.04c.14-.03.09.26.05.32-.06.06-.11.11-.16.15-.14.12-.19-.33-.03-.43Z"/>
            <path class="cls-29" d="M51.96,95.71s.08-.04.13-.06c.1-.05.06.23.01.27-.04.05-.08.08-.13.12-.09.09-.17-.27-.01-.33Z"/>
            <path class="cls-29" d="M42.45,79.96c.04.06.09.11.1.21.02.05-.02.29-.11.26-.07-.02-.1-.08-.14-.14-.1-.11.05-.49.15-.33Z"/>
            <path class="cls-29" d="M70.33,82.82s.08-.07.13-.11c.1-.09.13.23.01.28-.03.03-.08.05-.13.08-.11.04-.06-.21-.01-.25Z"/>
            <path class="cls-29" d="M68.45,94.99c.14-.09.15.24.06.3-.14.1-.15-.24-.06-.3Z"/>
            <path class="cls-29" d="M68.12,103.11c.09-.05.11.17.04.2-.08.07-.1-.15-.04-.2Z"/>
            <path class="cls-29" d="M66.52,53.86c.12-.07.12.2.05.25-.1.07-.11-.2-.05-.25Z"/>
            <path class="cls-29" d="M67.13,65.43c.16-.11.17.29.05.36-.16.11-.17-.28-.05-.36Z"/>
            <path class="cls-29" d="M68.73,72.1c.07.09.13.19.18.3.03.05,0,.29-.09.22-.08-.07-.13-.16-.2-.25-.07-.08.03-.4.11-.26Z"/>
            <path class="cls-29" d="M73.95,78.95c.09.08.24.09.34.06.18-.05.13.35.03.42-.19.15-.4.11-.55-.06-.12-.13.01-.61.18-.42Z"/>
            <path class="cls-29" d="M83,75.06c.2-.13.21.34.07.43-.19.14-.19-.34-.07-.43Z"/>
            <path class="cls-29" d="M78.27,86.89c.1.13.19.26.26.4.06.08,0,.47-.14.32-.1-.11-.2-.24-.28-.37-.07-.11.04-.52.16-.35Z"/>
            <path class="cls-29" d="M86.81,96.04c.13-.09.13.25.05.31-.14.1-.15-.24-.05-.31Z"/>
            <path class="cls-29" d="M97.15,87.45c.2-.13.21.36.07.45-.19.14-.21-.36-.07-.45Z"/>
            <path class="cls-29" d="M100.17,93.24c0-.2.07-.38.22-.54.15-.13.19.31.08.39-.07.06-.11.13-.15.2-.04.12-.15.04-.14-.05Z"/>
            <path class="cls-29" d="M94.32,101.93c-.02-.1-.02-.2,0-.31.03-.3.28-.25.25.04,0,.1.05.19.1.27.04.06.05.5-.11.43-.07-.02-.12-.05-.17-.07-.01,0-.1-.04-.05-.02-.1-.03-.1-.25-.01-.34Z"/>
            <path class="cls-29" d="M91.23,90.29c.16-.11.16.26.07.33-.15.1-.16-.27-.07-.33Z"/>
            <path class="cls-29" d="M87.12,102.23c-.06-.11,0-.41.11-.47.03-.02.06,0,.1.04l.02.04h0l.02.03c.16.14-.06.6-.19.43-.01,0-.01-.02-.01-.02t0-.02l-.03-.02Z"/>
            <path class="cls-29" d="M95.22,94.27c.02-.08.04-.15.07-.22.04-.11.13-.05.13.05,0,.09,0,.17-.01.26-.04.27-.23.15-.18-.08Z"/>
            <path class="cls-29" d="M86.61,71.5s.03-.3.11-.23c.03.03.07.06.1.09.15.13-.05.5-.14.3l-.07-.17Z"/>
            <path class="cls-29" d="M83.76,54.61s.05-.01.07,0h0c.15.03.29.06.26.26-.02.22-.18.2-.33.18,0,0,0,0-.01,0-.01,0-.04,0-.05,0-.16-.04-.1-.47.05-.44Z"/>
            <path class="cls-29" d="M64.9,57.19s.04,0,.09,0c-.02-.14.04-.35.14-.23.14.13.22.26.15.46-.05.19-.21.2-.37.23-.2.03-.15-.43-.01-.45Z"/>
            <path class="cls-29" d="M61.03,45.51c.07-.04.06-.05.08-.13.04-.15.19-.16.17.02,0,.23-.03.4-.22.57-.18.13-.22-.36-.04-.47Z"/>
            <path class="cls-29" d="M60.77,39.86c.08.2.26-.1.2-.29.02-.08.03-.27-.05-.22-.17.11-.22.33-.14.51Z"/>
            <path class="cls-29" d="M56.47,34.41c.16-.13.34-.13.5-.22.11-.07.16.32,0,.39-.16.08-.32.04-.48.07-.12.02-.07-.21-.04-.24Z"/>
            <path class="cls-29" d="M53.37,32.31s.1-.02.14-.03c.02-.02.04-.02.07-.03h0c-.04-.11.03-.46.14-.32.11.14.19.33.09.52-.09.18-.27.2-.48.23-.11,0-.09-.33.03-.37Z"/>
            <path class="cls-29" d="M53.42,27.38c.05-.19.17-.33.23-.52.04-.13.13-.06.12.04-.05.2-.15.38-.2.58-.04.18-.17.03-.14-.11Z"/>
            <path class="cls-29" d="M18.07,51c0-.14-.04-.24-.13-.36-.06-.09.03-.39.11-.28.15.22.2.41.14.66-.01.11-.13.1-.12-.02Z"/>
            <path class="cls-29" d="M20,60.98c.15-.11.17.29.05.36-.15.11-.17-.29-.05-.36Z"/>
            <path class="cls-29" d="M23.28,60.22c0-.06.02-.19.09-.22.08-.01.13.06.18.12.09.13-.07.54-.17.38-.05-.1-.08-.17-.1-.28Z"/>
            <path class="cls-29" d="M24.68,68.14c.04.05.09.05.14.03.15-.06.11.32.01.38-.11.07-.21.05-.3-.05-.12-.12.06-.51.14-.36Z"/>
            <path class="cls-29" d="M34.11,75.43c.03.06.06.1.08.15.05.06-.03.35-.11.24-.04-.04-.06-.08-.09-.13-.07-.09.04-.38.12-.26Z"/>
            <path class="cls-29" d="M33.89,82.55c.17.04.33.05.45.16.06.07.05.24-.04.29-.16.08-.31.03-.47-.01-.15-.03-.09-.45.05-.43Z"/>
            <path class="cls-29" d="M39.67,86.57c.18-.12.19.32.08.39-.19.13-.2-.31-.08-.39Z"/>
            <path class="cls-29" d="M43.95,94.28c0,.06.04.11.06.16.03.04,0,.32-.1.24-.04-.02-.07-.05-.1-.08-.17-.13.05-.53.14-.32Z"/>
            <path class="cls-29" d="M50.04,101.99c.12.03.21.03.26.14.04.08,0,.19-.04.24-.08.08-.18.05-.28.04-.16-.02-.08-.48.06-.43Z"/>
            <path class="cls-29" d="M32.98,96.1s.07.1.08.16c.03.05-.01.4-.14.31-.05-.04-.07-.08-.1-.14-.1-.11.05-.51.16-.34Z"/>
            <path class="cls-29" d="M34.41,99.35c.05.06.09.06.15.03.1-.04.09.23.01.28-.11.06-.21.04-.28-.06-.07-.08.04-.36.12-.25Z"/>
            <path class="cls-29" d="M37.87,100.31c.13-.09.13.22.05.29-.12.07-.13-.22-.05-.29Z"/>
            <path class="cls-29" d="M18.5,45.64c.1-.07.15.13.05.2-.1.06-.14-.14-.05-.2Z"/>
            <path class="cls-29" d="M13.89,45.87c.19-.13.28.23.11.34-.19.13-.27-.23-.11-.34Z"/>
            <path class="cls-29" d="M9.47,44.74c.15-.11.23.2.1.3-.16.11-.24-.21-.1-.3Z"/>
            <path class="cls-29" d="M22.73,42.88c.02-.07.02-.14.04-.23.02-.25.37-.16.29.1-.02.07-.05.14-.07.21-.04.18-.26.09-.26-.09Z"/>
            <path class="cls-29" d="M20.9,47.15c.18-.12.25.21.11.32-.17.12-.25-.22-.11-.32Z"/>
            <path class="cls-29" d="M67.08,73.21c.1-.07.15.11.07.17-.1.08-.14-.11-.07-.17Z"/>
            <path class="cls-29" d="M63.78,64.55c.14-.11.2.18.08.25-.14.1-.21-.18-.08-.25Z"/>
            <path class="cls-29" d="M62.69,58c.17-.11.26.21.11.3-.17.12-.26-.2-.11-.3Z"/>
            <path class="cls-29" d="M61.38,52.79c.16-.11.22.2.1.3-.17.12-.24-.2-.1-.3Z"/>
            <path class="cls-29" d="M52.88,22.33c.14-.09.2.18.08.25-.13.1-.2-.17-.08-.25Z"/>
            <path class="cls-29" d="M50.75,30.84c.19-.14.28.23.11.35-.18.13-.27-.24-.11-.35Z"/>
            <path class="cls-29" d="M57.75,27.42c.1-.06.13.13.06.19-.11.07-.16-.13-.06-.19Z"/>
            <path class="cls-29" d="M57.9,22.56c.03-.07.11-.11.16-.04.16.21-.06.48-.27.27-.09-.09.02-.29.11-.23Z"/>
          </g>
        </g>
      </g>
    </g>
  </g>
</svg>