<?xml version="1.0" encoding="UTF-8"?>
<svg id="Layer_2" data-name="Layer 2" xmlns="http://www.w3.org/2000/svg" viewBox="0 0 123.07 157.64">
  <defs>
    <style>
      .cls-1 {
        fill: #cfe9ef;
      }

      .cls-1, .cls-2, .cls-3, .cls-4 {
        fill-rule: evenodd;
      }

      .cls-2 {
        fill: #8dc8d2;
      }

      .cls-3 {
        fill: #f8fcff;
      }

      .cls-4 {
        fill: #bfe2ea;
      }
    </style>
  </defs>
  <g id="Layer_1-2" data-name="Layer 1">
    <g>
      <path class="cls-2" d="M64.17,153.49c.17-1.05,4.66-32.59,4.28-33.6-.38-1.01-15.98-57-13.46-61.91,2.52-4.91,11.7,33.85,11.7,33.85l1.3,5.72s4.86-8.74,4.74-10.75c-.13-2.01,6.29-49.96,6.29-52.47s-3.91-4.4-3.91-4.4l-9.05.75s5.91-24.41,6.04-25.54c.13-1.13-5.16-4.52-7.99-4.82-2.83-.3-17.8,16.9-22.33,20.55-4.53,3.65-13.47,8.06-13.47,8.06,0,0-7.92-15.61-9.05-15.86-1.13-.25-4.91,2.39-5.41,4.66-.5,2.26,50.33,135.77,50.33,135.77Z"/>
      <path class="cls-2" d="M117.53,1.23s3.27,4.28,2.89,6.54c-.38,2.27-.5,8.31-.5,11.83s1.64,19,2.26,21.89c.63,2.89,1.26,5.28.63,6.92-.63,1.64-7.93,2.89-7.93,2.89,0,0-3.9-43.66,2.64-50.08Z"/>
      <path class="cls-2" d="M105.57,40.99c-1.88,2.04-3.65,1.89-3.9,6.04-.25,4.15.25,37.75.25,41.9s-.25,5.16-1.89,6.04c-1.64.88-12.58,12.46-13.15,14.03-.57,1.57-.69,5.6-1.26,8.81-.57,3.21-1.91,8.13-4.09,7.86-2.18-.26-5.03-8.05-3.65-13.97,1.38-5.91,6.42-22.4,6.42-22.4,0,0,4.15-49.58,10.44-53.6,6.29-4.03,10.57-.13,10.82,5.29Z"/>
      <path class="cls-4" d="M0,27.03s14.97-13.46,16.61-13.21c1.64.25,3.02,5.16,3.02,5.16l8.68,9.94s-6.79-18.5-6.79-19.25,7.93-5.91,9.81-6.29c1.89-.38,28.94-4.03,32.09-3.27,3.15.75,3.9,3.15,3.52,4.78-.38,1.64-3.52,20.51-3.4,21.52.13,1.01,11.58,3.52,11.58,3.52,0,0,1.13,3.27.88,4.91-.25,1.64-5.03,49.32-5.79,51.09s-1.01,3.52-1.26,8.43c-.25,4.91-2.64,3.27-2.64,3.27,0,0-2.39-10.32-3.27-13.34-.88-3.02-9.06-25.17-10.32-28.06-1.26-2.89-4.53-6.92-4.53-6.92,0,0,3.65,21.52,3.77,23.91.13,2.39,13.84,46.93,13.09,49.2-.75,2.26-.13,29.44-.88,31.08-.75,1.64-1.64,4.15-1.64,4.15l-3.65-1.01s-26.42-38.76-27.56-41.52-3.15-5.91-1.13-7.55c2.01-1.64.75-8.43.75-8.43l7.05-.13-2.14-5.28L0,27.03Z"/>
      <path class="cls-1" d="M0,27.03s14.97-13.46,16.61-13.21c1.64.25,3.02,5.16,3.02,5.16l8.68,9.94s-6.79-18.5-6.79-19.25,7.93-5.91,9.81-6.29c1.89-.38,28.94-4.03,32.09-3.27-4.94,4.2-17.49,8.23-24.47,22.8-6.98,14.57-8.99,16.58-4.71,34.2,4.28,17.62,8.3,26.42,11.32,37.24,3.02,10.82-4.28-31.46-2.26-42.53,2.01-11.07,8.56-16.86,13.09-8.3,4.53,8.56,6.29,18.12,7.3,15.35.73-2.02,5.61-19.78,10.73-29.1.45.1.72.16.72.16,0,0,1.13,3.27.88,4.91-.25,1.64-5.03,49.32-5.79,51.09s-1.01,3.52-1.26,8.43c-.25,4.91-2.64,3.27-2.64,3.27,0,0-2.39-10.32-3.27-13.34-.88-3.02-9.06-25.17-10.32-28.06-1.26-2.89-4.53-6.92-4.53-6.92,0,0,3.65,21.52,3.77,23.91.13,2.39,13.84,46.93,13.09,49.2-.75,2.26-.13,29.44-.88,31.08-.75,1.64-1.64,4.15-1.64,4.15l-3.65-1.01s-26.42-38.76-27.56-41.52-3.15-5.91-1.13-7.55c2.01-1.64.75-8.43.75-8.43l7.05-.13-2.14-5.28L0,27.03Z"/>
      <path class="cls-4" d="M83.55,10.17s9.56-2.77,11.7-3.4c2.14-.63,22.15-6.79,22.27-5.54.13,1.26-1.51,8.18-1.51,10.7s3.4,30.83,3.15,32.97c-.25,2.14-3.4,6.04-4.28,6.42s-7.55-3.9-8.81-4.66c-1.26-.75-4.28-7.55-4.28-7.55,0,0-3.52-.25-4.91,1.51-1.38,1.76-1.38,13.09-1.38,13.84s2.39,32.97.13,36.99c-2.26,4.03-10.32,13.34-10.32,13.34l-3.77,20.89-6.29-.76,8.3-114.75Z"/>
      <path class="cls-1" d="M83.55,10.17l5.68-1.65c-1.55,17.39-3.85,42.46-3.16,48.7.91,8.18-.25,16.84-.8,22.22-.55,5.38,4.83.68,4.83-9.64s.5-28.93,4.65-34.1c4.15-5.16,12.46-.38,13.72-5.16,1.26-4.78,1.76-8.56,1.01-13.59-.47-3.16-.55-9.31.33-14.38,4.2-1.11,7.66-1.86,7.72-1.34.13,1.26-1.51,8.18-1.51,10.7s3.4,30.83,3.15,32.97c-.25,2.14-3.4,6.04-4.28,6.42s-7.55-3.9-8.81-4.66c-1.26-.75-4.28-7.55-4.28-7.55,0,0-3.52-.25-4.91,1.51-1.38,1.76-1.38,13.09-1.38,13.84s2.39,32.97.13,36.99c-2.26,4.03-10.32,13.34-10.32,13.34l-3.77,20.89-6.29-.76,8.3-114.75Z"/>
      <path class="cls-3" d="M18.12,20.6c.38,2.77,5.41,9.06,5.41,13.84s.96,13.61,2.91,18.87c1.95,5.26,10.43,29.95,7.78,27.19-2.64-2.77-7.68-14.97-12.96-25.04-5.28-10.07-14.22-20.51-13.46-24.16.75-3.65,6.67,4.4,7.17.13.5-4.28,2.14-14.34,3.15-10.82Z"/>
      <path class="cls-3" d="M50.08,128.94c1.51-4.53,2.77-4.03,1.51-17.36-1.26-13.34-.76-27.93-1.76-33.47-1.01-5.54,10.07,26.42,10.07,34.73s-1.62,19.67-1.31,25.94c.31,6.27-4.98-1.28-8.5-9.84Z"/>
      <path class="cls-3" d="M83.81,96.6c3.27-3.65,5.91-6.42,6.17-9.94.25-3.52,2.77-5.66,2.39-11.45-.38-5.79-3.41-25.55-1.64-22.78,1.77,2.77,4.54,33.98,2.4,37.38-2.14,3.4-4.28,6.67-6.92,9.69-2.64,3.02-4.78,7.93-4.91,9.31-.13,1.38,2.52-12.21,2.52-12.21Z"/>
    </g>
  </g>
</svg>