<?xml version="1.0" encoding="UTF-8"?>
<svg id="Layer_2" data-name="Layer 2" xmlns="http://www.w3.org/2000/svg" viewBox="0 0 105.96 122.35">
  <defs>
    <style>
      .cls-1 {
        fill: #3e6618;
      }

      .cls-1, .cls-2, .cls-3, .cls-4, .cls-5, .cls-6, .cls-7, .cls-8 {
        fill-rule: evenodd;
      }

      .cls-2 {
        fill: #6aa631;
      }

      .cls-3 {
        fill: #4a791d;
      }

      .cls-4 {
        fill: #46731c;
      }

      .cls-5 {
        fill: #78ac43;
      }

      .cls-6 {
        fill: #538420;
      }

      .cls-7 {
        fill: #304f0e;
      }

      .cls-8 {
        fill: #579024;
      }
    </style>
  </defs>
  <g id="Layer_1-2" data-name="Layer 1">
    <g>
      <path class="cls-2" d="M88.5,72.11l9.8,12.59,7.66,11.11s-8.81,7.13-10.48,7.42c-1.66.29-7.03-5.29-8.34-5.58-1.31-.29-8.09-1.85-8.8-1.33-.71.52-1.92,13.93-1.92,13.93l-8.25,9.37-6.95,2.72s-11.55-21.44-12.12-23.05c-.57-1.61-5.38-22.77-5.38-22.77l12.77-13.64s14.31-11.34,32,9.22Z"/>
      <path class="cls-1" d="M61.23,122.35l-5.44-7.78h0s0,0,0,0l-25.78-36.9s-7.5-9.32-4.07-19.51c3.43-10.19,2.57-12.84.3-16.33C23.98,38.33,3.02,12.04,3.02,12.04l6.35-4.11,5.8-4.86s18.93,27.78,21.6,30.97c2.67,3.19,4.95,4.8,15.69,4.53,10.75-.27,17.44,9.65,17.44,9.65l28.4,36.48-4.36-2.71-20.84-21.28,7.43,10.07,4.68,5.93.94,7.2-6.58,1.26-1.69-3.13-12.99-5.74,7.07,6.2,2.2,4.69-.11.7-3.5,1.59-7.67-2.17-1.86-2.92.16,1.81-7.59-11.89,1.57,17.6,2.75,8,5.58,8.37-.85,6.26-1.42,7.78Z"/>
      <path class="cls-7" d="M8.16,8.72l1.21-.78,5.8-4.86s18.93,27.78,21.6,30.97c2.67,3.19,4.95,4.8,15.69,4.53,2.39-.06,4.57.38,6.53,1.11-1.05-.2-6.29-1.12-9.91-.34-4.05.87-10.1,2.53-12.95-1.55-2.85-4.07-19.63-29.15-21.32-28.68s-4.47,2.52-4.47,2.52c0,0-1.57-1.88-2.17-2.92Z"/>
      <path class="cls-7" d="M25.08,64.88c-.14-2.13.08-4.4.86-6.73,3.43-10.19,2.57-12.84.3-16.33C23.98,38.33,3.02,12.04,3.02,12.04l6.35-4.11,1.13-.95c.82.88,2.15,2.94,2.15,2.94,0,0-2.78,2.05-3.73,3.53s18.06,24.91,21.11,28.83c3.05,3.92-.31,9.22-2.34,12.83-1.99,3.54-2.6,9.52-2.62,9.76Z"/>
      <path class="cls-4" d="M96.23,82.04l2.07,2.66-4.36-2.71-20.84-21.28,7.43,10.07,4.68,5.93.94,7.2-6.58,1.26-1.69-3.13-12.99-5.74,7.07,6.2,2.2,4.69-.11.7-3.5,1.59-7.67-2.17-1.86-2.92.16,1.81-7.59-11.89,1.57,17.6,2.75,8,5.58,8.37-.85,6.26-1.42,7.78s-16.33-24.82-25.88-40.27c-21-33.99,17.84-54.29,36.1-30.07,7.16,9.49,24.57,29.8,24.77,30.03Z"/>
      <path class="cls-3" d="M.57,10.1c-.9,1.21-.77,2.99.65,4.06,1.41,1.07,3.61-.08,5.54-1.5,2.63-1.94,5.26-3.88,7.9-5.83,1.92-1.42,3.67-3.18,3.07-4.85-.6-1.67-2.26-2.32-3.69-1.82C13.63.31.83,9.76.57,10.1Z"/>
      <path class="cls-6" d="M51.69,43.87c-2.64,0-5.65.45-8.62,1.87-8.44,4.04-10.95,12.93-8.42,15.29,2.52,2.36,12.72-10.95,19.61-10.72,4.41.15,9.06.7,9.63-.58,1.68-3.75-10.04-5.86-12.2-5.86Z"/>
      <path class="cls-5" d="M43.82,46.67c2.55-1.1,9.29-2.56,11.22-1.01,1.93,1.55-7.19,2.02-10.32,3.71-3.13,1.69-7.75,1.1-.9-2.7Z"/>
      <path class="cls-4" d="M10.94,14.28c-.15-.67.28-2.43,1.71-3.41,1.43-.98,2.68-.45,3.82,1.09,1.14,1.54,16.1,22.99,17.22,24.51,1.12,1.52,2.47,3.88,4.98,4.53s-2.19,1.69-4.63-.65c-2.44-2.35-14.69-20.12-16.76-21.88-2.08-1.75-4.13-.94-6.34-4.2Z"/>
      <path class="cls-8" d="M6.7,5.46s-4.46,3.12-4.41,5.04c.05,1.92,1.49,2.34,3.54.98,2.05-1.36,9.24-6.07,9.51-7.83s-.46-4.43-8.63,1.81Z"/>
    </g>
  </g>
</svg>