<?xml version="1.0" encoding="UTF-8"?>
<svg id="Layer_2" data-name="Layer 2" xmlns="http://www.w3.org/2000/svg" viewBox="0 0 112.33 62.66">
  <defs>
    <style>
      .cls-1 {
        fill: #518421;
      }

      .cls-1, .cls-2, .cls-3, .cls-4, .cls-5, .cls-6 {
        fill-rule: evenodd;
      }

      .cls-2 {
        fill: #3e6618;
      }

      .cls-3 {
        fill: #6aa631;
      }

      .cls-4 {
        fill: #73b339;
      }

      .cls-5 {
        fill: #46731c;
      }

      .cls-6 {
        fill: #538420;
      }
    </style>
  </defs>
  <g id="Layer_1-2" data-name="Layer 1">
    <g>
      <path class="cls-5" d="M29.13,1.13s-2.39,2.52-2.64,4.15c-.25,1.64,2.26,20.13,2.89,26.17.63,6.04,2.14,21.01,2.14,21.01,0,0-1.01,8.05,16.48,8.56,17.49.5,30.2-2.52,31.58-3.77,1.38-1.26,1.38-7.68,1.38-12.08s-.13-25.67-.38-28.06c-.25-2.39-1.51-2.52-2.52-2.14-1.01.38-2.89,1.89-3.77.76-.88-1.13-3.77-5.54-4.15-6.54-.38-1.01-5.28-.88-5.28-.88l-1.76,11.32s-6.42-1.01-8.56-.75-7.17.88-7.93.38c-.76-.5-5.79-9.69-5.79-9.69l-4.53,9.06L29.13,1.13Z"/>
      <path class="cls-2" d="M28.9,1.39c-.61.68-2.21,2.58-2.41,3.9-.25,1.64,2.26,20.13,2.89,26.17.63,6.04,2.14,21.01,2.14,21.01,0,0-1.01,8.05,16.48,8.56,5.4.16,10.34-.03,14.64-.39-1.04.08-17.75,1.15-22.38-8.24-3.65-7.41-10.1-34.88-11.37-51.02h0ZM77.06,58.29c1.35-.4,2.22-.76,2.53-1.04,1.38-1.26,1.38-7.68,1.38-12.08s-.13-25.67-.38-28.06c-.25-2.39-1.51-2.52-2.52-2.14-.48.18-1.16.62-1.83.9,1.68,11.41,3.7,29.56.81,42.42Z"/>
      <path class="cls-3" d="M79.93,15.26c-.52-.56-1.23-.52-1.85-.29-1.01.38-2.89,1.89-3.77.76-.88-1.13-3.77-5.54-4.15-6.54-.38-1.01-5.28-.88-5.28-.88l-1.76,11.32s-6.42-1.01-8.56-.75c-1.31.15-3.71.45-5.54.54l10.95,13.41,2.91-3.34s2.27,2.48,4.58,3.22c2.31.75,2.67-.12,2.67-.12,0,0,2.3-1.76,3.18-3.65.88-1.89,3.52-8.81,3.84-9.94s2.8-3.74,2.8-3.74Z"/>
      <polygon class="cls-6" points="29.13 1.13 31.27 0 38.02 15.2 36.3 18.62 29.13 1.13"/>
      <path class="cls-6" d="M40.83,9.56s-.63,3.9.38,5.28c1.01,1.38,2.89,4.84,3.77,5.54.88.69,5.35,4.78,6.48,6.92,1.13,2.14,5.91,7.68,6.61,8.43.69.75,2.14-2.58,2.14-2.58,0,0-3.96-5.1-5.35-6.67-1.38-1.57-5.86-7.07-5.86-7.07l-2.74-.57-5.43-9.28Z"/>
      <path class="cls-6" d="M62.76,29.88s3.43,3.05,3.9,3.33,1.92.44,2.39.38c.47-.06,1.45-1.07.94-1.38-.5-.31-6.51-4.97-6.51-4.97l-.72,2.64Z"/>
      <path class="cls-1" d="M41.27,21.7s5.16,22.02,9.81,26.42c4.66,4.4,11.45,2.52,12.21,5.29.75,2.77-14.6,5.41-17.24-.25-2.64-5.66-8.3-34.73-4.78-31.46Z"/>
      <g>
        <path class="cls-1" d="M14.47,26.42l2.77.32s8.56,13.15,8.12,14.03-4.91,8.87-4.97,9.31c-.06.44-.13,12.39-.13,12.39l-.89.04s-3.33-8.09-3.83-11.24c-.5-3.15-1.07-24.85-1.07-24.85Z"/>
        <path class="cls-5" d="M6.92,47.68c-.76-.13-6.92-5.41-6.92-6.42s3.02-6.42,4.15-7.3c1.13-.88,10.32-7.55,10.32-7.55,0,0,8.43,13.72,8.18,14.6-.25.88-3.77,8.43-3.77,9.31s.5,12.33.5,12.33l-12.33-4.03-.13-10.95Z"/>
        <path class="cls-3" d="M10.68,36.55c-.25,3.02,3.9,6.04,3.78,8.3-.13,2.27-2.27,11.7-.13,8.93,2.14-2.77,3.78-7.68,3.52-11.58-.35-5.37-5.75-22.78-7.17-5.66Z"/>
      </g>
      <g>
        <path class="cls-5" d="M92.11,49.32s1.7-6.61,1.95-7.05c.25-.44,9.81-7.24,11.07-7.24s7.17,1.95,7.17,1.95c0,0,.19,2.96-.38,3.77-.57.82-6.29,11.89-6.86,12.71-.57.82-2.14,2.89-2.14,2.89,0,0-2.77-.82-3.27-1.38-.5-.57-.69-3.9-1.7-4.09-1.01-.19-5.85-1.57-5.85-1.57Z"/>
        <path class="cls-5" d="M91.73,28.81c0-.76-1.01-8.18-1.01-9.69s2.27-3.78,3.52-3.9c1.26-.13,9.31.5,10.07.63.76.13,6.42,11.58,6.42,11.58,0,0-8.18,4.78-9.44,4.78s-9.56-3.4-9.56-3.4Z"/>
        <path class="cls-4" d="M95.19,42.9c0,2.14,1.57,4.47,3.9,4.15,2.33-.31,3.84-2.27,6.23-4.53,2.39-2.26,4.84-4.66,4.53-2.77-.31,1.89-6.35,15.35-7.86,14.34-1.51-1.01-.57-3.59-2.33-4.28-1.76-.69-2.96.06-3.65-1.57-.69-1.64-2.01-3.33-.82-5.35Z"/>
        <path class="cls-4" d="M93.62,26.48c0-3.78-1.7-7.99,1.13-8.56,2.83-.57,5.91-2.83,8.24.31,2.33,3.15,7.8,9.37,4.53,8.24-3.27-1.13-5.6-5.79-7.36-3.08-1.76,2.71.5,5.28-2.01,4.66-2.52-.63-3.78.44-4.53-1.57Z"/>
      </g>
    </g>
  </g>
</svg>