<?xml version="1.0" encoding="UTF-8"?>
<svg id="Layer_2" data-name="Layer 2" xmlns="http://www.w3.org/2000/svg" viewBox="0 0 54.05 137.02">
  <defs>
    <style>
      .cls-1 {
        fill: #d0cfcf;
      }

      .cls-1, .cls-2, .cls-3, .cls-4, .cls-5, .cls-6, .cls-7, .cls-8, .cls-9, .cls-10, .cls-11, .cls-12, .cls-13, .cls-14, .cls-15, .cls-16 {
        fill-rule: evenodd;
      }

      .cls-2 {
        fill: #edeeee;
      }

      .cls-3 {
        fill: #e1e1e0;
      }

      .cls-4 {
        fill: #edafaa;
      }

      .cls-5 {
        fill: #fff8c0;
      }

      .cls-6, .cls-9 {
        fill: #fff;
      }

      .cls-7 {
        fill: #fff186;
      }

      .cls-8 {
        fill: #ffed4d;
      }

      .cls-9 {
        opacity: .77;
      }

      .cls-10 {
        fill: #62868d;
      }

      .cls-11 {
        fill: #ce7f76;
      }

      .cls-12 {
        fill: #cfe9ef;
        opacity: .5;
      }

      .cls-13 {
        fill: #b22908;
      }

      .cls-14 {
        fill: #dd300d;
      }

      .cls-15 {
        fill: #ebebec;
      }

      .cls-16 {
        fill: #f4f3f3;
      }
    </style>
  </defs>
  <g id="Layer_1-2" data-name="Layer 1">
    <g>
      <path class="cls-15" d="M1.95,77.15l8.33,54.36c1.13,7.36,31.78,7.36,32.91,0l8.33-54.36c-.18-7.47-19.37-8.13-24.23-8.18h0s-.2,0-.55,0c-.36,0-.55,0-.55,0h0c-4.86.05-24.05.71-24.23,8.18Z"/>
      <path class="cls-3" d="M1.95,77.15l8.33,54.36c.5,3.28,6.89,5.1,13.9,5.45-.36-.06-10.95-1.97-12.18-8.4-1.26-6.54-5.66-43.79-5.41-46.05.26-2.35,39.25-2.35,39.51,0,.25,2.27-4.15,39.51-5.41,46.05-1.26,6.54-12.19,8.4-12.19,8.4l.26.02c7.22-.28,13.93-2.11,14.44-5.48l8.33-54.36c-.05-2.17-1.7-3.76-4.14-4.93-1.89.39-3.72.95-4.62,1.1-1.35.24-10.13,1.53-16.42,2.45-6.29-.92-15.07-2.21-16.42-2.45-.81-.14-2.38-.61-4.07-.99-2.3,1.16-3.84,2.72-3.9,4.81Z"/>
      <g>
        <path class="cls-8" d="M18.38,117.49s4.56.94,12.13-3.21c7.57-4.15,11.05-10.28,11.05-10.28,0,0,5.42,8.83-1.55,16.48-6.97,7.65-17.92,3.25-21.62-2.99Z"/>
        <path class="cls-5" d="M20.05,117.57c1.97-.06,5.59-.62,10.46-3.29,5.36-2.94,8.67-6.87,10.14-8.91,1.28,1.8,2.6,4.92.93,9.1-2.74,6.86-7.75,9.16-13.64,7.87-4.5-.98-6.97-3.59-7.89-4.76Z"/>
        <path class="cls-7" d="M30.88,115.19s1.35,5.26,2.17,5.85c.82.59,3.64-.59,4.08-1.72.45-1.13-6.25-4.13-6.25-4.13Z"/>
        <path class="cls-7" d="M31.87,114.57s6.71,3.49,7.73,2.19c1.02-1.3,1.91-2.74.92-3.11-.99-.37-8.65.91-8.65.91Z"/>
        <path class="cls-7" d="M34.33,112.7s6.03.31,6.76-1.05c.73-1.36-.14-4.47-.82-4.18s-5.94,5.22-5.94,5.22Z"/>
        <path class="cls-7" d="M29.73,115.9s1.58,5.17.57,5.71c-1.01.54-3.41.39-3.58-.69-.16-1.08,3-5.02,3-5.02Z"/>
        <path class="cls-7" d="M28.22,115.99s-6.43,1.54-6.39,2.29c.03.75,1.19,2.31,2.68,1.33,1.49-.98,3.71-3.62,3.71-3.62Z"/>
      </g>
      <path class="cls-10" d="M27.92,37.65c2.39,0,4.34-.72,4.34-1.6s-1.95-1.6-4.34-1.6-4.34.72-4.34,1.6,1.95,1.6,4.34,1.6Z"/>
      <path class="cls-1" d="M26.93,57.89c13.36,0,24.48,1.46,26.8,3.38l.28,1.2c-1.5,2.06-13.05,3.66-27.07,3.66S2.02,64.62,0,62.65v-.03s.36-1.52.36-1.52c2.75-1.83,13.6-3.2,26.57-3.2Z"/>
      <polygon class="cls-14" points="34.29 115.51 20.7 0 24.99 3.95 38.06 115.08 34.29 115.51"/>
      <path class="cls-13" d="M25.27,38.81L20.7,0l1.51,1.39c1.1,10.58,3.47,33.32,3.73,34.37.33,1.36,2.93,1.27,2.94,1.27l.17,1.44c-.74.5-2.61.47-3.79.34Z"/>
      <path class="cls-11" d="M34.29,115.51l-5.47-46.51c1.06.03,2.38.08,3.85.19l5.4,45.9-3.77.43Z"/>
      <g>
        <path class="cls-8" d="M12.84,112.39s1.51,4.4,8.93,8.81c7.42,4.4,14.47,4.28,14.47,4.28,0,0-4.84,9.16-14.97,7.05s-11.92-13.77-8.43-20.13Z"/>
        <path class="cls-5" d="M13.62,113.87c1.05,1.66,3.38,4.49,8.16,7.33,5.26,3.12,10.32,3.97,12.84,4.19-.9,2.02-2.92,4.74-7.36,5.43-7.3,1.13-11.83-2.01-13.72-7.74-1.44-4.37-.46-7.83.08-9.22Z"/>
        <path class="cls-7" d="M21.18,121.98s-3.84,3.84-3.93,4.84c-.09,1.01,2.36,2.83,3.55,2.64s.38-7.49.38-7.49Z"/>
        <path class="cls-7" d="M22.22,122.52s.41,7.55,2.04,7.77c1.64.22,3.33.25,3.15-.79-.19-1.04-5.19-6.98-5.19-6.98Z"/>
        <path class="cls-7" d="M25.08,123.68s2.8,5.35,4.34,5.28c1.54-.06,3.77-2.39,3.18-2.83s-7.52-2.45-7.52-2.45Z"/>
        <path class="cls-7" d="M19.98,121.36s-3.65,4-4.62,3.4c-.98-.6-2.08-2.74-1.23-3.43.85-.69,5.85.03,5.85.03Z"/>
        <path class="cls-7" d="M19.14,120.1s-4.59-4.75-5.22-4.34c-.63.41-1.38,2.2.22,2.99,1.6.79,5,1.35,5,1.35Z"/>
      </g>
      <path class="cls-12" d="M0,62.61c2.61-11.79,9.9-26.5,24.79-27.85l.02.16c-.76.29-1.23.68-1.23,1.12,0,.89,1.94,1.6,4.34,1.6s4.34-.72,4.34-1.6c0-.38-.35-.72-.94-1,13.5,2.45,20.24,16.33,22.73,27.57-8.71,3.9-22.73,3.73-27.02,3.58-4.29.16-18.31.33-27.02-3.58Z"/>
      <path class="cls-12" d="M0,62.61c2.61-11.79,9.9-26.5,24.79-27.85l.02.16c-.76.29-1.23.68-1.23,1.12,0,.63.97,1.17,2.38,1.43-2.88.42-5.51,1.34-7.82,2.69-9.8,5.74-14.38,18.33-11.61,21.11,2.08,2.08,17.93,2.97,17.93,2.97-.32.78-.84,1.44-1.53,2-6.12-.03-16.14-.59-22.93-3.64h0ZM30.76,37.26c.92-.29,1.5-.73,1.5-1.21,0-.38-.35-.72-.94-1,3.89.71,7.21,2.36,10.04,4.62-3.72-1.48-7.28-2.26-10.6-2.41Z"/>
      <path class="cls-2" d="M0,62.61l1.38,13.34c.13,1.27,13.57,3.03,26.77,2.99,12.38-.04,24.18-1.8,24.32-2.99l1.57-13.37c-21.9,2.2-32.14,2.27-54.04.03Z"/>
      <path class="cls-16" d="M4.64,73.82c-3.31-2.8-1.67-8.65,5.71-8.54,7.38.11,11.82.3,23.29.05s14.97-1.26,16.04-.44c1.07.82,3.43,10.25-4.97,11.2-3.32.38-31.84,4.69-40.08-2.26Z"/>
      <path class="cls-4" d="M29.98,78.92c1.29-.02,2.56-.06,3.81-.11l-1.72-14.61c-1.28.04-2.55.06-3.82.07l1.72,14.65Z"/>
      <path class="cls-6" d="M31.57,40.26s4.53-.88,8.49,1.45c3.96,2.33,11.77,18.94,9.88,19.5-1.89.57-6.48-16.36-18.37-20.95Z"/>
      <path class="cls-6" d="M29.84,43.53c.25-.72,1.82-1.13,3.24-.09,1.42,1.04,6.29,7.27,5.06,8.02-1.23.75-9.47-3.84-8.3-7.93Z"/>
      <path class="cls-9" d="M33.96,83.39c4.78.63,8.37-.5,8.3,10.44-.07,10.95-5.79,39.38-9.19,39.51-3.4.13,2.27-42.15.88-49.95Z"/>
      <path class="cls-6" d="M44.4,66.46c1.26-.06,4.47.19,4.53,1.95.06,1.76-2.96,7.42-5.03,7.3-2.08-.13-.57-3.77.5-9.25Z"/>
    </g>
  </g>
</svg>