<?xml version="1.0" encoding="UTF-8"?>
<svg id="Layer_2" data-name="Layer 2" xmlns="http://www.w3.org/2000/svg" viewBox="0 0 141.3 163.29">
  <defs>
    <style>
      .cls-1 {
        fill: #5c89a2;
      }

      .cls-1, .cls-2, .cls-3, .cls-4, .cls-5, .cls-6, .cls-7 {
        fill-rule: evenodd;
      }

      .cls-2 {
        fill: #c5e7fa;
      }

      .cls-3 {
        fill: #b4d8ed;
      }

      .cls-4 {
        fill: #94c1dc;
      }

      .cls-5 {
        fill: #7daac5;
      }

      .cls-6 {
        fill: #a7cfe6;
      }

      .cls-7 {
        fill: #cae8fa;
      }
    </style>
  </defs>
  <g id="Layer_1-2" data-name="Layer 1">
    <g>
      <path class="cls-6" d="M41.3,48.74s4.89-8.88,5.07-12.95c.18-4.06,6.11-23.43,6.2-25.01.09-1.58-.03-6.93.24-8.18.27-1.24-.19-2.9,4.7-2.56,4.89.34,9.29,1.88,9.63,2.77.34.89-.3,5.56-.69,6.92-.39,1.35-2.64,17-4.7,22.06-2.06,5.06-2.93,7.4-3.68,10.96-.75,3.56-2.52,7.97-.31,11.38,2.21,3.41,6.81,4.04,8.16,6.7,1.35,2.66,6.84,7.16,9.14,8.09s12.64,5.01,16.69,4.18c4.05-.84,8.65-3.25,10.5-6.33,1.86-3.08,11.41-13.31,15.62-20.29,4.2-6.98,6.45-10.67,7.45-12.05.99-1.38,3.38-6.3,5.12-6.07,1.74.24,10.16,5.43,10.77,7.37s-2.38,6.73-4.46,11.53c-2.07,4.8-17.12,35.04-19.26,43.04-2.14,8-1.69,10.91-2.92,13.75-1.23,2.83-4.42,8.7-5.55,11.31-1.13,2.62-14.13,33.61-15.25,37.4-1.11,3.79-2.45,9.83-3.77,10.46-1.32.63-12.99-3.34-18.38-4.9-5.39-1.55-30.15-10.06-32.81-13.02-2.67-2.96-5.12-6.74-8.22-8.08s-11.14-1.32-14.22-3.04c-3.08-1.72-15.88-11.39-16.34-12.76-.46-1.36,3.07-3.46,4.91-7.71,1.84-4.25,3.51-10.26,7.06-14.8,3.55-4.55,18.72-18.95,22.01-30.21,3.29-11.26,5.16-14.98,7.28-19.98Z"/>
      <path class="cls-4" d="M9.76,129.59C5.27,126.25.33,122.27.04,121.43c-.46-1.36,3.07-3.46,4.91-7.71,1.84-4.25,3.51-10.26,7.06-14.8,2.3-2.95,9.47-10.02,15.13-17.7h0s-5.87,8.93-8.53,14c-2.66,5.07-3.2,4.15-6.64,8.31-3.44,4.16-3.47,8.3-4.46,11.67-.99,3.38-.87,6.08,3.14,8.73,4.01,2.66,7.39,2.97,12.84,4.74,5.45,1.78,8.7.76,13.7.05,5-.72,4.87-2.04,13.53-3.37,8.66-1.33,9.5,3.53,14.61,6.89,5.11,3.36,6.56,1.91,8.93,3.75,2.37,1.83-5.81,3.94-8.63,4.22-2.82.28-7.8-3.37-12.82-5.89-5.01-2.51-7.92-.66-14.33-1.58-6.4-.92-9.41-1.3-13.89-.7-5.14.32-10.32-.81-14.87-2.45Z"/>
      <path class="cls-4" d="M65.38,1.69c1,.4,1.64.8,1.76,1.12.34.89-.3,5.56-.69,6.92-.39,1.35-2.64,17-4.7,22.06-2.06,5.06-2.93,7.4-3.68,10.96-.75,3.56-2.52,7.97-.31,11.38,2.21,3.41,6.81,4.04,8.16,6.7,1.35,2.66,6.84,7.16,9.14,8.09s12.64,5.01,16.69,4.18c4.05-.84,8.65-3.25,10.5-6.33,1.86-3.08,11.41-13.31,15.62-20.29,4.2-6.98,6.45-10.67,7.45-12.05.99-1.38,3.38-6.3,5.12-6.07,1.74.24,10.16,5.43,10.77,7.37s-2.38,6.73-4.46,11.53c-2.07,4.8-17.12,35.04-19.26,43.04-2.14,8-1.69,10.91-2.92,13.75-1.23,2.83-4.42,8.7-5.55,11.31-1.13,2.62-14.13,33.61-15.25,37.4-1.11,3.79-2.45,9.83-3.77,10.46-1.32.63-12.99-3.34-18.38-4.9-5.39-1.55-30.15-10.06-32.81-13.02-2.67-2.96-5.12-6.74-8.22-8.08-.61-.26-1.41-.48-2.33-.66,4.03-.9,10.21-1.29,20.08.7,17.92,3.61,14.43,8.05,22.59,7.44,8.16-.61,11.25-4.71,15.68-14.96,4.43-10.25.99-6.56-1.47-13.05-2.46-6.5-6.29-7.38-7.77-13.71-1.48-6.33,6.37-8.63,9.76-14.67,3.4-6.03-3.21-4.75-5.35-9.56-2.14-4.8-4.66-2.01-10.71-5.67-6.06-3.65-4.44-1.92-9.38-3.28-4.94-1.36-9.09,6.42-14.83,12.99-5.74,6.58-10.33,5.63-14.23,3.68-3.9-1.94,4.29-5.65,9.26-14.11,4.97-8.46,6.86-12.82,11.2-19.22,4.35-6.4,5.83-21.41,5.83-21.41,0,0,3.73-21.1,6.43-30.05Z"/>
      <path class="cls-5" d="M94.94,149.6c-.58,1.51-.99,2.62-1.15,3.17-1.11,3.79-2.45,9.83-3.77,10.46-1.32.63-12.99-3.34-18.38-4.9-5.39-1.55-30.15-10.06-32.81-13.02-2.58-2.86-4.95-6.48-7.91-7.94,1.52-.14,3.15-.2,4.82-.12,7.47.35,14.62,2.52,17.52,4.23,2.9,1.71-6.88,2.9-4.89,5.61,2,2.71,6.01,3.18,12.66,5.7,6.65,2.53,16.34,5.33,22.11,6.1,5.77.76,11.8-9.3,11.8-9.3h0Z"/>
      <path class="cls-5" d="M58.42,41.25c-.12.48-.23.98-.34,1.51-.75,3.56-2.52,7.97-.31,11.38,2.21,3.41,6.81,4.04,8.16,6.7,1.35,2.66,6.84,7.16,9.14,8.09s12.64,5.01,16.69,4.18c4.05-.84,8.65-3.25,10.5-6.33,1.86-3.08,11.41-13.31,15.62-20.29,4.2-6.98,6.45-10.67,7.45-12.05.1-.14.22-.33.36-.54h0s-5.15,10.83-7.17,14.68c-2.02,3.85-.74,2.79-2.53,6.4-1.79,3.6-3.31,3.87-5.49,6.73s-5.92,5.28-6.78,9.17c-.86,3.89,1.45,9.39.25,12.44-1.2,3.05-1.25-3.88-5.84-5.75-4.59-1.87-6.79-1.67-10.31-1.92-3.52-.26-7.6-.87-12.02-3.93-4.42-3.06-5.29-2.4-7.8-5.56-2.5-3.16-2.12-5.41-6.42-6.58-4.3-1.17-6.4-1.73-6.37-4.25.03-2.48,3.11-13.72,3.21-14.07Z"/>
      <path class="cls-1" d="M140.69,34.92c.27.31.46.59.53.82.61,1.94-2.38,6.73-4.46,11.53-1.88,4.36-14.47,29.69-18.37,40.31h0s-1.46-1.14.02-5.8c1.49-4.66,2.21-6.94,3.48-11.69,1.27-4.76,1.94-6.92,4.6-12.76,2.66-5.84,4.98-10.01,6.59-12.81,1.08-1.88,4.7-7.04,7.61-9.59Z"/>
      <path class="cls-5" d="M89.05,112.13c-1.41-4.87-2.98-3.13-.93-7.89,2.06-4.76,2.66-5.07,5.06-9.8,2.4-4.73,3-10.46,4.26-7.95,1.26,2.5,2.19,4.98,2.65,9.33s4.34,3.26,5.47.64,1.43-7.1,3.78-14.16c2.35-7.05-1.37-4.97,3.37-12.14,4.74-7.17,8.84-19.92,6.28-10.19-2.56,9.72-5.73,32.79-7.65,40.48-1.92,7.7-4.26,7.15-9.24,18.13-4.98,10.98-5.49,19.75-9.43,22.89-3.94,3.14.15-6.85-.05-14.54-.19-7.69,5.77-29.08-3.57-14.8Z"/>
      <path class="cls-3" d="M49.32,92.53c3.88-4.09,5.07-9.56,12.4-10.77,7.33-1.21,12.32-8.11,9.71-.33-2.61,7.78-14.4,14.44-11.54,18.67,2.86,4.23,1.89-.57,10.75,12.02,8.86,12.59,12.77,18.2,6.15,18.33-6.62.13-7.78.09-15.12-3.54-7.34-3.63-12.14-6.63-21.3-3.9-9.15,2.73-4.72,6.03-16.06,2.97-11.34-3.06-17.86-4.26-14.58-10.22s2.98-10.7,6.89-12.69,8.86-7.47,9.89-10.94c1.03-3.47,18.33,5.12,22.81.41Z"/>
      <path class="cls-2" d="M31.33,118.98c2.9-1.28,6.29-3.16,10.14-1.49s16.34,5.33,18.85,4.69c2.51-.65,6.18-1.01,1.35-6.1-4.84-5.09-7.27-7.06-8.59-10.51-1.32-3.45-.23-1.37-8.02.91-7.79,2.28-14.42-.82-20.14,4.55-5.72,5.36-3.84,7.79,6.41,7.96Z"/>
      <path class="cls-7" d="M61.24,2.84c-3.76-.24-6.32-.31-6.59,2.22s.56,1.97-.47,7.06c-1.03,5.09-2.7,6.78-3.21,15.55-.51,8.77,2.1,8.17-.79,13.49-2.89,5.32-4.25,7.38-3.41,9.24s4.33,2.45,6.21-5.15c1.88-7.6,2.24-9.52,4.31-17.03,2.08-7.52,6.15-23.73,3.94-25.38Z"/>
      <path class="cls-6" d="M131.59,30.54c1.88.81,6.22,2.69,6.02,3.98-.21,1.29-1.72,2.48-4.28,5.29-2.56,2.81-4.28,4.6-6.4,8.7-2.12,4.1-3.58,6.12-2.99,2.45.59-3.66,4.06-8.85,2.14-8.35-1.92.5-3.94,8.03-4.61,5.79-.67-2.25,5.44-15.57,10.13-17.86Z"/>
      <path class="cls-5" d="M60.56,67.37c-4.02.34-5.68-.15-7.94,2.91-2.26,3.06-5.02,7.28-7.47,9.68-2.44,2.4-3.89,5.46-6.96,5.52-3.07.05,1.59-2.31,3.1-5,1.51-2.69,2.02-2.24,4.12-7.09s3.49-7.25,5.81-9.36c2.32-2.11.3-4.48,4.4-3.4,4.1,1.08,9.45,5.01,12.7,7.79,3.25,2.79,1.2,1.56-7.76-1.05Z"/>
      <path class="cls-2" d="M74.6,78.28c.32,4.4,2.58,5.96-.83,9.78-3.41,3.83-7.2,4.72-7.46,8.3-.26,3.58.05,5.32,5.53,11.61,5.49,6.29,7.12,6.31,8.44,11.14,1.31,4.83,5.41,4.3,3.6.63-1.82-3.67-4.43-5.49-6.97-11.54-2.54-6.05-3.51-7.62-1.12-10.97,2.39-3.35,4.36-3.3,5.3-7.39.95-4.09,1.36-3.68-.05-6.94-1.41-3.26-1.26-4.69-4.32-6.02s-6.61-5.05-12.46-4c-5.85,1.05-6.99,3.43-9.78,5.8-2.78,2.37-4.91,6.75-1.89,4.37,3.02-2.38,2.23-3.53,9.62-5.17,7.39-1.64,9.42-3.83,12.38.39Z"/>
    </g>
  </g>
</svg>