<?xml version="1.0" encoding="UTF-8"?>
<svg xmlns="http://www.w3.org/2000/svg" viewBox="0 0 120.46 98.87">
  <defs>
    <style>
      .cls-1, .cls-2 {
        fill: #dbdbd7;
      }

      .cls-3, .cls-4, .cls-5 {
        fill: #e78a37;
      }

      .cls-2, .cls-6, .cls-5, .cls-7, .cls-8 {
        mix-blend-mode: multiply;
      }

      .cls-4 {
        mix-blend-mode: screen;
        opacity: .8;
      }

      .cls-9 {
        fill: #fff;
      }

      .cls-10 {
        fill: #fcf7f1;
      }

      .cls-11 {
        fill: none;
      }

      .cls-12, .cls-6 {
        fill: #584c40;
      }

      .cls-6, .cls-5, .cls-13, .cls-8 {
        opacity: .5;
      }

      .cls-14 {
        isolation: isolate;
      }

      .cls-15 {
        fill: #f8ab47;
      }

      .cls-16 {
        fill: #ceb480;
      }

      .cls-7 {
        fill: #b4b4b4;
      }
    </style>
  </defs>
  <g class="cls-14">
    <g id="Layer_2" data-name="Layer 2">
      <g id="Layer_1-2" data-name="Layer 1">
        <g>
          <g>
            <path class="cls-7" d="M59,53.48s-.81,2.95,3.1,4.71c3.91,1.77,10.63,3.68,14.03,1.16,3.4-2.52,3.98-2.26,4.25-8.51.2-4.45-1.46-5.94,1.13-12.69,1.36-3.57-.25-4.79,1.26-5.3,1.51-.5,2.39-2.52,2.52-4.29.12-1.77,1.13-.88,5.17-2.27,4.03-1.39,6.93-3.28,11.09-3.66,4.16-.38,4.04-1.39,7.06-2.65,3.03-1.26,10.46-5.17,10.46-5.17l-37.44,8.19-9.08,30.26-13.56.2Z"/>
            <g>
              <path class="cls-3" d="M119.13,5.26c-2.57-3.47-7.84-5.26-7.84-5.26,0,0-10.64,2.24-22.28,5.71-11.65,3.47-13.21,5.82-15,7.05-1.79,1.23-4.37-.22-5.15,1.79l-.78,1.79c3.32.62,9.16,6.15,10.17,7.98.88,1.59,1.66,4.53,3.1,6.04.02,0,.03-.02.05-.02,2.02-.56,1.91-.34,1.91-2.35s1.01-2.46,1.9-2.24c.9.23,2.47-1.34,3.47-1.9,1.01-.56,1.79.45,2.91-.22,1.12-.67,4.37-1.46,6.83-1.46s4.93,0,8.62-2.35c3.7-2.35,12.09-5.04,12.43-5.15.34-.11,2.24-5.94-.34-9.41Z"/>
              <g class="cls-13">
                <path class="cls-15" d="M84.14,11.79s-.04.06-.05.09c0,0-.01,0-.01,0-.12.11-.09.26.03.35,0,0,0,0,0,0,.03.04.05.07.09.09.06.04.14.06.22.08.13.06.27.09.38.06.03,0,.05-.02.07-.04.17,0,.34-.02.48-.07.08-.03.13-.13.11-.21-.13-.51-.95-.75-1.32-.37Z"/>
                <path class="cls-15" d="M88.82,20.08s-.04.06-.05.09c0,0-.01,0-.02,0-.12.11-.08.26.03.35,0,0,.01,0,.01,0,.02.04.05.07.09.09.06.04.14.06.22.08.13.06.27.09.38.06.03,0,.05-.02.07-.04.17,0,.34-.02.48-.06.08-.03.13-.13.11-.21-.13-.51-.95-.75-1.32-.37Z"/>
                <path class="cls-15" d="M83.03,16.72s-.07.1-.1.16c0,0-.02,0-.02.01-.2.18-.14.45.05.61,0,0,.02,0,.02.01.04.06.09.12.15.16.11.07.24.11.37.13.22.1.46.15.66.1.04-.01.08-.04.11-.07.28,0,.58-.03.83-.11.13-.05.22-.22.19-.36-.22-.87-1.63-1.29-2.27-.63Z"/>
                <path class="cls-15" d="M96.16,18.07s-.07.1-.09.16c0,0-.02.01-.02.02-.2.19-.15.45.05.61,0,0,.01,0,.02.01.04.06.09.12.15.16.11.07.24.11.37.13.22.1.46.15.66.1.04-.01.08-.04.11-.07.28.01.58-.02.83-.11.13-.05.22-.22.19-.36-.22-.87-1.63-1.29-2.27-.64Z"/>
                <path class="cls-15" d="M111.36,3.71s-.07.1-.09.16c-.01,0-.02,0-.03.01-.2.19-.14.45.05.61,0,0,.01,0,.02.01.04.06.09.12.15.16.11.07.24.11.38.13.22.1.46.15.66.1.05-.01.08-.04.11-.07.29,0,.58-.02.83-.11.13-.05.22-.22.19-.36-.22-.87-1.63-1.29-2.27-.64Z"/>
                <path class="cls-15" d="M77.58,13.3s-.04.06-.05.09c0,0-.01,0-.02,0-.12.11-.08.26.03.36,0,0,.01,0,.01,0,.02.04.05.07.09.09.06.04.14.06.22.08.13.06.27.09.39.05.02,0,.05-.02.06-.04.17,0,.34-.02.48-.06.08-.03.13-.13.11-.21-.13-.51-.95-.75-1.32-.37Z"/>
                <path class="cls-15" d="M87.73,8.98s-.04.06-.05.09c0,0-.01,0-.02,0-.12.11-.08.26.03.35,0,0,.01,0,.01,0,.02.03.05.07.09.09.07.04.14.06.22.08.13.06.27.09.38.05.03,0,.05-.02.06-.04.17,0,.34-.02.49-.06.08-.03.13-.13.11-.21-.13-.51-.95-.75-1.33-.37Z"/>
                <path class="cls-15" d="M99.95,10.41s-.04.06-.05.09c0,0-.01,0-.02,0-.12.11-.08.26.03.35,0,0,.01,0,.01,0,.03.03.05.07.09.09.06.04.14.06.22.08.13.06.27.09.38.06.03,0,.05-.02.07-.04.17,0,.34-.02.49-.06.08-.03.13-.13.11-.21-.13-.51-.95-.75-1.32-.37Z"/>
                <path class="cls-15" d="M108.77,1.72s-.04.06-.05.09c0,0-.01,0-.02,0-.12.11-.08.26.03.35,0,0,.01,0,.01,0,.02.04.05.07.09.09.06.04.14.06.22.08.13.06.27.09.38.05.03,0,.05-.02.07-.04.17,0,.34-.01.48-.06.08-.03.13-.13.11-.21-.13-.51-.95-.75-1.32-.37Z"/>
                <path class="cls-15" d="M112.03,13.47s-.04.06-.05.09c0,0,0,0-.01.01-.12.11-.09.26.03.35,0,0,0,0,.01,0,.03.03.05.07.09.09.06.04.14.06.22.07.13.06.27.09.38.06.03,0,.05-.02.07-.04.17,0,.34-.02.48-.06.08-.03.13-.13.11-.21-.13-.51-.95-.75-1.32-.37Z"/>
                <path class="cls-15" d="M115.65,8.55s-.04.06-.06.09c0,0,0,0-.01,0-.12.11-.09.26.03.35,0,0,0,0,.01,0,.02.03.05.07.09.09.06.04.14.06.22.08.13.06.27.09.39.05.03,0,.05-.02.07-.04.17,0,.34-.02.48-.06.08-.03.13-.13.11-.21-.13-.51-.95-.75-1.32-.37Z"/>
                <path class="cls-15" d="M90.84,11.71s-.02.1-.03.14c0,0-.01.01-.02.02-.1.2,0,.38.2.45,0,0,.01,0,.02,0,.05.04.1.07.16.08.1.02.21.02.32,0,.19.02.39,0,.53-.1.03-.02.05-.05.07-.09.22-.07.43-.17.6-.3.09-.07.11-.23.05-.32-.4-.6-1.57-.54-1.89.12Z"/>
                <path class="cls-15" d="M79.94,23.58s-.03.1-.03.14c0,0-.01.01-.01.02-.1.2,0,.38.2.45,0,0,.02,0,.02,0,.05.04.1.07.15.08.1.02.21.02.32,0,.19.02.39,0,.53-.1.03-.02.05-.05.07-.08.22-.07.44-.17.6-.3.09-.07.11-.22.05-.32-.39-.6-1.57-.54-1.89.12Z"/>
                <path class="cls-15" d="M106.06,12.66s-.02.1-.03.14c0,0-.01.01-.01.02-.1.19,0,.38.2.45,0,0,.01,0,.02,0,.05.03.1.06.15.08.1.02.21.02.32,0,.19.02.39,0,.53-.1.03-.02.05-.05.07-.09.22-.07.43-.17.6-.3.09-.07.11-.23.05-.32-.4-.6-1.57-.54-1.89.12Z"/>
                <path class="cls-15" d="M97.76,4.94s-.03.1-.03.14c0,0-.01.01-.01.02-.1.2,0,.38.2.45,0,0,.01,0,.02,0,.05.04.1.07.15.08.1.02.21.02.32,0,.19.02.4,0,.53-.1.03-.02.05-.05.07-.08.22-.07.43-.17.59-.3.09-.07.11-.22.05-.32-.39-.6-1.57-.55-1.89.12Z"/>
                <path class="cls-15" d="M102.83,7.09s-.03.1-.03.14c0,0-.01.01-.01.02-.11.2,0,.38.2.45,0,0,.01,0,.02,0,.05.04.1.07.16.08.1.02.21.02.32,0,.19.02.39,0,.53-.1.03-.02.05-.05.07-.08.22-.07.43-.17.6-.3.09-.07.11-.22.05-.32-.39-.6-1.57-.54-1.88.12Z"/>
              </g>
              <path class="cls-16" d="M71.8,55.26c-.12-1.31-.71-1.66-3.44-.59q-2.73,1.07-5.7-.48c-1.95-1.41-3.36-2.78-4.22-3.71-.29,2.18.16,4.1.77,5.09.64,1.04.56-1.44,1.61-.72,1.04.72,2.81,3.13,3.69,3.05.88-.08.64,0,1.21.8.56.81,5.38-.24,7.06-.4,1.68-.16,2.73-.72,2.89-1.76.12-.8.62-1.13.95-3.15-.53.24-.95.31-1.24.45-.71.36-3.44,2.73-3.56,1.42Z"/>
              <path class="cls-12" d="M59,53.48c-.21-.12-.39-.16-.54-.15.15.94.42,1.72.74,2.24.6.97.57-1.1,1.4-.83-.5-.46-1.02-.94-1.6-1.26Z"/>
              <path class="cls-12" d="M74.39,56.7c-1.67.18-3.28-.47-4.96-.19-1.78.3-3.69,1.06-5.49.47-.74-.24-1.39-.64-2.01-1.1.92.94,1.96,2.08,2.57,2.02.88-.08.64,0,1.21.8.56.81,5.38-.24,7.06-.4,1.68-.16,2.73-.72,2.89-1.76,0-.03.01-.06.02-.09-.43.12-.86.21-1.28.26Z"/>
              <path class="cls-10" d="M78.59,38.52c.44-4.44.78-7.55,2.75-8.16-1.44-1.51-2.23-4.45-3.1-6.04-1.01-1.82-6.85-7.36-10.17-7.98,0,0-5.26,2.8-4.81,6.61.44,3.81.15,3.56-1.32,9.51,0,0-.4,2.49-.56,4.33-.16,1.85-2.49,10.99-2.89,13.32-.02.12-.03.25-.05.37.86.93,2.28,2.3,4.22,3.71q2.97,1.54,5.7.48c2.73-1.07,3.33-.71,3.44.59.12,1.31,2.85-1.07,3.56-1.42.28-.14.71-.21,1.24-.45.11-.63.19-1.43.25-2.46.24-4.33,1.3-7.92,1.75-12.39Z"/>
              <path class="cls-5" d="M75.53,13.85c-.18-.16,3.21,4.55,4.18,6.94.97,2.39-.15-3.29-4.18-6.94Z"/>
              <path class="cls-1" d="M78.24,24.32c-.74-1.34-4.11-4.7-7.16-6.62.19.69.32,1.34.27,1.82-.15,1.64,1.35,2.83,4.18,5.67,2.84,2.83,3.29,3.73,2.54,6.27-.6-1.05-1.2-1.49-4.03-2.69-2.84-1.2-5.82-2.99-6.27-3.14-2.22-.74,3.88,2.99,6.57,5.82,2.69,2.84,1.19,5.97.15,15.08-.52,4.48-1.03,7.19-1.42,8.79.85-.46,1.89-1.3,2.29-1.5.28-.14.71-.21,1.24-.45.11-.63.19-1.43.25-2.46.24-4.33,1.3-7.92,1.75-12.39.44-4.44.78-7.55,2.75-8.16-1.44-1.51-2.23-4.45-3.1-6.04Z"/>
              <path class="cls-2" d="M66.69,24.33s2.81,2.35,6.13,3.61c1.83.97,2.23,1.83,2.23,1.83,0,0-1.95-.34-4.41-1.61-2.46-1.26-5.16-3.95-3.96-3.84Z"/>
              <path class="cls-5" d="M109.05,13.77c-6.05.9-11.2,3.14-17.92,5.15-6.72,2.02-6.61,4.48-8.4-1.57-1.79-6.05-2.47-3.58-2.02.56.45,4.14.67,6.27-3.25,1.91-2.68-2.99-6.41-4.72-8.5-5.51-.04.08-.09.15-.12.25l-.78,1.79c3.32.62,9.16,6.15,10.17,7.98.88,1.59,1.66,4.53,3.1,6.04.02,0,.03-.02.05-.02,2.02-.56,1.91-.34,1.91-2.35s1.01-2.46,1.9-2.24c.9.23,2.47-1.34,3.47-1.9,1.01-.56,1.79.45,2.91-.22,1.12-.67,4.37-1.46,6.83-1.46s4.93,0,8.62-2.35c3.7-2.35,12.09-5.04,12.43-5.15.25-.08,1.31-3.14.9-6.14-2.32,3.01-6.57,4.54-11.32,5.25Z"/>
              <path class="cls-4" d="M78.52,11.43s18.1-5.52,27.28-7.82c4.82-1.16,6.32-1.33,9.98.67-2.66-2.83-4.32-3.33-4.82-3.33s-13.97,2.82-21.96,5.32c-7.98,2.49-12.97,5.15-10.48,5.15Z"/>
              <path class="cls-9" d="M64.32,28.09s-1.79,8.34-3.12,14c-1.34,5.66-1.19,6.4-.45,8.63.75,2.24,4.47,2.39,4.47,2.39,0,0-2.68-1.64-1.64-8.64,1.04-7,3.42-11.91.74-16.38Z"/>
            </g>
            <path class="cls-5" d="M110.71,16.35c-3.6,1.07-6.31,4.37-10.01,3.88-3.69-.49-10.2,1.36-11.17,1.94-.97.58-3.4,2.91-5.05,2.33-1.65-.58-2.14,1.65-2.53,3.69-.39,2.04-1.75-2.33-4.37-5.83-1.61-2.14-4.05-3.44-5.71-4.13,2.81,1.96,5.68,4.86,6.36,6.09.88,1.59,1.66,4.53,3.1,6.04.02,0,.03-.02.05-.02,2.02-.56,1.91-.34,1.91-2.35s1.01-2.46,1.9-2.24c.9.23,2.47-1.34,3.47-1.9,1.01-.56,1.79.45,2.91-.22,1.12-.67,4.37-1.46,6.83-1.46s4.93,0,8.62-2.35c3.7-2.35,12.09-5.04,12.43-5.15.08-.03.22-.33.38-.82-3.06,1.44-6.5,1.7-9.14,2.49Z"/>
          </g>
          <g>
            <path class="cls-12" d="M62.7,65.32c-.25-.34-.08-.86-.45-1.12-.08-.06-.26.12-.17.2.32.28,0,.93.44,1.13.1.05.25-.1.18-.2Z"/>
            <path class="cls-12" d="M65.07,63.68c-.1-.12-.15-.25-.19-.4.04-.04.07-.1,0-.12-.02,0-.03,0-.05-.02-.07-.06-.21.03-.22.11-.02.24.04.48.21.65.11.11.34-.11.25-.23Z"/>
            <path class="cls-12" d="M74.58,61.54c-.02-.17-.25-.02-.25.1,0,.25.07.54.24.73.08.09.27-.06.25-.16-.05-.23-.21-.42-.23-.67Z"/>
            <path class="cls-12" d="M81.89,60.43c-.07-.1-.26.08-.22.18.08.18.07.35.08.54.02.2.28.01.29-.12.02-.22-.03-.42-.15-.6Z"/>
            <path class="cls-12" d="M88.45,57.67c-.01-.15-.45-.12-.45-.01,0,.28.05.54-.02.82-.04.18.21.1.25,0,.13-.3.24-.49.21-.8Z"/>
            <path class="cls-12" d="M61.67,63.97c.02-.1-.02-.17-.06-.24-.05-.14-.11-.27-.11-.41,0-.19-.27-.04-.3.1-.04.04-.07.09-.07.14.01.08.03.14.08.2h0s0,.04,0,.06c0,.18.05.35.21.42.1.04.21-.06.23-.15,0-.03,0-.05,0-.08,0-.02.02-.03.02-.04Z"/>
            <path class="cls-12" d="M54.89,66.14s0-.08-.05-.1c-.02,0-.05-.02-.08-.02-.01-.02-.02-.05-.04-.07-.06-.1-.23.03-.19.13,0,.02.01.04.02.06-.04.04-.06.1-.02.15.04.06.09.12.14.18.03.08.05.15.08.23.04.11.11.26.23.3.13.04.26-.08.26-.21,0-.24-.19-.46-.34-.65Z"/>
            <path class="cls-12" d="M48.87,61.7c-.17-.13-.35-.21-.54-.26-.26-.19-.85-.31-1,.07-.07.18.03.26.18.31,0,.04.01.07.06.09.01,0,.03,0,.04,0h0c.17.05.34.07.5.04.13.02.26.05.36.11.08.04.19-.03.24-.12.12-.03.26-.18.15-.26Z"/>
            <path class="cls-12" d="M42.78,62.19c-.22.05-.84.63-.45.81.09.04.21-.06.22-.14.03-.19.08-.33.24-.44.08-.05.14-.26-.02-.22Z"/>
            <path class="cls-12" d="M39.83,64.04c-.23-.08-.35-.3-.37-.53-.02-.15-.22-.01-.23.09-.01.32.11.64.44.71.12.03.3-.23.15-.27Z"/>
            <path class="cls-12" d="M47.3,53.85c-.12-.03-.27.19-.14.24.19.08.33.21.39.39-.03.04-.04.09-.03.13.03.1.07.12.16.14.12.03.25-.12.24-.23-.02-.33-.27-.64-.61-.67Z"/>
            <path class="cls-12" d="M55.34,54.47c-.15-.13-.31-.24-.5-.29-.06-.07-.13-.14-.22-.19-.11-.07-.27.09-.28.19,0,.03,0,.06,0,.09h0s0,.05.01.07c0,.01-.01.03,0,.04.03.18.29.5.53.58.08.07.17.14.27.19.17.19.44.21.52-.09.07-.25-.16-.45-.33-.6Z"/>
            <path class="cls-12" d="M55.18,53.09c-.18-.28-.51-.37-.82-.3-.02,0-.04.01-.06.02h-.04c-.07,0-.19.08-.23.17-.05.04-.08.09-.1.14,0,.02-.01.03-.01.05,0,0,0,0,0,.01,0,.02,0,.04.01.06,0,0,0,.02,0,.02,0,.02.02.03.04.04,0,0,0,0,0,0,.09.06.25.06.36.06.11,0,.22,0,.34-.02.15.03.31.04.42-.02.06-.04.15-.15.11-.23Z"/>
          </g>
          <g>
            <path class="cls-7" d="M30.65,86.17s-1.11,2.62,1.31,4.44c2.42,1.82,6.99,4.02,19.64,5.93,12.66,1.9,22.85,3.25,28,1.57,5.15-1.68,11.98-3.7,19.26-8.63,7.28-4.93,12.88-7.5,13.55-11.2,0,0-26.09,15.79-35.16,16.46-9.07.67-34.97-2.7-46.6-8.57Z"/>
            <path class="cls-3" d="M80.83,82.98c-.16-4.9-3.38-7.62-5.27-8.8-.97.41-2.05-.28-2.73-.78-.88-.64-2.08-1.92-4.15-1.28-2.08.64-5.11.96-6.55.24-1.44-.72-2.16-.64-4.87-1.28-2.72-.64-13.98-3.76-18.14-4.16-4.15-.4-6.87.72-9.11,8.31-1.76,7.83.48,12.14.48,12.14.97,1.37,4.35,2.55,7.61,2.83,3.26.28,10.63,3.07,23.4,5.22,7.39.96,12.3,1.06,15.7.79,3.95-3.09,3.85-6.83,3.64-13.24Z"/>
            <g class="cls-13">
              <path class="cls-15" d="M41.4,74.68s-.07.05-.1.07c0,0-.01,0-.02,0-.18.06-.21.24-.13.39,0,0,0,0,0,.01,0,.05.02.1.05.14.05.07.12.13.2.18.11.12.25.22.39.24.03,0,.06,0,.09-.01.18.08.37.14.55.16.1,0,.2-.08.22-.17.1-.6-.67-1.25-1.24-1.02Z"/>
              <path class="cls-15" d="M42.53,85.76s-.07.05-.1.08c0,0-.01,0-.02,0-.18.06-.21.24-.13.39,0,0,0,0,.01.01.01.05.02.1.05.14.05.07.12.13.2.19.11.12.25.22.39.24.03,0,.06,0,.09-.01.18.08.37.14.55.16.1,0,.2-.08.21-.18.1-.6-.67-1.25-1.25-1.02Z"/>
              <path class="cls-15" d="M37.9,79.44c-.07.03-.12.08-.18.13-.01,0-.02,0-.03,0-.3.1-.37.41-.23.67,0,.01.01.02.02.02.02.09.04.17.09.24.09.12.21.22.34.32.19.21.43.38.67.41.05.01.11,0,.15-.02.3.14.64.25.94.27.17.01.34-.13.37-.3.17-1.03-1.14-2.14-2.13-1.75Z"/>
              <path class="cls-15" d="M51.34,87.05c-.07.03-.12.08-.18.13-.01,0-.02,0-.03,0-.3.1-.36.41-.23.67,0,0,.01.02.02.02.02.08.04.17.09.24.09.12.21.22.34.31.19.21.43.38.66.41.05.01.11,0,.16-.02.3.14.64.25.93.27.17.01.34-.13.37-.3.17-1.03-1.14-2.14-2.13-1.75Z"/>
              <path class="cls-15" d="M74.35,78.8c-.07.03-.12.08-.18.13-.01,0-.02,0-.03,0-.3.1-.36.41-.23.67,0,0,.01.01.02.02.02.08.04.17.09.24.08.12.21.23.34.32.19.21.42.38.66.42.06,0,.11,0,.16-.03.3.14.64.25.94.27.17.01.34-.13.37-.3.17-1.03-1.14-2.14-2.13-1.75Z"/>
              <path class="cls-15" d="M33.67,73.23s-.07.04-.1.07h-.02c-.18.06-.21.24-.13.39,0,0,0,.01.01.02.01.05.02.1.05.14.05.07.12.13.2.19.11.12.25.22.39.24.03,0,.06,0,.09-.01.18.08.37.14.55.15.1,0,.2-.08.21-.17.1-.6-.67-1.25-1.24-1.02Z"/>
              <path class="cls-15" d="M46.57,73.35s-.07.05-.1.08h-.02c-.18.06-.21.24-.13.39,0,0,0,.01.01.01,0,.05.02.1.05.14.05.07.12.13.2.19.11.12.25.22.39.24.03,0,.06,0,.09-.01.18.08.37.14.55.15.1,0,.2-.08.21-.17.1-.6-.67-1.25-1.24-1.02Z"/>
              <path class="cls-15" d="M58.98,80.62s-.07.05-.1.07c0,0-.01,0-.02,0-.18.06-.21.24-.13.39,0,0,0,0,0,.01.01.05.02.1.05.14.05.07.12.13.2.19.11.12.25.22.38.24.03,0,.06,0,.09-.02.18.08.37.14.55.16.1,0,.2-.08.22-.18.1-.6-.67-1.25-1.24-1.02Z"/>
              <path class="cls-15" d="M72.51,75.45s-.07.05-.1.07h-.02c-.18.06-.21.24-.13.39,0,0,0,0,.01.01,0,.05.02.1.05.14.05.07.12.13.2.19.11.12.25.22.39.24.03,0,.06,0,.09-.01.18.08.37.14.55.16.1,0,.2-.08.21-.18.1-.6-.67-1.25-1.24-1.02Z"/>
              <path class="cls-15" d="M70.5,89.56s-.07.05-.1.07c0,0-.01,0-.02,0-.18.06-.21.24-.13.39,0,0,0,0,0,.01.01.05.02.1.05.14.05.07.12.13.2.19.11.12.25.22.39.24.03,0,.06,0,.09-.02.18.08.37.14.55.16.1,0,.2-.08.22-.17.1-.6-.67-1.25-1.24-1.02Z"/>
              <path class="cls-15" d="M76.68,86s-.07.05-.1.07c0,0-.01,0-.02,0-.18.06-.21.24-.13.39,0,0,0,0,0,.01.01.05.02.1.05.14.05.07.12.13.2.18.11.12.25.22.39.24.03,0,.06,0,.09-.01.18.08.37.14.55.16.1,0,.2-.08.22-.18.1-.6-.67-1.25-1.24-1.02Z"/>
              <path class="cls-15" d="M48.62,77.74s-.07.09-.1.14c0,0-.02,0-.02.01-.2.16-.17.41,0,.57,0,0,.01,0,.02.01.04.06.07.12.13.16.1.07.22.12.34.15.2.11.42.18.61.14.04-.01.08-.03.11-.06.27.03.55.02.78-.04.13-.04.22-.19.2-.32-.14-.83-1.43-1.32-2.08-.76Z"/>
              <path class="cls-15" d="M64.48,85.89s-.07.09-.1.14c0,0-.02,0-.03.01-.2.16-.17.41,0,.57,0,0,.01,0,.02.01.04.06.07.12.13.16.1.07.22.11.34.15.2.11.42.18.61.14.04-.01.08-.03.11-.06.27.03.55.02.78-.04.13-.04.23-.19.2-.33-.14-.83-1.43-1.32-2.08-.76Z"/>
              <path class="cls-15" d="M59.2,73.73s-.07.09-.1.14c0,0-.02,0-.02.01-.2.16-.17.41,0,.57,0,0,.01,0,.02.01.04.06.07.12.13.16.1.07.22.12.34.15.2.11.42.18.61.14.04-.01.08-.03.11-.06.27.03.55.02.78-.04.13-.04.22-.19.2-.33-.14-.83-1.43-1.32-2.08-.76Z"/>
              <path class="cls-15" d="M63.63,78.41s-.07.09-.1.14c0,0-.02,0-.02.01-.2.16-.17.41,0,.57,0,0,.01,0,.02.01.03.06.07.12.13.16.1.07.21.12.34.15.2.11.42.18.61.14.04,0,.08-.03.11-.06.27.02.55.02.78-.05.13-.04.22-.19.2-.32-.14-.83-1.43-1.32-2.08-.76Z"/>
            </g>
            <g>
              <path class="cls-10" d="M109.38,79.89c-1.13-.44-.12-1.07.82-2.84.94-1.76,1.14-2.9.31-5.1-.82-2.21-1.01-1.83-1.39-3.84-.38-2.02-3.59-5.61-4.22-6.18-.63-.57-1.2.63-2.21.7-1.01.06-1.01-.44.51-2.4.67-.86-.02-1.17-.82-1.26-1.4.48-3.5,1.53-7.11,3.57-6.71,4.23-8.15,7.27-11.19,7.59-3.04.32-1.92,1.44-3.67,1.6-1.76.16-2.96.4-4.08,1.84-.24.32-.51.51-.78.62,1.88,1.18,5.11,3.9,5.27,8.8.21,6.41.31,10.15-3.64,13.24,4.5-.35,6.36-1.34,7.79-1.82,2.52-.84,4.01-1.4,8.02-4.1,4.01-2.7,5.96-4.47,8.58-5.59,2.32-1,4.95-2.44,9.46-4.79-.53,0-1.16.16-1.65-.03Z"/>
              <path class="cls-16" d="M104.95,58.7c-.69-.14-1.38-.14-2.56.26.8.09,1.48.4.82,1.26-1.51,1.95-1.51,2.46-.51,2.4,1.01-.06,1.58-1.26,2.21-.7.63.57,3.84,4.16,4.22,6.18.38,2.02.57,1.64,1.39,3.84.82,2.21.63,3.34-.31,5.1-.95,1.77-1.95,2.4-.82,2.84.49.19,1.13.03,1.65.03.55-.29,1.12-.58,1.72-.9,4.57-13.24-6.29-20.01-7.81-20.33Z"/>
              <path class="cls-12" d="M108.18,63.03c.74.94,1.52,1.86,2.24,2.83.81,1.1,1.23,2.32,1.54,3.66.39,1.73.94,3.93.48,5.69-.29,1.1-.99,3.08.19,3.89.04-.02.09-.04.13-.07,4.06-11.78-4.08-18.43-6.99-19.98.32,1.43,1.82,3.22,2.42,3.98Z"/>
            </g>
            <path class="cls-5" d="M69.36,73.97s-.27,4.59-1.42,7.83c-.4,1.01,1.69-1.62,1.76-4.18.07-2.57-.13-4.65-.34-3.64Z"/>
            <g class="cls-8">
              <path class="cls-3" d="M80.83,82.98c-.16-4.9-3.38-7.62-5.27-8.8-.17.07-.34.11-.52.12,1.73,1.87,3.41,2.43,4.44,7.56,1.35,6.72-3.36,6.94-6.05,6.27-2.68-.67-4.7-1.79-3.81-5.6.89-3.81-.45-6.27-.45-6.27-1.34,14.11-14.78,9.18-24.19,7.84-9.4-1.34-11.2-.45-12.32-3.13-1.28-4.42-.81-8.6-.06-11.59-.96,1.29-1.81,3.16-2.61,5.86-1.76,7.83.48,12.14.48,12.14.97,1.37,4.35,2.55,7.61,2.83,3.26.28,10.63,3.07,23.4,5.22,7.39.96,12.3,1.06,15.7.79,3.95-3.09,3.85-6.83,3.64-13.24Z"/>
            </g>
            <path class="cls-1" d="M109.38,79.89c-1.13-.44-.12-1.07.82-2.84.94-1.76,1.14-2.9.31-5.1-.19-.52-.35-.9-.49-1.2-.42.72-.87,1.47-1.25,2.12-1.12,1.86-7.16,5.39-15.44,10.04-8.28,4.65-10.04,3.07-10.82-1.23-.97-5.38-4.15-7.61-5.88-8.45-.1.11-.19.22-.29.34-.24.32-.51.51-.78.62,1.88,1.18,5.11,3.9,5.27,8.8.21,6.41.31,10.15-3.64,13.24,4.5-.35,6.36-1.34,7.79-1.82,2.52-.84,4.01-1.4,8.02-4.1,4.01-2.7,5.96-4.47,8.58-5.59,2.32-1,4.95-2.44,9.46-4.79-.53,0-1.16.16-1.65-.03Z"/>
            <path class="cls-4" d="M33.01,73.52s.46-5.64,4.28-5.49c3.82.15,14.96,2.47,19.11,4.09,7.3,2.86,9.18,1.91,12.54,1.15,0,0-3.52,5.15-11.78,2.68-13.11-3.92-21.25-8.07-24.15-2.42Z"/>
            <path class="cls-9" d="M80.61,73.87s-3.73-1.79,2.69-1.49c2,.09.9-1.64,3.73-1.94,2.83-.3,6.87-6.27,14.63-9.7-5.67,5.67-8.81,8.21-11.65,12.1-2.83,3.88-3.73,7.32-9.4,1.04Z"/>
            <g class="cls-8">
              <path class="cls-3" d="M75.53,93.58c-2.68-.3-7.77-.3-8.06-1.79-.3-1.49,1.35-5.08-.6-1.94-3.58,5.97-18.88,1.18-23.61-.5-4.72-1.68-10.2-1.09-12.14-3.62-1.94-2.53-1.35-9.11-1.35-9.11l-.05.04c-1.21,6.93.76,10.72.76,10.72.97,1.37,4.35,2.55,7.61,2.83,3.26.28,10.63,3.07,23.4,5.22,7.39.96,12.3,1.06,15.7.79,2.92-2.28,3.62-4.92,3.71-8.73-.9,5.35-2.69,6.39-5.37,6.09Z"/>
            </g>
          </g>
          <g>
            <path class="cls-7" d="M7,68.8s3.05,6.6,12.1,3.43c2.98-1.04,11.65-8.21,15.98-12.99,4.33-4.78,12.69-12.69,15.53-15.23,2.83-2.54,3.28-3.58,4.48-6.42,1.2-2.84.3-2.09-.15-3.88-.45-1.79-47.93,35.09-47.93,35.09Z"/>
            <path class="cls-3" d="M50.99,22.84c-2.13-1.12-3.44-.55-4.51-1.79-1.07-1.23-2.79-.32-4.24.48-1.45.81-1.83.75-2.1,1.88-.27,1.02-3.1,3.23-6.34,5.25-3.25,2.02-6.94,3.92-10.86,7.73-2.6,2.52-4.8,4.31-7,6.14,2.01-.26,5.82-.11,10.48,3.19,6.45,4.57,6.39,6.9,6.05,13.31,3.61-3.24,7.16-7.71,11.42-12.04,4.55-4.63,10.9-9.85,11.12-11.65.22-1.79.22-2.39.67-5.6.45-3.66-2.56-5.79-4.68-6.91Z"/>
            <g>
              <path class="cls-11" d="M48.14,21.95c-.48-.29-1.03-.58-1.67-.89.49.56,1.03.75,1.67.89Z"/>
              <path class="cls-5" d="M50.99,22.84c-1.16-.61-2.08-.72-2.85-.89,3.26,1.95,3.3,3.54,4.01,6.61,1.09,4.75-2.17,8.43-5.16,10.87-2.99,2.44-8.56,9.11-11.14,10.87-2.58,1.77-5.16-5.03-8.56-6.79-1.77-.92-4.68-.92-7.07-.7,1.78.42,3.88,1.28,6.19,2.92,6.45,4.57,6.39,6.9,6.05,13.31,3.61-3.24,7.16-7.71,11.42-12.04,4.55-4.63,10.9-9.85,11.12-11.65.22-1.79.22-2.39.67-5.6.45-3.66-2.56-5.79-4.68-6.91Z"/>
            </g>
            <path class="cls-16" d="M20.57,57.76c-.82-1.45-3.03-2.15-3.03-2.15,0,0,.38-2.97-1.07-3.54-1.45-.57-4.05-1.64-5.31-.69-1.26.95-4.68,2.27-6.13,1.45-.39-.22-.82-.26-1.25-.21-1.02.8-1.69,1.31-1.69,1.31-3.05,2.91-3.14,9.94,2.45,14.64,5.6,4.7,15.23,1.64,15.23,1.64,0,0,.12-.11.35-.33,1.22-1.78,2.18-4.78,2.23-6.88.06-2.78-.95-3.79-1.77-5.25Z"/>
            <path class="cls-12" d="M19.29,64.12c.39-2.7-1.32-5.5-3.09-7.42-.8-.87-1.7-1.72-2.75-2.27-1.52-.8-3.02-.47-4.51.21-1.39.65-2.58,1.06-4.1,1.22-1.53.15-3.32.46-4.37,1.72-.15.18-.27.36-.38.55-.45,3.26.77,7.35,4.44,10.43,2.94,2.47,6.99,2.8,10.17,2.55.36-.12.72-.28,1.06-.47,2.41-1.36,3.16-3.94,3.53-6.53Z"/>
            <path class="cls-6" d="M15.33,69.71c1.39-1.72,1.03-4.06-.08-5.84-.99-1.58-2.42-4.21-4.57-4.29-1.4-.06-2.47.69-3.66,1.33-.66.36-1.56.74-2.33.59-.94-.17-1.83-.62-2.8-.46-.86.14-1.3.68-1.45,1.4.62,2.15,1.93,4.31,4.09,6.14,2.5,2.1,5.81,2.65,8.71,2.62.8-.35,1.55-.81,2.09-1.48Z"/>
            <path class="cls-10" d="M26.41,45.73c-4.65-3.3-8.47-3.45-10.48-3.19-1.12.93-2.24,1.87-3.41,2.93-2.4,2.17-6.47,5.38-8.75,7.16.43-.05.87-.01,1.25.21,1.45.82,4.87-.5,6.13-1.45,1.26-.95,3.86.12,5.31.69,1.45.57,1.07,3.54,1.07,3.54,0,0,2.21.69,3.03,2.15.82,1.45,1.83,2.46,1.77,5.25-.05,2.1-1,5.1-2.23,6.88,1.2-1.11,5.45-5,11.59-10.2.25-.21.5-.43.75-.66.34-6.41.39-8.73-6.05-13.31Z"/>
            <path class="cls-1" d="M26.41,45.73c-1.06-.75-2.08-1.33-3.04-1.79,4.34,2.86,8.81,9.23,7.04,11.26-1.77,2.04-6.11,7.07-6.39,5.3-.27-1.77.41-3.67-2.45-4.89-2.85-1.22-.95-2.31-3.26-3.67-1.05-.62-2.08-.53-2.88-.26.37.14.72.28,1.01.39,1.45.57,1.07,3.54,1.07,3.54,0,0,2.21.69,3.03,2.15.82,1.45,1.83,2.46,1.77,5.25-.05,2.1-1,5.1-2.23,6.88,1.2-1.11,5.45-5,11.59-10.2.25-.21.5-.43.75-.66.34-6.41.39-8.73-6.05-13.31Z"/>
            <g class="cls-13">
              <path class="cls-15" d="M29.19,38.52s-.01.06-.01.09c0,0,0,0,0,.01-.05.12.02.22.13.26,0,0,.01,0,.01,0,.03.02.06.04.1.04.06.01.12,0,.19-.01.11,0,.23-.02.31-.08.02-.01.03-.03.04-.05.13-.05.25-.12.35-.2.05-.05.06-.14.02-.2-.25-.35-.96-.27-1.12.13Z"/>
              <path class="cls-15" d="M35.31,43.38s-.01.06-.02.09c0,0,0,0,0,.01-.06.12.02.22.13.26h.01s.06.04.09.05c.06.01.13,0,.19-.01.12,0,.23-.02.31-.08.02-.01.03-.03.04-.05.13-.05.26-.12.35-.2.05-.05.06-.14.02-.2-.25-.35-.96-.28-1.12.13Z"/>
              <path class="cls-15" d="M29.87,42.61s-.02.1-.02.15c0,0,0,.01-.01.02-.1.2.03.38.23.44,0,0,.01,0,.02,0,.05.03.1.06.16.08.11.02.22,0,.33-.02.2,0,.4-.03.54-.13.03-.02.05-.05.06-.09.22-.08.44-.2.59-.34.09-.08.1-.24.03-.33-.44-.59-1.64-.48-1.92.22Z"/>
              <path class="cls-15" d="M40.28,39.58s-.02.1-.02.15c0,0-.01.01-.01.02-.1.2.03.38.23.44,0,0,.01,0,.02,0,.05.03.1.06.17.08.1.02.21,0,.33-.02.2,0,.4-.03.53-.13.03-.02.05-.05.06-.09.22-.08.44-.2.6-.34.09-.08.1-.24.03-.33-.44-.59-1.64-.48-1.93.22Z"/>
              <path class="cls-15" d="M47.41,23.96s-.02.1-.02.15c0,0-.01.01-.02.02-.1.21.03.39.23.45,0,0,.01,0,.02,0,.05.03.1.06.16.07.11.02.21,0,.33-.02.2,0,.4-.03.53-.13.03-.02.05-.05.06-.09.22-.09.44-.2.59-.34.09-.07.1-.24.03-.33-.44-.59-1.64-.48-1.93.22Z"/>
              <path class="cls-15" d="M24.67,41.7s-.01.06-.01.09c0,0,0,0-.01.01-.05.12.02.22.13.26,0,0,0,0,.01,0,.03.02.06.04.1.04.06.01.12,0,.19-.01.12,0,.23-.02.31-.08.02-.02.03-.03.04-.05.13-.05.25-.11.35-.2.05-.05.06-.14.02-.2-.26-.35-.96-.28-1.12.13Z"/>
              <path class="cls-15" d="M31.05,35.27s-.01.06-.01.09c0,0,0,0,0,.01-.06.12.02.22.13.26h.01s.06.04.1.05c.06.01.13,0,.19-.01.12,0,.24-.02.31-.08.02-.01.03-.03.04-.05.13-.05.25-.12.35-.2.05-.04.06-.14.02-.19-.26-.35-.96-.28-1.13.13Z"/>
              <path class="cls-15" d="M40.79,32.59s-.01.06-.01.09c0,0,0,0,0,.01-.06.12.02.22.13.26,0,0,.01,0,.01,0,.03.02.06.04.1.04.06.01.12,0,.19-.01.12,0,.24-.02.31-.08.02-.01.03-.03.04-.05.13-.05.25-.12.35-.2.05-.05.06-.14.02-.19-.26-.35-.96-.28-1.12.13Z"/>
              <path class="cls-15" d="M44.82,23.25s-.01.06-.01.09c0,0,0,0,0,.01-.06.12.02.22.13.26,0,0,0,0,.01,0,.03.02.06.04.1.04.06.01.12,0,.19-.01.11,0,.23-.02.31-.08.02-.01.03-.03.04-.05.13-.05.26-.12.35-.2.05-.04.06-.14.02-.19-.25-.35-.96-.28-1.12.13Z"/>
              <path class="cls-15" d="M50.93,31.17s-.01.06-.01.09c0,0,0,0,0,.01-.05.12.02.23.13.26,0,0,.01,0,.01,0,.03.02.06.04.1.04.06.01.12,0,.19,0,.12,0,.23-.02.31-.08.02-.01.03-.03.04-.05.13-.05.25-.12.35-.2.05-.05.06-.14.02-.19-.25-.34-.96-.28-1.12.13Z"/>
              <path class="cls-15" d="M52.16,26.31s0,.06-.01.09c0,0,0,0,0,.01-.06.12.02.22.13.26,0,0,0,0,.01,0,.03.02.06.04.1.04.06.01.12,0,.19,0,.12,0,.23-.02.31-.08.02-.02.03-.03.04-.05.13-.05.25-.12.35-.2.05-.05.06-.14.02-.19-.26-.35-.96-.28-1.13.12Z"/>
              <path class="cls-15" d="M34.27,36.39s.01.08.02.12c0,0,0,.01,0,.02-.02.18.12.28.29.27h.01s.1.02.14.01c.08-.01.17-.05.24-.1.15-.05.3-.13.37-.24.02-.03.02-.06.02-.09.14-.12.28-.27.36-.42.05-.08.02-.21-.06-.26-.49-.34-1.37.07-1.4.67Z"/>
              <path class="cls-15" d="M35.06,47.3s.01.08.02.12c0,0,0,.01,0,.02-.02.18.12.28.29.28,0,0,0,0,.01,0,.05.01.1.02.14.01.08-.01.17-.05.24-.1.15-.05.3-.13.37-.24.02-.03.02-.05.02-.08.14-.12.28-.27.36-.42.05-.08.02-.21-.06-.26-.49-.33-1.37.07-1.4.67Z"/>
              <path class="cls-15" d="M46.14,32.4s.01.08.02.12c0,0,0,.01,0,.02-.02.18.12.28.29.27h.02s.09.02.14.01c.09-.01.17-.05.24-.1.15-.05.3-.13.37-.24.02-.03.03-.06.03-.09.14-.12.28-.26.36-.41.04-.08.01-.21-.06-.26-.49-.34-1.37.07-1.4.67Z"/>
              <path class="cls-15" d="M37.44,29.1s.01.08.02.12c0,0,0,.01,0,.02-.02.18.12.28.29.28,0,0,.01,0,.02,0,.05.01.1.02.14.01.08-.01.17-.05.24-.1.15-.05.29-.13.37-.24.02-.03.03-.05.03-.08.14-.12.28-.27.36-.42.05-.08.02-.21-.06-.26-.49-.33-1.37.07-1.4.67Z"/>
              <path class="cls-15" d="M41.95,29.16s.02.08.03.12c0,0,0,.01,0,.02-.02.18.12.28.29.28,0,0,.01,0,.02,0,.05.01.09.02.14.01.08-.01.16-.05.24-.1.15-.05.3-.13.37-.24.02-.03.02-.05.03-.08.14-.12.28-.27.36-.42.04-.08.01-.21-.06-.26-.49-.33-1.37.07-1.4.67Z"/>
            </g>
            <path class="cls-4" d="M19.43,41.8s3.94-5.54,9.29-8.48c5.34-2.94,9.88-5.48,11.76-8.15,1.87-2.67,2.4-2.67,4.14-3.74,0,0-1.07,2-2.01,4.94-.93,2.94-5.08,5.21-10.02,8.42-4.94,3.21-7.54,6.39-7.54,6.39l-5.62.62Z"/>
            <path class="cls-9" d="M16.68,43.36s-4.11,3.72-6.42,5.26c-2.31,1.54-3.46,2.82-3.46,2.82,0,0,2.69.13,3.98-.77,1.29-.9,2.7-.9,3.85-.64,1.16.25,6.16-6.04,6.16-6.04,0,0-1.54-1.03-4.11-.64Z"/>
          </g>
        </g>
      </g>
    </g>
  </g>
</svg>