<?xml version="1.0" encoding="UTF-8"?>
<svg xmlns="http://www.w3.org/2000/svg" viewBox="0 0 111.81 110.53">
  <defs>
    <style>
      .cls-1 {
        opacity: .79;
      }

      .cls-1, .cls-2, .cls-3 {
        fill: #6d9326;
      }

      .cls-4 {
        fill: #6b3d17;
      }

      .cls-5 {
        fill: #b4d647;
      }

      .cls-2 {
        opacity: .57;
      }

      .cls-6 {
        fill: #87ae3a;
      }

      .cls-7 {
        opacity: .31;
      }

      .cls-7, .cls-8 {
        fill: #a0c642;
      }

      .cls-9 {
        fill: #9b622f;
      }

      .cls-10 {
        fill: #96b746;
        mix-blend-mode: multiply;
        opacity: .42;
      }

      .cls-11 {
        fill: #5e7c1e;
      }

      .cls-12 {
        fill: #c18952;
        opacity: .5;
      }

      .cls-13 {
        isolation: isolate;
      }

      .cls-14 {
        fill: #dae2bb;
      }

      .cls-15 {
        fill: #d9e8af;
      }
    </style>
  </defs>
  <g class="cls-13">
    <g id="Layer_2" data-name="Layer 2">
      <g id="Layer_1-2" data-name="Layer 1">
        <g>
          <g>
            <path class="cls-6" d="M62.74,106.91c-.53,1.02-1.18,1.94-2.05,2.41-1.45.78-3.38.32-4.99.44-2.69.21-5.23,1.29-8,.43-2.12-.67-3.7-2.25-5.72-3.13-2.39-1.04-4.81-1.91-7.24-2.76-.87-.31-1.74-.61-2.62-.93-2.35-.82-5.51-2.18-5.64-5.08-.07-1.39.84-2.26.6-3.66-.24-1.33-1.16-2.38-2.16-3.27,4.27,1.6,8.74,2.77,13.02,4.11,5.15,1.59,10.13,3.45,15.37,4.79,3.36.85,7.93,1.44,10.89,3.25-.41.96-.86,2.26-1.47,3.41Z"/>
            <path class="cls-10" d="M62.74,106.91c-.3-.34-.62-.65-.96-.89-.7-.48-1.78-.87-2.6-1.19-1.98-.78-3.95-1.37-6.09-1.51-2.01-.14-3.87-.63-5.88-.28-3.94.69-6.52-.24-10.05-2.09-1.14-.59-4.4-2.61-5.61-2.05-1.37.62-.1,1.92.5,2.64.82,1,1.73,1.9,2.66,2.76-.87-.31-1.74-.61-2.62-.93-2.35-.82-5.51-2.18-5.64-5.08-.07-1.39.84-2.26.6-3.66-.24-1.33-1.16-2.38-2.16-3.27,4.27,1.6,8.74,2.77,13.02,4.11,5.15,1.59,10.13,3.45,15.37,4.79,3.36.85,7.93,1.44,10.89,3.25-.41.96-.86,2.26-1.47,3.41Z"/>
            <path class="cls-6" d="M49.22,102.43c-.18-.08-.36-.17-.52-.25.32-.86.68-1.47.52.25Z"/>
            <path class="cls-15" d="M79.22,47.67c-.05.1-.1.21-.16.32-.03.18-.04.34-.03.46l.19-.77Z"/>
            <path class="cls-8" d="M46.35,104.54c1.98.25,3.23-.19,5.12-.46,1.58-.23,3.8.88,5.33,1.33,2.18.65,2.61,2.49-.03,2.95-1.45.25-2.97-.08-4.41.19-1.41.26-2.09.74-3.51.25-1.51-.52-5.05-3.19-2.49-4.26Z"/>
            <path class="cls-6" d="M31.53,25.79c1.1-2.39,1.57-5.7,3.71-7.41,2.49-1.98,5.39-.63,7.76.82,3.3,2.02,6.39,5.31,10.17,6.34,3.58.97,7.55.38,11.22,1.11,4.09.81,7.98,1.66,12.14,2.01,7.41.62,5.19,9.78,2.53,14.13-1.8,2.93-5.02,5.01-8.19,6.17-4.46,1.64-8.24,3.47-12.2,6.17-2.9,1.97-6.08,4.05-9.62,2.75-6.44-2.36-9.78-8.55-12.27-14.56-1.56-3.78-5.03-6.36-5.97-10.36-.48-2.05.25-2.38,1.22-3.87.66-1.02.74-2.78-.62-3.36.02-.15.08-.3.12.07Z"/>
            <path class="cls-1" d="M77.81,31.85c-2.03-.94-5.55.94-7.44,1.7-2.04.82-4.01,1.93-6.18,2.47-2.96.73-5.68.09-8.46-1.06-1.82-.75-3.6-1.85-5.57-2.08-1.96-.23-2.38.85-.78,2.14,1.35,1.09,4.83,1.02,5.75,2.28.91,1.25-.69,1.68-1.72,1.78.47,4.96,8.76-.82,10.97.85,1.93,1.45-2.56,3.08-3.77,2.99-1.29-.09-4.85-.85-4.66,1.48.17,2.03,2.51,1.67,3.63,2.21.49.24.88.34,1.13.87,1.49,3.09-3.85,3.31-5.34,2.68-2.34-.99-3.96-3.36-5.89-4.94-2.61-2.14-5.77-3.32-8.57-5.14-4.26-2.78-6.35-6.49-6.24-11.64.06-2.62.5-7.87,3.1-9.31,1.67-.93,4.04,0,5.7.62,4.16,1.56,7.7,4.37,11.79,6.08,5.55,2.32,11.56,2.47,17.46,2.02,1.88-.14,4.82.06,5.94,1.99.72,1.25-.61,2.95-.83,2.03Z"/>
            <g>
              <g>
                <path class="cls-6" d="M49.44,102.55c-2.8,1.01-6.99-1.12-9.66-2.07-3.1-1.1-6.08-2.38-8.99-3.81-1.24-.61-2.49-1.25-3.7-1.92-2.48-1.35-4.92-2.81-7.35-4.4-7.47-4.87-13.96-12.1-17.87-20.14-4.07-8.38-.51-15.91,1.48-24.31,1.15-4.87,1.06-10.38,1.81-15.43.01-.1.02-.19.03-.29.41-2.43,1.25-5.53.67-7.95-.3-1.27-1.08-2.36-1.78-3.47-.39-.64-.76-1.29-1.01-1.97-1.45-4.12-.26-5.78,1.84-7.78.57-.54,1.2-1.11,1.87-1.74,1.81-1.73,2.38-4.88,4.51-6.27,3.95-2.57,9.35.57,13.45.39,3.38-.16,4.98-1.63,8.45-.07.73.33,1.38.67,1.95,1.07,1.9,1.25,2.85,2.87,1.97,5.32-.09.23-.18.47-.28.71,0,.01,0,.02-.01.03,0,.04-.03.08-.05.12-.91,2.18-2.28,4.73-1.66,7.08.07.28.16.56.3.84.2.43.52.84.9,1.25.21.23.44.47.69.68.25.23.5.45.76.67.7.59,1.41,1.16,1.96,1.71,0,.01.01.02.01.02.08.08.15.15.22.22.17.18.32.37.46.54,1.97,2.51,1.07,4.46.23,6.63h0c-.32.86-.63,1.74-.75,2.71-.07.6-.08,1.23.03,1.91,0,.05.02.11.03.17.65,3.42,3.98,3.53,6.56,4.96,1.31.71,2.82,1.95,4.2,3.39.36.36.7.75,1.03,1.15.23.27.46.56.67.85.93,1.22,1.68,2.49,2.08,3.66.23.69.35,1.37.39,2.07,0,.19.01.38.01.57,0,.07,0,.14-.01.22-.02.55-.08,1.11-.18,1.66-.01.08-.03.15-.04.23-.41,2.15-1.29,4.29-1.85,6.31-.07.26-.13.51-.19.76-.6,2.62-2.7,4.54-2.99,7.27-.11,1.06.08,2.09.23,3.08.16,1.16.25,2.32-.31,3.54-.53,1.17-1.41,1.9-2.43,2.48-.61.36-1.28.66-1.94.95-1.13.5-2.2,1.03-3.14,1.69-1.33.92-2.44,2.08-3.18,3.74-1.2,2.67-.07,3.77.04,6.32.04.96-.32,1.74-.58,2.55-.22.7-.38,1.41-.13,2.28.45,1.6,2.08,2.83,3.22,3.81.01.02.03.02.04.04,2,1.74,3.76,3.13,5.94,4.36.48.26.97.52,1.49.78.13.07.26.13.39.19l.05.02c-.02.07-.05.14-.07.22.03.02.12.2.17.31.02.03.03.05.04.06Z"/>
                <path class="cls-8" d="M30.09,93.02c-.72-2.55-3.03-3.72-4.82-5.26-1.84-1.58-2.88-3.7-4.1-5.73-2.39-3.97-5.04-8.56-4.22-13.32.68-3.96,2.04-5.4,5.96-6.08,3.65-.63,7.19-1.88,10.31-3.8,1.07-.66,7.5-7.58,4.33-8.48-1.22-.34-3.02,3.08-3.81,3.77-1.36,1.17-3.39,2.43-5.21,2.85-1.85.42-5.33.27-6.89-.97-2.19-1.75-1.18-4.82-.7-7.1.45-2.12.68-4.14,2.3-5.51,1.38-1.17,2.99-1.3,3.96-3.05-1.07-.7-2.41-.93-3.63-1.15.03-2.54,3.63-5.02,4.68-7.39,1.11-2.5,1.75-5.55.2-8-4.55.65-5.99,9.82-7.52,13.36-2.24,5.16-5.29,2.55-4.85-2.12.27-2.91.7-6.06,1.27-8.9.46-2.34,1.93-3.72,2.73-5.85,1.38-3.67-.96-11.26-5.15-12.51-.34,1.35.99,2.97,1.26,4.37.52,2.76.03,5.85.05,8.68.03,3.46-.7,5.78-2.41,8.7-1.22,2.08-2.58,4.35-2.34,6.89.38,3.99,3.52,8.05,4.58,12.01.75,2.82,1.26,8.55-1.1,11.02-1.94,2.03-4.43-2.68-6.19-.5-1.61,2,3.96,4.98,4.38,7.29,1.26,7.02-.14,13.37,5.6,18.85,3.39,3.23,8.29,5.03,11.34,7.94Z"/>
                <path class="cls-2" d="M49.44,102.55c-2.8,1.01-6.99-1.12-9.66-2.07-3.1-1.1-6.08-2.38-8.99-3.81-1.24-.61-2.49-1.25-3.7-1.92-2.48-1.35-4.92-2.81-7.35-4.4-7.47-4.87-13.96-12.1-17.87-20.14-4.07-8.38-.51-15.91,1.48-24.31,1.15-4.87,1.06-10.38,1.81-15.43.01-.1.02-.19.03-.29.28.32.52.77.77,1.36.53,1.29.76,2.61.77,3.98.02,1.8.37,2.3,1.07,3.97.69,1.6-.22,2.89.26,4.47.53,1.78,2.51,3.03,3.38,4.69.93,1.78,1.66,6.25-1.48,6.38-1.06.05-1.89-1.09-2.92-1.08-.96-.01-1.9.62-2.63,1.19-1.69,1.33-3.05,4.19-2.72,6.41.28,1.96,2.31,3.5,3.53,4.9.73.86,2.57,2.46,2.58,3.67.02.69-.69,1-1.02,1.55-1.09,1.82-1.04,3.52,0,5.4,2.59,4.64,7.01,7.65,11.34,10.47,2.42,1.58,4.14,4.02,6.77,5.24.5.23,1.12.49,1.8.7,1.49.46,3.24.67,4.41-.08.4-.25.72-.62.96-1.12.76-1.62-.88-3.68-1.49-5.14-1.15-2.78-4.09-5.6-2.83-8.83.72-1.86,2.04-3.54,3.07-5.22,1.09-1.79,1.62-3.96,2.86-5.65,1.5-2.05,3.4-1.93,5.49-2.96,2.47-1.22,2.24-3.52,1.89-5.94-.25-1.76-.51-2.03.16-3.59.32-.72.55-1.48.78-2.26.26-.83.53-1.65.95-2.44.89-1.68,1.24-3.99-.41-5.6-1.11-1.08-3.47-.62-5.17.06-.51.2-.95.42-1.28.62-2.37,1.48-3.83,4.34-6.93,4.38-2.34.03-2.71-.86-2.4-2.85.52-3.4,1.12-5.42,3.91-6.99.33-.19.69-.36,1.08-.53.78-.34,1.34-.75,1.74-1.21,1.04-1.22.96-2.84.55-4.81-.34-1.7-.26-1.58.69-2.82t0-.02c1.31-1.73,1.22-3.52.17-5.31-.21-.35-.45-.7-.72-1.05-.44-.57-.95-1.04-1.49-1.48-1.64-1.35-3.54-2.38-4.47-4.52-.7-1.6-.7-3.5-.28-5.19.26-1.02.94-1.87.84-2.91-.26-2.53-2.98-3.33-4.91-3.88-1.68-.48-2.85-1.66-4.49-2.22-2.52-.84-3.72.06-5.29,1.72-.83.88-1.69,1.79-2.63,2.55-.77.65-1.6,1.19-2.51,1.56-2.43,1.01-3.9,2.3-5.02,4.85-.82,1.87-.34,2.7.13,4.16-.39-.64-.76-1.29-1.01-1.97-1.45-4.12-.26-5.78,1.84-7.78.57-.54,1.2-1.11,1.87-1.74,1.81-1.73,2.38-4.88,4.51-6.27,3.95-2.57,9.35.57,13.45.39,3.38-.16,4.98-1.63,8.45-.07.73.33,1.38.67,1.95,1.07,1.9,1.25,2.85,2.87,1.97,5.32-.09.23-.18.47-.28.71,0,.01,0,.02-.01.03,0,.04-.03.08-.05.12-.91,2.18-2.28,4.73-1.66,7.08.07.28.16.56.3.84.2.43.52.84.9,1.25.21.23.44.47.69.68.25.23.5.45.76.67.7.59,1.41,1.16,1.96,1.71,0,.01.01.02.01.02.08.08.15.15.22.22.17.18.32.37.46.54,1.97,2.51,1.07,4.46.23,6.63h0c-.32.86-.63,1.74-.75,2.71-.07.6-.08,1.23.03,1.91,0,.05.02.11.03.17.65,3.42,3.98,3.53,6.56,4.96,1.31.71,2.82,1.95,4.2,3.39.36.36.7.75,1.03,1.15.23.27.46.56.67.85.93,1.22,1.68,2.49,2.08,3.66.23.69.35,1.37.39,2.07,0,.19.01.38.01.57,0,.07,0,.14-.01.22-.02.55-.08,1.11-.18,1.66-.01.08-.03.15-.04.23-.41,2.15-1.29,4.29-1.85,6.31-.07.26-.13.51-.19.76-.6,2.62-2.7,4.54-2.99,7.27-.11,1.06.08,2.09.23,3.08.16,1.16.25,2.32-.31,3.54-.53,1.17-1.41,1.9-2.43,2.48-.61.36-1.28.66-1.94.95-1.13.5-2.2,1.03-3.14,1.69-1.33.92-2.44,2.08-3.18,3.74-1.2,2.67-.07,3.77.04,6.32.04.96-.32,1.74-.58,2.55-.22.7-.38,1.41-.13,2.28.45,1.6,2.08,2.83,3.22,3.81.01.02.03.02.04.04,2,1.74,3.76,3.13,5.94,4.36.48.26.97.52,1.49.78.13.07.26.13.39.19l.05.02c-.02.07-.05.14-.07.22.03.02.12.2.17.31.02.03.03.05.04.06Z"/>
                <path class="cls-5" d="M14.43,38.03c1.09.31.83,3.25,3.08,3.68,1.04.2,2.63-.51,3.4.82.64,1.1-.48,3-.7,4.11-.35,1.75-.7,3.6-.98,5.39-.23,1.49-.1,3-.82,4.4-1.51-.57-.71-4.17-.58-5.39.28-2.67-1.29-4.2-2.56-6.38-.74-1.27-1.39-2.72-1.69-4.1-.16-.73-.11-4,.84-2.53Z"/>
              </g>
              <path class="cls-3" d="M49.44,102.55c-2.8,1.01-6.99-1.12-9.66-2.07-3.1-1.1-6.08-2.38-8.99-3.81,1.16,0,2.25-.15,2.84-1.44.13-.31.2-.65.19-1.02,0-1.73-1.39-3.96-2.09-5.71-.02-.03-.03-.07-.04-.1-.12-.3-.21-.59-.27-.85-.16-.66-.32-1.34-.47-2.01-.54-2.44-.91-4.93-.18-7.43,2.18-7.42,11.57-8.17,12.88-16.04.46-2.75.35-4.95-.17-7.62-.01-.06-.02-.13-.03-.18-.54-3.14,1.79-3.9,3.71-5.74.19-.18.37-.37.51-.56.95-1.18,1.14-2.47.73-3.6-.37-1.03-1.21-1.94-2.43-2.55-1.81-.91-3.91-2.52-5.89-2.34-.62.05-1.22.28-1.81.76-.27.23-.51.5-.74.81-.36.49-.7,1.04-1.1,1.48-.54.63-1.2,1.06-2.16.86-1.02-.21-1.42-.81-1.48-1.51-.05-.59.14-1.26.41-1.86.21-.45.46-.88.75-1.28.75-1.09,1.7-2.06,2.48-3.12.41-.52.76-1.08,1.03-1.68,1.21-2.68.58-4.53-.34-7.01-.66-1.77-.05-3.7-.33-5.53-.04-.23-.09-.47-.16-.7-.05-.15-.1-.28-.16-.41-.23-.52-.55-.95-.94-1.32-.16-.16-.34-.3-.52-.45-.47-.35-.98-.66-1.51-.97h0c-.6-.36-1.19-.7-1.72-1.13,0-.01-.01-.02-.02-.02-.55-.45-1.03-.99-1.31-1.71-1.31-3.28,5.41-8.78,4.68-12.34,1.9,1.25,2.85,2.87,1.97,5.32-.09.23-.18.47-.28.71,0,.01,0,.02-.01.03,0,.04-.03.08-.05.12-.91,2.18-2.28,4.73-1.66,7.08.07.28.16.56.3.84.2.43.52.84.9,1.25.21.23.44.47.69.68.25.23.5.45.76.67.7.59,1.41,1.16,1.96,1.71,0,.01.01.02.01.02.08.08.15.15.22.22.17.18.32.37.46.54,1.97,2.51,1.07,4.46.23,6.63h0c-.32.86-.63,1.74-.75,2.71-.07.6-.08,1.23.03,1.91,0,.05.02.11.03.17.65,3.42,3.98,3.53,6.56,4.96,1.31.71,2.82,1.95,4.2,3.39.36.36.7.75,1.03,1.15.23.27.46.56.67.85.93,1.22,1.68,2.49,2.08,3.66.23.69.35,1.37.39,2.07,0,.19.01.38.01.57,0,.07,0,.14-.01.22-.02.55-.08,1.11-.18,1.66-.01.08-.03.15-.04.23-.41,2.15-1.29,4.29-1.85,6.31-.07.26-.13.51-.19.76-.6,2.62-2.7,4.54-2.99,7.27-.11,1.06.08,2.09.23,3.08.16,1.16.25,2.32-.31,3.54-.53,1.17-1.41,1.9-2.43,2.48-.61.36-1.28.66-1.94.95-1.13.5-2.2,1.03-3.14,1.69-1.33.92-2.44,2.08-3.18,3.74-1.2,2.67-.07,3.77.04,6.32.04.96-.32,1.74-.58,2.55-.22.7-.38,1.41-.13,2.28.45,1.6,2.08,2.83,3.22,3.81.01.02.03.02.04.04,2,1.74,3.76,3.13,5.94,4.36.48.26.97.52,1.49.78.13.07.26.13.39.19l.05.02c-.02.07-.05.14-.07.22.03.02.12.2.17.31.02.03.03.05.04.06Z"/>
            </g>
            <g>
              <path class="cls-6" d="M101.27,91.69c-1.71,2.83-5.06,3.64-7.6,5.68-3.17,2.54-6.34,4.73-9.87,6.31-2.44,1.09-5.06,1.91-7.93,2.34-3.68.55-8.28.72-11.81-.55-3.57-1.28-6.32-2.46-10.21-2.41-2.28.02-4.78-.49-7.19-1.43-3.56-1.36-6.91-3.62-9.02-6.32-2.71-3.46-7.2-8.16-5.61-12.9.75-2.25,2.24-4.03,3.93-5.64,1.78-1.69,3.8-3.2,5.44-4.86,2.21-2.24,5.24-7.85,5.59-11.09.22-2.07-.7-3.86-.05-6.07,1.61-5.54,7.03-4.81,11.54-5.36,2.72-.32,1.86-.86,3.76-2.53,1.5-1.31,3.99-1.31,5.43-3.01,1.63-1.92,2.34-5.17,3.5-7.4,1.42-2.73,3.32-3.11,5.33-5.02,1.36-1.29,1.73-3.17,3.06-4.53.29-.29.58-.54.89-.75,1.41-.99,2.94-1.09,4.8-.92.61.06,1.2.2,1.77.36,1.16.32,2.28.75,3.45.92,1.35.19,2.84-.09,4.3.1h0c.11,0,.23.03.34.05,2.04.38,3.5.85,4.68,1.84.81.68,1.5,1.6,2.15,2.9-.69.52.32,4.41.96,6.15.74,2.05,2.09,3.73,3.03,5.69.17.35.33.7.46,1.07,1.2,3.22,2.36,6.27,3.21,9.49,0,.03.02.04.02.06t0,.01c.06.22.12.44.18.66.26,1.07.51,2.17.7,3.3.72,4.24,2,8.71.75,12.97-1.28,4.37-4.63,7.38-7,11.12-1.93,3.05-1.22,6.78-3.01,9.76Z"/>
              <path class="cls-8" d="M62.49,105.56c5.08.76,10.16.25,14.85-1.36,4.9-1.68,10.13-3.07,13.12-7.51,1.15-1.71,1.88-3.75,2.82-5.62,1.33-2.67,3.47-4.53,4.88-7.17,1.44-2.69,2.97-5.25,4.28-8.04,1.45-3.09,1.92-6.71,2.69-10.06.51-2.22.93-4.34.86-6.63-.1-3.15-2.17-5.5-2.78-8.54-1.13-5.66-1.35-12.53-6.61-16.57-.88,2.5,1.75,7.45,2.66,9.74.93,2.33,1.26,4.7,1.35,7.19.06,1.52.13,2.46.49,3.93.28,1.15,1.22,2.57-.46,3.22-3.17,1.24-4.27-7.56-7.6-8.11-1.17,1.79,2.87,7.32,3.51,9.57.49,1.73,1.78,3.73,1.8,5.5.03,2-1.22,4.11-1.92,5.92-1.94,5.01-3.68,9.91-8.43,13.1-3.57,2.4-7.61,2.79-11.96,2.34-3.01-.31-5.36-1-7.93-2.6-1.84-1.14-3.65-2.96-6.03-2.39-4.17,8.99,22.91,7.23,15.09,16.94-3.17,3.94-5.75,3.88-10.73,4.24-2.4.18-4.5.45-4.18,3.05,1.29-.2,2.45-.72,3.47-1.55l-3.24,1.41Z"/>
              <path class="cls-8" d="M55.11,103.11c4.94-4.49-4.64-7.25-4.93-12.3-.36-6.18,2.8-14.41,9.74-15.07,5.34-.51,10.09,1.1,15.49-.49,2.42-.71,8.69-4.07,3.13-5.74-2.76-.83-5.51.53-8.28.23-3.63-.38-3.67-3.18-1.14-5.2,2.69-2.15,6.48-2.45,8.98-4.92,2.58-2.55,3.82-6.82,4.84-10.18.63-2.07,4.2-8.79.83-10.11-4-1.56-7.58,12.76-8.69,15.4-1.32,3.13-6.19,8.11-9.01,3.74-3.68-5.69,4.12-8.99,6.75-12.75-3.04-1.19-9.88,6.1-10.77,8.66-1.26,3.61.97,6.67,1.23,10.15.17,2.36-.72,5.2-2.96,6.2-2.01.9-4.39-.04-6.42.86-2.18.98-3.65,3.16-4.42,5.33-.56,1.56-1.04,7.67-2.34,8.41-1.85,1.05-3.33-5.63-5.22-1.89-1.42,2.82,1.58,6.33,3.23,8.29,1.07,1.27,2.43,2.56,3.36,3.94,1.06,1.56.49,2.89,1.08,4.3,1.09,2.58,5.17,2.84,5.52,3.12Z"/>
              <path class="cls-5" d="M91.41,89.53c-3.22,2.43-2.59,6.61-5.42,9.4-.57.56-4.15,4.26-5,2.94-.53-.82,1.53-2.83,1.95-3.41.89-1.23,1.35-2.77,2.22-4.01.83-1.17,4.4-6.05,6.24-4.93Z"/>
              <path class="cls-5" d="M102.53,67.15c-1.3,2.81-.98,5.79-2.64,8.55-.84,1.39-1.93,2.59-2.74,4.11-.6,1.14-2.6,4.95-3.73,5.13-.05-1.74.46-3.99,1.56-5.37,1.46-1.84,2.41-3.22,3.44-5.43.76-1.63,1.58-3.26,2.26-4.92.22-.54,1.16-3.49,1.86-2.06Z"/>
              <path class="cls-5" d="M63.9,74.64c1.61.58,7.68.88,8.75-.72-1.35-.77-8.96-1.13-8.75.72Z"/>
              <path class="cls-5" d="M77.42,52.65c.53,1.68.89.68,1.35-.24.88-1.76,2.18-4.32,2.33-6.25-1.35-.82-2.62,2.13-2.83,3.52.06-.11.11-.21.16-.32l-.19.77c0-.12,0-.28.03-.46-.48.93-1.16,1.99-.85,2.97Z"/>
              <path class="cls-2" d="M109.51,54.03c-1.06-1.06-1-3.67-1.85-5.09-.8-1.34-2.06-2.36-3.12-3.48-2.07-2.19-2.64-4.71-3.11-7.63-.28-1.72-.13-3.53-1.46-4.88-1.24-1.26-4.8-3-6.36-2.02-2.97,1.86-.13,5.6.83,7.73,1.41,3.08,1.2,7.72-3.49,6.86-3.41-.63-.49-3.05-1.42-5.27-.34-.82-1.06-1.17-1.3-2.15-.22-.89.03-1.72-.55-2.53-1.32-1.85-5.03-2.42-6.83-1.18-1.21.83-1.79,2.51-2.37,3.76-.54,1.18-.88,3.71-1.77,4.54-.81.75-2.34.65-2.79-.51-.28-.72.48-1.39.19-2.08-.77-1.96-2.5.06-3.23,1.03-1.47,1.96-3.2,2.98-5.25,4.42-2.44,1.71-3.1,3.35-4.43,6.03-.77,1.55-1.96,2.89-2.17,4.64-.3,2.39.95,4.37,1.36,6.65.37,2.11.34,4.86-1.54,6.29-1.65,1.27-3.05.5-4.71-.09-3.71-1.33-6.26.75-6.82,4.34-.38,2.38-.08,6.09-3.27,5.04-1.83-.6-3.91-1.37-5.46.62-.89,1.14-.98,4.65-.91,6.17.05,1.04.19,1.94.12,2.99-.11,1.77.11,1.89,1.33,3.12,1.79,1.83,3.38,4.4,5.58,5.67,1.72.99,4.5,2.82,1.95,4.6-3.56-1.36-6.91-3.62-9.02-6.32-2.71-3.46-7.2-8.16-5.61-12.9,1.55-4.62,6.18-7.26,9.37-10.5,2.21-2.24,5.24-7.85,5.59-11.09.22-2.07-.7-3.86-.05-6.07,1.61-5.54,7.03-4.81,11.54-5.36,2.72-.32,1.86-.86,3.76-2.53,1.5-1.31,3.99-1.31,5.43-3.01,1.63-1.92,2.34-5.17,3.5-7.4,1.42-2.73,3.32-3.11,5.33-5.02,1.36-1.29,1.73-3.17,3.06-4.53.29-.29.58-.54.89-.75,1.59,0,3.12-.09,4.76-.38.57-.1,1.18-.16,1.82-.18,2.42-.09,5.23.34,7.74,1.02h0c1.45.39,2.81.86,3.94,1.35.37.16.73.34,1.08.54.81.68,1.5,1.6,2.15,2.9-.69.52.32,4.41.96,6.15.87,2.41,2.59,4.32,3.49,6.77,1.2,3.25,2.37,6.31,3.23,9.55-.03.05-.08.11-.14.17Z"/>
              <path class="cls-2" d="M72.23,65.26c.88-.61,2.15-.27,3.16-.68.92-.37,1.43-.92,2.19-1.48,2.1-1.55,4.24-2.01,5.66-4.44.92-1.59,1.6-7.19,3.66-7.42,3.23-.37,2.44,5.61,3.95,7.25,1.35,1.47,2.72,2.29,2.38,4.61-.39,2.73-3.05,4.76-4.6,6.88-2.01,2.75-2.49,6.2-4.82,8.87-1.97,2.26-5.49,5.03-8.66,5.01-1.33,0-5.12-1.05-4.73-2.93.38-1.84,4.1-2,5.46-2.43,3.42-1.06,13.23-9.97,6.69-12.55-3.49-1.38-6.83,2.2-10.5.07.03-.77.44-1.5.15-.76Z"/>
              <path class="cls-2" d="M59.87,88.09c.84-.65,2.42-1.15,3.52-.9,1.17.26,1.46,1,2.18,1.97.87,1.18,1.62,1.94,3.09,2.51,1.53.59,2.98.57,3.75,2.16,1.51,3.14-2.52,5.6-5.07,6.01-1.93.31-4.1,1.29-5.96.67-1.91-.64-3.89-2.16-4.53-4.13-.33-1.03-.3-2.47.23-3.44.37-.68,1.28-1.05,1.62-1.69.51-.97-.09-.9.05-1.71.17-.97.49-1.29,1.12-1.46Z"/>
              <path class="cls-2" d="M101.27,91.69c-1.71,2.83-5.06,3.64-7.6,5.68-3.17,2.54-6.34,4.73-9.87,6.31.44-.31.86-.6,1.22-.83,1.58-.94,3-1.99,4.53-3.07,1.99-1.4,2.91-2.52,4.31-4.45,1.28-1.77,4.01-2.65,4.92-4.6.5-1.09,0-1.66-.11-2.71-.16-1.4.14-2.84.6-4.17,1.04-2.98,3.85-5.89,5.97-8.19,2.2-2.39,3.67-4.63,3.93-7.98.22-2.76.71-6.13.34-8.85-.13-.98-.64-1.94-.62-2.9.03-1.08.3-1.75.73-2.12,0,.03.02.04.02.06t0,.01c.06.22.12.44.18.66.26,1.07.51,2.17.7,3.3.72,4.24,2,8.71.75,12.97-1.28,4.37-4.63,7.38-7,11.12-1.93,3.05-1.22,6.78-3.01,9.76Z"/>
            </g>
            <path class="cls-6" d="M49.22,102.43c-.18-.08-.36-.17-.52-.25.32-.86.68-1.47.52.25Z"/>
            <path class="cls-3" d="M33.61.47c-.12.05-.21.03-.25-.14.08.05.17.08.25.14Z"/>
            <path class="cls-11" d="M43.53,101.33s-16.25-11.71-11.84-18.96c4.41-7.25,12.28-10.82,13.8-16.31,1.53-5.49-1.25-15.06,4.58-16.47,5.83-1.42,10.01.79,10.47-.29.46-1.07,1.58-3.4,2.83-3.85,1.25-.45,2.94.34,4.53-3.06,1.58-3.4,1.07-6.74,6.84-10.25,5.77-3.51,16.46-2.57,16.46-2.57,0,0-15.67.87-17.65,5.12-1.98,4.25-1.35,11.77-5.09,13.13-3.74,1.36-2.94-.34-3.74,1.36-.79,1.7,1.61,2.6-1.66,3.25-3.27.65-13.85-3.25-14.53,2.64-.68,5.89,1.19,12.96-2.09,15.57-3.28,2.61-12.73,9.57-13.46,13.36-.73,3.79,2.44,12.51,10.54,17.32Z"/>
            <path class="cls-11" d="M56.6,51.94s1.34-5.92-4.21-9.54c-5.55-3.62-11.89-5.54-12.4-8.88-.51-3.34,4.41-7.25,1.81-10.53-2.61-3.28-6.46-6.11-7.36-8.6-.91-2.49,1.07-6.74,1.07-6.74,0,0-6.45,5.14-3.96,8.49,2.5,3.35,9,7.3,8.27,11.09-.18.92-4.02,6.4.68,9.62,4.7,3.22,15.99,5.04,16.1,15.08Z"/>
            <g>
              <path class="cls-6" d="M102.5,34.73c-1.38-.56-2.3-1.98-3.7-2.75-2.65-1.45-6.5-2.42-9.5-2.64-4.36-.32-10.82.6-14.65,2.55-2.09,1.07-2.8,1.81-5.25,1.67-2.2-.14-4.13-.18-6.34-.13-.8.02-1.58,0-2.34-.07-3.45-.25-6.52-1.28-9.67-3.07-3.6-2.05-4.81-5.64-8.06-7.76-2.21-1.43-5.05-2.27-7.02-3.87-1.35-1.09-2.3-2.54-2.35-4.78-.02-.57.05-1.08.17-1.56.61-2.32,2.69-3.75,4.9-4.85,3.13-1.55,6.71-.96,9.88-2.36,1.21-.54,2.18-1.65,3.43-2.05,1.45-.47,3.04.16,4.45.38,5.48.83,10.14-2.86,15.52-2.94.58,0,1.17.03,1.78.12,4.29.64,12.07,1.88,13.09,7.18,0,.06.07,1.2.56,2.27.7,1.53,1.91,2.36,2.85,3.69.76,1.08.95,2.19,1.43,3.33.91,2.15,2.35,3.95,3.96,5.68,1.81,1.93,9.92,9.55,6.85,11.95Z"/>
              <path class="cls-8" d="M93.61,21.04c-1.88-2.99-8.56-4.06-11.74-3.22-3.61.96-5.66,4.12-9,5.44-3.77,1.49-7.07,1.26-11.05,1.11-1.12-.04-7.17.49-5.91-1.78.78-1.4,7.31-.09,8.75-.32,1.36-.21,7.86-2.17,7.43-4.49-.49-2.69-5.7.51-7.16-.57.69-2.97,3.85-1.64,5.03-3.7,1.34-2.32-1.87-3.22-3.7-3.51-3.49-.55-7.1,1.04-9.81,3.11-1.39,1.06-5.89,7.03-7.96,5.56-3.22-2.29,7.84-9.32,9.64-10.03,3.42-1.36,8.49-2.18,11.89-.16,1.51.89,5.14,6.5,7.15,4.55,1.4-1.37-1.17-2.96-.03-4.31,1.37-1.62,3.45.87,4.04,1.85,1.52,2.56,1.53,3.49,4.76,4.63,1.84.65,3.91.98,5.59,2.02,1.01.62,3.86,3.5,2.09,3.82Z"/>
              <path class="cls-7" d="M61.98,33.27c-.36.03-.71.06-1.07.09-.13,0-.25,0-.38,0-3.37-.28-6.38-1.3-9.48-3.06-3.6-2.05-4.81-5.64-8.06-7.76-2.05-1.33-4.65-2.15-6.59-3.54-.29-.21-.35-.67-.67-.83-3.28-1.66-3.7-3.41-1.84-5.28.26-.27-.07-.76.07-1.1.77-2.01,2.69-3.29,4.73-4.3,3.13-1.55,6.71-.96,9.88-2.36,1.21-.54,2.18-1.65,3.43-2.05,1.45-.47,3.04.16,4.45.38,5.21.79,9.68-2.51,14.73-2.9.51-.04,1.01.15,1.42.45.69.5,1.43.94,2.13,1.32,2.64,1.39,5.23,1.73,7.45,3.89,1.1,1.07,3.99,4.85,1.99,6.4-.2-.17-.32-.41.14-.28-1.64-2.04-4.84-6.98-8.32-5.26-2.13,1.06-.87,3.93-3.96,1.71-2.51-1.79-4.4-3.14-7.64-3.27-7.24-.28-13.54,3.41-17.21,9.67-.74,1.27-1.83,3.18-1.05,4.61,1.72,3.1,7.36,2.7,9.41.42,1.24-1.38,3.2-7.27,5.89-5.43.95.65,1.21,2.15.66,3.12-.83,1.44-2.42,1.13-3.84,1.51-1.41.38-2.96,1.48-3.56,2.89-1.32,3.13,3.96,3.65,5.94,4.27,3.69,1.14,5.95,2.95,9.86.91,1.03-.53,2.11-1.3,3.24-2.03,2.28-1.48,4.68,1.85,2.51,3.49-3.88,2.92-9.96,3.9-14.28,4.35Z"/>
              <path class="cls-2" d="M92.07,21.96c3.17,1.48,6,3.66,7.35,7.05-1.95.25-3.89-.73-5.73-1.3-2.9-.9-4.98.12-7.9-.23-1.97-.23-5.11-.85-4.69-3.4.46-2.8,4.37-1.58,6.37-1.66,1.4-.06,3.26-.15,4.61-.46Z"/>
              <path class="cls-5" d="M85.01,16.77c-2.3-1.04-6.1-.24-8.05,1.33-1.99,1.61-3.86,5.06-7.07,4.18.4-1.04.94-1.92,1.89-2.54.76-.5,1.93-.59,2.59-1.21,2.65-2.49-2.91-1.31-3.29-2.23-.91-2.23,4.19-.88,4.82-1.01,1.54-.31,2.24-1.25,4.03-1.07,1.26.13,4.89.76,5.08,2.55Z"/>
            </g>
            <path class="cls-11" d="M36.25,19.37s7.64,3.56,8.55,6.05c.91,2.49,8.61,8.15,16.19,9.61,7.59,1.47,13.73-1.66,13.73-1.66,0,0-8.69,1.94-17.18-2.02-8.49-3.96-9-7.3-13.25-9.28-4.25-1.98-8.49-3.96-9.8-5.6-1.3-1.64-.2-5.4-.2-5.4,0,0-5.69,4.72,1.95,8.28Z"/>
            <path class="cls-11" d="M49.9,50.89c1.3-1.06,2.64-2.3,2.85-4.12.1-.86-.13-1.78-.52-2.55-.3-.58-.78-1.15-.78-1.81,1.12.4,1.95,1.39,2.7,2.28.6.71,1.4,1.4,1.88,2.21.55.93,1.05,2.78.71,3.81-.45,1.37-3.48.73-4.66.67-.75-.04-1.57.03-2.23-.35.02-.1.06-.19.05-.14Z"/>
          </g>
          <path class="cls-14" d="M33.37.33c.08.05.17.08.25.14-.12.05-.21.03-.25-.14Z"/>
          <g>
            <path class="cls-12" d="M79.23,78.53c-1.05-.5-3.3-1.49-4.43-1.03-1.71.7-.91,2.14-1.17,3.33-.49,2.28-.57,1.19-2.66,2.13-.7.31-1.16.26-1.55,1.08-.64,1.33.39,1.26.24,2.44-.26,2-1.48,2.62.14,4.4,1.81,1.99,2.29.74,3.69-.56,2.25-2.1,2.09-.41,4.58-.42,1.45,0,3.46-1.93,3.42-3.54-.02-.68-1.11-1.1-1.11-2.12,0-1.06,1.33-1.75,1.3-2.62-.04-1.32-2.21-2.75-2.45-3.08Z"/>
            <path class="cls-9" d="M74.33,83.48l-.31.11c-1.14,1.73-2.57-.4-3.77.83-.66.67-.37,3.44.12,3.94,1.57,1.6,2.41-.34,3.69-.77,1.42-.48,3.2.22,4.66.21.93-1.35,1.59-3.46-.16-4.47,2.63-4.9-4.03-2.81-2.65-1.15-.18.88-.73,1.28-1.59,1.28Z"/>
          </g>
          <g>
            <path class="cls-12" d="M49.94,45.61c-.27.59-.67,1.12-1.11,1.51-.3.27-.72.66-1.16.87-.4.19-.82.25-1.22-.01-.9-.57.09-1.05-.23-1.73-1.09-2.37-2.19-2.36-4.32-3.45-1.13-.58-1.93-1.93-3.36-1.96-.43,0-.75.08-1.01.23-.53.29-.83.77-1.3,1.1-.12.07-.23.14-.36.19-1.56.66-2.29.3-3.07-.46-.47-.45-.96-1.03-1.65-1.61-.17-.14-.33-.29-.48-.43-1.96-1.84-2.43-3.64-3.61-6.28h0c-.44-1-2.26-3.01-2.02-4.1.33-1.48,2.76-1.44,2.42-3.64-.07-.41-.38-.85-.85-1.26-1.43-1.26-4.23-2.35-5.43-2.3-.82.03-1.69.37-2.56.76-.9.41-1.81.86-2.66,1.07-1.38.34-2.62.03-3.52-2.19-.27-.68-.28-2.6-.41-3.42-.31-1.87.15-2.81.61-4.49.82-2.97,1.99-5.68-1.17-5.82-.34-.02-.73,0-1.18.04-1.3.14-3.75,1.16-5.39.79.57-.54,1.2-1.11,1.87-1.74,1.81-1.73,2.38-4.88,4.51-6.27,3.95-2.57,9.35.57,13.45.39,3.38-.16,4.98-1.63,8.45-.07.73.33,1.38.67,1.95,1.07,1.9,1.25,2.85,2.87,1.97,5.32-.09.23-.18.47-.28.71,0,.01,0,.02-.01.03-.02.05-.06.1-.09.14-.93,1.58-1.9,3.02-2.47,4.07-.02.05-.06.1-.07.14-.14.26-.24.5-.32.74-.11.27-.18.54-.23.79,0,0,0,0,0,.02-.22,1.17.1,2.12.7,2.96.27.36.58.71.92,1.04.43.41.91.81,1.39,1.21.09.06.18.13.26.2,1.19.96,2.4,1.93,3.08,3.18.59,1.07.7,3.97.64,5.27h0c-.04.96-.43,1.84-.75,2.71-.37.97-.66,1.93-.34,3,.47,1.55,1.59,2.03,2.77,2.64,0,0,.02,0,.02.02.43.22.87.46,1.28.77.15.11.28.21.41.32,1.49,1.16,2.56,2.1,4.5,3.01.15.13.32.27.51.42.52.43,1.1,1,1.3,2.09.13.78-.03,1.63-.39,2.39Z"/>
            <path class="cls-9" d="M31.88,3.23c-.75-.87-3.75,1.16-5.17,1.22-1.52.07-3.06-.74-4.57-1.36-2.13-.87-4.29-2.67-6.47-.97-2.73,2.14-.41,2.85.64,4.49,1.2,1.88-.21,3.07-.26,4.69-.02.7.83,2.14.71,2.96-.18,1.25-1.39,1.76-.94,3,1.42,3.89,6-.26,8.2.07,1.68.25,1.45,1.09,2.52,1.96.94.76,3.27,1.36,3.81,2.31.84,1.5-.68,1.89-.61,2.93.09,1.32,1.25,1.14,1.68,2.34.54,1.52-.67,2.06-.99,3.25-.41,1.52-.34,3.19.43,4.66.26.49.93,1.53,1.49,1.76,1.15.48.54-.15,1.59-.06.56.05.99-.57,1.92-.37,1.36.29,1.11.99,1.87,1.56,1.11.84,6.11,5.04,7.18,2.92-1.29-1.64-3.62-1.89-5.06-3.44-1.86-2.01-2.43-4.53-1.66-6.97.6-1.89,1.19-3.19.52-5.27-1.1-3.39-4.67-3.4-6.53-6.17-1.25-1.86-1.17-5.38-.2-7.38.82-1.69,3.75-2.37,2.93-4.66-.24-.66-1.43-1.03-1.94-1.68-.45-.57-.49-1.39-1.09-1.81Z"/>
            <path class="cls-4" d="M18.81,11.87c.91-1.94,1.51-3.34,3.58-4.24.66.67.79,2.47,1.83,2.64,1.31.22,1.39-1.98,2.34-2.3,1.79-.6,2.34.95,2.1,2.18-.36,1.84-1.46.78-.63,2.66.24.55,1.28.71,1.59,1.31.18.35-.67,1.08-.53,1.52.27.88,2.49,2.37.29,2.43-1.52.05-2.95-2.54-4.61-2.91-.73-.16-3.09-.36-3.73-.2-.8.2-2.46,2.37-3.46.45-.5-.95.83-2.36,1.24-3.54Z"/>
            <path class="cls-4" d="M32.53,22.91c-1.46,1.18.1,1.1.68,1.87.98,1.31,1.26.47,1.07,2.26-.19,1.71-2.18,2.87-2.08,4.9.11,2.35,1.65,3.15,2.94.85.93-1.65,2.46-3.7,2.2-5.63-.35-2.56-2.6-3.61-4.85-4.2,1.04.14,2.07.34.03-.04Z"/>
          </g>
          <g>
            <path class="cls-12" d="M92.25,29.1c-2.08.35-5.19-.58-7.71-.31-2.5.27-4.65-.21-7.15-.11-4.74.2-10.45,6.63-15.52,3.25-2.09-1.4-2.05-4-5.15-5.06-2.38-.81-5.43-.08-7.78-1.84-1.32-.98-1.77-2.69-2.94-3.75-1.3-1.16-2.18-.17-2.98-2.4-1.53-4.22,2.95-5.69,6.49-4.45,2.73.96,7.1,2.71,9.11,1.03,1.44-1.2,1.18-2.62,2.96-3.6,1.45-.8,3.1-1.1,4.55-2.23,2.88,1.2,5.61,1.33,7.42,3.71,1.37,1.81,1.41,3.51,3.86,4.96,1.5.89,2.66.82,4.1,1.39,1.78.71,2.34,1.66,4.22,2.55,2.69,1.27,7.08.7,9.22,3.59,2.45,3.32-1.29,2.84-2.69,3.25Z"/>
            <path class="cls-9" d="M49.75,16.91c3,1.4,5.77,2.76,8.88,1.79,2.88-.9,3.89-4.83,7.78-4.58,3.73.24,1.96,2.02,4.02,3.93,1.77,1.64,2.67.26,4.16.6,1.65.38,2.02,1.07,3.24,2.13,1.47,1.27,6.88,2.29,6.5,4.18-.64,3.18-6.68.07-8.88.61-3.34.83-4.34,5.03-8,5.46-2.82.34-2.63-.95-3.45-2.18-.58-.87.6-.73-.85-2.23-.94-.97-2.75-1.51-4.05-1.81-3.18,3.29-7.83-1.76-9.76-3.71-1.27-1.28-2.11-.53-2.1-2.45.01-1.39.6-2.14,2.51-1.75Z"/>
            <path class="cls-4" d="M55.31,20.38c1.88.7,3.33.09,4.93-.59,1.31-.56,3.36-2.4,5.01-1.78-.26.54-.1,1.52-.46,2.06,3.33,2.02,6.96-1.19,9.11,2.74-3-.03-3.35,1.51-4.43,3.28-2.02,3.31-1.98,2.34-4-.38-2.32-3.14-4.12-1.54-7.29-1.92-2.03-.25-4.85-3.19-2.87-3.4Z"/>
          </g>
          <g>
            <path class="cls-12" d="M91.22,35.78c-1.5-1.35-3.78-.57-5.71-.27-.58.09-1.04.69-1.65.71-1.05.04-1.66-.83-2.61-.8-3.57.11-5.02,2.49-3.13,5.44,1.68,2.63,5.14,4.41,5.94,7.42.96,3.62-2.67,2.67-5.83,2.91-.6,4.12-5.76,3.41-6.02,7.15-.11,1.6,1.31,3.24.5,5.03-.89,1.97-2.49,1.65-4.05,3.11-3.87,3.62.78,5.34,4.5,5.78,2.65.32,2.81-.13,4.99-1.05,2.1-.88,4.12-2.3,6.11-.04.67.76,2.33,4.89,2.27,5.71-.16,2.32-4.01,3.09-3.01,5.61.87,2.19,6.4,3.31,8.48,3.44,3.98.25,3.87-1.03,5.58-3.49,1.19-1.72,2.97-2.93,4.19-4.45.83-1.03,1.05-1.84,2.12-2.79,1.55-1.37,4.01-2.11,4.87-4.14,1.49-3.52-1.51-3.9-2.92-6.41-2.01-3.58.95-6.26,1.48-9.24.57-3.2-.58-4.91-2.86-6.62-1.13-.85-2.47-1.32-3.21-2.67-1.32-2.41.63-3.9.25-6.34-1.06-6.85-7.37-1.89-10.29-4.01Z"/>
            <path class="cls-9" d="M73.43,64.55c3.57-2.25.97-6.46,5.26-7.46,2.93-.68,7.92.36,9.2-2.86.39-.99-.55-1.98-.31-2.89.16-.62,1.5-1.27,1.48-1.83-.11-2.64-2.88-1.61-3.76-3.45-.65-1.37,1.3-4.13,2.51-4.67.92-.41,1.51.28,2.32.04,1.81-.56,3.72-2.56,5.68-.76,2.98,2.73-3.4,3.96,2.24,6.83,1.28.65,2.25.48,3.38,1.38,1.14.91,1.38,2.39,2.87,3.28-2.34,2.24-7,3.9-5.34,7.37,1.12,2.34,3.54,2.83,3.27,6.18-.16,1.98-2.55,3.85-2.91,6.06-.32,1.98.18,3.4-1.15,5.19-1.55,2.08-8.81,5.05-10.51,2.42-2.01-3.11,3.15-5.99,1.44-9.28-.61-1.17-1.99-1.21-2.59-2.06-.37-.53-.19-1.6-.45-1.89-4.14-4.65-4.33-.4-8.54.71-1.73.45-3.38-.22-5.1-.73.05-1.01.61-1.83,1.03-1.56Z"/>
            <path class="cls-4" d="M91.68,44.61c-1.49-.2-2.51.7-2.5,2.11,1.98.95,1.91,2.21,1.6,4.02-.1.55-1.11,1.18-1.19,2.05-.08.88.58,1.86.59,2.7.04,7.26-8.49-1.08-10.1,5.73.99.29,2.12.75,3.15.85.55.05,1.54-.67,1.79-.58,2.26.86.65,1.21,2.15,2.44,1.71,1.41,6.08,1.35,3.2,4.62,3.97,2.09,3.26,3,2.11,6.4,4.05,2,5.02-4.39,5.29-6.7.26-2.26.11-1.27-.67-3.36-.2-.54-.92-.84-1.09-1.48-.2-.78.86-1.8.7-2.59-.52-2.59-3.34-3.82-.67-6.5,2.15-2.17,4.84-1.4,1.33-3.91-.63-.45-2.1-.11-2.6-.71-.79-.93.34-1.71-.03-2.47-.71-1.46-1.19-2.26-3.25-2.68.7.18,1.4.35.19.05Z"/>
          </g>
        </g>
      </g>
    </g>
  </g>
</svg>