<?xml version="1.0" encoding="UTF-8"?>
<svg id="Layer_2" data-name="Layer 2" xmlns="http://www.w3.org/2000/svg" xmlns:xlink="http://www.w3.org/1999/xlink" viewBox="0 0 203.37 74.27">
  <defs>
    <style>
      .cls-1, .cls-2 {
        fill: #fff;
      }

      .cls-3 {
        fill: #fdb696;
      }

      .cls-2 {
        font-family: CCRegenerationVariable-Regular, CCRegeneration;
        font-size: 26.75px;
        font-variation-settings: 'wght' 400, 'ital' 0;
      }

      .cls-4 {
        fill: none;
      }

      .cls-5 {
        fill: #e2e2e2;
      }

      .cls-6 {
        fill: #d1704b;
      }

      .cls-7 {
        fill: #3696c5;
      }

      .cls-8 {
        fill: #00b0fc;
      }

      .cls-9 {
        clip-path: url(#clippath);
      }
    </style>
    <clipPath id="clippath">
      <rect class="cls-4" x="7.46" y="5.99" width="51" height="51" rx="9.09" ry="9.09"/>
    </clipPath>
  </defs>
  <g id="Layer_1-2" data-name="Layer 1">
    <g>
      <rect class="cls-7" x="0" y="8.35" width="203.37" height="65.92" rx="11.32" ry="11.32"/>
      <g>
        <rect class="cls-8" width="203.37" height="65.92" rx="11.32" ry="11.32"/>
        <rect class="cls-5" x="3.3" y="3.3" width="59.33" height="59.33" rx="10.57" ry="10.57"/>
        <rect class="cls-1" x="7.46" y="5.99" width="51" height="51" rx="9.09" ry="9.09"/>
        <g class="cls-9">
          <g>
            <path class="cls-3" d="M47.27,63.15c-3.74-1.23-29.15-17.58-23.71-22.6,4.49-4.14,14.34,7,16.05,4.25,1.79-2.87-1.69-7.3-5.45-11.16-4.86-5-17.83-11.72-16.02-14.7.96-1.58,5.46-1.19,10.32.73,1.17-1.03,2.39-1.6,3.61-1.82,3.43-3.47,6.77-3.56,9.58-2.35l-.34-.27c5.4-6.93,15.58,6.96,15.58,6.96l14.48,16.85"/>
            <g>
              <path class="cls-6" d="M28.33,19.77s0-.1.03-.14c.08-.2.3-.29.5-.21,3.57,1.44,8.47,4.09,11.54,8.51.12.17.08.41-.1.53-.17.12-.41.08-.53-.1-2.96-4.27-7.72-6.84-11.19-8.24-.15-.06-.24-.2-.24-.35Z"/>
              <path class="cls-6" d="M31.27,17.95c0-.17.12-.33.29-.37,1.37-.34,2.86-.27,4.42.2,3.09.93,6.31,3.26,9.05,6.57.13.16.11.4-.05.54-.16.14-.4.11-.54-.05-2.65-3.19-5.74-5.44-8.68-6.33-1.43-.43-2.78-.49-4.02-.19-.21.05-.41-.07-.46-.28,0-.03-.01-.06-.01-.09Z"/>
              <path class="cls-6" d="M40.44,15.19s0-.08.02-.12c.06-.2.28-.31.48-.25,4.31,1.38,7.31,5.39,8.71,7.65.11.18.06.42-.12.53-.18.11-.42.06-.53-.12-1.35-2.17-4.21-6.01-8.29-7.32-.16-.05-.27-.2-.27-.36Z"/>
            </g>
          </g>
        </g>
      </g>
      <text class="cls-2" transform="translate(89.36 42.31)"><tspan x="0" y="0">AMBIL</tspan></text>
    </g>
  </g>
</svg>