<?xml version="1.0" encoding="UTF-8"?>
<svg id="Layer_2" data-name="Layer 2" xmlns="http://www.w3.org/2000/svg" viewBox="0 0 203.37 74.27">
  <defs>
    <style>
      .cls-1 {
        fill: #0192d5;
      }

      .cls-2, .cls-3 {
        fill: #fff;
      }

      .cls-3 {
        font-family: CCRegenerationVariable-Regular, CCRegeneration;
        font-size: 26.75px;
        font-variation-settings: 'wght' 400, 'ital' 0;
      }

      .cls-4 {
        fill: #e2e2e2;
      }

      .cls-5 {
        fill: #1180b7;
      }
    </style>
  </defs>
  <g id="Layer_1-2" data-name="Layer 1">
    <g>
      <rect class="cls-5" x="0" y="8.35" width="203.37" height="65.92" rx="11.32" ry="11.32"/>
      <g>
        <rect class="cls-1" width="203.37" height="65.92" rx="11.32" ry="11.32"/>
        <rect class="cls-4" x="3.3" y="3.3" width="59.33" height="59.33" rx="10.57" ry="10.57"/>
        <rect class="cls-2" x="7.46" y="5.99" width="51" height="51" rx="9.09" ry="9.09"/>
        <g>
          <path d="M20.11,43.27c.1.18.25.35.43.5.04-.02.08-.04.11-.07-.1-.17-.14-.36-.14-.57,0-.28.1-.59.29-.92l2.34-4.02,1.71-2.97c.25-.43.8-.58,1.23-.33h0c.69.4,1.53-.24,1.32-1.01l-1.45-5.43c-.13-.48-.62-.76-1.1-.64l-5.44,1.46c-.77.21-.91,1.24-.22,1.65h.02c.43.26.57.81.33,1.24l-2.05,3.54c-.48.83-.48,2.2,0,3.03l2.62,4.54Z"/>
          <path d="M21.4,42.14c-.19.33-.28.64-.29.92,0,.42.18.76.54.97.2.1.42.17.63.21.04,0,.08.01.13.01h.44s7.09,0,7.09,0c.5,0,.9-.4.9-.9v-4.34c0-.5-.4-.9-.9-.9h-5.68c-.32,0-.62.17-.78.45l-2.08,3.57Z"/>
          <path d="M40.41,21.83c-.43.24-.98.1-1.23-.33l-2.29-4c-.34-.59-1.16-1.07-1.84-1.07l-5.76-.02c-.23,0-.48.06-.72.15v.11c.21-.01.43.04.63.17.24.14.46.38.65.71l2.3,4.04,1.71,2.97c.25.43.1.98-.33,1.23h0c-.7.4-.56,1.44.21,1.65l5.42,1.47c.48.13.97-.15,1.1-.63l1.47-5.43c.21-.77-.62-1.41-1.31-1.02h-.02Z"/>
          <path d="M29.45,17.79c-.19-.33-.41-.57-.65-.71-.36-.22-.75-.23-1.11-.03-.18.12-.35.27-.49.42-.04.06-.08.12-.12.17l-.19.32-3.56,6.13c-.25.43-.1.98.33,1.23l1.16.67,2.6,1.51c.43.25.98.1,1.23-.33l2.86-4.91c.16-.28.16-.62,0-.9l-2.04-3.59Z"/>
          <path d="M42.45,38.31l-3.55.03c-.5,0-.9-.4-.91-.89v-.09c0-.8-.98-1.2-1.54-.62l-4.12,4.18c-.35.35-.34.92,0,1.27l4.19,4.13c.57.56,1.53.15,1.53-.65v-.11c0-.5.4-.9.89-.9l4.77-.04c.7,0,1.54-.5,1.89-1.11l2.92-5.16c.2-.35.28-.82.24-1.27,0,.43-.21.77-.58.99-.25.14-.58.22-.97.22l-4.78.02Z"/>
          <path d="M47.03,37.84c.39,0,.72-.08.97-.22.38-.21.58-.56.58-.99-.02-.23-.06-.46-.14-.67-.02-.04-.04-.08-.05-.12l-.22-.4-3.71-6.31c-.25-.43-.8-.57-1.23-.32l-1.21.71-2.69,1.58c-.43.25-.57.8-.32,1.23l2.98,5.07c.16.28.46.45.78.44l4.26-.02Z"/>
        </g>
      </g>
      <text class="cls-3" transform="translate(89.56 42.31)"><tspan x="0" y="0">RESET</tspan></text>
    </g>
  </g>
</svg>