<?xml version="1.0" encoding="UTF-8"?>
<svg xmlns="http://www.w3.org/2000/svg" viewBox="0 0 203.37 74.27">
  <defs>
    <style>
      .cls-1, .cls-2 {
        fill: #fff;
      }

      .cls-2 {
        font-family: CCRegenerationVariable-Regular, CCRegeneration;
        font-size: 26.75px;
        font-variation-settings: 'wght' 400, 'ital' 0;
      }

      .cls-3 {
        fill: #e2e2e2;
      }

      .cls-4 {
        fill: #56cafb;
      }

      .cls-5 {
        isolation: isolate;
      }

      .cls-6 {
        fill: #0e2e2c;
      }

      .cls-7 {
        fill: #5a2478;
        mix-blend-mode: multiply;
        opacity: .17;
      }

      .cls-8 {
        fill: #56afd4;
      }

      .cls-9 {
        fill: #313a3a;
      }
    </style>
  </defs>
  <g class="cls-5">
    <g id="Layer_2" data-name="Layer 2">
      <g id="Layer_1-2" data-name="Layer 1">
        <g>
          <rect class="cls-8" x="0" y="8.35" width="203.37" height="65.92" rx="11.32" ry="11.32"/>
          <g>
            <rect class="cls-4" width="203.37" height="65.92" rx="11.32" ry="11.32"/>
            <rect class="cls-3" x="3.3" y="3.3" width="59.33" height="59.33" rx="10.57" ry="10.57"/>
            <rect class="cls-1" x="7.46" y="5.99" width="51" height="51" rx="9.09" ry="9.09"/>
            <g>
              <path class="cls-9" d="M22.1,23.45c.21-.52-.17-1.11-.65-1.4-.48-.28-1.05-.37-1.58-.57-1.07-.41-1.88-1.3-2.6-2.19-.17-.21-.34-.43-.38-.69-.09-.52.37-1.01.89-1.14s1.05,0,1.57.12c-.29-1.24-.1-2.59.53-3.69.3-.52.7-.99,1.23-1.25.54-.26,1.22-.26,1.69.1.46.35.64.97.73,1.54.12.79.13,1.6.13,2.4.51-.8,1.25-1.44,2.11-1.84.55-.25,1.34-.34,1.65.18.2.34.09.77-.04,1.14-.36,1.01-.88,1.97-1.52,2.83-.24.32-.5.64-.62,1.03-.24.76.15,1.6.76,2.1s1.4.74,2.17.91c2.78.61,5.7.6,8.4,1.51.6.2,1.21.46,1.63.94.42.47.6,1.21.69,1.81,2.07.6,4.13,1.54,5.54,3.18,1.41,1.64,2.03,4.08,1.08,6.02,1.6-.14,3.25.37,4.49,1.39,1.24,1.02,2.07,2.54,2.12,4.5.48,1.52-.37,3.21-1.64,4.17-1.27.96-2.87,1.36-4.42,1.69-5.81,1.25-11.73,1.98-17.67,2.24-2.05.09-4.14.12-6.14-.37-2-.49-3.92-1.56-5.06-3.28-1.13-1.71-1.32-4.13-.13-5.8.21-.29.46-.57.53-.92.07-.35-.06-.7-.17-1.03-1.46-4.38-.1-9.57,3.31-12.68.47-.42.97-.82,1.29-1.37.31-.55.37-1.3.07-1.57Z"/>
              <path class="cls-7" d="M20.77,21.77c.24.07.47.16.68.29.48.28.86.88.65,1.4.19.17.24.53.17.91,1.16-.71,2.22-1.49,3.21-2.36-.25.17-.5.37-.75.62.25-.25.49-.45.75-.62.07-.06.15-.13.22-.2-.36-.44-.58-1.01-.5-1.56-1.31.88-2.79,1.45-4.43,1.53Z"/>
              <path class="cls-7" d="M28.7,23.14c-.17-.03-.34-.07-.52-.11-.77-.17-1.56-.4-2.17-.91-.1-.09-.2-.18-.28-.29-.08.05-.17.1-.25.16-.99.87-2.05,1.66-3.21,2.36-.04.22-.12.45-.24.66-.31.55-.82.95-1.29,1.37-3.16,2.87-4.55,7.52-3.59,11.67,4.53-2.76,8.12-7.17,11.58-11.44.87-.87-.17-2.28-.04-3.47Z"/>
              <path class="cls-7" d="M42.61,28.89c-1.08-.7-2.31-1.19-3.55-1.56-.84,4.15-2.95,6.74-6.17,9.16,2.32,1.69,7.33-.27,9.71-7.6Z"/>
              <path class="cls-7" d="M29.96,42.93c0-.92.24-1.93-.07-2.86-3.72,2-9.45,3.86-12.27-.14,0,.06,0,.11-.02.17-.07.35-.32.63-.53.92-1.19,1.67-1.01,4.09.13,5.8,1.13,1.71,3.06,2.79,5.06,3.28,2,.49,4.08.46,6.14.37,5.94-.26,11.86-.99,17.67-2.24,1.56-.33,3.16-.73,4.42-1.69,1.27-.96,2.12-2.65,1.64-4.17,0-.08,0-.17-.01-.25-6.27,2.75-15.25-.81-22.16.8Z"/>
              <path class="cls-6" d="M39.05,27.31c-.03-.33-.1-.67-.22-.9-.14-.3-.37-.55-.61-.78-.07-.03-.14.07-.08.12.17.18.38.42.44.58.15.34.15.58.13.96-.04.42-.02.83-.14,1.25-.39,1.27-.76,2.11-1.43,3.25-.8,1.26-1.87,2.35-3.12,3.46-.48.41-.97.8-1.45,1.21-.07.05-.11.14-.11.22,0,.1.06.19.14.24.07.04.14.04.22.03.03,0,.06-.02.08-.04,0,0,0,0,0,0,.16-.12.33-.23.49-.35.37-.27,1.39-1.06,1.92-1.59,1.54-1.37,2.79-3.07,3.44-5.04.18-.5.33-1.05.36-1.38.04-.45-.04-.93-.06-1.25Z"/>
              <path class="cls-6" d="M37.42,33.19c-.84,1.38-1.6,2.47-2.92,3.48-.15.14-.13.05-.22.23-.06.2.18.39.36.27.61-.44,1.21-.9,1.68-1.49.57-.74,1.12-1.52,1.53-2.35.05-.24-.32-.37-.44-.15Z"/>
              <path class="cls-6" d="M24.43,42.3c-.09-.25-.4-.08-.67-.09-.46.04-.93.09-1.39.07-1.81.02-3.69-1.09-4.34-2.54-.2-.49-.41-.99-.55-1.5-.1-.29-.12-.63-.26-.89-.06-.03-.13.02-.11.09.27.99.38,2.05.85,2.98.98,1.67,3,2.56,4.9,2.36.54-.07.82-.1,1.3-.21.15-.02.33-.07.28-.27Z"/>
              <path class="cls-6" d="M27.63,41.14c-.2.06-.4.11-.6.16-.49.16-1.2.24-1.58.37-.17.12-.03.41.17.35.73-.13,1.46-.26,2.15-.56.09-.05.15-.02.19-.17.02-.2-.18-.22-.33-.15Z"/>
              <path class="cls-6" d="M45.95,34.36c-.07-.08-.22-.02-.21.09-.05.51-.13,1.06-.32,1.61-.25.62-.76,1.49-1.25,2.13-.72.93-2.03,2.33-2.99,3.02-.42.36-1.39.97-1.85,1.31-.1.11,0,.3.14.29.22-.06.64-.34.95-.52,1.23-.79,2.26-1.67,3.27-2.85,1-1.13,1.88-2.45,2.16-3.95.05-.28.09-.56.12-.84,0-.1.05-.22-.02-.3Z"/>
              <path class="cls-6" d="M46.57,37.54c-.02-.07-.1-.1-.17-.07-.06.04-.08.11-.12.17-.88,1.32-2,2.43-3.26,3.53-.4.38-.86.68-1.26,1.05-.06.12.12.24.21.14,1.05-.8,2.02-1.69,2.95-2.62.44-.44.82-.94,1.19-1.44.16-.22.3-.44.44-.67.02-.03.02-.06.02-.09Z"/>
            </g>
          </g>
          <text class="cls-2" transform="translate(84.41 42.31)"><tspan x="0" y="0">BUANG</tspan></text>
        </g>
      </g>
    </g>
  </g>
</svg>