<?xml version="1.0" encoding="UTF-8"?>
<svg id="Layer_2" data-name="Layer 2" xmlns="http://www.w3.org/2000/svg" viewBox="0 0 103.48 88.67">
  <defs>
    <style>
      .cls-1 {
        fill: #7e7e7d;
      }

      .cls-1, .cls-2, .cls-3, .cls-4, .cls-5, .cls-6, .cls-7, .cls-8, .cls-9 {
        fill-rule: evenodd;
      }

      .cls-2 {
        fill: #efe4db;
      }

      .cls-3 {
        fill: #8f9090;
      }

      .cls-4 {
        fill: #4d4e4e;
      }

      .cls-5 {
        fill: #535151;
      }

      .cls-6 {
        fill: #a4a4a5;
      }

      .cls-7 {
        fill: #252626;
      }

      .cls-8 {
        fill: #d0bfb3;
      }

      .cls-9 {
        fill: #6c6c6d;
      }
    </style>
  </defs>
  <g id="Layer_1-2" data-name="Layer 1">
    <g>
      <path class="cls-2" d="M30.48,70.31c.75-1.13,2.58-5.77,5.92-8.47,3.34-2.7,5.76-5.6,6.19-4.98s.02,1.36,1.13.52c1.1-.84.08-1.43.74-2.35.66-.92,3.04-2.8,3.83-3.19s.64.7,1.8.28,1.77-.54,2.06-1.89c.29-1.35-.61-1.11.38-2.1.99-1,2.83-3.65,3.7-3.94.87-.3,1.3,1.55,2.12.29.81-1.25-.88-1.15.32-2.52,1.2-1.37,2.46-2.63,4.5-3.66,2.04-1.03,3.59-.12,3.54-.85-.05-.73-.17-1.57.25-2.62.42-1.05,1.96-2.36,3.89-4,1.92-1.64,3.41-2.37,4.66-2.55,1.25-.18,6.44.66,12.72.67,6.28,0,15.25-6.83,15.25-6.83,0,0-.95-2.25-3.83-3.31-2.88-1.06-15.95-.03-17.64.29-1.69.33,2.83-5.64,3.18-10.09.35-4.46-2.49-8.99-2.49-8.99,0,0-2.15,2.87-5.06,9.26-2.92,6.39-3.27,12.61-4.04,13.37-.77.76-.86,2.4-2.04,3.79-1.18,1.39-1.88,2.76-2.41,2.98s-2.86,2.83-3.56,2.82c-.7-.01-1.46-.4-1.96-.06s-.48.91-.49,1.45c0,.54.34.65-.62,1.58-.96.93-2.82,3.11-3.67,3.54s-2.7-.08-3.14,1.11c-.44,1.19.36,2.12-.4,2.73-.77.61-1.81,1.64-2.9,2.55s-2.55.35-3.42.81c-.87.45-1.04,1.37-1.15,1.98-.11.61.4.41-.42,1.1-.82.69-2.73,2.74-3.53,3.14-.8.4-1.15-1.65-2.09-.31-.94,1.34-.26,1.72-1.02,2.66-.76.95-.91,1.06-2.18,1.93-1.27.88-6.19,4.6-7.89,3.86-1.7-.74-4.62,10.29-.21,10.02Z"/>
      <path class="cls-8" d="M30.48,70.31c.75-1.13,2.58-5.77,5.92-8.47.77-.62,1.49-1.25,2.15-1.85-.13.12-1.58,1.34-2.4,1.25-.87-.09-1.89-.91-.64-1.81,1.25-.9,3.5-1.97,4.69-3.29,1.19-1.32,1.43-1.03,1.58-1.86s-.05-1.95.69-1.82.89.57,1.94-.24c1.05-.8,3.46-2.13,4.14-3.41.68-1.28-.04-2.27.88-2.22.92.05,2.01-.09,2.77-.81.76-.72,3.98-2.65,4.35-3.55s-.45-2.41.42-2.43c.86-.03,1.32-.19,2.95-1.59,1.63-1.4,3.6-2.92,3.81-3.67.2-.75.15-1.83.99-1.72.84.11,1.34-.28,1.34-.28,0,0,8.1-6.23,8.23-8.66.03-.51-.16-1.03-.49-1.52-.06.12-.11.21-.17.27-.77.76-.86,2.4-2.04,3.79-1.18,1.39-1.88,2.76-2.41,2.98s-2.86,2.83-3.56,2.82c-.7-.01-1.46-.4-1.96-.06s-.48.91-.49,1.45c0,.54.34.65-.62,1.58-.96.93-2.82,3.11-3.67,3.54s-2.7-.08-3.14,1.11c-.44,1.19.36,2.12-.4,2.73-.77.61-1.81,1.64-2.9,2.55s-2.55.35-3.42.81c-.87.45-1.04,1.37-1.15,1.98-.11.61.4.41-.42,1.1-.82.69-2.73,2.74-3.53,3.14-.8.4-1.15-1.65-2.09-.31-.94,1.34-.26,1.72-1.02,2.66-.76.95-.91,1.06-2.18,1.93-1.27.88-6.19,4.6-7.89,3.86-1.7-.74-4.62,10.29-.21,10.02Z"/>
      <path class="cls-4" d="M73.37,29.03c.79-.43,1.5-.67,2.14-.76,1.25-.18,6.44.66,12.72.67,6.28,0,15.25-6.83,15.25-6.83,0,0-.95-2.25-3.83-3.31-2.88-1.06-15.95-.03-17.64.29-1.04.2.28-1.99,1.53-4.75-3.98,3.02-7.91,6.72-9.74,10.4-.33.81-1.16,2.92-.43,4.29Z"/>
      <path class="cls-1" d="M98.75,25.22c2.2-1.28,3.91-2.5,4.5-2.94-.86-.76-2.35-1.59-5.18-1.95-5.62-.7-13.35-.69-15.61,1.34-2.27,2.03-6.29,4.06-4.2,4.76,2.09.69,5.24-.5,8.29-.08,3.04.41,6.73.54,9.43-.65.72-.32,1.71-.43,2.77-.48Z"/>
      <path class="cls-3" d="M81.77,19.08c-.92-.38,3.09-5.9,3.42-10.09.35-4.46-2.49-8.99-2.49-8.99,0,0-2.15,2.87-5.06,9.26-2.92,6.39-3.27,12.61-4.04,13.37-.75.74-.86,2.29-1.93,3.65.33.33.81.38,1.49.01.9-.49,5.07-3.96,8.62-7.22Z"/>
      <path class="cls-1" d="M81.77,19.08c-.08-.03-.13-.11-.13-.23-3.33,2.07-7.5,5.31-6.81,4.12,1.03-1.76,2.25-5.22,4.18-11.92,1.93-6.7,2.11-8.57,4.14-6.39,2.02,2.17,1.08,8.02,1.08,8.06.49-1.25.87-2.54.97-3.73.35-4.46-2.49-8.99-2.49-8.99,0,0-2.15,2.87-5.06,9.26-2.92,6.39-3.27,12.61-4.04,13.37-.75.74-.86,2.29-1.93,3.65.33.33.81.38,1.49.01.9-.49,5.07-3.96,8.62-7.22Z"/>
      <path class="cls-2" d="M44.76,71.92c.33.66.72,1.53,1.46,1.02.74-.51.94-7.91-1.6-13.3-2.54-5.39-4.62-9.06-8.39-12.67-3.77-3.61-6.59-5.3-7.11-4.93-.52.37,18.92,13.39,15.65,29.88Z"/>
      <path class="cls-2" d="M50.69,64.67c.31.62.67,1.46,1.41.94.74-.51,1.12-7.64-1.23-12.76-2.36-5.12-4.31-8.6-7.92-11.98-3.61-3.38-6.33-4.93-6.86-4.56s18.24,12.4,14.6,28.36Z"/>
      <path class="cls-2" d="M56.46,57.15c.25.54.53,1.26,1.27.74.74-.51,1.62-6.92-.24-11.34-1.87-4.42-3.46-7.39-6.65-10.15-3.18-2.76-5.66-3.96-6.18-3.58-.52.37,16.42,9.78,11.8,24.33Z"/>
      <path class="cls-2" d="M63.15,49.92c.23.5.47,1.18,1.21.67.74-.51,1.81-6.65.13-10.8-1.68-4.15-3.15-6.94-6.17-9.47-3.02-2.53-5.4-3.59-5.93-3.22-.52.37,15.74,8.8,10.76,22.83Z"/>
      <path class="cls-2" d="M70.6,42.01c.21.47.43,1.12,1.17.6.74-.51,1.97-6.42.44-10.35-1.53-3.93-2.88-6.55-5.77-8.89-2.89-2.34-5.19-3.28-5.71-2.91-.52.37,15.16,7.96,9.87,21.55Z"/>
      <path class="cls-3" d="M.59,86.38c-4-10.59,13.42-36.98,22.33-40.99,7.87-3.55,11.99,5.47,11.5,9.4-1.76,14.26,2.29,26.16-15.07,32.36-4.54,1.62-15.9,2.69-18.76-.77Z"/>
      <path class="cls-1" d="M.59,86.38c-2.73-7.22,4.5-21.78,12.2-31.59-.19.34-12.54,22.29-11.39,27.34,1.16,5.09,10.47-5.88,12.51-4.7,2.05,1.18-2.07,4.96-.26,6.46,1.81,1.5,27.43-22.89,18.15-36.61h0c1.95,2.3,2.86,5.54,2.62,7.51-1.76,14.26,2.29,26.16-15.07,32.36-4.54,1.62-15.9,2.69-18.76-.77Z"/>
      <path class="cls-5" d="M.59,86.38c-.43-1.14-.61-2.46-.58-3.92.01.83.25,2.87,2.29,2.73,2.56-.17,11.32-7.85,11.59-6.59.23,1.1-8.43,8.09-12.65,8.38-.25-.18-.46-.39-.64-.61Z"/>
      <path class="cls-7" d="M18.17,67.75c1.64-1.14,2.07-3.36.96-4.96-1.11-1.59-3.34-1.97-4.98-.83s-2.07,3.36-.96,4.96,3.34,1.97,4.98.83Z"/>
      <path class="cls-9" d="M15.27,66.54s-.97-1.51-.59-2.39-.24-2.17-.96-.83c-.72,1.34.11,3.75,1.54,3.22Z"/>
      <path class="cls-6" d="M7.76,66.69s3.26-11.15,10.54-17.04c14.49-11.72,16.17,13.23,8.56,10.68-4.09-1.37-5.55-4.8-8.83-3.45-3.27,1.35-11.52,13.97-10.27,9.81Z"/>
    </g>
  </g>
</svg>