<?xml version="1.0" encoding="UTF-8"?>
<svg id="Layer_2" data-name="Layer 2" xmlns="http://www.w3.org/2000/svg" viewBox="0 0 117.28 123.32">
  <defs>
    <style>
      .cls-1, .cls-2 {
        fill: #fff;
      }

      .cls-3 {
        fill: #f74d5a;
      }

      .cls-2 {
        font-family: CCRegenerationVariable-Regular, CCRegeneration;
        font-size: 8.4px;
        font-variation-settings: 'wght' 400, 'ital' 0;
      }

      .cls-4 {
        fill: #272d2d;
      }

      .cls-5 {
        fill: #d81f26;
      }

      .cls-6 {
        fill: #1c2121;
      }

      .cls-7 {
        fill: #826b37;
      }

      .cls-8 {
        fill: #ba000e;
      }

      .cls-9 {
        fill: #313a3a;
      }
    </style>
  </defs>
  <g id="Layer_1-2" data-name="Layer 1">
    <g>
      <path class="cls-1" d="M88.59,123.32c-4.71,0-8.88-2.58-11.03-6.57h-3.96c-2.14,3.98-6.32,6.57-11.03,6.57-1.74,0-3.43-.35-4.99-1.04-1.57.68-3.25,1.04-4.99,1.04-.34,0-.69-.02-1.05-.05-.36.03-.71.05-1.05.05-4.71,0-8.88-2.58-11.02-6.57h-1.85c-2.14,3.98-6.32,6.57-11.03,6.57-.34,0-.69-.02-1.05-.05-.36.03-.71.05-1.05.05-6.14,0-11.28-4.46-12.34-10.31-3.86-3.13-6.11-7.8-6.11-12.85V16.81C2.54,15.72,0,12.45,0,8.6,0,3.86,3.86,0,8.6,0h100.08c4.74,0,8.6,3.86,8.6,8.6,0,3.35-1.93,6.26-4.73,7.68v83.89c0,7.72-5.39,14.34-12.69,16.11-2.05,4.25-6.37,7.04-11.27,7.04Z"/>
      <g>
        <g>
          <circle class="cls-6" cx="62.58" cy="110.78" r="8.54"/>
          <circle class="cls-6" cx="88.59" cy="110.78" r="8.54"/>
        </g>
        <path class="cls-5" d="M48.66,6.63h59.89v93.54c0,6.95-5.64,12.59-12.59,12.59h-34.72c-6.95,0-12.59-5.64-12.59-12.59V6.63h0Z"/>
        <path class="cls-8" d="M10.04,6.63h59.89v93.54c0,6.95-5.64,12.59-12.59,12.59H22.63c-6.95,0-12.59-5.64-12.59-12.59V6.63h0Z"/>
        <path class="cls-3" d="M108.68,13.19H8.6c-2.54,0-4.6-2.06-4.6-4.6h0c0-2.54,2.06-4.6,4.6-4.6h100.09c2.54,0,4.6,2.06,4.6,4.6h0c0,2.54-2.06,4.6-4.6,4.6Z"/>
        <path class="cls-5" d="M69.54,13.19H8.6c-2.54,0-4.6-2.06-4.6-4.6h0c0-2.54,2.06-4.6,4.6-4.6h60.94c2.54,0,4.6,2.06,4.6,4.6h0c0,2.54-2.06,4.6-4.6,4.6Z"/>
        <g>
          <g>
            <circle class="cls-4" cx="26.59" cy="110.78" r="8.54"/>
            <circle class="cls-9" cx="24.49" cy="110.78" r="8.54"/>
            <path class="cls-7" d="M24.49,115.38c-2.53,0-4.6-2.06-4.6-4.6s2.06-4.6,4.6-4.6,4.6,2.06,4.6,4.6-2.06,4.6-4.6,4.6Z"/>
          </g>
          <g>
            <circle class="cls-4" cx="52.6" cy="110.78" r="8.54"/>
            <circle class="cls-9" cx="50.5" cy="110.78" r="8.54"/>
            <path class="cls-7" d="M50.5,115.38c-2.53,0-4.6-2.06-4.6-4.6s2.06-4.6,4.6-4.6,4.6,2.06,4.6,4.6-2.06,4.6-4.6,4.6Z"/>
          </g>
        </g>
        <g>
          <path class="cls-1" d="M26.45,65.01c.1.18.25.35.43.5.04-.02.08-.04.11-.07-.1-.17-.14-.36-.14-.57,0-.28.1-.59.29-.92l2.34-4.02,1.71-2.97c.25-.43.8-.58,1.23-.33h0c.69.4,1.53-.24,1.32-1.01l-1.45-5.43c-.13-.48-.62-.76-1.1-.64l-5.44,1.46c-.77.21-.91,1.24-.22,1.65h.02c.43.26.57.81.33,1.24l-2.05,3.54c-.48.83-.48,2.2,0,3.03l2.62,4.54Z"/>
          <path class="cls-1" d="M27.73,63.89c-.19.33-.28.64-.29.92,0,.42.18.76.54.97.2.1.42.17.63.21.04,0,.08.01.13.01h.44s7.09,0,7.09,0c.5,0,.9-.4.9-.9v-4.34c0-.5-.4-.9-.9-.9h-5.68c-.32,0-.62.17-.78.45l-2.08,3.57Z"/>
          <path class="cls-1" d="M46.74,43.58c-.43.24-.98.1-1.23-.33l-2.29-4c-.34-.59-1.16-1.07-1.84-1.07l-5.76-.02c-.23,0-.48.06-.72.15v.11c.21-.01.43.04.63.17.24.14.46.38.65.71l2.3,4.04,1.71,2.97c.25.43.1.98-.33,1.23h0c-.7.4-.56,1.44.21,1.65l5.42,1.47c.48.13.97-.15,1.1-.63l1.47-5.43c.21-.77-.62-1.41-1.31-1.02h-.02Z"/>
          <path class="cls-1" d="M35.78,39.53c-.19-.33-.41-.57-.65-.71-.36-.22-.75-.23-1.11-.03-.18.12-.35.27-.49.42-.04.06-.08.12-.12.17l-.19.32-3.56,6.13c-.25.43-.1.98.33,1.23l1.16.67,2.6,1.51c.43.25.98.1,1.23-.33l2.86-4.91c.16-.28.16-.62,0-.9l-2.04-3.59Z"/>
          <path class="cls-1" d="M48.78,60.05l-3.55.03c-.5,0-.9-.4-.91-.89v-.09c0-.8-.98-1.2-1.54-.62l-4.12,4.18c-.35.35-.34.92,0,1.27l4.19,4.13c.57.56,1.53.15,1.53-.65v-.11c0-.5.4-.9.89-.9l4.77-.04c.7,0,1.54-.5,1.89-1.11l2.92-5.16c.2-.35.28-.82.24-1.27,0,.43-.21.77-.58.99-.25.14-.58.22-.97.22l-4.78.02Z"/>
          <path class="cls-1" d="M53.36,59.58c.39,0,.72-.08.97-.22.38-.21.58-.56.58-.99-.02-.23-.06-.46-.14-.67-.02-.04-.04-.08-.05-.12l-.22-.4-3.71-6.31c-.25-.43-.8-.57-1.23-.32l-1.21.71-2.69,1.58c-.43.25-.57.8-.32,1.23l2.98,5.07c.16.28.46.45.78.44l4.26-.02Z"/>
        </g>
        <text class="cls-2" transform="translate(34.11 80.35)"><tspan x="0" y="0">B3</tspan></text>
      </g>
      <text class="cls-2" transform="translate(34.11 80.35)"><tspan x="0" y="0">B3</tspan></text>
    </g>
  </g>
</svg>